<?xml version="1.0" encoding="utf-8"?>
<!-- Generator: Adobe Illustrator 24.3.0, SVG Export Plug-In . SVG Version: 6.00 Build 0)  -->
<svg version="1.1" id="Layer_1" xmlns="http://www.w3.org/2000/svg" xmlns:xlink="http://www.w3.org/1999/xlink" x="0px" y="0px"
	 width="2000px" height="1300px" viewBox="0 0 2000 1300" style="enable-background:new 0 0 2000 1300;" xml:space="preserve">
<g>
	<rect style="fill:#DCEAF9;" width="2000" height="1300"/>
</g>
<rect y="1126.4" style="fill:#8E97BF;" width="2000" height="173.6"/>
<g>
	<g>
		<g>
			<g>
				
					<rect x="1624.9" y="376.9" transform="matrix(-1 -1.224647e-16 1.224647e-16 -1 3624.9075 1556.877)" style="fill:#FFFFFF;" width="375.1" height="803.1"/>
			</g>
			<g>
				
					<rect x="1640.9" y="397.9" transform="matrix(-1 -1.224647e-16 1.224647e-16 -1 3624.4219 1185.4996)" style="fill:#FFFFFF;" width="342.6" height="389.7"/>
			</g>
			<g>
				<g>
					<path style="fill:#D7E1FC;" d="M1986,1153.9h-347v-352h347V1153.9z M1643.3,1149.4h338.3V806.3h-338.3V1149.4z"/>
				</g>
			</g>
			<g>
				
					<rect x="1624.9" y="335.7" transform="matrix(-1 -1.224647e-16 1.224647e-16 -1 3624.9075 711.676)" style="fill:#FFFFFF;" width="375.1" height="40.2"/>
			</g>
			<g>
				
					<rect x="1624" y="376" transform="matrix(-1 -1.224647e-16 1.224647e-16 -1 3624.0054 765.8795)" style="fill:#D7E1FC;" width="376" height="14"/>
			</g>
		</g>
		<g>
			<g>
				<g>
					<polygon style="fill:#BBE4FC;" points="1823.4,410.5 1872.5,410.5 1973,475.4 1973,701.9 1823.4,569.9 					"/>
				</g>
				<g>
					<polygon style="fill:#BBE4FC;" points="1811.4,410.5 1811.4,559.4 1651.9,418.6 1651.9,410.5 					"/>
				</g>
			</g>
			<g>
				<g>
					<polygon style="fill:#9AD0F4;" points="1823.4,569.9 1973,701.9 1973,773 1823.4,773 					"/>
				</g>
				<g>
					<polygon style="fill:#9AD0F4;" points="1811.4,559.4 1811.4,773 1651.9,773 1651.9,418.6 					"/>
				</g>
			</g>
			<g>
				<g>
					<polygon style="fill:#9AD0F4;" points="1973,410.5 1973,475.4 1872.5,410.5 					"/>
				</g>
			</g>
		</g>
	</g>
	<g>
		<g>
			<g>
				<g>
					<path style="fill:#63A5D3;" d="M1942.3,268.8c0.3,8.6,1.5,18.2-3.4,24.7c-5.6,7.6-16.3,6.5-23.6,11.9c-1.9,1.4-3.2,3-4.3,4.7
						h-10.7c1-8.1,4.3-16.2,8-19.6c3.6-3.3,8.2-4.9,11.4-8.6c5.7-6.7,4.9-17.5,7.2-26.5c3.7-14.3,15.6-23.6,27.6-29.3
						C1945.6,237.4,1941.8,253.3,1942.3,268.8z"/>
				</g>
				<path style="fill:#9AD0F4;" d="M1911.1,296.3c-2.6,3.1-4.9,8-7,13.8h-13.8c-0.4-4.3-0.7-8-0.8-10.6c-1.2-16.6-2-34.8,7.6-48.2
					c5.4-7.5,13.6-12.8,18.2-20.8c3.6-6.2,4.7-13.6,4.9-20.8c0.2-6.4-0.3-12.9-1.7-19.1c-1-4.4-2.8-10.5-4.1-15.8
					c8.9,10.6,16.1,24.2,20.6,37.3c5.5,16,6.6,34,0.3,49.7C1930.1,275,1920.1,285.5,1911.1,296.3z"/>
				<g>
					<path style="fill:#63A5D3;" d="M1907.1,310.1h-15.8c-2.1-14.7-8.9-28.7-15.9-42c-6.1-11.5-12.7-23.8-11.7-36.8
						c1.3-17.2,15.1-30.2,28-41.4c-6.8,11.8-4.6,26.9,0.4,39.6c5,12.7,12.5,24.4,16.3,37.5c3.7,12.6,3.6,26.3,0,39
						C1908,307.3,1907.6,308.7,1907.1,310.1z"/>
				</g>
				<path style="fill:#9AD0F4;" d="M1887.7,310.1c-0.6-0.4-1.2-0.9-1.9-1.2c-8.9-5.1-21.2-3.1-28.3-10.5c-6.1-6.3-5.5-16.4-5.9-25.2
					c-0.7-16-6.4-32.1-17.8-43.1c14.4,5,29,13.7,34.4,28.2c3.5,9.1,3.3,20.3,10.5,26.8c4,3.6,9.6,4.9,14,8
					c4.2,2.9,8.2,9.8,10.3,17.1H1887.7z"/>
			</g>
		</g>
		<path style="fill:#FFFFFF;" d="M1920.1,307.6h-38.6c-2.2,0-3.9,1.8-3.9,4v20c0,2.2,1.8,4,3.9,4h38.6c2.2,0,3.9-1.8,3.9-4v-20
			C1924,309.3,1922.2,307.6,1920.1,307.6z"/>
	</g>
</g>
<g>
	<g>
		<path style="fill:#000543;" d="M1617.3,989.2c2.3,6.9,4.7,13.7,7,20.6c3.1,9.1,6.2,18.2,10.1,27c5.4,12.3,12.2,24,16.1,36.8
			c2.9,9.5,4.1,19.5,6.8,29.1c4.1,14.7,11.3,28.3,17.2,42.5c5.8,14.1,8.2,32.4,6.1,47.6c-0.3,2-0.6,2.4-2.5,2.1
			c-1.3-0.2-0.7-2.6-1.2-3.8c-26.9-63.7-51.1-128.6-72.4-194.4c-4.7-14.4-9.2-29-10.9-44.2c-0.3-3.1-0.5-6.3,0.5-9.3
			c1-3,3.4-5.6,6.5-6c8.5-1,6.9,15.8,7.9,20.9C1610.3,968.8,1613.8,979,1617.3,989.2z"/>
		<path style="fill:#000543;" d="M1501.4,1004.4c0.4,8.5,2.3,16.8,3.4,25.2c2.4,19.7,0,39.7,1,59.5c1.6,34.3,13.3,68.6,7.3,102.5
			c-1.2-4.8-1.8-9.8-2.4-14.7c-9.1-74.1-18.2-148.5-18-223.2c0-3.1,0.1-6.6,2.2-8.9c9-10.3,9.4,17.2,9.3,20.3
			C1503.8,978.2,1500.8,991.2,1501.4,1004.4z"/>
		<path style="fill:#FFFFFF;" d="M1601.5,730.2c1.6,10.7,5.2,21,6.6,31.8c2.8,20.9-2.7,42.1-2.3,63.2c0.4,21.1,6.6,41.7,9.9,62.6
			c3.3,20.9,3.3,43.6-7.6,61.6c-6.5-93.1-13-186.2-19.5-279.3c-0.5-7.8-1.1-20.5,6.1-25.9c8.6-6.5,8.7,1.3,8.6,8.6
			C1602.9,678.2,1597.8,704.9,1601.5,730.2z"/>
		<path style="fill:#FFFFFF;" d="M1714.7,713c-8-1.8-16-3.7-23.6-6.9c-8.2-3.4-14.5-6.6-23-9.2c-9.2-2.8-20.3-4.4-29.4-7.5
			c-11.5-3.9-20.9-12.9-27.5-23.3c-6.5-10.4-10.5-22.2-14-34c-1.2-4-2.1-8.9,0.6-12.1c3.9-4.5,11.4-1.5,15.6,2.7
			c6.9,6.9,10.9,16,16.4,24c14,20,36.8,31.6,59.2,40.9c11.2,4.7,22.5,9,33.4,14.3c6.1,3,26.9,11.2,27,18.9
			C1738,719.3,1726.2,715.6,1714.7,713z"/>
		<path style="fill:#FFFFFF;" d="M1399.8,655c-2.1,3.2-4.6,6.1-6.2,9.6c-1.3,2.8-2,6-3.5,8.6c-2.2,3.7-6,6.2-9.6,8.5
			c7-18.3,13.9-36.6,20.9-54.9c1.4-3.6,3.9-8.8,8.3-8.3C1413.1,629.2,1405.5,646.4,1399.8,655z"/>
		<polygon style="fill:#FF9985;" points="1283.2,528.1 1296.7,545.4 1282.2,555.6 1270.8,538.5 		"/>
		<g>
			<polygon style="fill:#FF9985;" points="1661.8,1169.5 1677.3,1223.6 1655.2,1228.1 1643.8,1217.5 1644.8,1215 1632.3,1175.5 			
				"/>
		</g>
		<g>
			<g>
				<path style="fill:#88DCE5;" d="M1645.7,1213.1l-30.2,10.4c-7.4,2.5-8.8,7.8-5.9,11.7l70.1-1.7l-2.8-15.6
					c-0.5-2.8-2.9-4.8-5.7-4.8H1645.7z"/>
				<path style="fill:#000543;" d="M1679.7,1233.6l0.8,2.6c0.5,1.6-1.5,3.2-4.1,3.2l-54.4,0.6c-5.9,0.1-10.2-2-12.3-4.8
					L1679.7,1233.6z"/>
			</g>
			<path style="fill:#000543;" d="M1670.6,1231.9h-9.6c-1.1,0-2-0.9-2-2v-1c0-1.1,0.9-2,2-2h9.6c1.1,0,2,0.9,2,2v1
				C1672.6,1231,1671.7,1231.9,1670.6,1231.9z"/>
		</g>
		<g>
			<polygon style="fill:#FF9985;" points="1495,1169.3 1496.8,1224.8 1474.1,1226.7 1465.6,1214.9 1467.1,1212.5 1464.7,1171.8 			
				"/>
		</g>
		<g>
			<g>
				<path style="fill:#88DCE5;" d="M1467.2,1212.8l-30.2,10.4c-7.4,2.5-8.8,7.8-5.9,11.7l70.1-1.7l-2.8-15.6
					c-0.5-2.8-2.9-4.8-5.7-4.8H1467.2z"/>
				<path style="fill:#000543;" d="M1501.1,1233.2l0.8,2.6c0.5,1.6-1.5,3.2-4.1,3.2l-54.4,0.6c-5.9,0.1-10.2-2-12.3-4.8
					L1501.1,1233.2z"/>
			</g>
			<path style="fill:#000543;" d="M1492.1,1231.5h-9.6c-1.1,0-2-0.9-2-2v-1c0-1.1,0.9-2,2-2h9.6c1.1,0,2,0.9,2,2v1
				C1494.1,1230.6,1493.2,1231.5,1492.1,1231.5z"/>
		</g>
		<g>
			<g>
				<path style="fill:#FF9985;" d="M1282.6,496.1c-1.8,0-3.3,1.5-3.4,3.4l-0.5,17.5c-0.1,1.9,1.4,3.6,3.2,3.6c1.8,0,3.3-1.5,3.4-3.4
					l0.5-17.5C1285.9,497.8,1284.5,496.2,1282.6,496.1z"/>
			</g>
			<path style="fill:#FF9985;" d="M1253.5,524c-1-2.7-1.8-5.5-1.3-7.8c0.4-1.8,1.4-3.1,2.6-4.2c2.9-3,6.3-5.6,10-7.6
				c3.4-1.8,8-3.1,12.4,0c4.3,2.9,6.9,7.8,7.9,12.5c1.9,8.9,2.4,12.1-0.3,19.1c-3.4,8.7-10,11.7-19.1,2.6
				C1261,533.7,1255.8,529.8,1253.5,524z"/>
			<g>
				<path style="fill:#FF9985;" d="M1273.3,508.7l-17.9-17.5c-1.2-1.2-1.2-3.2-0.1-4.4c1.2-1.2,3.1-1.3,4.3-0.1l17.9,17.5
					c1.2,1.2,1.2,3.2,0.1,4.4C1276.5,509.8,1274.5,509.8,1273.3,508.7z"/>
			</g>
			<g>
				<path style="fill:#FF9985;" d="M1265.8,513l-17.9-17.5c-1.2-1.2-1.2-3.2-0.1-4.4c1.2-1.2,3.1-1.3,4.3-0.1l17.9,17.5
					c1.2,1.2,1.2,3.2,0.1,4.4C1268.9,514.1,1267,514.1,1265.8,513z"/>
			</g>
			<g>
				<path style="fill:#FF9985;" d="M1261.8,522.1l-17.9-17.5c-1.2-1.2-1.2-3.2-0.1-4.4c1.2-1.2,3.1-1.3,4.3-0.1l17.9,17.5
					c1.2,1.2,1.2,3.2,0.1,4.4C1265,523.3,1263.1,523.3,1261.8,522.1z"/>
			</g>
			<g>
				<path style="fill:#FF9985;" d="M1261.4,531.7l-17.9-17.5c-1.2-1.2-1.2-3.2-0.1-4.4c1.2-1.2,3.1-1.3,4.3-0.1l17.9,17.5
					c1.2,1.2,1.2,3.2,0.1,4.4C1264.5,532.8,1262.6,532.9,1261.4,531.7z"/>
			</g>
		</g>
		<path style="fill:#000543;" d="M1500.6,926.7c-1.7,91.9-2.5,170.3,14.6,258.2c1.5,7.5-4.3,14.4-11.8,14.2l-41.2-0.8
			c-4.7-0.1-8.6-3.6-9.4-8.3c-19.1-124.4-26.1-191.3-32.1-263.3H1500.6z"/>
		<path style="fill:#000543;" d="M1603.3,935.3c0.3,24.2,8.1,48.6,25.5,94.1c15.8,41.3,34.9,109,50.8,156.7
			c3.1,9.2-2.3,16.6-12,16.5l-34.5-0.7c-7.7-0.1-14.5-4.9-17.5-12c-17.1-41.5-29.8-69.7-49.8-112.8c-26.4-57-42.3-91.5-45.1-130.9
			c-0.2-3.5-0.4-6.9-0.5-10.4l-0.4-9.1h83.2L1603.3,935.3z"/>
		<path style="fill:#FFFFFF;" d="M1354,674l3.4-62.8c0,0-3.3-1.1-3.3-1.1l31.5-93.4c1.2-4.1,7.9-11.4,12.5-13.5
			c2.1-1,3.9-1.1,5.3-0.4l37.8,14.4l-52.2,154.9c-2.2,8.1-8.6,14.3-16.3,15.7c-1.1,0.2-2.3,0.3-3.3,0.3c-7,0-13.1-4.1-18.2-12.4
			L1354,674z"/>
		<g>
			
				<rect x="1416.6" y="784.4" transform="matrix(-1 -1.224647e-16 1.224647e-16 -1 2968.2183 1719.2761)" style="fill:#A5D1F5;" width="135" height="150.5"/>
			<path style="fill:#0959A7;" d="M1553.8,937.1h-139.3V782.2h139.3V937.1z M1418.8,932.7h130.6v-146h-130.6V932.7z"/>
		</g>
		<path style="fill:#6AC3D1;" d="M1465.3,465.6c1-0.2,2.1-0.4,3.1-0.6c2.5-0.5,4.9-1,7.5-1.4c22.1-3.7,46.1-4.3,68.6-3.5l-5.4,341.5
			c-1.7,0-3.5-0.1-5.2-0.1c-32.8-0.8-65.6-1.5-98.4-2.3l29.1-333.4C1464.8,465.7,1465,465.7,1465.3,465.6z"/>
		<path style="fill:#FFFFFF;" d="M1384.5,518.9c12.9-45.6,80-53.1,80-53.1l21,186.6l59-192.2c2.3,0.1,4.6,0.2,6.9,0.3
			c5.3,0.3,10.5,0.6,15.6,1c31.7,4.2,61.6,42.1,46.6,96.5l-14.9,130.2c-1.3,11.3-1.6,22.7-0.8,34.1l14,215.7
			c0.7,8.3-1.5,10.9-9.7,10.9l-175.1,0.3c-11,0-20-8.9-20.2-20l-5.8-324.7L1384.5,518.9z"/>
		<g>
			<path style="fill:#D7E1FC;" d="M1427.6,951.7c-12.1,0-22.2-10-22.4-22.2l-5.8-332.5c0-1.2,0.9-2.2,2.1-2.2
				c1.3-0.1,2.2,0.9,2.2,2.2l5.8,332.5c0.2,9.9,8.3,17.9,18,17.9c1.2,0,2.2,1,2.2,2.2C1429.8,950.7,1428.7,951.6,1427.6,951.7z"/>
		</g>
		<g>
			<path style="fill:#D7E1FC;" d="M1480.5,627.1c-0.9,0-1.8-0.6-2.1-1.6l-30.2-105.1c-1-3.4,0.3-7,3-9.1l5.2-3.9l1.3-2.3l-1.3,1.8
				l-11-7.9c-2.5-1.8-3.2-5.2-1.6-7.8l17.1-26.4c0.7-1,2-1.3,3-0.6c1,0.7,1.3,2,0.6,3.1l-17.1,26.4c-0.4,0.6-0.2,1.4,0.4,1.8l11,7.9
				c1.2,0.9,2,2.3,2,3.8c0,1.5-0.7,2.9-1.9,3.8l-5.2,3.9c-1.3,1-1.9,2.7-1.4,4.3l30.2,105.1c0.3,1.2-0.3,2.4-1.5,2.7
				C1480.9,627.1,1480.7,627.1,1480.5,627.1z"/>
		</g>
		<g>
			<path style="fill:#D7E1FC;" d="M1411,570.4h29.1c3.6,0,6.5-2.9,6.5-6.5v-11.7c0-3.6-2.9-6.5-6.5-6.5H1411c-3.6,0-6.5,2.9-6.5,6.5
				v11.7C1404.5,567.5,1407.4,570.4,1411,570.4z"/>
		</g>
		<g>
			<path style="fill:#FFFFFF;" d="M1425.5,538.5v5.7V538.5z"/>
			<path style="fill:#0959A7;" d="M1425.5,546.4c-1.2,0-2.2-1-2.2-2.2v-5.7c0-1.2,1-2.2,2.2-2.2s2.2,1,2.2,2.2v5.7
				C1427.7,545.4,1426.7,546.4,1425.5,546.4z"/>
		</g>
		<g>
			<path style="fill:#D7E1FC;" d="M1496.2,623.4c-0.3,0-0.7-0.1-1-0.3c-1.1-0.6-1.5-1.9-0.9-3l50.5-96.9c0.8-1.5,0.5-3.3-0.5-4.5
				l-4.3-4.9c-1-1.1-1.4-2.7-1.1-4.1c0.3-1.5,1.3-2.7,2.7-3.3l12.4-5.5c0.7-0.3,1-1.1,0.7-1.7l-12.1-37.3c-0.4-1.2,0.2-2.4,1.4-2.8
				c1.1-0.4,2.4,0.3,2.8,1.4l12.1,37.2c1,2.8-0.3,6-3.1,7.2l-12.4,5.5c0,0-0.1,0.5-0.1,0.5l4.3,4.9c2.3,2.6,2.8,6.4,1.2,9.5
				l-50.5,96.9C1497.8,623,1497,623.4,1496.2,623.4z"/>
		</g>
		<g>
			<g>
				<path style="fill:#6D72A0;" d="M1546.7,603.8l-4-1.7c27.9-69.4-9.5-138.4-9.8-139.1l3.8-2.2
					C1537,461.6,1575.4,532.4,1546.7,603.8z"/>
			</g>
			<path style="fill:#6D72A0;" d="M1534.7,604.6c0.8,6.1,6.4,10.3,12.4,9.4c6-0.9,10.2-6.5,9.3-12.5c-0.8-6.1-6.4-10.3-12.4-9.4
				C1538,592.9,1533.8,598.5,1534.7,604.6z"/>
		</g>
		<g>
			<path style="fill:#D7E1FC;" d="M1435.9,584.8h-32.4c-1.2,0-2.2-1-2.2-2.2c0-1.2,1-2.2,2.2-2.2h32.4c1.2,0,2.2,1,2.2,2.2
				C1438.1,583.8,1437.2,584.8,1435.9,584.8z"/>
		</g>
		<g>
			<g>
				<path style="fill:#6D72A0;" d="M1445.4,634.6v-4.4c5.2,0,5.7-5.5,5.7-7.9V561c0-4.3-3.5-7.9-7.8-7.9s-7.8,3.5-7.8,7.9v61.4
					c0,7.2,2.4,7.9,4.6,7.9v4.4c-5.9,0-8.9-4.1-8.9-12.3V561c0-6.8,5.4-12.3,12.1-12.3s12.1,5.5,12.1,12.3v61.4
					C1455.5,629.8,1451.5,634.6,1445.4,634.6z"/>
			</g>
			<g>
				<path style="fill:#6D72A0;" d="M1439.6,550.2c-0.9-45.4,21.9-83,22.2-83.4l3.7,2.3c-0.2,0.4-22.4,36.9-21.5,80.9L1439.6,550.2z"
					/>
			</g>
			<path style="fill:#452A51;" d="M1443.1,632.2c0,1.4,1.1,2.5,2.5,2.5c1.4,0,2.5-1.1,2.5-2.5c0-1.4-1.1-2.5-2.5-2.5
				C1444.2,629.7,1443.1,630.8,1443.1,632.2z"/>
			<path style="fill:#452A51;" d="M1437.5,632.4c0,1.4,1.1,2.5,2.5,2.5c1.4,0,2.5-1.1,2.5-2.5c0-1.4-1.1-2.5-2.5-2.5
				C1438.6,629.9,1437.5,631,1437.5,632.4z"/>
		</g>
		<g>
			<path style="fill:#F9D1B7;" d="M1486.8,710.1c-4.1,0-7.4-3.3-7.4-7.5c0-4.1,3.3-7.5,7.4-7.5c4.1,0,7.4,3.3,7.4,7.5
				C1494.1,706.8,1490.8,710.1,1486.8,710.1z M1486.8,699.6c-1.7,0-3,1.4-3,3c0,1.7,1.3,3,3,3c1.7,0,3-1.4,3-3
				C1489.8,701,1488.4,699.6,1486.8,699.6z"/>
		</g>
		<g>
			<path style="fill:#F9D1B7;" d="M1487.1,747c-4.1,0-7.4-3.3-7.4-7.5c0-4.1,3.3-7.5,7.4-7.5c4.1,0,7.4,3.3,7.4,7.5
				C1494.4,743.7,1491.1,747,1487.1,747z M1487.1,736.5c-1.7,0-3,1.4-3,3c0,1.7,1.3,3,3,3c1.7,0,3-1.4,3-3
				C1490.1,737.9,1488.7,736.5,1487.1,736.5z"/>
		</g>
		<path style="fill:#FFFFFF;" d="M1306.5,535.2l57.8,79.4l-3.5,59.2c-0.1,2.3-1.6,4.1-3.8,4.8c-0.5,0.1-1,0.2-1.5,0.2
			c-1.6,0-3.2-0.8-4.2-2.2l-77.6-108.7c-3.9-5.4-2.9-13,2.2-17.2l20.3-16.8C1299.3,531.3,1304,531.9,1306.5,535.2z"/>
		<path style="fill:#FFFFFF;" d="M1587.8,584.4l29.8,78.9c3.4,8.6,9.4,11.9,15.3,14.1l135.4,59c0.6,1.6,1.9,2.5,3.3,2.8
			c0.2,0,0.4,0,0.6,0c1.8,0,3.5-1.3,3.9-3.1c0.2-0.7,0.2-1.4,0-2.1l19.7-21.7l0.2-1.1c1-7.1-2.8-14-9.2-16.8L1674,643.9
			c-7.2-3.2-12.9-9.3-15.6-16.8l-44.7-123.9l-3.3,1.2l-3.3,1.2l1.8,4.9l-18,72.6C1591,583.1,1587.8,584.4,1587.8,584.4z M1770.1,737
			l1.4-2.3c0,0.2-1,2.5-1,2.5C1770.3,737.2,1770.2,737.1,1770.1,737z"/>
		<g>
			<path style="fill:#6D72A0;" d="M1746.7,766l-74.9-28c-6.5-2.4-9.8-9.7-7.4-16.3l44.1-120.4c2.4-6.6,9.6-9.9,16.1-7.5l74.9,28
				c6.5,2.4,9.8,9.7,7.4,16.3l-44.1,120.4C1760.4,765.1,1753.2,768.4,1746.7,766z"/>
			<g>
				<path style="fill:#FFFFFF;" d="M1724.5,601c-3.3-1.2-6.9,0.5-8.1,3.8l-40.3,110.1c-1.2,3.3,0.5,7,3.7,8.2l70.5,26.4
					c3.3,1.2,6.9-0.5,8.1-3.8l40.1-109.4c1.3-3.6-0.5-7.7-4.1-9L1724.5,601z"/>
				<g>
					<g>
						<g>
							<g>
								<path style="fill:#D7E1FC;" d="M1754.7,648.2l-33.3-12.5c-1-0.4-1.4-1.8-0.9-3.2c0.5-1.4,1.7-2.2,2.7-1.8l33.3,12.5
									c1,0.4,1.4,1.8,0.9,3.2C1756.9,647.7,1755.7,648.6,1754.7,648.2z"/>
							</g>
						</g>
						<g>
							<g>
								<path style="fill:#D7E1FC;" d="M1774.7,655.7l-11.5-4.3c-1-0.4-1.4-1.8-0.9-3.2c0.5-1.4,1.7-2.2,2.7-1.8l11.5,4.3
									c1,0.4,1.4,1.8,0.9,3.2C1776.9,655.2,1775.7,656,1774.7,655.7z"/>
							</g>
						</g>
						<g>
							<g>
								<path style="fill:#D7E1FC;" d="M1738.1,652.3l33.3,12.5c1,0.4,2.2-0.4,2.7-1.8c0.5-1.4,0.1-2.8-0.9-3.2l-33.3-12.5
									c-1-0.4-2.2,0.4-2.7,1.8C1736.7,650.5,1737.1,651.9,1738.1,652.3z"/>
							</g>
						</g>
						<g>
							<g>
								<path style="fill:#D7E1FC;" d="M1715.7,654.5l50.6,18.9c1.5,0.6,3.2-0.1,3.7-1.5c0.5-1.4-0.3-3-1.8-3.5l-50.6-18.9
									c-1.5-0.6-3.2,0.1-3.7,1.5C1713.3,652.3,1714.1,653.9,1715.7,654.5z"/>
							</g>
						</g>
						<g>
							<g>
								<path style="fill:#D7E1FC;" d="M1718.1,644.8l11.5,4.3c1,0.4,2.2-0.4,2.7-1.8c0.5-1.4,0.1-2.8-0.9-3.2l-11.5-4.3
									c-1-0.4-2.2,0.4-2.7,1.8C1716.7,643,1717.1,644.5,1718.1,644.8z"/>
							</g>
						</g>
					</g>
					<g>
						<g>
							<g>
								<path style="fill:#D7E1FC;" d="M1734.4,702.6l-33.3-12.5c-1-0.4-1.4-1.8-0.9-3.2c0.5-1.4,1.7-2.2,2.7-1.8l33.3,12.5
									c1,0.4,1.4,1.8,0.9,3.2C1736.6,702.2,1735.4,703,1734.4,702.6z"/>
							</g>
						</g>
						<g>
							<g>
								<path style="fill:#D7E1FC;" d="M1754.4,710.1l-11.5-4.3c-1-0.4-1.4-1.8-0.9-3.2c0.5-1.4,1.7-2.2,2.7-1.8l11.5,4.3
									c1,0.4,1.4,1.8,0.9,3.2C1756.6,709.6,1755.4,710.4,1754.4,710.1z"/>
							</g>
						</g>
						<g>
							<g>
								<path style="fill:#D7E1FC;" d="M1717.7,706.7l33.3,12.5c1,0.4,2.2-0.4,2.7-1.8s0.1-2.8-0.9-3.2l-33.3-12.5
									c-1-0.4-2.2,0.4-2.7,1.8C1716.3,704.9,1716.7,706.3,1717.7,706.7z"/>
							</g>
						</g>
						<g>
							<g>
								<path style="fill:#D7E1FC;" d="M1695.4,708.9l50.6,18.9c1.5,0.6,3.2-0.1,3.7-1.5c0.5-1.4-0.3-3-1.8-3.5l-50.6-18.9
									c-1.5-0.6-3.2,0.1-3.7,1.5C1693,706.7,1693.8,708.3,1695.4,708.9z"/>
							</g>
						</g>
						<g>
							<g>
								<path style="fill:#D7E1FC;" d="M1697.8,699.3l11.5,4.3c1,0.4,2.2-0.4,2.7-1.8c0.5-1.4,0.1-2.8-0.9-3.2l-11.5-4.3
									c-1-0.4-2.2,0.4-2.7,1.8C1696.4,697.5,1696.8,698.9,1697.8,699.3z"/>
							</g>
						</g>
					</g>
					<g>
						<g>
							<g>
								<path style="fill:#D7E1FC;" d="M1744.8,675.2l-33.3-12.5c-1-0.4-1.4-1.8-0.9-3.2c0.5-1.4,1.7-2.2,2.7-1.8l33.3,12.5
									c1,0.4,1.4,1.8,0.9,3.2C1747,674.8,1745.8,675.6,1744.8,675.2z"/>
							</g>
						</g>
						<g>
							<g>
								<path style="fill:#D7E1FC;" d="M1764.8,682.7l-11.5-4.3c-1-0.4-1.4-1.8-0.9-3.2c0.5-1.4,1.7-2.2,2.7-1.8l11.5,4.3
									c1,0.4,1.4,1.8,0.9,3.2C1767,682.3,1765.8,683.1,1764.8,682.7z"/>
							</g>
						</g>
						<g>
							<g>
								<path style="fill:#D7E1FC;" d="M1728.2,679.3l33.3,12.5c1,0.4,2.2-0.4,2.7-1.8c0.5-1.4,0.1-2.8-0.9-3.2l-33.3-12.5
									c-1-0.4-2.2,0.4-2.7,1.8C1726.7,677.6,1727.1,679,1728.2,679.3z"/>
							</g>
						</g>
						<g>
							<g>
								<path style="fill:#D7E1FC;" d="M1704.8,681.1l33.3,12.5c1,0.4,2.2-0.4,2.7-1.8c0.5-1.4,0.1-2.8-0.9-3.2l-33.3-12.5
									c-1-0.4-2.2,0.4-2.7,1.8C1703.4,679.3,1703.8,680.8,1704.8,681.1z"/>
							</g>
						</g>
						<g>
							<g>
								<path style="fill:#D7E1FC;" d="M1708.2,671.9l11.5,4.3c1,0.4,2.2-0.4,2.7-1.8c0.5-1.4,0.1-2.8-0.9-3.2l-11.5-4.3
									c-1-0.4-2.2,0.4-2.7,1.8C1706.8,670.1,1707.2,671.5,1708.2,671.9z"/>
							</g>
						</g>
					</g>
				</g>
			</g>
			<path style="fill:#91B4DE;" d="M1773.3,625.3l-31-11.6c-2.3-0.9-3.5-3.5-2.7-5.9c0.9-2.4,3.5-3.6,5.8-2.7l31,11.6
				c2.3,0.9,3.5,3.5,2.7,5.9C1778.3,624.9,1775.7,626.1,1773.3,625.3z"/>
		</g>
		<g>
			<g>
				<path style="fill:#FF9985;" d="M1787.4,701.4c-1.4-0.6-2.1-2.3-1.5-3.8l3.6-8.5c0.6-1.5,2.3-2.1,3.8-1.5
					c1.4,0.6,2.1,2.3,1.5,3.8l-3.6,8.5C1790.5,701.4,1788.8,702,1787.4,701.4z"/>
				<path style="fill:#FF9985;" d="M1786.8,703.1l-0.2-0.1c-2.3-1-3.3-3.7-2.3-5.9l3.7-8.7c1-2.3,3.6-3.3,6.1-2.2
					c2.3,1,3.3,3.7,2.3,5.9l-3.7,8.7c-0.7,1.7-2.4,2.7-4.1,2.7C1788,703.4,1787.4,703.3,1786.8,703.1z M1791.2,689.7l-3.7,8.7
					c-0.2,0.5,0,1.1,0.5,1.3l0.2,0.1c0.5,0.2,1.1,0,1.3-0.5l3.7-8.7c0.2-0.5,0-1.1-0.7-1.4c-0.1-0.1-0.3-0.1-0.4-0.1
					C1791.7,689.1,1791.3,689.4,1791.2,689.7z"/>
			</g>
			<g>
				<g>
					<path style="fill:#FF9985;" d="M1784.9,730c-1,1.8-3.2,2.4-4.9,1.4l-15-8.3c-1.7-1-2.4-3.2-1.4-4.9c1-1.8,3.2-2.4,4.9-1.4
						l15,8.3C1785.2,726,1785.8,728.3,1784.9,730z"/>
					<path style="fill:#FF9985;" d="M1779.1,733l-15-8.3c-1.2-0.7-2.2-1.8-2.6-3.2c-0.4-1.4-0.2-2.8,0.4-4.1
						c0.7-1.3,1.8-2.2,3.2-2.6c1.4-0.4,2.8-0.2,4.1,0.4l15,8.3c2.6,1.4,3.5,4.7,2.1,7.3c-0.7,1.3-1.8,2.2-3.2,2.6
						c-0.5,0.1-1,0.2-1.5,0.2C1780.8,733.7,1779.9,733.4,1779.1,733z M1766.2,718.1c-0.5,0.1-0.9,0.5-1.1,0.9
						c-0.2,0.4-0.3,0.9-0.2,1.4c0.1,0.5,0.5,0.9,0.9,1.1l15,8.3c0.4,0.2,0.9,0.3,1.4,0.2c0.5-0.1,0.9-0.5,1.1-0.9
						c0.5-0.9,0.2-2.1-0.7-2.6l-15-8.3c-0.3-0.2-0.6-0.2-0.9-0.2C1766.5,718.1,1766.3,718.1,1766.2,718.1z"/>
				</g>
				<g>
					<path style="fill:#FF9985;" d="M1789.6,723.5c-1,1.8-3.2,2.4-4.9,1.4l-20.5-11.4c-1.7-1-2.4-3.2-1.4-4.9c1-1.8,3.2-2.4,4.9-1.4
						l20.5,11.4C1789.9,719.5,1790.5,721.8,1789.6,723.5z"/>
					<path style="fill:#FF9985;" d="M1783.9,726.5l-20.5-11.4c-1.2-0.7-2.2-1.8-2.6-3.2s-0.2-2.8,0.4-4.1c0.7-1.3,1.8-2.2,3.2-2.6
						c1.4-0.4,2.8-0.2,4.1,0.4L1789,717c1.2,0.7,2.2,1.8,2.6,3.2c0.4,1.4,0.2,2.8-0.4,4.1c-1,1.8-2.8,2.8-4.7,2.8
						C1785.5,727.2,1784.7,726.9,1783.9,726.5z M1788.1,722.7c0.2-0.4,0.3-0.9,0.2-1.4c-0.1-0.5-0.5-0.9-0.9-1.1l-20.5-11.4
						c-0.4-0.2-0.9-0.3-1.4-0.2c-0.5,0.1-0.9,0.5-1.1,0.9c-0.2,0.4-0.3,1-0.2,1.4c0.1,0.5,0.5,0.9,0.9,1.1l20.5,11.4
						C1786.4,723.9,1787.6,723.6,1788.1,722.7L1788.1,722.7z"/>
				</g>
				<g>
					<path style="fill:#FF9985;" d="M1796.6,709.8c-1,1.8-3.2,2.4-4.9,1.4l-20.5-11.4c-1.7-1-2.4-3.2-1.4-4.9c1-1.8,3.2-2.4,4.9-1.4
						l20.5,11.4C1796.9,705.8,1797.5,708,1796.6,709.8z"/>
					<path style="fill:#FF9985;" d="M1790.8,712.8l-20.5-11.4c-1.2-0.7-2.2-1.8-2.6-3.2c-0.4-1.4-0.2-2.8,0.4-4.1
						c0.7-1.3,1.8-2.2,3.2-2.6c1.4-0.4,2.8-0.2,4.1,0.4l20.5,11.4c2.6,1.4,3.5,4.7,2.1,7.3c-0.7,1.3-1.8,2.2-3.2,2.6
						c-0.5,0.1-1,0.2-1.5,0.2C1792.5,713.4,1791.6,713.2,1790.8,712.8z M1771.3,695.8c-0.2,0.4-0.3,1-0.2,1.4
						c0.1,0.5,0.5,0.9,0.9,1.1l20.5,11.4c0.4,0.2,0.9,0.3,1.4,0.2c0.5-0.1,0.9-0.5,1.1-0.9c0.5-0.9,0.2-2.1-0.7-2.6l-20.5-11.4
						c-0.3-0.2-0.6-0.2-0.9-0.2C1772.3,694.8,1771.6,695.1,1771.3,695.8z"/>
				</g>
				<g>
					<path style="fill:#FF9985;" d="M1792.9,716.5c-1,1.8-3.2,2.4-4.9,1.4l-22.4-12.4c-1.7-1-2.4-3.2-1.4-4.9c1-1.8,3.2-2.4,4.9-1.4
						l22.4,12.4C1793.3,712.5,1793.9,714.7,1792.9,716.5z"/>
					<path style="fill:#FF9985;" d="M1787.2,719.5l-22.4-12.4c-2.6-1.4-3.5-4.7-2.1-7.3c0.7-1.3,1.8-2.2,3.2-2.6
						c1.4-0.4,2.8-0.2,4.1,0.4l22.4,12.4c2.6,1.4,3.5,4.7,2.1,7.3c-1,1.8-2.8,2.8-4.7,2.8C1788.9,720.1,1788,719.9,1787.2,719.5z
						 M1790.7,713.1l-22.4-12.4c-0.4-0.2-0.9-0.3-1.4-0.2c-0.5,0.1-0.9,0.5-1.1,0.9c-0.5,0.9-0.2,2.1,0.7,2.6l22.4,12.4
						c0.9,0.5,2,0.2,2.5-0.8C1791.9,714.7,1791.6,713.6,1790.7,713.1z"/>
				</g>
			</g>
		</g>
		<g>
			<path style="fill:#000543;" d="M1446,349.4c0.9-1.1,2.2-1.9,3.1-3.1c1.9-2.7,1-6.3,1.2-9.5c0.2-3.2,3.7-7.1,5.9-5
				c-1.1-4.7-2.1-10.4,1.1-14.3c6-7.3,18.4,0.5,25.1-6.1c2-2,3.1-5,5.3-6.6c3.1-2.3,7.3-1,9.8,1.5c1.7,1.7,2.9,3.9,4,6.1
				c0.3,0.1,0.5,0.3,0.8,0.4c2.4,0.9,3.7,0.4,6.4-0.2c5.2-1.2,10,2.9,12.9,8.5c1.2,2.3,5.1-1,6.5,1.2c3.2,5,9.8,7.3,11.2,13.4
				c0.7,3.3-0.4,7,0.7,10.1c1.2,3.3,4.6,5.3,5.1,8.8c0.7,5.6-4.3,10.9-4.5,16.4c-0.1,2.6-2.4,5.1-2.5,6c-0.1,2.3-1,4.3-2.1,6
				c-0.8,6.2-2.2,13-4.4,20.7c-1.6,5.4-3.8,9.9-6.5,13.4c0,0-4.2,4.6-4.2,4.6c0.3-3.9,0.2-7.3-0.1-10.1c1.5-3.5,2.4-7.2,2.5-11.1
				c5.3-0.3,9.1-5.6,8.8-11.8c-0.3-6-4.5-10.6-9.3-10.7l-6.8,1.9c-21.8-2.6-16.5-26-36.3-28.7c-12.9-1.8-20.6,0.9-24.4,3
				c-2.5,5.1-3.8,10.9-3.6,17c-0.2-0.2-2.8-2.4-2.6-4.6c-0.1,0.1-0.2,0.1-0.2,0.2C1445.2,363.8,1442.1,354,1446,349.4z"/>
			<path style="fill:#FF9985;" d="M1479.9,351.2c19.9,2.7,14.5,26.1,36.3,28.7l6.8-1.9c4.9,0.1,9,4.7,9.3,10.7
				c0.3,6.2-3.5,11.5-8.6,11.8c-0.3,3.9-1.2,7.6-2.7,11c-5.5,13.1-19.3,22.4-33.7,23.2c-19.3,1.1-32.7-13.2-33.8-33.3l-1.6-29.4
				c0-0.3,0-0.7,0-1c-0.2-6.1,1.2-11.8,3.6-17C1459.2,352.1,1466.9,349.4,1479.9,351.2z"/>
			<g>
				<path style="fill:#FF9985;" d="M1488.4,471.4l-2.7-79.5c-0.1-3.6,2.6-6.6,6-6.7l25-0.9c3.4-0.1,6.3,2.7,6.5,6.3l2.7,79.4
					C1497.8,491.5,1488.5,475,1488.4,471.4z"/>
			</g>
			<g>
				<path style="fill:#000543;" d="M1482.7,367.6l7.9-0.4c1.2-0.1,2.2,0.9,2.2,2c0.1,1.2-0.8,2.2-2,2.2l-7.9,0.4
					c-1.2,0.1-2.2-0.9-2.2-2C1480.6,368.6,1481.5,367.6,1482.7,367.6z"/>
			</g>
			<g>
				<path style="fill:#000543;" d="M1451.3,368.7l7.9-0.4c1.2-0.1,2.2,0.9,2.2,2c0.1,1.2-0.8,2.2-2,2.2l-7.9,0.4
					c-1.2,0.1-2.2-0.9-2.2-2C1449.3,369.8,1450.2,368.8,1451.3,368.7z"/>
			</g>
			<g>
				<path style="fill:#000543;" d="M1457.1,379.8c0.1,2.1,1.3,3.7,2.6,3.7c1.3-0.1,2.4-1.8,2.2-3.9c-0.1-2.1-1.3-3.7-2.6-3.7
					C1458,376,1457,377.8,1457.1,379.8z"/>
			</g>
			<g>
				<path style="fill:#000543;" d="M1486.9,378.9c0.1,2.1,1.3,3.7,2.6,3.7c1.3-0.1,2.4-1.8,2.2-3.9c-0.1-2.1-1.3-3.7-2.6-3.7
					C1487.8,375,1486.8,376.8,1486.9,378.9z"/>
			</g>
			<path style="fill:#FA694F;" d="M1467.6,391.4l0.3-0.7c0.3,1.6,1.5,3,3.2,3.4l4.2,1c1.4,0.3,2.7-0.4,3.4-1.5l0.1,0.4
				c0.6,2.4-1.5,4.7-3.9,4.1l-4.2-1C1468.1,396.6,1466.7,393.9,1467.6,391.4z"/>
			<path style="fill:#FFFFFF;" d="M1487.3,405l-12,3.9C1475.3,408.9,1483.3,413.5,1487.3,405z"/>
		</g>
		<path style="fill:#88DCE5;" d="M1525.9,456.3c0,0-13,21.7-26.3,24.4l6.9,22.2c0,0,28.3-11.6,26.4-42.9L1525.9,456.3z"/>
		<path style="fill:#88DCE5;" d="M1488.2,459.3c0,0-1.7,16.1,11.4,21.3l-10.5,19.6c0,0-13.6-14.3-11.7-36.8L1488.2,459.3z"/>
		<path style="fill:#000543;" d="M1495.3,503.7c-0.6-0.4-1.1-0.9-1.5-1.7l-3.6-6.4c-2.5-4.4,0.1-11.5,4.1-11.1l8.2,0.7
			c4,0.3,5.5,7.7,2.3,11.7l-4.6,5.7c-0.4,0.5-0.8,0.8-1.2,1.1l4.6,137.6l-18.5,19.8l-12.7-21.6L1495.3,503.7z"/>
		<path style="fill:#FFFFFF;" d="M1366,561.2c-2.4,5.3-4.8,10.6-6.5,16.2c-1.3,4.7-2.1,9.5-2.8,14.2c-0.2,1.6-0.9,3.5-2.4,3.6
			c-1.1,0.1-2-0.9-2.7-1.8c-13.5-17.2-26.9-34.4-40.4-51.6c-2.6-3.3-7.5-6.8-10.3-3.8c-2.3,2.4-0.5,6.4,1.4,9.1
			c15,22.1,31,43.7,47.9,64.4c2.2,2.8,5.1,5.8,8.6,5.3c2.4-0.3,4.2-2.2,5.6-4.1c4.8-6.4,7.3-14.1,9.8-21.7
			c5.2-16.1,10.3-32.2,15.4-48.3c3.6-11.3,9.5-26.3,6.5-38.2c-7.7,1.2-11.2,15.5-14.1,21.8C1376.6,538.1,1371.3,549.6,1366,561.2z"
			/>
		<path style="fill:#FFFFFF;" d="M1295.2,602c2.4,3,5.1,5.7,7.4,8.7c4.8,6.3,7.7,13.9,11.8,20.7c2.2,3.5,4.7,6.8,7.2,10
			c4.1,5.3,8.3,10.7,12.4,16c8.2,10.6,16.3,22.7,28,29.1c-19-44.8-44.6-87.7-76.3-124.4c-1.5-1.8-3.5-3.7-5.8-3.5
			c-3.1,0.3-7.2,5-6.7,8c0.5,3.1,5.8,8.4,7.5,11.3C1285.5,586,1289.3,594.7,1295.2,602z"/>
		<g>
			<path style="fill:#D7E1FC;" d="M1671.2,701.3c-0.2,0-0.3,0-0.5-0.1c-53.1-12-63.3-38.3-63.7-39.4l-19.8-37.3
				c-0.6-1.1-0.2-2.4,0.9-3c1.1-0.6,2.4-0.2,3,0.9L1611,660c0.2,0.5,10.1,25.5,60.7,36.9c1.2,0.3,1.9,1.4,1.7,2.6
				C1673.1,700.6,1672.2,701.3,1671.2,701.3z"/>
		</g>
	</g>
	<g>
		<path style="fill:#D7E1FC;" d="M1608,950.9c-0.4,0-0.8-0.1-1.1-0.3c-1-0.6-1.4-2-0.7-3c8.9-14.8,11.3-34.5,7.3-60.1
			c-1.1-6.9-2.5-14-3.9-20.8c-2.8-13.7-5.7-27.8-6-42.1c-0.2-8.9,0.7-17.8,1.6-26.5c1.2-12,2.4-24.5,0.7-36.5
			c-0.7-5.4-2.1-10.9-3.4-16.2c-1.2-5-2.5-10.3-3.3-15.5c-2.5-16.9-1.1-34.4,0.2-51.4c0.7-8.7,1.4-17.7,1.5-26.3
			c0-1.2,0.9-2.3,2.2-2.2c1.2,0,2.2,1,2.1,2.2c-0.2,8.8-0.9,17.8-1.6,26.6c-1.3,16.7-2.7,34-0.3,50.4c0.8,5.1,2,10.2,3.2,15.1
			c1.3,5.4,2.7,11,3.4,16.7c1.7,12.5,0.5,25.2-0.7,37.5c-0.8,8.5-1.7,17.4-1.5,26c0.2,13.9,3.1,27.8,5.9,41.3c1.4,6.9,2.9,13.9,4,21
			c4.2,26.7,1.6,47.4-7.9,63.1C1609.5,950.5,1608.7,950.9,1608,950.9z"/>
	</g>
	<g>
		<path style="fill:#D7E1FC;" d="M1691.8,648.6c-0.3,0-0.6-0.1-0.9-0.2l-29.1-13.6c-5.5-3-8.4-13.2-10.8-21.5
			c-0.7-2.5-1.4-4.7-2-6.3l-33.8-89.7c-19.6-55.2-68.5-55.1-70.6-55c-1.2,0-2.2-1-2.2-2.2c0-1.2,0.9-2.2,2.1-2.2
			c0.5-0.1,54.1-0.3,74.8,57.9l33.8,89.7c0.6,1.7,1.3,4,2.1,6.6c1.9,6.6,4.8,16.7,8.6,18.8l29,13.5c1.1,0.5,1.6,1.8,1.1,2.9
			C1693.4,648.2,1692.6,648.6,1691.8,648.6z"/>
	</g>
</g>
<g>
	<g>
		<path style="fill:#FFFFFF;" d="M1274.5,308.5c-47.5,0-86.2-39.1-86.2-87.1c0-48.1,38.7-87.1,86.2-87.1c47.5,0,86.2,39.1,86.2,87.1
			C1360.7,269.5,1322,308.5,1274.5,308.5z M1274.5,139.8c-44.5,0-80.7,36.6-80.7,81.6c0,45,36.2,81.6,80.7,81.6
			c44.5,0,80.7-36.6,80.7-81.6C1355.2,176.4,1319,139.8,1274.5,139.8z"/>
	</g>
	<g>
		<path style="fill:#FFFFFF;" d="M1271.3,225.3v-73c0-1.5,1.2-2.8,2.8-2.8c1.5,0,2.8,1.2,2.8,2.8v66.1l43-9.5
			c1.5-0.3,2.9,0.6,3.3,2.1c0.3,1.5-0.6,3-2.1,3.3L1271.3,225.3z"/>
	</g>
</g>
<g>
	<g>
		<path style="fill:#9AD0F4;" d="M168.4,474.3c-19.9-23.7-56.2-23.7-76,0c-0.1,0.1-0.2,0.3-0.3,0.4c-13.8,16.7-21.7,40.2-14.3,60.7
			c3.8,10.5,11.3,20,11.4,31.2c0.1,18.9-20,30.4-31.1,45.6c-10.8,14.7-13.3,35.3-6.2,52.2c6.6,15.8,20.9,29.5,19.7,46.5
			c-0.8,11.2-8.3,20.7-15.4,29.4C44.8,754.1,33.5,768.3,27,785c-6.5,16.7-7.8,36.4,0.9,52c7.2,12.9,20.5,22.4,23.9,36.8
			c3.3,14.1-4,28.4-5.3,42.9C44,944,65.2,970.1,91.4,977.2c11.5,3.1,23.6,2.9,35.2,0.2c2.5-0.6,5.2-0.6,7.7,0
			c11.6,2.8,23.6,2.9,35.2-0.2c26.2-7.1,47.4-33.2,44.9-60.5c-1.3-14.5-8.6-28.7-5.3-42.9c3.4-14.4,16.8-23.9,23.9-36.8
			c8.7-15.6,7.5-35.3,0.9-52c-6.5-16.7-17.8-30.9-29.1-44.7c-7.1-8.7-14.6-18.1-15.4-29.4c-1.2-17.1,13.2-30.8,19.7-46.5
			c7-16.9,4.6-37.5-6.2-52.2c-11.2-15.2-31.3-26.6-31.1-45.6c0.1-11.2,7.6-20.7,11.4-31.2c7.3-20.5-0.5-44-14.3-60.7
			C168.6,474.6,168.5,474.4,168.4,474.3z"/>
		<g>
			<g>
				<rect x="127.1" y="479.8" style="fill:#63A5D3;" width="4" height="602.6"/>
			</g>
			<g>
				<polygon style="fill:#63A5D3;" points="127.7,571.9 96.7,526.7 100,524.4 131.1,569.6 				"/>
			</g>
			<g>
				<polygon style="fill:#63A5D3;" points="127.5,730.1 80.7,638.8 84.3,636.9 131.1,728.3 				"/>
			</g>
			<g>
				
					<rect x="97.8" y="638.7" transform="matrix(0.9998 -1.869014e-02 1.869014e-02 0.9998 -12.2135 1.9801)" style="fill:#63A5D3;" width="4" height="31.3"/>
			</g>
			<g>
				<polygon style="fill:#63A5D3;" points="130.8,821 127.8,818.3 192.1,745 195.1,747.7 				"/>
			</g>
			<g>
				<polygon style="fill:#63A5D3;" points="159.9,785.8 156,784.9 166.7,733.2 170.7,734 				"/>
			</g>
			<g>
				<polygon style="fill:#63A5D3;" points="126.9,902.5 68.2,817.7 71.5,815.3 130.2,900.1 				"/>
			</g>
			<g>
				<polygon style="fill:#63A5D3;" points="83.8,838.3 72.2,784.6 76.2,783.7 87.8,837.4 				"/>
			</g>
			<g>
				<polygon style="fill:#63A5D3;" points="131.2,943.7 127.8,941.5 190.8,841.1 194.2,843.3 				"/>
			</g>
			<g>
				<polygon style="fill:#63A5D3;" points="177.1,869.7 173.1,868.9 179.8,837.4 183.7,838.2 				"/>
			</g>
			<g>
				<polygon style="fill:#63A5D3;" points="131.2,589.4 127.9,587 162.4,538 165.7,540.4 				"/>
			</g>
			<g>
				<polygon style="fill:#63A5D3;" points="155.7,554.7 151.7,554.2 156.3,516.1 160.3,516.6 				"/>
			</g>
		</g>
	</g>
	<g>
		<path style="fill:#FFFFFF;" d="M189,1180H64.4c-7.4,0-13.5-6-13.5-13.5v-84.7c0-7.4,6-13.5,13.5-13.5H189c7.4,0,13.5,6,13.5,13.5
			v84.7C202.5,1174,196.4,1180,189,1180z"/>
	</g>
	<g>
		<g>
			<path style="fill:#D7E1FC;" d="M51.1,1132.1c-0.6,0-1.1-0.5-1.1-1.1v-49c0-8.2,6.6-14.8,14.6-14.8h91.2c0.6,0,1.1,0.5,1.1,1.1
				c0,0.6-0.5,1.1-1.1,1.1H64.6c-6.9,0-12.5,5.6-12.5,12.6v49C52.1,1131.6,51.7,1132.1,51.1,1132.1z"/>
		</g>
	</g>
</g>
<g>
	<path style="fill:#FFFFFF;" d="M635.8,58.8h-262c-5.5,0-10,4.5-10,10.1v239.6c0,5.6,4.5,10.1,10,10.1h262c5.5,0,10-4.5,10-10.1
		V68.9C645.8,63.3,641.4,58.8,635.8,58.8z"/>
	<g>
		<g>
			<g>
				<g>
					<path style="fill:#DCEAF9;" d="M582.3,161.8c-6.2,6.4-10.1,14.7-15.4,21.9c-7.4,10-17.5,17.7-29,22.1
						c-7.1,2.7-14.6,4.2-21.4,7.6c-10.9,5.4-19.2,15.9-22.6,27.8c-3.4,11.9-2,25.1,3.4,36.2c3.5,7,8.5,13.2,15.1,17.3
						c5.4,3.4,11.5,5.1,17.7,6.4c8.3,1.7,16.9,2.4,25.2,0.7c8.6-1.7,16.6-5.8,24-10.6c13.5-8.8,25.3-20.3,34.7-33.6
						c11.3-16,19.1-35.2,18.4-54.9C631.5,179.5,607.6,135.7,582.3,161.8z"/>
				</g>
			</g>
		</g>
		<g>
			<g>
				<g>
					<path style="fill:#DCEAF9;" d="M473.9,286.9c-4.1-0.4-7.2-4-7-8.2c1.3-27.7,5.4-41.8,27.7-57.3c12.5-8.6,26.6-13.6,40.2-18.3
						c5.6-2,11.4-4,16.9-6.2c14.8-6,33.6-16.9,39.3-34.8c2.1-6.5,2.6-14.4,1.5-24.1c-1.4-12.8-5-25.6-8.5-38
						c-1.2-4.2,1.2-8.5,5.3-9.7c4.1-1.2,8.3,1.2,9.5,5.4c3.6,13,7.4,26.5,9,40.5c1.3,12,0.6,22.1-2.1,30.8
						c-6,18.7-22.7,34.1-48.3,44.5c-5.8,2.4-11.8,4.5-17.6,6.5c-13.2,4.6-25.8,9-36.6,16.5c-17.1,11.8-19.8,20.2-21,45
						c-0.2,4.3-3.8,7.7-8,7.5C474.1,286.9,474,286.9,473.9,286.9z"/>
				</g>
			</g>
		</g>
	</g>
	<g>
		<g>
			<g>
				<path style="fill:#DCEAF9;" d="M492.9,211.6H458V76.9h34.9V211.6z M460.4,209.3h30.1V79.1h-30.1V209.3z"/>
			</g>
		</g>
		<g>
			<g>
				<path style="fill:#DCEAF9;" d="M449.1,145.3h-68.9V76.9h68.9V145.3z M382.6,143.1h64.1v-64h-64.1V143.1z"/>
			</g>
		</g>
		<g>
			<g>
				<rect x="413.7" y="83" style="fill:#DCEAF9;" width="29.8" height="2"/>
			</g>
			<g>
				<rect x="413.7" y="88.2" style="fill:#DCEAF9;" width="29.8" height="2"/>
			</g>
			<g>
				<rect x="413.7" y="93.4" style="fill:#DCEAF9;" width="29.8" height="2"/>
			</g>
			<g>
				<rect x="413.7" y="98.7" style="fill:#DCEAF9;" width="29.8" height="2"/>
			</g>
			<g>
				<rect x="413.7" y="103.9" style="fill:#DCEAF9;" width="29.8" height="2"/>
			</g>
			<g>
				<rect x="413.7" y="109.1" style="fill:#DCEAF9;" width="29.8" height="2"/>
			</g>
		</g>
		<g>
			<g>
				<rect x="386.3" y="83" style="fill:#DCEAF9;" width="14.9" height="3.8"/>
			</g>
			<g>
				<rect x="386.3" y="93" style="fill:#DCEAF9;" width="14.9" height="3.8"/>
			</g>
			<g>
				<rect x="386.3" y="103" style="fill:#DCEAF9;" width="14.9" height="3.8"/>
			</g>
			<g>
				<rect x="386.3" y="113" style="fill:#DCEAF9;" width="14.9" height="3.8"/>
			</g>
			<g>
				<rect x="386.3" y="122.9" style="fill:#DCEAF9;" width="14.9" height="3.8"/>
			</g>
			<g>
				<rect x="386.3" y="132.9" style="fill:#DCEAF9;" width="14.9" height="3.8"/>
			</g>
		</g>
		<g>
			<g>
				<rect x="468.8" y="86.8" style="fill:#DCEAF9;" width="14.9" height="3.8"/>
			</g>
			<g>
				<rect x="468.8" y="96.8" style="fill:#DCEAF9;" width="14.9" height="3.8"/>
			</g>
			<g>
				<rect x="468.8" y="106.8" style="fill:#DCEAF9;" width="14.9" height="3.8"/>
			</g>
			<g>
				<rect x="468.8" y="116.8" style="fill:#DCEAF9;" width="14.9" height="3.8"/>
			</g>
			<g>
				<rect x="468.8" y="126.8" style="fill:#DCEAF9;" width="14.9" height="3.8"/>
			</g>
			<g>
				<rect x="468.8" y="136.8" style="fill:#DCEAF9;" width="14.9" height="3.8"/>
			</g>
		</g>
		<g>
			<g>
				<rect x="468.8" y="149.3" style="fill:#DCEAF9;" width="17" height="1.3"/>
			</g>
			<g>
				<rect x="468.8" y="152.8" style="fill:#DCEAF9;" width="17" height="1.3"/>
			</g>
			<g>
				<rect x="468.8" y="156.2" style="fill:#DCEAF9;" width="17" height="1.3"/>
			</g>
			<g>
				<rect x="468.8" y="159.7" style="fill:#DCEAF9;" width="17" height="1.3"/>
			</g>
			<g>
				<rect x="468.8" y="163.2" style="fill:#DCEAF9;" width="17" height="1.3"/>
			</g>
			<g>
				<rect x="468.8" y="166.7" style="fill:#DCEAF9;" width="17" height="1.3"/>
			</g>
		</g>
		<g>
			<g>
				<rect x="381.4" y="152.4" style="fill:#DCEAF9;" width="66.5" height="1.8"/>
			</g>
			<g>
				<rect x="381.4" y="157" style="fill:#DCEAF9;" width="66.5" height="1.8"/>
			</g>
			<g>
				<rect x="381.4" y="161.7" style="fill:#DCEAF9;" width="66.5" height="1.8"/>
			</g>
			<g>
				<rect x="381.4" y="166.3" style="fill:#DCEAF9;" width="66.5" height="1.8"/>
			</g>
			<g>
				<rect x="381.4" y="170.9" style="fill:#DCEAF9;" width="66.5" height="1.8"/>
			</g>
			<g>
				<rect x="381.4" y="175.6" style="fill:#DCEAF9;" width="66.5" height="1.8"/>
			</g>
		</g>
		<g>
			<g>
				<rect x="381.9" y="185.5" style="fill:#DCEAF9;" width="66.5" height="1.8"/>
			</g>
			<g>
				<rect x="381.9" y="190.1" style="fill:#DCEAF9;" width="66.5" height="1.8"/>
			</g>
			<g>
				<rect x="381.9" y="194.8" style="fill:#DCEAF9;" width="66.5" height="1.8"/>
			</g>
			<g>
				<rect x="381.9" y="199.4" style="fill:#DCEAF9;" width="66.5" height="1.8"/>
			</g>
			<g>
				<rect x="381.9" y="204" style="fill:#DCEAF9;" width="66.5" height="1.8"/>
			</g>
			<g>
				<rect x="381.9" y="208.7" style="fill:#DCEAF9;" width="66.5" height="1.8"/>
			</g>
		</g>
	</g>
	<g>
		<g>
			<rect x="498.7" y="110" style="fill:#DCEAF9;" width="66.5" height="1.8"/>
		</g>
		<g>
			<rect x="498.7" y="114.6" style="fill:#DCEAF9;" width="66.5" height="1.8"/>
		</g>
		<g>
			<rect x="498.7" y="119.2" style="fill:#DCEAF9;" width="66.5" height="1.8"/>
		</g>
		<g>
			<rect x="498.7" y="123.9" style="fill:#DCEAF9;" width="66.5" height="1.8"/>
		</g>
		<g>
			<rect x="498.7" y="128.5" style="fill:#DCEAF9;" width="66.5" height="1.8"/>
		</g>
		<g>
			<rect x="498.7" y="133.1" style="fill:#DCEAF9;" width="66.5" height="1.8"/>
		</g>
	</g>
	<g>
		<g>
			<rect x="381.1" y="223.4" style="fill:#DCEAF9;" width="66.5" height="1.8"/>
		</g>
		<g>
			<rect x="381.1" y="228" style="fill:#DCEAF9;" width="66.5" height="1.8"/>
		</g>
		<g>
			<rect x="381.1" y="232.7" style="fill:#DCEAF9;" width="66.5" height="1.8"/>
		</g>
		<g>
			<rect x="381.1" y="237.3" style="fill:#DCEAF9;" width="66.5" height="1.8"/>
		</g>
		<g>
			<rect x="381.1" y="241.9" style="fill:#DCEAF9;" width="66.5" height="1.8"/>
		</g>
		<g>
			<rect x="381.1" y="246.6" style="fill:#DCEAF9;" width="66.5" height="1.8"/>
		</g>
	</g>
	<g>
		<g>
			<rect x="381.6" y="267.1" style="fill:#DCEAF9;" width="66.5" height="1.8"/>
		</g>
		<g>
			<rect x="381.6" y="271.8" style="fill:#DCEAF9;" width="66.5" height="1.8"/>
		</g>
		<g>
			<rect x="381.6" y="276.4" style="fill:#DCEAF9;" width="66.5" height="1.8"/>
		</g>
		<g>
			<rect x="381.6" y="281" style="fill:#DCEAF9;" width="66.5" height="1.8"/>
		</g>
		<g>
			<rect x="381.6" y="285.7" style="fill:#DCEAF9;" width="66.5" height="1.8"/>
		</g>
		<g>
			<rect x="381.6" y="290.3" style="fill:#DCEAF9;" width="66.5" height="1.8"/>
		</g>
	</g>
</g>
<g>
	<path style="fill:#FFFFFF;" d="M309.2,58.8h-204c-5.5,0-10,4.5-10,10.1v239.6c0,5.6,4.5,10.1,10,10.1h204c5.5,0,10-4.5,10-10.1
		V68.9C319.2,63.3,314.7,58.8,309.2,58.8z"/>
	<g>
		<g>
			<g>
				<path style="fill:#DCEAF9;" d="M305.8,300.3h-23V186.1h23V300.3z M284.3,298.3h19.9V188h-19.9V298.3z"/>
			</g>
		</g>
		<g>
			<g>
				<path style="fill:#DCEAF9;" d="M276.9,244.2h-45.5v-58h45.5V244.2z M233,242.2h42.3V188H233V242.2z"/>
			</g>
		</g>
		<g>
			<g>
				<rect x="253.5" y="191.3" style="fill:#DCEAF9;" width="19.7" height="1.7"/>
			</g>
			<g>
				<rect x="253.5" y="195.7" style="fill:#DCEAF9;" width="19.7" height="1.7"/>
			</g>
			<g>
				<rect x="253.5" y="200.2" style="fill:#DCEAF9;" width="19.7" height="1.7"/>
			</g>
			<g>
				<rect x="253.5" y="204.6" style="fill:#DCEAF9;" width="19.7" height="1.7"/>
			</g>
			<g>
				<rect x="253.5" y="209" style="fill:#DCEAF9;" width="19.7" height="1.7"/>
			</g>
			<g>
				<rect x="253.5" y="213.4" style="fill:#DCEAF9;" width="19.7" height="1.7"/>
			</g>
		</g>
		<g>
			<g>
				<rect x="235.5" y="191.3" style="fill:#DCEAF9;" width="9.8" height="3.2"/>
			</g>
			<g>
				<rect x="235.5" y="199.8" style="fill:#DCEAF9;" width="9.8" height="3.2"/>
			</g>
			<g>
				<rect x="235.5" y="208.2" style="fill:#DCEAF9;" width="9.8" height="3.2"/>
			</g>
			<g>
				<rect x="235.5" y="216.7" style="fill:#DCEAF9;" width="9.8" height="3.2"/>
			</g>
			<g>
				<rect x="235.5" y="225.2" style="fill:#DCEAF9;" width="9.8" height="3.2"/>
			</g>
			<g>
				<rect x="235.5" y="233.6" style="fill:#DCEAF9;" width="9.8" height="3.2"/>
			</g>
		</g>
		<g>
			<g>
				<rect x="289.9" y="194.5" style="fill:#DCEAF9;" width="9.8" height="3.2"/>
			</g>
			<g>
				<rect x="289.9" y="203" style="fill:#DCEAF9;" width="9.8" height="3.2"/>
			</g>
			<g>
				<rect x="289.9" y="211.5" style="fill:#DCEAF9;" width="9.8" height="3.2"/>
			</g>
			<g>
				<rect x="289.9" y="219.9" style="fill:#DCEAF9;" width="9.8" height="3.2"/>
			</g>
			<g>
				<rect x="289.9" y="228.4" style="fill:#DCEAF9;" width="9.8" height="3.2"/>
			</g>
			<g>
				<rect x="289.9" y="236.9" style="fill:#DCEAF9;" width="9.8" height="3.2"/>
			</g>
		</g>
		<g>
			<g>
				<rect x="289.9" y="247.5" style="fill:#DCEAF9;" width="11.2" height="1.1"/>
			</g>
			<g>
				<rect x="289.9" y="250.4" style="fill:#DCEAF9;" width="11.2" height="1.1"/>
			</g>
			<g>
				<rect x="289.9" y="253.4" style="fill:#DCEAF9;" width="11.2" height="1.1"/>
			</g>
			<g>
				<rect x="289.9" y="256.3" style="fill:#DCEAF9;" width="11.2" height="1.1"/>
			</g>
			<g>
				<rect x="289.9" y="259.3" style="fill:#DCEAF9;" width="11.2" height="1.1"/>
			</g>
			<g>
				<rect x="289.9" y="262.2" style="fill:#DCEAF9;" width="11.2" height="1.1"/>
			</g>
		</g>
		<g>
			<g>
				<rect x="232.2" y="250.1" style="fill:#DCEAF9;" width="43.9" height="1.5"/>
			</g>
			<g>
				<rect x="232.2" y="254" style="fill:#DCEAF9;" width="43.9" height="1.5"/>
			</g>
			<g>
				<rect x="232.2" y="258" style="fill:#DCEAF9;" width="43.9" height="1.5"/>
			</g>
			<g>
				<rect x="232.2" y="261.9" style="fill:#DCEAF9;" width="43.9" height="1.5"/>
			</g>
			<g>
				<rect x="232.2" y="265.8" style="fill:#DCEAF9;" width="43.9" height="1.5"/>
			</g>
			<g>
				<rect x="232.2" y="269.8" style="fill:#DCEAF9;" width="43.9" height="1.5"/>
			</g>
		</g>
		<g>
			<g>
				<rect x="232.6" y="278.2" style="fill:#DCEAF9;" width="43.9" height="1.5"/>
			</g>
			<g>
				<rect x="232.6" y="282.1" style="fill:#DCEAF9;" width="43.9" height="1.5"/>
			</g>
			<g>
				<rect x="232.6" y="286" style="fill:#DCEAF9;" width="43.9" height="1.5"/>
			</g>
			<g>
				<rect x="232.6" y="290" style="fill:#DCEAF9;" width="43.9" height="1.5"/>
			</g>
			<g>
				<rect x="232.6" y="293.9" style="fill:#DCEAF9;" width="43.9" height="1.5"/>
			</g>
			<g>
				<rect x="232.6" y="297.8" style="fill:#DCEAF9;" width="43.9" height="1.5"/>
			</g>
		</g>
	</g>
	<g>
		<g>
			<path style="fill:#DCEAF9;" d="M238.2,163.9h-91.9V72.5h91.9V163.9z M149.5,160.8H235V75.6h-85.5V160.8z"/>
		</g>
	</g>
	<g>
		<g>
			<rect x="191" y="80.7" style="fill:#DCEAF9;" width="39.8" height="2.7"/>
		</g>
		<g>
			<rect x="191" y="87.7" style="fill:#DCEAF9;" width="39.8" height="2.7"/>
		</g>
		<g>
			<rect x="191" y="94.6" style="fill:#DCEAF9;" width="39.8" height="2.7"/>
		</g>
		<g>
			<rect x="191" y="101.6" style="fill:#DCEAF9;" width="39.8" height="2.7"/>
		</g>
		<g>
			<rect x="191" y="108.6" style="fill:#DCEAF9;" width="39.8" height="2.7"/>
		</g>
		<g>
			<rect x="191" y="115.5" style="fill:#DCEAF9;" width="39.8" height="2.7"/>
		</g>
	</g>
	<g>
		<g>
			<rect x="154.5" y="80.7" style="fill:#DCEAF9;" width="19.9" height="5.1"/>
		</g>
		<g>
			<rect x="154.5" y="94" style="fill:#DCEAF9;" width="19.9" height="5.1"/>
		</g>
		<g>
			<rect x="154.5" y="107.4" style="fill:#DCEAF9;" width="19.9" height="5.1"/>
		</g>
		<g>
			<rect x="154.5" y="120.7" style="fill:#DCEAF9;" width="19.9" height="5.1"/>
		</g>
		<g>
			<rect x="154.5" y="134" style="fill:#DCEAF9;" width="19.9" height="5.1"/>
		</g>
		<g>
			<rect x="154.5" y="147.3" style="fill:#DCEAF9;" width="19.9" height="5.1"/>
		</g>
	</g>
	<g>
		<g>
			<rect x="107.9" y="110.5" style="fill:#DCEAF9;" width="26.6" height="1.8"/>
		</g>
		<g>
			<rect x="107.9" y="115.1" style="fill:#DCEAF9;" width="26.6" height="1.8"/>
		</g>
		<g>
			<rect x="107.9" y="119.7" style="fill:#DCEAF9;" width="26.6" height="1.8"/>
		</g>
		<g>
			<rect x="107.9" y="124.4" style="fill:#DCEAF9;" width="26.6" height="1.8"/>
		</g>
		<g>
			<rect x="107.9" y="129" style="fill:#DCEAF9;" width="26.6" height="1.8"/>
		</g>
		<g>
			<rect x="107.9" y="133.6" style="fill:#DCEAF9;" width="26.6" height="1.8"/>
		</g>
	</g>
	<g>
		<g>
			<rect x="107.9" y="148.6" style="fill:#DCEAF9;" width="26.6" height="1.8"/>
		</g>
		<g>
			<rect x="107.9" y="153.2" style="fill:#DCEAF9;" width="26.6" height="1.8"/>
		</g>
		<g>
			<rect x="107.9" y="157.9" style="fill:#DCEAF9;" width="26.6" height="1.8"/>
		</g>
		<g>
			<rect x="107.9" y="162.5" style="fill:#DCEAF9;" width="26.6" height="1.8"/>
		</g>
		<g>
			<rect x="107.9" y="167.1" style="fill:#DCEAF9;" width="26.6" height="1.8"/>
		</g>
		<g>
			<rect x="107.9" y="171.8" style="fill:#DCEAF9;" width="26.6" height="1.8"/>
		</g>
	</g>
	<g>
		<g>
			<rect x="107.9" y="185.2" style="fill:#DCEAF9;" width="26.6" height="1.8"/>
		</g>
		<g>
			<rect x="107.9" y="189.9" style="fill:#DCEAF9;" width="26.6" height="1.8"/>
		</g>
		<g>
			<rect x="107.9" y="194.5" style="fill:#DCEAF9;" width="26.6" height="1.8"/>
		</g>
		<g>
			<rect x="107.9" y="199.1" style="fill:#DCEAF9;" width="26.6" height="1.8"/>
		</g>
		<g>
			<rect x="107.9" y="203.8" style="fill:#DCEAF9;" width="26.6" height="1.8"/>
		</g>
		<g>
			<rect x="107.9" y="208.4" style="fill:#DCEAF9;" width="26.6" height="1.8"/>
		</g>
	</g>
	<g>
		<g>
			<g>
				<g>
					<g>
						<path style="fill:#DCEAF9;" d="M143.3,251.6c-1.9,0-3.6-1.5-3.9-3.5c-0.3-2.2,1.2-4.2,3.3-4.6c4.6-0.7,9.3-1.4,13.1-3.5
							c6.9-3.8,10.5-12.8,8.4-20.5c-0.6-2.1,0.6-4.4,2.7-5c2.1-0.6,4.3,0.6,4.9,2.8c3.1,11.2-2.2,24.3-12.2,29.8
							c-5.1,2.8-10.8,3.6-15.8,4.4C143.6,251.6,143.4,251.6,143.3,251.6z"/>
					</g>
				</g>
			</g>
			<g>
				<g>
					<g>
						<path style="fill:#DCEAF9;" d="M194.3,251.6c-0.2,0-0.4,0-0.6,0c-5-0.7-10.7-1.6-15.8-4.4c-10-5.5-15.3-18.6-12.2-29.8
							c0.6-2.1,2.8-3.4,4.9-2.8c2.1,0.6,3.3,2.8,2.7,5c-2.2,7.7,1.5,16.7,8.4,20.5c3.8,2.1,8.6,2.8,13.1,3.5
							c2.2,0.3,3.6,2.4,3.3,4.6C197.9,250.2,196.2,251.6,194.3,251.6z"/>
					</g>
				</g>
			</g>
			<g>
				<g>
					<g>
						<path style="fill:#DCEAF9;" d="M169.2,240.7c-2.8,0-5.1-2.3-5.2-5.2c-0.5-13.8-0.5-27.8,0-41.6c0.1-3,2.6-5.3,5.4-5.2
							c2.9,0.1,5.2,2.6,5.1,5.5c-0.4,13.6-0.4,27.3,0,40.9c0.1,3-2.2,5.5-5.1,5.5C169.3,240.7,169.2,240.7,169.2,240.7z"/>
					</g>
				</g>
			</g>
		</g>
		<g>
			<g>
				<g>
					<path style="fill:#DCEAF9;" d="M158.1,217.7c-0.1-2.4-0.5-5.2-2.5-6.5c-1.4-1-3.3-0.9-4.9-0.5c-4.2,1.2-7.6,4.4-10.5,7.6
						c-13.9,15.2-24.6,34.5-26.1,55.3c-0.5,6.9,0.1,14.2,4,19.8c5.6,8.2,16.5,10.8,26.2,10.3c3.9-0.2,7.9-0.8,11.2-2.9
						c3.5-2.2,6-6,7.3-10c1.3-4,1.6-8.4,1.6-12.6c0-12-4.1-22.4-5.8-34.1c-0.5-3.4,0-6.6,0.1-10
						C158.8,228.8,158.4,223.2,158.1,217.7z"/>
				</g>
			</g>
		</g>
		<g>
			<g>
				<g>
					<path style="fill:#DCEAF9;" d="M180,217.7c0.1-2.4,0.5-5.2,2.5-6.5c1.4-1,3.3-0.9,4.9-0.5c4.2,1.2,7.6,4.4,10.5,7.6
						c13.9,15.2,24.6,34.5,26.1,55.3c0.5,6.9-0.1,14.2-4,19.8c-5.6,8.2-16.5,10.8-26.2,10.3c-3.9-0.2-7.9-0.8-11.2-2.9
						c-3.5-2.2-6-6-7.3-10c-1.3-4-1.6-8.4-1.6-12.6c0-12,4.1-22.4,5.8-34.1c0.5-3.4,0-6.6-0.1-10C179.2,228.8,179.6,223.2,180,217.7
						z"/>
				</g>
			</g>
		</g>
	</g>
	<g>
		<g>
			<g>
				<g>
					<path style="fill:#DCEAF9;" d="M259.7,172.1c-2.4,0-4.3-2-4.3-4.5l0.1-4.8c0-2.7,0.1-5.7,0.7-8.7c1.3-6,5-11.5,10.5-15.6
						c4.3-3.2,9.7-5.5,16.1-6.8c2.3-0.5,4.6,1.1,5.1,3.5c0.5,2.4-1,4.7-3.4,5.2c-5.2,1.1-9.5,2.8-12.8,5.3
						c-3.7,2.7-6.3,6.5-7.1,10.3c-0.5,2.1-0.5,4.4-0.5,6.8l-0.1,4.9C264,170.1,262.1,172.1,259.7,172.1z"/>
				</g>
			</g>
		</g>
		<g>
			<g>
				<g>
					<path style="fill:#DCEAF9;" d="M270.3,101.7c0.4,1.7,1.1,3.2,2,4.7c2.2,4,5.2,7.6,8.8,10.4c0.4,0.3,0.7,0.6,1,1
						c0.3,0.6,0.3,1.3,0.2,1.9c-0.1,0.8-0.4,1.8-1.2,2.1c-0.7,0.3-1.5-0.1-2.1-0.4c-1.2-0.7-2.4-1.5-3.4-2.5c-0.5-0.4-1-0.9-1.6-1.1
						c-0.9-0.2-1.8,0.3-2.3,1.1c-0.5,0.7-0.8,1.7-1,2.5c-1.2-2.7-1.3-5.7-1.4-8.6c-0.1-3.1-0.2-6.2-0.3-9.2c-0.1-2-0.4-5.3,0.7-7.1
						c0.5,0.5,0.3,1.7,0.3,2.3C270,99.8,270.1,100.7,270.3,101.7z"/>
				</g>
			</g>
		</g>
		<g>
			<g>
				<g>
					<path style="fill:#DCEAF9;" d="M268.9,160.4c-1.2,0-2.2-1-2.2-2.2V76c0-1.2,1-2.2,2.2-2.2c1.2,0,2.2,1,2.2,2.2v82.3
						C271.1,159.4,270.1,160.4,268.9,160.4z"/>
				</g>
			</g>
		</g>
		<g>
			<g>
				<g>
					<path style="fill:#DCEAF9;" d="M274.5,160.4c-1,0-1.7-0.8-1.7-1.8V89.5c0-1,0.8-1.8,1.7-1.8s1.7,0.8,1.7,1.8v69.2
						C276.3,159.6,275.5,160.4,274.5,160.4z"/>
				</g>
			</g>
		</g>
		<g>
			<g>
				<g>
					<path style="fill:#DCEAF9;" d="M281.6,127.1c0.1,0.8-0.2,1.7-0.9,2.3c-0.1,0.1-0.2,0.2-0.3,0.2c-0.4,0.1-0.6-0.4-0.8-0.7
						c-0.6-0.9-2-0.8-2.8-0.1c-0.8,0.7-1.2,1.7-1.5,2.7c-1-1.3-1.4-2.9-1.7-4.5c-0.4-1.9-0.7-3.8-0.6-5.7c0.1-1.3,0.4-2.7,1-3.8
						c0.8-1.4,1.3-0.3,1.5,0.7c0.3,2.4,1.4,4.7,3,6.5C279.4,125.6,280.5,126.4,281.6,127.1z"/>
				</g>
			</g>
		</g>
		<g>
			<g>
				<g>
					<g>
						<path style="fill:#DCEAF9;" d="M281.8,111.7c-2,4.4-1.6,9.6-0.9,14.4c0.7,4.9,1.7,9.8,0.9,14.6c-0.6,3.8-2.3,7.4-2,11.2
							c0.2,3.6,2.3,7,5.3,9c3,2,7,2.6,10.5,1.5c4.5-1.5,7.6-5.5,9.6-9.7c5.5-11.2,5.1-25.2-1.1-36.4c-2.3-4.1-6.2-9.5-10.9-11.2
							C288.5,103.4,283.5,107.8,281.8,111.7z"/>
					</g>
				</g>
			</g>
			<g>
				<g>
					<g>
						<path style="fill:#DCEAF9;" d="M281.6,110.6c-2.1,2.5-3.6,5.5-3.9,8.8c-0.2,2.7,0.9,5.9,3.5,6.7c-1.1,0.2-1.8,1.3-2.2,2.4
							c-0.9,2.1-1.3,4.4-0.8,6.6c0.5,2.2,1.8,4.3,3.8,5.2c-3.3,2-5.3,5.8-5.2,9.7c0.1,5,3.7,9.4,8.1,11.7c3.5,1.8,8.1,2.3,11.2-0.3
							c1.6-1.4,2.5-3.4,2.9-5.5c0.4-2.1,0.2-4.3-0.1-6.4c-0.7-4.9-2.2-9.7-3.7-14.4c-2.4-7.8-4.6-15.9-4.5-24.1c0-1.5,0.2-7-2.3-5.7
							C285.8,106.5,283.4,108.4,281.6,110.6z"/>
					</g>
				</g>
			</g>
		</g>
	</g>
</g>
<g>
	<g>
		<g>
			<path style="fill:#FF907B;" d="M498.3,509.2c-1.7-0.3-3.3,0.8-3.7,2.6l-3.2,15.9c-0.4,1.8,0.7,3.5,2.4,3.8
				c1.7,0.3,3.3-0.8,3.7-2.6l3.2-15.9C501.1,511.2,500,509.5,498.3,509.2z"/>
		</g>
		<path style="fill:#FF907B;" d="M466.9,529.9c-0.5-2.6-0.8-5.3,0-7.4c0.6-1.6,1.8-2.6,3.1-3.5c3.2-2.3,6.7-4.1,10.5-5.3
			c3.5-1.1,7.9-1.5,11.5,2c3.5,3.4,5.1,8.2,5.3,12.7c0.3,8.5,0.3,11.5-3.3,17.4c-4.6,7.4-11.2,9-18.1-0.8
			C472.2,540,468,535.6,466.9,529.9z"/>
		<g>
			<path style="fill:#FF907B;" d="M487.7,519.1l-13.8-18.9c-0.9-1.3-0.6-3.1,0.6-4c1.3-0.9,3.1-0.6,4,0.6l13.8,18.9
				c0.9,1.3,0.6,3.1-0.6,4C490.4,520.7,488.6,520.4,487.7,519.1z"/>
		</g>
		<g>
			<path style="fill:#FF907B;" d="M480,521.8l-13.8-18.9c-0.9-1.3-0.6-3.1,0.6-4c1.3-0.9,3.1-0.6,4,0.6l13.8,18.9
				c0.9,1.3,0.6,3.1-0.6,4C482.7,523.4,480.9,523.1,480,521.8z"/>
		</g>
		<g>
			<path style="fill:#FF907B;" d="M474.9,529.6l-13.8-18.9c-0.9-1.3-0.6-3.1,0.6-4c1.3-0.9,3.1-0.6,4,0.6l13.8,18.9
				c0.9,1.3,0.6,3.1-0.6,4C477.6,531.1,475.8,530.8,474.9,529.6z"/>
		</g>
		<g>
			<path style="fill:#FF907B;" d="M472.9,538.2l-13.8-18.9c-0.9-1.3-0.6-3.1,0.6-4c1.3-0.9,3.1-0.6,4,0.6l13.8,18.9
				c0.9,1.3,0.6,3.1-0.6,4C475.6,539.8,473.8,539.5,472.9,538.2z"/>
		</g>
	</g>
	<path style="fill:#000543;" d="M625.2,401.3c1,5.4,6.2,13.8,6.2,19.3c0.1,8.3,5.5,17.9,8.2,22.4c2.4,4,4.6,8.2,6.2,12.6
		c5,13.7,16.3,24.6,31.8,29.2c1,0.3,2,0.4,3,0.3c7.3,2.7,15.3,4.6,20.6,9.3c5.6,5,7.7,13.1,7.4,20.7c-0.3,7.6-2.7,15-4.9,22.3
		c-5.3,18.2-9,38.1-2,55.5c5.7,14.1,17.5,24.6,29.1,34.3c10.8,9.1,20.5,14.7,34.5,16.1c10.7,1,23.4,1,33.1-3.7
		c20.7-9.9,39.9-24.8,50.8-45.1c10.9-20.3,12.1-46.6-0.7-65.4c-7-10.3-17.9-17.9-30-20.9c-10.2-2.5-22.2-2.4-29.3-10.2
		c-5-5.6-6-13.7-9.1-20.5c-4.4-9.6-13.4-16.7-23.4-20.2c-10-3.5-21-3.6-31.5-2c-3.3,0.5-5.1,1.2-8.4,1.2c-1.3-1.3-1.2-5.4-1.6-7.4
		c26.3-57.2-7.4-75.4-28.2-81.1c-2.2-0.6-3.5,0.4-5.2,0c-6.4-1.3-7.2-2.1-15.6,1.6c-0.7,0.3-4.2,1.6-5.6,2.1c-1.4,0.3-3.6,0.6-8,0.9
		c-7.9,0.6-18.1-1.3-22.7,4.7C625.6,383.4,623.9,393.9,625.2,401.3z"/>
	<g>
		<g>
			<path style="fill:#FF9985;" d="M735.9,782.1c22.8-58.7,33-75.4,34.9-112.4c0.3-5-0.6-9.9-2.6-14.5c-1.1-2.7-2.4-5.6-4-8.9
				c10.5-2,19.4-4,27.6-6.3c5.3,14.2,8.2,21.3,8.4,30.3c0.3,6.5-19.3,60.6-46.2,111.1L735.9,782.1z"/>
		</g>
		<path style="fill:#88DCE5;" d="M720.8,582c-3.2-5-5-9.7-5.1-14.2c-0.2-5.5,1.9-10.3,6-13.9c10-8.6,30.6-8.6,44.9-3.6l2.5,0.9
			l1,2.7c19.6,52.5,26.8,71.7,29.9,80.1c1.5,4.1-0.5,8.6-4.3,9.7c-8.7,2.4-17.5,5.1-32.4,7.9c-3.6,0.7-7.1-0.9-8.9-4.5
			C742.5,623.8,727.7,592.6,720.8,582z"/>
	</g>
	<g>
		<path style="fill:#FF9985;" d="M495.6,541.7c24.5,34,40.6,54.3,61.4,77.6c1.7,1.9,4.8,1.6,6-0.6c9.5-13.6,16.7-20.6,22.5-36
			c14.2,10.5,23.3,15.4,38.5,17.8l-49.5,60.7c-3.6,6.3-13.6,8.9-20.2,0.8c-36.7-39.9-48.6-74.1-69.5-113.3
			C493.4,548,489.1,546.9,495.6,541.7z"/>
	</g>
	<g>
		<g>
			<path style="fill:#FF9985;" d="M499.1,858.8c-1.5,0-2.6-0.1-3-0.2c-4-0.4-6.8-4.5-7.6-8.2c-0.9-4.7,0.4-9.8,1.8-13.7
				c2.1-6.2,4.9-11.5,8.2-15.2l0.5-0.6l0.2-0.8c12.3-47.3,13.1-95.9,2.3-140.5c-2.9-13.9-7.2-28-12.7-42l47.8,1.9
				c8.9,56,3.4,117.2-16.4,182l-0.3,0.8l0.2,0.9c0.1,0.4,0.1,0.8,0.2,1.2c0.4,4.6-1,9.4-2.4,13.5c-1.7,5.1-3.9,10.5-6.6,16.5
				c-0.9,0.6-1.8,1.1-2.8,1.6c-0.7,0.4-1.3,0.7-2,1.1l-0.7,0.3l-0.5,0.2c-0.3,0.1-0.6,0.2-0.9,0.3
				C502.9,858.6,501,858.8,499.1,858.8z"/>
		</g>
	</g>
	<g>
		<path style="fill:#452A51;" d="M537.1,607.8c-7.2-31.7-19.6-61.5-30.5-69.3c-11.4-8.1-78.9-37.5-46.7-4.4c0,2.2,0.6,15.4,0,17.9
			c-5.6,21.9,3.1,42.7,13.4,62.6c4.7,9.2,18.7,32.3,22.8,41.1l40.5,0.5c5.9,0.1,10.4-5.3,9.3-11.2
			C543.3,631.9,539.9,615.9,537.1,607.8z"/>
	</g>
	<g>
		<g>
			<g>
				<path style="fill:#6D72A0;" d="M531.9,1237.2l-20.7-282.1c5.2-0.6,10.2-2.3,14.8-4.9l21.1,287H531.9z"/>
			</g>
		</g>
		<g>
			<g>
				<path style="fill:#6D72A0;" d="M463.4,616.4h69.9c5.9,0,10.8-4.9,10.8-11c0-6-4.9-11-10.8-11h-69.9c-5.9,0-10.8,4.9-10.8,11
					C452.6,611.5,457.4,616.4,463.4,616.4z"/>
			</g>
		</g>
		<g>
			<g>
				<path style="fill:#6D72A0;" d="M497.5,850.2h33.8c3.4,0,6.2-3.1,6.2-6.9c0-3.8-2.8-6.9-6.2-6.9h-33.8c-3.4,0-6.2,3.1-6.2,6.9
					C491.3,847.2,494.1,850.2,497.5,850.2z"/>
			</g>
		</g>
		<g>
			<g>
				<path style="fill:#6D72A0;" d="M496,937.5l-21.6-310.4c-0.9-13.6,9.2-25.5,22.6-26.4c13.4-1,25,9.3,26,22.9L544.6,934
					c0.9,13.6-9.2,25.5-22.6,26.4C508.6,961.4,497,951.1,496,937.5z M488.3,626.1l21.6,310.4c0.4,5.8,5.4,10.2,11.1,9.8
					c5.7-0.4,10.1-5.5,9.7-11.3l-21.6-310.4c-0.4-5.8-5.4-10.2-11.1-9.8C492.2,615.2,487.9,620.3,488.3,626.1z"/>
			</g>
		</g>
	</g>
	<path style="fill:#6AC3D1;" d="M775.4,863.1c0.8,11.8,1.5,23.6,0.6,35.4c-1,12.1-3.7,24.1-4.4,36.2c-1,18.6,2.9,37.2,1.4,55.8
		c-1.3,16.8-7,33.1-9.1,49.8c-1.4,11.4-1.1,23-2.3,34.4c-1.2,12.1-4.1,23.9-6.9,35.7c-5.6,23.1-11.1,46.2-16.7,69.4
		c4.1-44.9,7.1-90,10.1-135c2.8-41.2,5.5-82.4,8.3-123.6c0.8-11.5,5.8-114.5,10.6-114.1C776.7,808,775,856.1,775.4,863.1z"/>
	<path style="fill:#FF9985;" d="M701.7,1163.3c-0.7,7.3-1.5,14.3-2.4,21c-7.7,59.3,22.4,53.1,25.4,27c1.5-13.1,2.9-26.2,4.2-39.3
		c-1.6,1.2-3.3,2.4-5.2,3.3C715.8,1177.4,707,1172.4,701.7,1163.3z"/>
	<path style="fill:#FF9985;" d="M620.7,1166c-0.8,7.3-1.7,14.4-2.7,21.2c-8.3,59.9,21.7,49.9,24.9,23.6c1.6-13.2,3.2-26.4,4.7-39.6
		c-1.7,1.4-3.4,2.8-5.2,4C634.6,1178.2,625.9,1174.4,620.7,1166z"/>
	<path style="fill:#6AC3D1;" d="M743.9,1184.1c22.2-160.6,31-325.7,28.4-377.8c-90.4,0-76.6-0.2-89.9,0.5
		c0.5,6.3,24.8,199.1,3.9,373.6c-0.9,7.6,2,14.4,9.7,14.4c10.9,0,25.6,0,35.5,0.1C737.7,1195,743,1190.3,743.9,1184.1z"/>
	<g>
		<path style="fill:#6AC3D1;" d="M618.1,1195.2h35.4c8.1,0,15-6.1,15.6-13.8c13.9-174.6,32.3-330,30.5-374.1l-97.8-4.3
			c3.7,22.6,15,181,1.6,377.3C602.9,1188.4,609.5,1195.2,618.1,1195.2z"/>
		<g>
			<path style="fill:#4BA8B2;" d="M653.4,1197c9.4,0,17.3-7,18-16c5.5-69.4,11.7-134.7,17.2-192.4c5.7-60.4,10.7-112.8,12.6-147.1
				l13.2-6.7c1.2-0.6,1.7-2,1.1-3.1c-0.6-1.1-2-1.6-3.1-1L698,838c-0.8,0.4-1.3,1.2-1.3,2c-1.9,34.2-6.9,87.1-12.7,148.3
				c-5.5,57.7-11.7,123-17.2,192.5c-0.5,6.5-6.3,11.5-13.2,11.5c-1.3,0-2.4,1-2.4,2.3C651.1,1196,652.1,1197,653.4,1197z"/>
		</g>
	</g>
	<path style="fill:#88DCE5;" d="M772.6,751.9c-0.4-3.1-6.6-45.4-9.7-60.4c-9.8-47.6-10.1-56.9-3.3-125.8c-2.3-2.2,9.5-14.5,9.5-14.5
		c-33.1-56.5-83.1-51.2-109.1-41.4c-6.8,1.8-13.1,4.5-18.7,7.5c-13.9,7.4-25.8,18.1-35.1,30.8c-11.7,15.7-33.1,44.6-33.6,45.3
		c-1.9,2.9-1.4,6.7,1.2,9.1c5.8,5.2,16.8,15.5,30.2,30.1c3.5,3.8,9.7,3.3,12.5-1c1.7-2.7,4.3-5.5,7-8.4c4.9,13.7,9.8,27.5,11.3,42.1
		c0.8,7.3,0.5,14.4-0.4,21.4c-0.8,3.6-1.7,7.2-2.8,10.7c-8.2,24.6-21.7,42.7-31.3,71.1c-3.9,11.4-2.1,24.2,1,35.8
		c1.3,5-5.7,10.2,3.5,16.4c12.5,8.4,39.1-8.4,76.4-6.7c22.5,1,49.1,11.6,79.5,1.8c8.5-2.7,14.4-10.4,14.6-19.3
		c0.2-6.5,0.3-13.3,0.3-17.5C775.4,778.9,776,767.9,772.6,751.9z"/>
	<g>
		<path style="fill:#6AC3D1;" d="M760.5,817.3c-0.5,0-0.9-0.3-1.1-0.8c-0.2-0.6,0.1-1.3,0.7-1.5c8-2.6,13.6-9.9,13.8-18.3
			c0.2-8,0.3-13.9,0.3-17.5c0-0.1,0-0.3,0.1-0.4c0.1-2,0.1-12-2.8-26.1c-0.1-0.1-0.1-0.3-0.1-0.4c-0.4-3.2-6.6-45.5-9.6-60.3
			c-8.6-41.7-9.9-54-5.6-101.9c0.1-0.6,0.6-1.1,1.3-1.1c0.6,0.1,1.1,0.6,1.1,1.3c-4.2,47.6-2.9,59.8,5.6,101.2
			c3,14.4,9,54.9,9.6,60.1c0,0.1,0.1,0.2,0.1,0.2c3.3,16,2.9,26.9,2.9,27.3c0,0.1,0,0.2-0.1,0.3c0,3.6-0.1,9.4-0.3,17.2
			c-0.2,9.3-6.4,17.5-15.4,20.4C760.7,817.3,760.6,817.3,760.5,817.3z"/>
	</g>
	<g>
		<g>
			<g>
				<path style="fill:#FF9985;" d="M684.3,550c-6.2-7.7-12.4-15.2-18.8-22.7c-4.1-4.8-3.3-12,1.7-15.9c7-5.3,15.3-8.7,23.9-7.6
					c9.5,1.2,25.4,8.6,20.5,18.9c-6,12.4-3,6.6-13.9,26.1C694.8,554,687.9,554.5,684.3,550z"/>
			</g>
		</g>
	</g>
	<path style="fill:#000543;" d="M691.4,365.4c-28.3-1.4-55.3,19.6-60.2,46.9c-4.9,27.3,14.1,50.6,42.4,52
		c28.3,1.4,55.3-19.6,60.2-46.9C738.8,390.1,719.8,366.8,691.4,365.4z"/>
	<g>
		<path style="fill:#000543;" d="M703.6,471.1c3.2-3.6,5.8-8.4,7.7-14.2c1.7-5.2,3.1-10.1,4.1-14.7l8.7-21.6c-2-2.4-4.1-4.8-6.2-7.2
			c-0.3-3.1-0.8-5.9-1.5-8.5l-3,2.8c-1.2-1.7-2.4-3.5-3.3-5.4c-4.2-8.3-5.5-18.8-13.1-24.1c-4.7-3.3-10.7-3.7-16.4-3.3
			c-6.8,0.5-13.5,2-20.2,3.6c-4.8,1.1-9.7,2.2-14.5,3.4c-0.6,0.1-1.1,0.3-1.6,0.6c-0.5,0.4-0.7,1-0.9,1.7c-0.5,1.5-2.1,4.6-3,7.1
			c-0.4,1.3-0.7,2.5-0.4,3.3c0.8,2.7,4.2,2.7,6.5,2.9c23.5,1.2,37.4,14.6,42.7,22.3c4.4,6.4,6.8,14,11.3,20.3
			c2.5,3.5,5.7,6.5,9.3,8.9c-1.7,2.3-4,3.8-6.7,4l0.4,18.1C703.6,471.3,703.6,471.2,703.6,471.1z"/>
		<path style="fill:#000543;" d="M673.2,417.2c1.3,0,2.3-1.1,2.3-2.4c0-1.3-1.1-2.3-2.4-2.3l-8.7,0.1c-1.3,0-2.3,1.1-2.3,2.4
			c0,1.3,1.1,2.3,2.4,2.3L673.2,417.2z"/>
		<path style="fill:#000543;" d="M639.3,413.1l-6.8,0.1c-1,0-1.8,1.1-1.8,2.3c0,1.3,0.8,2.3,1.8,2.3l6.8-0.1c1,0,1.8-1.1,1.8-2.3
			C641.1,414.1,640.3,413.1,639.3,413.1z"/>
		<path style="fill:#FA694F;" d="M655.1,443.5c-0.7,1.2-1.9,1.9-3.3,1.5l-3.9-1.2c-1.6-0.5-2.6-2.1-2.9-3.8l-0.3,0.8
			c-0.9,2.6,0.4,5.6,2.7,6.3l3.9,1.2c2.3,0.7,4.3-1.6,3.8-4.3L655.1,443.5z"/>
		<path style="fill:#000543;" d="M668.5,423.4l-4.4,0.1l2.2,2.1c-0.2,0.6-0.3,1.2-0.3,1.9c0,2.2,1.2,4,2.7,4s2.6-1.8,2.5-4
			C671.1,425.2,669.9,423.4,668.5,423.4z"/>
		<path style="fill:#000543;" d="M637.2,423.9l-4.4,0.1l2.2,2.1c-0.2,0.6-0.3,1.2-0.3,1.9c0,2.2,1.2,4,2.7,4c1.4,0,2.6-1.8,2.5-4
			S638.6,423.9,637.2,423.9z"/>
		<path style="fill:#FF9985;" d="M709.8,449c-3.6-2.4-6.8-5.4-9.3-8.9c-4.5-6.3-6.9-13.9-11.3-20.3c-5.3-7.8-19.2-21.1-42.7-22.3
			c-2.3-0.1-5.7-0.2-6.5-2.9c-0.2-0.8,0-2,0.4-3.3c-6.2,6.6-10.1,15.4-9.9,25.1l0.6,28.8c0.4,19.7,16.9,35.4,36.6,35
			c1.6,0,3.1-0.2,4.6-0.4l0.9,42.9c0.1,3.7,2.5,6.7,5.3,6.6l20.8-0.4c2.9-0.1,5.1-3.1,5.1-6.8l-1-50.8l-0.4-18.1
			C705.8,452.8,708.2,451.3,709.8,449z M637.3,431.9c-1.4,0-2.6-1.8-2.7-4c0-0.7,0.1-1.3,0.3-1.9l-2.2-2.1l4.4-0.1
			c1.4,0,2.6,1.8,2.7,4S638.7,431.9,637.3,431.9z M639.3,417.7l-6.8,0.1c-1,0-1.8-1-1.8-2.3c0-1.3,0.8-2.3,1.8-2.3l6.8-0.1
			c1,0,1.8,1,1.8,2.3C641.1,416.6,640.3,417.7,639.3,417.7z M651.4,448.3l-3.9-1.2c-2.3-0.7-3.6-3.7-2.7-6.3l0.3-0.8
			c0.2,1.8,1.3,3.3,2.9,3.8l3.9,1.2c1.3,0.4,2.6-0.3,3.3-1.5l0.1,0.4C655.8,446.6,653.7,449,651.4,448.3z M662.1,415
			c0-1.3,1-2.3,2.3-2.4l8.7-0.1c1.3,0,2.3,1,2.4,2.3c0,1.3-1,2.3-2.3,2.4l-8.7,0.1C663.2,417.3,662.1,416.3,662.1,415z M668.6,431.4
			c-1.4,0-2.6-1.8-2.7-4c0-0.7,0.1-1.3,0.3-1.9l-2.2-2.1l4.4-0.1c1.4,0,2.6,1.8,2.7,4C671.2,429.6,670.1,431.4,668.6,431.4z"/>
	</g>
	<g>
		<path style="fill:#FFFFFF;" d="M660,454.6c-0.3,2.5-0.5,4.9-5.8,5.7c0,0-6.4,1.3-8.1-4.4L660,454.6z"/>
	</g>
	<path style="fill:#91B4DE;" d="M506.5,947.8c-4.1,32.8-12.4,65.3-11.3,98.3c0.3,9.3,1.3,18.7-0.6,27.8
		c-2.8,13.3-11.5,24.8-13.7,38.1c-2.1,12.5,1.8,25.2,0.7,37.8c-1.1,13.5-7.7,25.8-15.2,37.3c-1.5,2.3-5.1,1.2-5.1-1.6
		c2-61.5,3.1-123.1,2.3-184.7V818.8c7.2-2.2,14.5-3.7,21.5-6.5c1.8-0.7,3.8-1.6,4.7-3.3c1.4-2.7-0.3-6.1,0.9-8.8
		c6.1-13.4,8.9,14.5,9.1,15.8c1.9,14.9,5.8,29.6,7.4,44.6C510.3,889.5,510.1,918.9,506.5,947.8z"/>
	<path style="fill:#FF9985;" d="M430.9,1170.5c-1.3,7-2.6,13.7-3.9,20.2c-11.8,57,17,48.8,21.8,23.8c2.4-12.5,4.7-25.1,7-37.7
		c-1.6,1.3-3.3,2.5-5.1,3.6C443.1,1182.9,435.3,1178.8,430.9,1170.5z"/>
	<g>
		<path style="fill:#6D72A0;" d="M476,1226.1l-46.4-15c-2.3-0.7-5.1,0.1-5.5,1.7l-7.3,25.3c-0.4,1.5,1.4,2.8,3.8,2.8h49.7
			C483.4,1240.8,487.6,1229.8,476,1226.1z"/>
	</g>
	<path style="fill:#91B4DE;" d="M501.9,816.4c-3.4-4.9-8.7-7.6-14.5-7.6h-66.2l-4.3,0.1l-3.3,3.9l0.2,16.5
		c12.3,86.7,14.1,248.7-5.9,355.1c-0.9,4.8,2.7,9.2,7.5,9.1c4.8,0,13.9-0.2,37-0.9c9.8-0.3,18-7.5,19.5-17.1
		c7.2-45.2,13.6-91.3,19.2-143.5c9.9-92.4,13.6-172.9,13.7-205.1C505,823.3,504.1,819.5,501.9,816.4z"/>
	<path style="fill:#FBE9DC;" d="M345.1,1220l-18.8-6.2c-3.7-1.2-5.4-5.4-3.6-8.8c14-26.9,63.4-125,67.7-133.7l-63.2-29.2
		c-2.7,11.6-4.6,23.6-8.8,34.7c-2.2,5.9-5.1,11.4-8.1,16.9c-0.1-0.2-0.1-0.4-0.2-0.7c-7.5,14.9-14.9,29.4-22.3,43.1
		c-14.8,27.6-22.4,49.1-25.2,65.1l-9.7,34.6c-0.7,2.4,0.5,7.8,6.7,7.8H336C356.6,1243.6,363.3,1226,345.1,1220z"/>
	<path style="fill:#91B4DE;" d="M415.6,812.8l-1.7-6.4h-72l-0.9,0.5c-1.6,0.2-5,0.5-6.9,0.7c-4.7,0.4-6.4,0.5-7.8,1l-8.6,2.5
		l3.3,10.5c-0.7,0.8-1.3,1.9-1.8,3.6c-3.5,10.2,7,45.9,10.1,55.7c8.4,26.8,20.7,54.7,15.2,83.7c-2.6,13.6-8.9,25.9-13.1,38.9
		c-3.1,9.5-5,19.4-7.2,29.2c-2.2,10,3.4,20.1,13,23.7l42.1,15.4c7.7,2.8,16.2-0.5,20-7.8c14.8-28.5,23.8-49.9,26.7-75
		C433.6,926.7,429.9,865.8,415.6,812.8z"/>
	<g>
		<path style="fill:#6D72A0;" d="M398.1,1065.8c-0.2,0-0.5-0.1-0.7-0.2c-0.8-0.4-1.1-1.3-0.7-2.1c14.9-28.6,24.1-50.1,27.1-75.4
			c5.3-44.6,5-88.1-1-129.2c-0.1-0.7,0.3-1.3,0.9-1.6l20-9.6c0.8-0.4,1.7,0,2.1,0.7c0.4,0.8,0,1.7-0.7,2.1l-19,9.1
			c5.9,41.1,6.2,84.4,0.9,128.9c-3.1,25.8-12.4,47.6-27.4,76.5C399.2,1065.5,398.7,1065.8,398.1,1065.8z"/>
	</g>
	<g>
		<g>
			<path style="fill:#452A51;" d="M502.5,631.5c2.9-11.8,5.1-56.4,0.3-67.6c-17.6-40.4-29-43.5-63.9-49.7c-19.5-3.5-62.5,1-71.1,4.2
				c-20.9,7.7-68.8,24.1-80.6,42c-2.7,4,16.3,31.1,12.2,33.3c4,75.5,23.2,113.9,11.6,218.3c-1.3,12,8.5,24.4,20.4,22.2
				c62-11.9,84.1,11.2,142.3-3.2c5.1-1.3,24.2,0.9,31.1-8c3.6-4.6-6.1-16.7-3.4-38.8C506.9,692.6,477.6,731.9,502.5,631.5z"/>
		</g>
	</g>
	<g>
		<g>
			<g>
				<path style="fill:#2B1935;" d="M495.6,829.4c-0.7,0-1.3-0.4-1.5-1.1c-0.2-0.8,0.2-1.7,1.1-1.9c3.8-1.1,6.5-2.7,8.2-4.9
					c1.1-1.4,0.2-4.5-1-8.9c-1.7-6.5-4.4-16.2-2.8-29.2c2.4-39.3-1.8-54.5-5.1-66.6c-4.6-16.7-7.9-28.8,6.3-86.1
					c2.6-10.5,4.5-45.5,1.7-61.3c-0.1-0.8,0.4-1.7,1.3-1.8c0.9-0.1,1.7,0.4,1.8,1.3c2.8,16.2,0.9,51.9-1.8,62.6
					c-14,56.5-10.8,68.3-6.3,84.5c3.4,12.4,7.7,27.9,5.2,67.8c-1.5,12.5,0.9,21.5,2.7,28.1c1.4,5.2,2.4,9,0.4,11.6
					c-2.1,2.7-5.3,4.7-9.7,6C495.9,829.4,495.7,829.4,495.6,829.4z"/>
			</g>
		</g>
	</g>
	<g>
		<g>
			<g>
				<path style="fill:#FF9985;" d="M409.2,570c-7.5-9.4-15.2-18.7-23.1-27.8c-5.1-5.9-4.1-14.8,2.1-19.4c8.6-6.5,18.7-10.6,29.2-9.3
					c11.7,1.5,31.2,10.6,25.1,23.2c-7.4,15.2-3.6,8.1-17.1,32C422.1,574.7,413.6,575.4,409.2,570z"/>
			</g>
		</g>
	</g>
	<g>
		<path style="fill:#000543;" d="M480.7,402.2c-1-1.2-2.4-2-3.3-3.3c-2-2.8-1.1-6.6-1.3-10.1c-0.3-3.4-4-7.5-6.3-5.3
			c1.2-5,2.2-11-1.2-15.2c-6.5-7.8-19.8,0.6-27-6.5c-2.2-2.1-3.3-5.3-5.7-7c-3.3-2.4-7.8-1.1-10.5,1.6c-1.8,1.8-3.1,4.2-4.3,6.5
			c-0.3,0.2-0.5,0.3-0.9,0.4c-2.6,0.9-4,0.4-6.9-0.3c-5.6-1.3-10.8,3.1-13.9,9c-1.3,2.5-5.5-1.1-7,1.3c-3.4,5.3-10.6,7.8-12,14.2
			c-0.8,3.5,0.4,7.4-0.8,10.7c-1.3,3.5-5,5.6-5.5,9.4c-0.8,6,4.6,11.5,4.8,17.4c0.1,2.8,2.6,5.4,2.7,6.4c0.2,2.5,1.1,4.6,2.2,6.4
			c0.9,6.5,2.4,13.8,4.8,22c1.7,5.7,4,10.5,7,14.2c0,0,4.5,4.9,4.5,4.9c-0.3-4.2-0.2-7.7,0.1-10.7c-1.6-3.7-2.5-7.6-2.7-11.7
			c-0.1,0-0.1,0-0.2,0c-5.5-0.3-9.6-5.9-9.2-12.5c0.4-6.4,4.8-11.3,10-11.4l7.3,2c23.5-2.8,17.7-27.6,39-30.5
			c13.9-1.9,22.1,0.9,26.2,3.1c2.6,5.4,4.1,11.6,3.9,18l0.2,0.1c0-0.3,2.8-2.6,2.6-4.9c0.1,0.1,0.2,0.2,0.3,0.2
			C481.6,417.6,484.9,407.1,480.7,402.2z"/>
		<path style="fill:#FF9985;" d="M444.4,404.2c-21.3,2.9-15.5,27.7-39,30.5l-7.3-2c-5.2,0.1-9.7,5-10,11.4
			c-0.4,6.6,3.8,12.2,9.2,12.5c0.1,0,0.1,0,0.2,0c0.2,4.1,1.1,8.1,2.7,11.7c5.9,13.9,20.7,23.8,36.2,24.7
			c20.7,1.2,35.1-14,36.3-35.3l1.8-31.2c0-0.4,0-0.7,0-1.1c0.2-6.5-1.2-12.6-3.9-18C466.5,405.1,458.2,402.3,444.4,404.2z"/>
		<g>
			<path style="fill:#FF9985;" d="M401.2,529.4l27.3-0.7c3.7,0.1,6.5,6.9,6.7,3.1l2.9-84.4c0.1-3.8-2.8-7-6.5-7.1l-26.8-0.9
				c-3.7-0.1-6.8,2.9-6.9,6.7l-2.9,84.4C394.8,534.2,397.5,529.3,401.2,529.4z"/>
		</g>
		<g>
			<path style="fill:#000543;" d="M441.3,421.6l-8.5-0.4c-1.2-0.1-2.3,0.9-2.4,2.1c-0.1,1.2,0.9,2.3,2.1,2.4l8.5,0.4
				c1.2,0.1,2.3-0.9,2.4-2.1C443.5,422.7,442.6,421.6,441.3,421.6z"/>
		</g>
		<g>
			<path style="fill:#000543;" d="M475,422.8l-8.5-0.4c-1.2-0.1-2.3,0.9-2.4,2.1c-0.1,1.2,0.9,2.3,2.2,2.4l8.5,0.4
				c1.2,0.1,2.3-0.9,2.4-2.1C477.2,424,476.2,422.9,475,422.8z"/>
		</g>
		<g>
			<path style="fill:#000543;" d="M468.8,434.6c-0.1,2.2-1.4,4-2.8,3.9c-1.4-0.1-2.5-1.9-2.4-4.2c0.1-2.2,1.4-4,2.8-3.9
				C467.8,430.5,468.9,432.4,468.8,434.6z"/>
		</g>
		<g>
			<path style="fill:#000543;" d="M436.7,433.6c-0.1,2.2-1.4,4-2.8,3.9c-1.4-0.1-2.5-1.9-2.4-4.2c0.1-2.2,1.4-4,2.8-3.9
				C435.8,429.5,436.8,431.4,436.7,433.6z"/>
		</g>
		<path style="fill:#FA694F;" d="M457.5,446.9l-0.3-0.8c-0.3,1.7-1.6,3.2-3.4,3.6l-4.5,1c-1.5,0.3-2.9-0.4-3.7-1.6l-0.1,0.4
			c-0.7,2.6,1.6,4.9,4.2,4.4l4.5-1C456.9,452.4,458.5,449.5,457.5,446.9z"/>
		<path style="fill:#FFFFFF;" d="M436.3,461.4l12.9,4.1C449.2,465.5,440.7,470.4,436.3,461.4z"/>
	</g>
	<g>
		<path style="fill:#FBE9DC;" d="M757.6,1219.3l-10.2-3.3c-17.8,11.1-40.1,5.6-52,1.3l-4.4,15c-0.5,1.6,1.5,3.1,4.2,3.1l55.9,0.2
			C765.8,1235.6,770.6,1223.5,757.6,1219.3z"/>
		<path style="fill:#FF9985;" d="M747.5,1216l-41.9-13.6c-2.6-0.8-5.7,0.1-6.2,1.9l-3.8,13C707.4,1221.6,729.7,1227,747.5,1216z"/>
	</g>
	<g>
		<path style="fill:#FBE9DC;" d="M675.2,1218.9l-10.2-3.3c-17.8,11.1-40.1,5.6-52,1.3l-4.4,15c-0.5,1.6,1.5,3.1,4.2,3.1l55.9,0.2
			C683.4,1235.3,688.2,1223.1,675.2,1218.9z"/>
		<path style="fill:#FF9985;" d="M665,1215.6l-41.9-13.6c-2.6-0.8-5.7,0.1-6.2,1.9l-3.8,13C624.9,1221.2,647.2,1226.7,665,1215.6z"
			/>
	</g>
	<g>
		<g>
			<g>
				<path style="fill:#6D72A0;" d="M294.9,1243.7l21.3-285.3c-5.3-0.6-10.5-2.3-15.2-5l-21.7,290.2H294.9z"/>
			</g>
		</g>
		<g>
			<g>
				<path style="fill:#6D72A0;" d="M365.5,616.7h-71.9c-6.1,0-11.1-5-11.1-11.1c0-6.1,5-11.1,11.1-11.1h71.9c6.1,0,11.1,5,11.1,11.1
					C376.6,611.7,371.6,616.7,365.5,616.7z"/>
			</g>
		</g>
		<g>
			<g>
				<path style="fill:#6D72A0;" d="M330.4,853.1h-34.8c-3.5,0-6.4-3.1-6.4-6.9c0-3.8,2.9-6.9,6.4-6.9h34.8c3.5,0,6.4,3.1,6.4,6.9
					C336.7,850,333.9,853.1,330.4,853.1z"/>
			</g>
		</g>
		<g>
			<g>
				<path style="fill:#6D72A0;" d="M305.2,964.6c-13.8-1-24.2-13-23.2-26.7L304.2,624c1-13.8,13-24.2,26.7-23.2
					c13.8,1,24.2,13,23.2,26.7l-22.2,313.9C330.9,955.2,318.9,965.6,305.2,964.6z M329.9,615c-5.9-0.4-11,4-11.5,9.9l-22.2,313.9
					c-0.4,5.9,4,11,9.9,11.5c5.9,0.4,11-4,11.5-9.9l22.2-313.9C340.2,620.6,335.8,615.4,329.9,615z"/>
			</g>
		</g>
	</g>
	<g>
		<g>
			<g>
				<path style="fill:#FF9985;" d="M325.2,823.3c-15.8-45.6-20.6-93.4-13.8-138.3c1.7-14.1,4.7-28.5,9-42.9l-47.4,6
					c-4,55.1,7.6,117.6,31.5,178.8L325.2,823.3z"/>
			</g>
		</g>
		<g>
			<path style="fill:#452A51;" d="M269.9,616.4c4.4-32.2,11.8-53.3,22.1-62c10.6-9.1,49.3-2.6,50.1-0.2c7.5,21.3-11.5,98.9-14.8,108
				l-52.7,2.3c-5.9,0.6-10.9-4.4-10.2-10.3C265.8,641,267.8,624.8,269.9,616.4z"/>
		</g>
	</g>
	<path style="fill:#FF9985;" d="M325.8,823.9c-0.7-1.3-1.9-2.8-3.4-5.1c-4.2-6.4-8.7-4.2-12.6-1.1c-7.4,5.9-14.6,24.2-11.3,33
		c1.7,4.6,7.8,10.4,12.9,13.2c1.3,0.7,3.6,0.8,6,0.6c4-0.4,6.8-3.5,6.6-7.1L325.8,823.9z"/>
</g>
<g>
	<g>
		<g>
			<rect x="1197.9" y="905.4" style="fill:#7B7C7B;" width="1.4" height="151.5"/>
		</g>
		<g>
			<polygon style="fill:#7B7C7B;" points="1198.4,1056.7 1197,1057.2 1167,910.9 1168.4,910.4 			"/>
		</g>
		<g>
			<polygon style="fill:#7B7C7B;" points="1197.4,1056.9 1196.1,1057.8 1138.3,926.6 1139.5,925.7 			"/>
		</g>
		<g>
			<polygon style="fill:#7B7C7B;" points="1196.4,1057.3 1195.4,1058.6 1113.6,951.5 1114.6,950.2 			"/>
		</g>
		<g>
			<polygon style="fill:#7B7C7B;" points="1195.6,1058.1 1194.9,1059.7 1094.7,984 1095.4,982.3 			"/>
		</g>
		<g>
			<polygon style="fill:#7B7C7B;" points="1195,1059.1 1194.6,1060.9 1082.8,1021.7 1083.2,1019.9 			"/>
		</g>
		<g>
			<rect x="1078.9" y="1060.3" style="fill:#7B7C7B;" width="115.7" height="1.9"/>
		</g>
		<g>
			<polygon style="fill:#7B7C7B;" points="1194.4,1061.6 1194.8,1063.4 1083,1102.6 1082.6,1100.8 			"/>
		</g>
		<g>
			<polygon style="fill:#7B7C7B;" points="1194.5,1062.9 1195.2,1064.5 1095,1140.2 1094.3,1138.6 			"/>
		</g>
		<g>
			<polygon style="fill:#7B7C7B;" points="1194.9,1064.1 1195.9,1065.4 1114.1,1172.5 1113,1171.2 			"/>
		</g>
		<g>
			<polygon style="fill:#7B7C7B;" points="1195.5,1065.1 1196.7,1066.1 1138.8,1197.3 1137.6,1196.3 			"/>
		</g>
		<g>
			<polygon style="fill:#7B7C7B;" points="1196.2,1066 1197.6,1066.5 1167.7,1212.8 1166.3,1212.3 			"/>
		</g>
		<g>
			<rect x="1197.1" y="1066.5" style="fill:#7B7C7B;" width="1.4" height="151.5"/>
		</g>
		<g>
			<polygon style="fill:#7B7C7B;" points="1198.1,1066.7 1199.5,1066.2 1229.5,1212.6 1228.1,1213 			"/>
		</g>
		<g>
			<polygon style="fill:#7B7C7B;" points="1199.1,1066.6 1200.4,1065.6 1258.2,1196.8 1257,1197.8 			"/>
		</g>
		<g>
			<polygon style="fill:#7B7C7B;" points="1200,1066.1 1201.1,1064.8 1282.9,1171.9 1281.9,1173.3 			"/>
		</g>
		<g>
			<polygon style="fill:#7B7C7B;" points="1200.9,1065.4 1201.6,1063.7 1301.8,1139.5 1301.1,1141.1 			"/>
		</g>
		<g>
			<polygon style="fill:#7B7C7B;" points="1201.5,1064.4 1201.9,1062.5 1313.6,1101.7 1313.3,1103.6 			"/>
		</g>
		<g>
			<rect x="1201.9" y="1061.3" style="fill:#7B7C7B;" width="115.7" height="1.9"/>
		</g>
		<g>
			<polygon style="fill:#7B7C7B;" points="1202.1,1061.9 1201.7,1060.1 1313.5,1020.9 1313.8,1022.7 			"/>
		</g>
		<g>
			<polygon style="fill:#7B7C7B;" points="1202,1060.6 1201.2,1059 1301.5,983.2 1302.2,984.8 			"/>
		</g>
		<g>
			<polygon style="fill:#7B7C7B;" points="1201.6,1059.4 1200.6,1058 1282.4,950.9 1283.4,952.2 			"/>
		</g>
		<g>
			<polygon style="fill:#7B7C7B;" points="1201,1058.3 1199.8,1057.4 1257.6,926.2 1258.9,927.1 			"/>
		</g>
		<g>
			<polygon style="fill:#7B7C7B;" points="1200.3,1057.5 1198.9,1057 1228.8,910.7 1230.2,911.1 			"/>
		</g>
	</g>
	<g>
		<path style="fill:#26266D;" d="M1196.3,888.7c-74.7,0-135.3,79.3-135.3,177.1c0,97.8,60.6,177.1,135.3,177.1
			c74.7,0,135.3-79.3,135.3-177.1C1331.6,968,1271,888.7,1196.3,888.7z M1196.3,1215.8c-63.2,0-114.5-67.1-114.5-149.9
			c0-82.8,51.3-149.9,114.5-149.9c63.3,0,114.5,67.1,114.5,149.9C1310.8,1148.6,1259.5,1215.8,1196.3,1215.8z"/>
	</g>
	<g>
		<path style="fill:#6D72A0;" d="M851.5,757.2c-3.5,0-6.4-2.8-6.4-6.4v-66.2c0-1.7,0.7-3.3,1.9-4.5c1.2-1.2,2.8-1.9,4.5-1.8
			c19.7,0.2,42,0.3,45.5,0.1c2.4-0.4,5,0.5,6.4,2.7c2,2.9,1.2,6.9-1.7,8.8c-2,1.4-2.4,1.6-43.9,1.1v59.8
			C857.8,754.4,855,757.2,851.5,757.2z"/>
	</g>
	<path style="fill:#F9C29D;" d="M1146.9,984.3l-62.1-285.9c-3.1-15.9-17.6-28.9-32.3-28.9H907.6c-14.7,0-24.2,13-21.1,28.9
		l55.6,285.9H1146.9z"/>
	<path style="fill:#FBE9DC;" d="M980.1,984.3H1185l-61.8-285.7c-3.1-16-17.6-29-32.3-29H946c-14.7,0-24.2,13.1-21.1,29L980.1,984.3z
		"/>
	<g>
		<path style="fill:#6D72A0;" d="M1117.8,917.6c-3.5,0-6.4-2.8-6.4-6.4v-48c0-8.9,7.2-16.1,16.1-16.1h89.3c3.5,0,6.4,2.8,6.4,6.4
			c0,3.5-2.8,6.4-6.4,6.4h-89.3c-1.9,0-3.4,1.5-3.4,3.4v48C1124.1,914.7,1121.3,917.6,1117.8,917.6z"/>
	</g>
	<g>
		<rect x="1132.1" y="993.7" style="fill:#6D72A0;" width="12.7" height="206.8"/>
	</g>
	<g>
		<path style="fill:#6D72A0;" d="M917.4,1073.5V916.1h12.7v144c8.6-0.5,20.9-1.1,22.1-1.1h296.7v12.7H952.2c-1.4,0-18,0.9-28.1,1.4
			L917.4,1073.5z"/>
	</g>
	<path style="fill:#F9C29D;" d="M1248.9,849.1h-121.3c-3.2,0-5.8-2.6-5.8-5.8v-6c0-3.2,2.6-5.8,5.8-5.8h121.3c3.2,0,5.8,2.6,5.8,5.8
		v6C1254.7,846.5,1252.1,849.1,1248.9,849.1z"/>
	<path style="fill:#F9C29D;" d="M1185.6,979.6H940.2l3.3,16.2c3.1,15.2,16.4,26.1,31.8,26.2h210.2V979.6z"/>
	<path style="fill:#FBE9DC;" d="M1295.8,978.6l-29.6-0.1l-89.2-0.3l-48.8-0.2v29.3c0,8.3,6.7,14.9,15,14.9l33.7-0.4l89.2,0.3
		l29.7,0.1V978.6z"/>
	<path style="fill:#FFFFFF;" d="M1116.2,708.8C1116.3,708.9,1116.2,708.8,1116.2,708.8C1116.2,708.7,1116.2,708.7,1116.2,708.8z"/>
	<path style="fill:#FFB288;" d="M1041.3,945.2c0.7,0.3,1.5,0.5,2.2,0.8C1042.1,945.5,1041.3,945.2,1041.3,945.2z"/>
	<path style="fill:#FFB288;" d="M1039.6,945.1c0.7,0.3,1.5,0.5,2.2,0.7C1040.5,945.3,1039.6,945.1,1039.6,945.1z"/>
	<g>
		<path style="fill:#6D72A0;" d="M922.8,918.2c-3.5,0-6.4-2.8-6.4-6.4v-48c0-8.9,7.2-16.1,16.1-16.1h89.3c3.5,0,6.4,2.8,6.4,6.4
			c0,3.5-2.8,6.4-6.4,6.4h-89.3c-1.9,0-3.4,1.5-3.4,3.4v48C929.2,915.3,926.3,918.2,922.8,918.2z"/>
	</g>
	<g>
		<g>
			<rect x="923.7" y="908.6" style="fill:#7B7C7B;" width="1.4" height="151.5"/>
		</g>
		<g>
			<polygon style="fill:#7B7C7B;" points="924.1,1059.9 922.8,1060.4 892.8,914.1 894.2,913.6 			"/>
		</g>
		<g>
			<polygon style="fill:#7B7C7B;" points="923.2,1060 921.9,1061 864,929.8 865.3,928.8 			"/>
		</g>
		<g>
			<polygon style="fill:#7B7C7B;" points="922.2,1060.5 921.2,1061.8 839.4,954.7 840.4,953.4 			"/>
		</g>
		<g>
			<polygon style="fill:#7B7C7B;" points="921.4,1061.2 920.7,1062.9 820.5,987.1 821.2,985.5 			"/>
		</g>
		<g>
			<polygon style="fill:#7B7C7B;" points="920.8,1062.3 920.4,1064.1 808.6,1024.9 809,1023 			"/>
		</g>
		<g>
			<rect x="804.6" y="1063.4" style="fill:#7B7C7B;" width="115.7" height="1.9"/>
		</g>
		<g>
			<polygon style="fill:#7B7C7B;" points="920.2,1064.7 920.6,1066.6 808.8,1105.8 808.4,1103.9 			"/>
		</g>
		<g>
			<polygon style="fill:#7B7C7B;" points="920.3,1066 921,1067.7 820.8,1143.4 820.1,1141.8 			"/>
		</g>
		<g>
			<polygon style="fill:#7B7C7B;" points="920.6,1067.3 921.7,1068.6 839.8,1175.7 838.8,1174.4 			"/>
		</g>
		<g>
			<polygon style="fill:#7B7C7B;" points="921.2,1068.3 922.5,1069.3 864.6,1200.5 863.4,1199.5 			"/>
		</g>
		<g>
			<polygon style="fill:#7B7C7B;" points="922,1069.1 923.4,1069.6 893.4,1216 892,1215.5 			"/>
		</g>
		<g>
			<rect x="922.9" y="1069.7" style="fill:#7B7C7B;" width="1.4" height="151.5"/>
		</g>
		<g>
			<polygon style="fill:#7B7C7B;" points="923.9,1069.9 925.3,1069.4 955.2,1215.7 953.8,1216.2 			"/>
		</g>
		<g>
			<polygon style="fill:#7B7C7B;" points="924.9,1069.8 926.1,1068.8 984,1200 982.7,1201 			"/>
		</g>
		<g>
			<polygon style="fill:#7B7C7B;" points="925.8,1069.3 926.8,1068 1008.7,1175.1 1007.6,1176.4 			"/>
		</g>
		<g>
			<polygon style="fill:#7B7C7B;" points="926.6,1068.5 927.3,1066.9 1027.6,1142.7 1026.8,1144.3 			"/>
		</g>
		<g>
			<polygon style="fill:#7B7C7B;" points="927.3,1067.5 927.6,1065.7 1039.4,1104.9 1039,1106.8 			"/>
		</g>
		<g>
			<rect x="927.7" y="1064.5" style="fill:#7B7C7B;" width="115.7" height="1.9"/>
		</g>
		<g>
			<polygon style="fill:#7B7C7B;" points="927.8,1065.1 927.5,1063.2 1039.2,1024 1039.6,1025.9 			"/>
		</g>
		<g>
			<polygon style="fill:#7B7C7B;" points="927.7,1063.8 927,1062.1 1027.2,986.4 1028,988 			"/>
		</g>
		<g>
			<polygon style="fill:#7B7C7B;" points="927.4,1062.5 926.4,1061.2 1008.2,954.1 1009.2,955.4 			"/>
		</g>
		<g>
			<polygon style="fill:#7B7C7B;" points="926.8,1061.5 925.6,1060.5 983.4,929.3 984.7,930.3 			"/>
		</g>
		<g>
			<polygon style="fill:#7B7C7B;" points="926,1060.7 924.6,1060.2 954.6,913.8 956,914.3 			"/>
		</g>
	</g>
	<g>
		<path style="fill:#0B0949;" d="M922,891.9c-74.7,0-135.3,79.3-135.3,177.1c0,97.8,60.6,177.1,135.3,177.1
			c74.7,0,135.3-79.3,135.3-177.1C1057.3,971.2,996.8,891.9,922,891.9z M922,1218.9c-63.2,0-114.5-67.1-114.5-149.9
			c0-82.8,51.3-149.9,114.5-149.9c63.3,0,114.5,67.1,114.5,149.9C1036.6,1151.8,985.3,1218.9,922,1218.9z"/>
	</g>
	<path style="fill:#6D72A0;" d="M933.5,1065.4c0,7.9-4,14.2-8.9,14.2c-4.9,0-8.9-6.4-8.9-14.2c0-7.9,4-14.2,8.9-14.2
		C929.5,1051.1,933.5,1057.5,933.5,1065.4z"/>
	<path style="fill:#F9C29D;" d="M1298.5,1238.1h-172.9c-5.4,0-9.9-4.5-9.9-9.9c0-5.4,4.5-9.9,9.9-9.9h172.9c5.4,0,9.9,4.5,9.9,9.9
		C1308.4,1233.6,1303.9,1238.1,1298.5,1238.1z"/>
	<path style="fill:#FBE9DC;" d="M1333.6,1238h-133.8c-5.4,0-9.9-4.5-9.9-9.9c0-5.4,4.5-9.9,9.9-9.9h133.8c5.4,0,9.9,4.5,9.9,9.9
		C1343.5,1233.5,1339,1238,1333.6,1238z"/>
	<g>
		<g>
			<rect x="1071.8" y="1159.1" style="fill:#7B7C7B;" width="0.4" height="38.6"/>
		</g>
		<g>
			<polygon style="fill:#7B7C7B;" points="1071.9,1197.7 1071.6,1197.8 1063.9,1160.5 1064.3,1160.4 			"/>
		</g>
		<g>
			<polygon style="fill:#7B7C7B;" points="1071.7,1197.7 1071.3,1198 1056.6,1164.5 1056.9,1164.3 			"/>
		</g>
		<g>
			<polygon style="fill:#7B7C7B;" points="1071.4,1197.8 1071.2,1198.2 1050.3,1170.9 1050.5,1170.5 			"/>
		</g>
		<g>
			<polygon style="fill:#7B7C7B;" points="1071.2,1198 1071,1198.5 1045.5,1179.1 1045.6,1178.7 			"/>
		</g>
		<g>
			<polygon style="fill:#7B7C7B;" points="1071.1,1198.3 1071,1198.8 1042.4,1188.8 1042.5,1188.3 			"/>
		</g>
		<g>
			<rect x="1041.4" y="1198.6" style="fill:#7B7C7B;" width="29.5" height="0.5"/>
		</g>
		<g>
			<polygon style="fill:#7B7C7B;" points="1070.9,1198.9 1071,1199.4 1042.5,1209.4 1042.4,1208.9 			"/>
		</g>
		<g>
			<polygon style="fill:#7B7C7B;" points="1070.9,1199.3 1071.1,1199.7 1045.5,1219 1045.4,1218.6 			"/>
		</g>
		<g>
			<polygon style="fill:#7B7C7B;" points="1071,1199.6 1071.3,1199.9 1050.4,1227.2 1050.1,1226.9 			"/>
		</g>
		<g>
			<polygon style="fill:#7B7C7B;" points="1071.2,1199.8 1071.5,1200.1 1056.7,1233.6 1056.4,1233.3 			"/>
		</g>
		<g>
			<polygon style="fill:#7B7C7B;" points="1071.4,1200.1 1071.7,1200.2 1064.1,1237.5 1063.7,1237.4 			"/>
		</g>
		<g>
			<rect x="1071.6" y="1200.2" style="fill:#7B7C7B;" width="0.4" height="38.6"/>
		</g>
		<g>
			<polygon style="fill:#7B7C7B;" points="1071.8,1200.2 1072.2,1200.1 1079.8,1237.5 1079.5,1237.6 			"/>
		</g>
		<g>
			<polygon style="fill:#7B7C7B;" points="1072.1,1200.2 1072.4,1200 1087.2,1233.4 1086.9,1233.7 			"/>
		</g>
		<g>
			<polygon style="fill:#7B7C7B;" points="1072.3,1200.1 1072.6,1199.8 1093.5,1227.1 1093.2,1227.4 			"/>
		</g>
		<g>
			<polygon style="fill:#7B7C7B;" points="1072.5,1199.9 1072.7,1199.5 1098.3,1218.8 1098.1,1219.2 			"/>
		</g>
		<g>
			<polygon style="fill:#7B7C7B;" points="1072.7,1199.6 1072.8,1199.2 1101.3,1209.2 1101.2,1209.6 			"/>
		</g>
		<g>
			<rect x="1072.8" y="1198.9" style="fill:#7B7C7B;" width="29.5" height="0.5"/>
		</g>
		<g>
			<polygon style="fill:#7B7C7B;" points="1072.9,1199 1072.8,1198.6 1101.3,1188.5 1101.4,1189 			"/>
		</g>
		<g>
			<polygon style="fill:#7B7C7B;" points="1072.8,1198.7 1072.6,1198.3 1098.2,1178.9 1098.4,1179.4 			"/>
		</g>
		<g>
			<polygon style="fill:#7B7C7B;" points="1072.7,1198.4 1072.5,1198 1093.4,1170.7 1093.6,1171 			"/>
		</g>
		<g>
			<polygon style="fill:#7B7C7B;" points="1072.6,1198.1 1072.3,1197.9 1087,1164.4 1087.4,1164.6 			"/>
		</g>
		<g>
			<polygon style="fill:#7B7C7B;" points="1072.4,1197.9 1072,1197.8 1079.7,1160.4 1080,1160.6 			"/>
		</g>
	</g>
	<g>
		<g>
			<path style="fill:#0B0949;" d="M1071.4,1154.8c-19.1,0-34.5,20.2-34.5,45.2c0,25,15.5,45.2,34.5,45.2c19.1,0,34.5-20.2,34.5-45.2
				C1105.9,1175.1,1090.4,1154.8,1071.4,1154.8z M1071.4,1238.3c-16.1,0-29.2-17.1-29.2-38.2c0-21.1,13.1-38.3,29.2-38.3
				c16.1,0,29.2,17.1,29.2,38.3C1100.6,1221.1,1087.5,1238.3,1071.4,1238.3z"/>
			<path style="fill:#0B0949;" d="M1071.4,1248.4c-20.8,0-37.7-21.7-37.7-48.4c0-26.7,16.9-48.4,37.7-48.4
				c20.8,0,37.7,21.7,37.7,48.4C1109.1,1226.7,1092.2,1248.4,1071.4,1248.4z M1054,1235c5,4.4,10.9,7,17.3,7s12.4-2.6,17.3-7
				c-5,4.1-11,6.4-17.3,6.4S1059,1239.1,1054,1235z M1071.4,1164.9c-14.4,0-26,15.7-26,35.1c0,19.3,11.7,35.1,26,35.1
				s26-15.7,26-35.1C1097.4,1180.7,1085.7,1164.9,1071.4,1164.9z M1071.4,1158.6c6.4,0,12.3,2.4,17.3,6.4c-5-4.4-10.9-7-17.3-7
				c-6.4,0-12.4,2.6-17.3,7C1059,1161,1065,1158.6,1071.4,1158.6z"/>
		</g>
	</g>
	<path style="fill:#6D72A0;" d="M1159.1,1199.7c0,5.7-3.5,10.3-7.9,10.3c-4.4,0-7.9-4.6-7.9-10.3c0-5.7,3.5-10.3,7.9-10.3
		C1155.5,1189.4,1159.1,1194,1159.1,1199.7z"/>
	<g>
		<g>
			<path style="fill:#FF9985;" d="M1315.9,928.4c0,1.6-1.4,2.9-3.1,3l-15.4,0.2c-1.7,0-3.1-1.3-3.1-2.9c0-1.6,1.4-2.9,3.1-3
				l15.4-0.2C1314.5,925.5,1315.9,926.8,1315.9,928.4z"/>
		</g>
		<path style="fill:#FF9985;" d="M1291.1,953.7c2.3,0.9,4.8,1.7,6.8,1.3c1.6-0.3,2.7-1.2,3.8-2.2c2.7-2.5,5-5.4,6.8-8.7
			c1.6-3,2.8-7,0.2-10.9c-2.5-3.8-6.8-6.2-10.9-7.1c-7.8-1.7-10.6-2.3-16.8,0c-7.7,2.9-10.4,8.7-2.5,16.8
			C1282.6,947,1286,951.6,1291.1,953.7z"/>
		<g>
			<path style="fill:#FF9985;" d="M1304.8,936.4l15.2,16c1,1.1,2.8,1.1,3.9,0.1c1.1-1,1.1-2.7,0.1-3.8l-15.2-16
				c-1-1.1-2.8-1.1-3.9-0.1C1303.8,933.6,1303.8,935.3,1304.8,936.4z"/>
		</g>
		<g>
			<path style="fill:#FF9985;" d="M1300.9,943l15.2,16c1,1.1,2.8,1.1,3.9,0.1c1.1-1,1.1-2.7,0.1-3.8l-15.2-16
				c-1-1.1-2.8-1.1-3.9-0.1C1299.9,940.2,1299.9,941.9,1300.9,943z"/>
		</g>
		<g>
			<path style="fill:#FF9985;" d="M1292.8,946.4l15.2,16c1,1.1,2.8,1.1,3.9,0.1c1.1-1,1.1-2.7,0.1-3.8l-15.2-16
				c-1-1.1-2.8-1.1-3.9-0.1C1291.9,943.6,1291.8,945.3,1292.8,946.4z"/>
		</g>
		<g>
			<path style="fill:#FF9985;" d="M1284.4,946.7l15.2,16c1,1.1,2.8,1.1,3.9,0.1c1.1-1,1.1-2.7,0.1-3.8l-15.2-16
				c-1-1.1-2.8-1.1-3.9-0.1C1283.4,943.9,1283.4,945.6,1284.4,946.7z"/>
		</g>
	</g>
	<path style="fill:#FF9985;" d="M1205.5,839c-1.2,1.5-1.6,2.4-1.6,2.4l-0.6,1.3c-2.1,19.4,72.3,89.7,92.1,105.5l7.3-9.1
		c-0.2-0.3-0.3-0.5-0.5-0.8c-0.5-0.9-1-1.8-1.6-2.4c-3.8-4.1-46.8-63.1-55.2-74.8l-17.5-21.7c-2.9-3.4-7.2-5.4-11.8-5.3
		C1211.9,834.1,1208.1,835.9,1205.5,839z"/>
	<path style="fill:#FF9985;" d="M1226.7,841.6c-4.7-32.5-15.7-108.1-17-120.3l-36.5,19.9c9,53.7,20.9,96.9,36.5,115.9
		c0.5,0.6,1.2-1.9,5.3-1.8c3.3,0.1,6.3-1.2,8.6-3.7C1226.2,848.9,1227.3,845.2,1226.7,841.6z"/>
	<g>
		<path style="fill:#FFB288;" d="M1042.3,915.4c0.8,0.3,1.6,0.6,2.4,0.8C1043.2,915.7,1042.3,915.4,1042.3,915.4z"/>
	</g>
	<g>
		<path style="fill:#FFB288;" d="M1040.5,915.2c0.8,0.3,1.6,0.6,2.4,0.8C1041.4,915.5,1040.5,915.2,1040.5,915.2z"/>
	</g>
	<polygon style="fill:#FF9E88;" points="1230.6,1170 1203,1167.8 1187.8,1198.4 1188.3,1208.6 1202.9,1209.8 1214.9,1201.3 
		1214.3,1199.6 	"/>
	<path style="fill:#8881B6;" d="M1239,1204.7l-23.7-7.6c-7.2,12.4-19.1,10.8-26,1.3c-0.6-0.8-1.8-0.6-2.1,0.4l-5,17.6
		c-0.4,1.4,1.3,2.7,3.6,2.7l47.7-0.2C1246.1,1218.8,1250.2,1208.3,1239,1204.7z"/>
	<path style="fill:#F75B37;" d="M1242.9,919.7c35.9,6.8,79.5,29.5,77.2,65.1c-3.2,32.5-20,68.5-32.3,99.5
		c-11.4,29-27.1,59.2-45.9,87.8c-2.3,3.5-6.6,5.7-11.1,5.7l-37.9,0c-4.2,0-6.8-4-4.8-7.3c52.2-89.2,59.5-148.3,62.9-172.8
		c0.8-6.1-3.9-11.6-10.8-12.3c-17.6-2-50.4-5.6-85.3-10.5c-37.2-5.2-44.8-38.7-46.7-71.5C1108.1,903.2,1189.8,909.7,1242.9,919.7z"
		/>
	<polygon style="fill:#FF9E88;" points="1174.2,1170.8 1146.6,1168.6 1130.1,1200.4 1131.9,1209.4 1146.4,1210.5 1158.5,1202.1 
		1157.9,1200.3 	"/>
	<path style="fill:#8881B6;" d="M1181.7,1205.6l-23.7-7.6c-7.7,13.3-20.9,10.5-27.4-0.9l-5.7,20.1c-0.4,1.4,1.3,2.7,3.6,2.7
		l47.7-0.2C1188.8,1219.8,1192.9,1209.2,1181.7,1205.6z"/>
	<path style="fill:#F75B37;" d="M1196.9,933.2c35.9,6.6,74.3,22.4,72,57.3c-3.2,31.7-20,66.9-32.3,97.2
		c-11.4,28.3-27.1,57.8-45.9,85.7c-2.3,3.4-6.6,5.5-11.1,5.5l-37.9,0c-4.2,0-6.8-3.9-4.8-7.2c52.2-87.1,59.5-144.9,62.9-168.7
		c0.8-6-3.9-11.3-10.8-12.1c-17.6-1.9-50.4-5.5-85.3-10.2c-37.2-5-61.4-30.3-63.4-62.4C1040.4,918.1,1143.8,923.5,1196.9,933.2z"/>
	<g>
		<path style="fill:#CC442E;" d="M1192.6,1175.4l-2.6-1.8c18.5-27.8,34.3-57.8,45.9-86.8c2.1-5.4,4.4-10.9,6.8-16.5
			c10.7-25.9,22.9-55.3,25.7-81.7l-0.2-0.4l0-0.2c2-36-38.1-51.1-72.2-57.5c-48.6-9.1-137.8-14.2-147.8-14.7l0.2-3.2
			c10,0.6,99.4,5.7,148.2,14.8c35.2,6.6,76.7,22.4,74.8,60.4c0.1,0.4,0.1,0.7,0.1,1.1c-2.8,26.8-15.1,56.4-25.9,82.5
			c-2.3,5.6-4.6,11.1-6.7,16.5C1227.2,1117.2,1211.2,1147.4,1192.6,1175.4z"/>
	</g>
	<path style="fill:#91B4DE;" d="M1070,731.4c0.3-28.3,27.7-54.7,55.3-58.7c37-5.3,47.9-7.8,66.3,3.6c1.2,0.9,2.4,1.8,3.5,2.7
		c20.3,17,21,48.1,7.6,70.8c-50.7,85.9-5.8,98.2-16.5,151.9c-1.3,6.7-7.1,11.6-13.9,11.9c-39.2,2-67.7,18.5-120.5,11.7
		c-4.5-0.6-9.5-0.4-12.9-3.5c-3.4-3.1-4.8-16.9-5.2-21.9C1055.3,824.7,1069.6,767.8,1070,731.4z"/>
	<g>
		<path style="fill:#FF9985;" d="M1165.9,708.8c-9-5.8-18-11.6-27.2-17.2c-5.9-3.6-8.2-10-5.1-13.9c4.3-5.5,10.6-9.4,19-9.6
			c9.4-0.2,27.4,4.2,27.1,13.7c-0.3,11.5,0,6.1-1.9,24.4C1177.4,710.8,1171.1,712.2,1165.9,708.8z"/>
	</g>
	<g>
		<path style="fill:#FF9985;" d="M1192.3,927.4c1.2-2.8,2.5-5.5,3.8-8.2c0.1-0.3,0.1-0.6,0.2-0.9c-66.5-30.1-98.6-86.1-98.5-90.5
			c0.6-16.7,6.3-69.3,24.2-99.8c4.6-7.9-1.2-23-9.9-28.7c-8.8-5.7-19.7-4-24.3,3.9c-20.8,35.6-25,94.6-25.9,118.4
			c-0.3,8.1,2,16.4,6.5,23.9c28.8,47.2,82.2,76.8,119.7,91C1189.4,933.3,1190.8,930.3,1192.3,927.4z"/>
	</g>
	<g>
		<g>
			<path style="fill:#FF9985;" d="M1212,909.1c0.9,1.4,0.5,3.2-1,3.9l-13,6.5c-1.4,0.7-3.4,0.1-4.3-1.3c-0.9-1.4-0.5-3.2,1-3.9
				l13-6.5C1209.1,907.1,1211.1,907.7,1212,909.1z"/>
		</g>
		<path style="fill:#FF9985;" d="M1204.9,942.3c2.5-0.1,5-0.5,6.5-1.6c1.2-0.9,1.6-2.2,2-3.6c0.9-3.4,1.2-7,0.9-10.7
			c-0.3-3.4-1.5-7.5-5.9-10c-4.2-2.4-9.2-2.9-13.2-2c-7.6,1.6-10.3,2.3-14.2,6.9c-4.9,5.8-4,12.2,7.2,16.3
			C1193.9,939.7,1199.4,942.6,1204.9,942.3z"/>
		<g>
			<path style="fill:#FF9985;" d="M1207,921l21.7,8.3c1.5,0.6,3-0.1,3.3-1.5c0.4-1.4-0.5-3-2-3.5l-21.7-8.3c-1.5-0.6-3,0.1-3.3,1.5
				C1204.6,918.9,1205.5,920.5,1207,921z"/>
		</g>
		<g>
			<path style="fill:#FF9985;" d="M1207.3,928.6l21.7,8.3c1.5,0.6,3-0.1,3.3-1.5c0.4-1.4-0.5-3-2-3.5l-21.7-8.3
				c-1.5-0.6-3,0.1-3.3,1.5C1204.9,926.5,1205.8,928.1,1207.3,928.6z"/>
		</g>
		<g>
			<path style="fill:#FF9985;" d="M1202.3,935l21.7,8.3c1.5,0.6,3-0.1,3.3-1.5c0.4-1.4-0.5-3-2-3.5l-21.7-8.3
				c-1.5-0.6-3,0.1-3.3,1.5C1199.9,932.8,1200.8,934.4,1202.3,935z"/>
		</g>
		<g>
			<path style="fill:#FF9985;" d="M1195.3,938.7l21.7,8.3c1.5,0.6,3-0.1,3.3-1.5c0.4-1.4-0.5-3-2-3.5l-21.7-8.3
				c-1.5-0.6-3,0.1-3.3,1.5C1192.9,936.6,1193.8,938.2,1195.3,938.7z"/>
		</g>
	</g>
	<path style="fill:#F9C29D;" d="M1084.9,849.1H963.6c-3.2,0-5.8-2.6-5.8-5.8v-6c0-3.2,2.6-5.8,5.8-5.8h121.3c3.2,0,5.8,2.6,5.8,5.8
		v6C1090.7,846.5,1088.1,849.1,1084.9,849.1z"/>
	<g>
		<path style="fill:#000543;" d="M1068.1,616.6c1.5,2.6,3.6,5,4.3,7.9c0.6,2.5,0.1,5.1,0.5,7.7c0.4,2.5,2.2,5.3,4.9,5.3
			c1.3,0,2.4-0.6,3.7-0.7c3.5,0,5,4.3,7,7.1c2.2,3.2,6.4,5,10.3,4.6c2.8-0.3,5.9-1.6,8.3-0.1c1.9,1.2,2.7,3.8,4.9,4.4
			c3.2,0.9,5.5-3.2,8.7-3.7c2.3-0.4,4.4,1.1,6.6,1.9c4.1,1.5,8.9,0.4,11.9-2.6c1.6-1.6,2.7-3.8,4.7-4.8c2.6-1.3,6.2-0.5,8.5-2.2
			c4.9-3.6,0.3-9.1,0-14.6c-0.4-6.9,6.3-14,2.6-19.9c-0.9-1.4-2.3-2.6-2.4-4.2c-0.1-1.6,1.3-3,1.4-4.7c0.2-3.1-3.8-5-5.3-7.6
			c-0.1-0.3-0.6-1.8-0.5-2.1c-5.1-17.5-18.1-30.2-33.1-30.2c-12.4,0-23.3,8.7-29.3,21.8c-0.2,0-0.3,0-0.5,0c-4,0.7-6.9,3.1-9.3,6.3
			c-4.3,5.8-0.6,11.7-3.4,17.1c-1.1,2-3.7,2.9-5.1,4.8C1065.7,610.6,1066.6,614,1068.1,616.6z"/>
		<g>
			<path style="fill:#000543;" d="M1136.6,625.9c-7.5-3.6-21.6-5.9-27.4-9c-3.9-2.1-8-4.4-11.2-7.5c-1.6-1.6-3.9-4.2-5.5-8.9
				c0,0.1,1.8-5.6,0.3-1.4c3.5-9.8,3-18.7,0-26.2c0.2-4.6,1.1-10,5.3-16.7c9.2-15.1,16-14.8,23.1-19.4c7-4.5,6.8-3.6,16.2-7
				c8.3-3,17.7-2,25.4,2.2c0,0,4.5,2.8,6.1,4.4c1.8,1.7,3.4,3.5,5,5.2c2.4,0.8,11.3,4.4,13.5,10.1c4.3,11.3,1.9,16.9,1.9,16.9
				c-6.1,0.3-13.1-6.6-17.9-4.5c-2.1,1.1-3,1.7-4.2,2.8c-6.2,5.8-11.3,10.6-11.8,19.7c-0.5,7.5,3.9,15.6-0.2,22.1
				c-3.6,5.8-12.4,7.2-16.5,12.8C1137.6,622.8,1137,624.3,1136.6,625.9z"/>
		</g>
		<g>
			<path style="fill:#000543;" d="M1125,617.3c2.8-2.8,5.1-6.1,6.8-9.8c2.9-6.5,3.7-13.8,6.5-20.4c3.4-8,13.5-22.6,34.5-27.9
				c2-0.5,5.1-1.2,5.3-3.8c0.1-0.8-0.4-1.8-1-3c-1.2-2.2-3.2-4.6-4-5.9c-0.3-0.5-0.6-1-1.1-1.3c-0.5-0.3-1-0.3-1.5-0.3
				c-4.6-0.1-9.2-0.3-13.7-0.4c-6.3-0.2-12.6-0.4-18.9,0.4c-5.2,0.7-10.6,2.1-14.2,6c-5.8,6.2-5.1,15.9-7.4,24.2
				c-0.5,1.9-1.2,3.7-2,5.5l-3.2-2c-0.2,2.4-0.1,5.1,0.2,7.9c-1.4,2.6-2.9,5.1-4.3,7.6l11.8,18c1.8,4,3.9,8.1,6.4,12.6
				c2.8,4.9,6,8.8,9.5,11.5c0.1,0-2.8-16.5-2.8-16.5C1129.4,620,1126.9,619.1,1125,617.3z"/>
			<path style="fill:#FF9985;" d="M1177.1,552.5c0.6,1.1,1.1,2.2,1,3c-0.2,2.6-3.3,3.2-5.3,3.8c-21,5.3-31.1,19.9-34.5,27.9
				c-2.8,6.6-3.6,13.9-6.5,20.4c-1.6,3.6-4,6.9-6.8,9.8c1.9,1.8,4.3,2.7,6.8,2.4l3,16.5l8.3,46.2c0.6,3.4,3.2,5.8,5.8,5.3l18.9-3.3
				c2.6-0.5,4.2-3.6,3.6-7l-7-39c1.4-0.1,2.8-0.2,4.2-0.4c17.9-3.2,29.9-20.4,26.7-38.3l-4.7-26.2
				C1189,564.7,1183.9,557.4,1177.1,552.5z M1160.7,589.9c0.4,2-0.4,3.8-1.7,4.1c-1.3,0.2-2.7-1.2-3-3.2c-0.4-2,0.4-3.8,1.7-4.1
				l4-0.7l-1.6,2.3C1160.4,588.7,1160.6,589.3,1160.7,589.9z M1160.2,580.4l-7.9,1.4c-1.2,0.2-2.3-0.6-2.5-1.7
				c-0.2-1.2,0.6-2.3,1.7-2.5l7.9-1.4c1.2-0.2,2.3,0.6,2.5,1.7C1162.1,579.1,1161.4,580.2,1160.2,580.4z M1176.7,617.8
				c-5,0.2-5.6-2-6.3-4.1l12.8-1.3C1185,617.5,1176.7,617.8,1176.7,617.8z M1180.9,604.4l-3.3,1.8c-1.9,1-4.2-0.7-4.2-3.2l0-0.4
				c0.8,0.9,2.1,1.4,3.2,0.8l3.3-1.8c1.4-0.7,2-2.3,1.9-4l0.4,0.7C1183.5,600.4,1182.9,603.3,1180.9,604.4z M1189.1,584.7
				c0.4,2-0.4,3.8-1.7,4.1c-1.3,0.2-2.7-1.2-3-3.2c-0.4-2,0.4-3.8,1.7-4.1l4-0.7l-1.6,2.3C1188.8,583.6,1189,584.1,1189.1,584.7z
				 M1189.1,575.1l-6.1,1.1c-0.9,0.2-1.8-0.7-2-1.8c-0.2-1.2,0.3-2.2,1.2-2.4l6.1-1.1c0.9-0.2,1.8,0.7,2,1.8
				C1190.6,573.9,1190,575,1189.1,575.1z"/>
			<path style="fill:#000543;" d="M1161.9,577.9c-0.2-1.2-1.3-1.9-2.5-1.7l-7.9,1.4c-1.2,0.2-1.9,1.3-1.7,2.5
				c0.2,1.2,1.3,1.9,2.5,1.7l7.9-1.4C1161.4,580.2,1162.1,579.1,1161.9,577.9z"/>
			<path style="fill:#000543;" d="M1188.3,570.9l-6.1,1.1c-0.9,0.2-1.5,1.2-1.2,2.4c0.2,1.2,1.1,2,2,1.8l6.1-1.1
				c0.9-0.2,1.5-1.2,1.2-2.4C1190.1,571.6,1189.2,570.8,1188.3,570.9z"/>
			<path style="fill:#FA694F;" d="M1181.8,597.5c0.1,1.6-0.6,3.2-1.9,4l-3.3,1.8c-1.1,0.6-2.4,0.2-3.2-0.8l0,0.4
				c0,2.5,2.3,4.2,4.2,3.2l3.3-1.8c2-1.1,2.6-4,1.3-6.2L1181.8,597.5z"/>
			<path style="fill:#000543;" d="M1157.7,586.7c-1.3,0.2-2.1,2.1-1.7,4.1c0.4,2,1.7,3.5,3,3.2c1.3-0.2,2.1-2.1,1.7-4.1
				c-0.1-0.6-0.3-1.2-0.6-1.6l1.6-2.3L1157.7,586.7z"/>
			<path style="fill:#000543;" d="M1186.1,581.5c-1.3,0.2-2.1,2.1-1.7,4.1c0.4,2,1.7,3.5,3,3.2c1.3-0.2,2.1-2.1,1.7-4.1
				c-0.1-0.6-0.3-1.1-0.6-1.6l1.6-2.3L1186.1,581.5z"/>
			<path style="fill:#FFFFFF;" d="M1176.7,617.8c0,0,8.3-0.3,6.5-5.4l-12.8,1.3C1171.1,615.8,1171.7,618,1176.7,617.8z"/>
		</g>
	</g>
	<g>
		<path style="fill:#FA694F;" d="M1157.3,571.1c-0.4,0-0.7-0.3-0.8-0.6c-0.1-0.4,0.2-0.9,0.6-0.9l22.5-4.5c0.4-0.1,0.8,0.2,0.9,0.6
			c0.1,0.4-0.2,0.8-0.6,0.9l-22.5,4.5C1157.4,571.1,1157.3,571.1,1157.3,571.1z"/>
	</g>
</g>
</svg>
