<?xml version="1.0" encoding="utf-8"?>
<!-- Generator: Adobe Illustrator 24.3.0, SVG Export Plug-In . SVG Version: 6.00 Build 0)  -->
<svg version="1.1" xmlns="http://www.w3.org/2000/svg" xmlns:xlink="http://www.w3.org/1999/xlink" x="0px" y="0px" width="1800px"
	 height="1200px" viewBox="0 0 1800 1200" style="enable-background:new 0 0 1800 1200;" xml:space="preserve">
<g id="Layer_1">
	<path style="fill:#C1EADE;" d="M63.4,1155.1c0.2-11.6,1.2-23.2,3.2-34.7c10.2-57.4,39-105.3,52.5-161.1c3-12.2,5-24.9,6.2-37.7
		c1.3-48.9-9.3-100.1-29.9-147.1c-4.1-9.3-43.6-107.3-58.7-137.2C9,583.7-5.8,524.4,2.1,468.9c17.1-126.3,97.8-222,213.4-248.7
		c89.1-21,180.7,1.9,260.9-34.4C534,159,577.7,116.9,630.5,78.6c76.5-51.7,166.8-63.1,255.8-72.7c184.7-19.1,375.5,7.7,557.1,91.8
		c96.1,44,227.3,120.5,221,250.7c-0.3,23-8,42.1-13.4,65.1c-12.4,59.3-63.3,86.1-90.1,139.7c-17.8,32.5-17.5,72.7,2.8,109.1
		c61.3,108.9,145.2,126.8,212.5,222c35,52.4,28.3,136,1.6,207.7c-0.6,1.8-1.4,3.9-2.4,6.3c-25.6,61.7-87.5,101.8-156,101.8H505.8
		H110.1c-27.2,0-49-20.5-46.7-44.4C63.4,1155.4,63.4,1155.3,63.4,1155.1z"/>
</g>
<g id="Layer_2">
	<rect y="945.6" style="fill:#98B7A4;" width="1800" height="246.3"/>
	<rect y="944.7" style="opacity:0.4;fill:#54293A;" width="1800" height="239.2"/>
	<rect y="944.7" style="opacity:0.38;fill:#714943;" width="1800" height="42.7"/>
	<g>
		<polygon style="opacity:8.000000e-02;fill:#714943;" points="567,1072.2 567,977.4 549,977.4 549,1072.2 200.2,1072.2 
			200.2,977.4 167.2,977.4 167.2,1072.2 0,1072.2 0,1096.5 167.2,1096.5 167.2,1184.1 200.2,1184.1 200.2,1096.5 473.5,1096.5 
			473.5,1184.1 498.6,1184.1 498.6,1096.5 549,1096.5 549,1159.9 567,1159.9 567,1096.5 754,1096.5 754,1072.2 		"/>
		<polygon style="opacity:8.000000e-02;fill:#714943;" points="1239.9,1184.1 1265.7,1184.1 1265.7,1078 1544.1,1078 1544.1,1038.2 
			1265.7,1038.2 1265.7,977.4 1239.9,977.4 1239.9,1038.2 887,1038.2 887,1078 1239.9,1078 		"/>
		<rect x="1681.6" y="977.4" style="opacity:8.000000e-02;fill:#714943;" width="30.2" height="206.8"/>
	</g>
	<polygon style="fill:#3A1B28;" points="0,1180.6 0,1199.6 1800,1199.6 1800,1178.2 	"/>
	<g>
		<g>
			<rect x="85.3" y="327.2" style="fill:#FBFFC6;" width="580.3" height="703.1"/>
		</g>
	</g>
	<g>
		<polygon style="fill:#295A7C;" points="641.7,429.4 572.1,429.4 108.7,913.9 108.7,1030.2 452.1,1030.2 641.7,743.6 		"/>
		<polygon style="fill:#1C3A52;" points="641.7,743.6 452.1,1030.2 641.7,1030.2 		"/>
		<polygon style="fill:#1C3A52;" points="108.7,429.4 108.7,913.9 572.1,429.4 		"/>
	</g>
	<polygon style="opacity:0.64;fill:#4D7B79;" points="140.9,948 140.9,463.5 604.2,463.5 641.7,463.5 641.7,429.4 572.1,429.4 
		108.7,429.4 108.7,913.9 108.7,1030.2 140.9,1030.2 	"/>
	<g style="opacity:0.63;">
		<rect x="618.9" y="429.9" style="fill:#4D7B79;" width="5.7" height="596.6"/>
		<rect x="538.8" y="429.9" style="fill:#4D7B79;" width="5.7" height="596.6"/>
		<rect x="458.7" y="429.9" style="fill:#4D7B79;" width="5.7" height="596.6"/>
		<rect x="378.6" y="429.9" style="fill:#4D7B79;" width="5.7" height="596.6"/>
		<rect x="298.5" y="429.9" style="fill:#4D7B79;" width="5.7" height="596.6"/>
		<rect x="218.4" y="429.9" style="fill:#4D7B79;" width="5.7" height="596.6"/>
		<rect x="138.3" y="429.9" style="fill:#4D7B79;" width="5.7" height="596.6"/>
	</g>
	<g>
		<path style="fill:#FFFFFF;" d="M1053.6,95.9c-13.8-7.8-30.8-0.5-46.2,3.1c-13,3-30.4,0-35.9-10.3c3-3.9,5.1-8.4,5.7-13.3
			c1.8-13.7-7.6-26.5-18.8-34.8c-13.4-10-31.4-15.8-47.4-10.7c-15.4,4.9-35.9,22.5-37.2,40.2c-7.6-5.8-18-8.2-27.3-5.5
			c-13.6,4-23.2,18.4-21.4,32.2c-19.8-7.7-44.7,0.7-55.4,18.7c-8.2-9.5-23.2-9.8-35.3-6.2c-12.1,3.6-23.2,10.4-35.6,12.7
			c-9.7,1.8-20.1,0.9-29.3,4.6c-5.3,2.2-9.9,6.9-11.8,12H1059C1068.4,125.1,1068,104,1053.6,95.9z"/>
	</g>
	<rect x="933.1" y="195.9" style="fill:#A49C92;" width="376.9" height="834.4"/>
	<g>
		<g>
			<rect x="1226.8" y="555.9" style="fill:#FFF5CA;" width="254.1" height="474.4"/>
		</g>
	</g>
	<rect x="247.8" y="505.1" style="fill:#D3E6EA;" width="979" height="525.2"/>
	<g>
		<polygon style="fill:#295A7C;" points="510.2,699.9 265.4,955.6 265.4,1017 446.8,1017 656.8,699.9 		"/>
		<polygon style="fill:#1C3A52;" points="666.4,699.9 656.8,699.9 446.8,1017 666.4,1017 		"/>
		<polygon style="fill:#1C3A52;" points="265.4,699.9 265.4,955.6 510.2,699.9 		"/>
	</g>
	<polygon style="opacity:0.63;fill:#4D7B79;" points="288.7,970.1 288.7,714.4 533.5,714.4 665.8,714.4 665.8,699.9 656.1,699.9 
		509.6,699.9 264.8,699.9 264.8,955.6 264.8,1017 288.7,1017 	"/>
	<g>
		<polygon style="fill:#295A7C;" points="786.8,941.7 729.2,1002 729.2,1030.2 786.8,1030.2 		"/>
		<polygon style="fill:#295A7C;" points="850.5,884.5 841.3,884.5 792.4,935.7 792.4,1030.2 812.2,1030.2 850.5,972.3 		"/>
		<polygon style="fill:#295A7C;" points="856.1,963.7 908.4,884.5 856.1,884.5 		"/>
		<polygon style="fill:#1C3A52;" points="908.4,884.5 856.1,963.7 856.1,1030.2 912.8,1030.2 912.8,884.5 		"/>
		<polygon style="fill:#1C3A52;" points="850.5,972.3 812.2,1030.2 850.5,1030.2 		"/>
		<polygon style="fill:#1C3A52;" points="792.4,935.7 841.3,884.5 792.4,884.5 		"/>
		<polygon style="fill:#1C3A52;" points="786.8,884.5 729.2,884.5 729.2,1002 786.8,941.7 		"/>
	</g>
	<g>
		<polygon style="fill:#295A7C;" points="263.3,532.1 263.3,597.7 691.2,597.7 734.7,532.1 		"/>
		<polygon style="fill:#1C3A52;" points="734.7,532.1 691.2,597.7 1209.2,597.7 1209.2,532.1 		"/>
	</g>
	<g>
		<path style="fill:#FFFFFF;" d="M1626.6,318.3c-1.1-3.3-3.2-6.2-6.4-8c-8.6-4.8-19.1-0.3-28.7,1.9c-8.1,1.9-18.9,0-22.3-6.4
			c1.9-2.4,3.2-5.2,3.6-8.3c1.1-8.5-4.8-16.5-11.7-21.6c-8.3-6.2-19.5-9.8-29.4-6.6c-9.6,3-22.3,14-23.1,25
			c-4.7-3.6-11.2-5.1-17-3.4c-8.5,2.5-14.4,11.4-13.3,20c-10.6-4.1-23.6-0.8-31.2,7.4H1626.6z"/>
	</g>
	<g>
		<path style="fill:#FFFFFF;" d="M611.1,236.6c-0.5-0.5-0.9-1.1-1.3-1.7c1.5-2,2.6-4.2,2.9-6.7c0.9-6.8-3.8-13.2-9.4-17.4
			c-6.7-5-15.7-7.9-23.7-5.3c-7.7,2.5-17.9,11.2-18.6,20.1c-3.8-2.9-9-4.1-13.6-2.7c-6,1.7-10.5,7.6-10.8,13.7H611.1z"/>
	</g>
	<rect x="756.1" y="780.4" style="fill:#F7665F;" width="182.1" height="14.8"/>
	<rect x="756.1" y="803.6" style="fill:#F7665F;" width="182.1" height="4.2"/>
	<g>
		<g>
			<ellipse style="fill:#FFFFFF;" cx="828.9" cy="733.2" rx="34.4" ry="34.9"/>
			<path style="fill:#AAB2AC;" d="M828.9,768.8c-19.4,0-35.1-16-35.1-35.6c0-19.6,15.8-35.6,35.1-35.6c19.4,0,35.1,16,35.1,35.6
				C864.1,752.8,848.3,768.8,828.9,768.8z M828.9,699c-18.6,0-33.7,15.3-33.7,34.2c0,18.9,15.1,34.2,33.7,34.2
				c18.6,0,33.7-15.3,33.7-34.2C862.6,714.3,847.5,699,828.9,699z"/>
		</g>
		<path style="fill:#F7665F;" d="M828.9,736.3L828.9,736.3c-0.7,0-1.4-0.6-1.4-1.4v-25.2c0-0.8,0.6-1.4,1.4-1.4l0,0
			c0.7,0,1.4,0.6,1.4,1.4v25.2C830.3,735.7,829.7,736.3,828.9,736.3z"/>
		<path style="fill:#96AA9C;" d="M839.8,732l-10.5,4.2c-0.5,0.2-1.1-0.1-1.3-0.6l0,0c-0.2-0.5,0.1-1.1,0.6-1.3l10.5-4.2
			c0.5-0.2,1.1,0.1,1.3,0.6l0,0C840.6,731.2,840.3,731.8,839.8,732z"/>
	</g>
	<g>
		<g style="opacity:0.63;">
			<rect x="351.6" y="532.1" style="fill:#4D7B79;" width="6.2" height="65.6"/>
			<rect x="437.5" y="532.1" style="fill:#4D7B79;" width="6.2" height="65.6"/>
			<rect x="523.4" y="532.1" style="fill:#4D7B79;" width="6.2" height="65.6"/>
			<rect x="609.3" y="532.1" style="fill:#4D7B79;" width="6.2" height="65.6"/>
			<rect x="695.2" y="532.1" style="fill:#4D7B79;" width="6.2" height="65.6"/>
			<rect x="781.1" y="532.1" style="fill:#4D7B79;" width="6.2" height="65.6"/>
			<rect x="867" y="532.1" style="fill:#4D7B79;" width="6.2" height="65.6"/>
			<rect x="952.9" y="532.1" style="fill:#4D7B79;" width="6.2" height="65.6"/>
			<rect x="1038.8" y="532.1" style="fill:#4D7B79;" width="6.2" height="65.6"/>
			<rect x="1124.7" y="532.1" style="fill:#4D7B79;" width="6.2" height="65.6"/>
		</g>
		<g style="opacity:0.68;">
			<polygon style="fill:#4D7B79;" points="280,545.4 725.8,545.4 734.7,532.1 263.3,532.1 263.3,597.7 280,597.7 			"/>
			<polygon style="fill:#4D7B79;" points="1209.2,545.4 1209.2,532.1 734.7,532.1 725.8,545.4 			"/>
		</g>
	</g>
	<g>
		<g>
			<polygon style="fill:#295A7C;" points="997.4,239.9 997.4,288 1152.8,288 1185,239.9 			"/>
			<polygon style="fill:#1C3A52;" points="1310,239.9 1185,239.9 1152.8,288 1310,288 			"/>
		</g>
		<g>
			<g style="opacity:0.63;">
				<rect x="1061.8" y="239.9" style="fill:#4D7B79;" width="4.5" height="47.9"/>
				<rect x="1124.6" y="239.9" style="fill:#4D7B79;" width="4.5" height="47.9"/>
				<rect x="1187.3" y="239.9" style="fill:#4D7B79;" width="4.5" height="47.9"/>
				<rect x="1250" y="239.9" style="fill:#4D7B79;" width="4.5" height="47.9"/>
			</g>
			<g style="opacity:0.68;">
				<polygon style="fill:#4D7B79;" points="1309.6,239.9 997.4,239.9 997.4,287.9 1009.6,287.9 1009.6,249.7 1309.6,249.7 				"/>
			</g>
		</g>
	</g>
	<g>
		<g>
			<polygon style="fill:#295A7C;" points="997.2,300.7 997.2,348.8 1152.6,348.8 1184.7,300.7 			"/>
			<polygon style="fill:#1C3A52;" points="1309.8,300.7 1184.7,300.7 1152.6,348.8 1309.8,348.8 			"/>
		</g>
		<g>
			<g style="opacity:0.63;">
				<rect x="1061.6" y="300.8" style="fill:#4D7B79;" width="4.5" height="47.9"/>
				<rect x="1124.3" y="300.8" style="fill:#4D7B79;" width="4.5" height="47.9"/>
				<rect x="1187.1" y="300.8" style="fill:#4D7B79;" width="4.5" height="47.9"/>
				<rect x="1249.8" y="300.8" style="fill:#4D7B79;" width="4.5" height="47.9"/>
			</g>
			<g style="opacity:0.68;">
				<polygon style="fill:#4D7B79;" points="1309.4,300.8 997.2,300.8 997.2,348.7 1009.4,348.7 1009.4,310.5 1309.4,310.5 				"/>
			</g>
		</g>
	</g>
	<g>
		<g>
			<polygon style="fill:#295A7C;" points="997.2,359.8 997.2,407.9 1152.6,407.9 1184.7,359.8 			"/>
			<polygon style="fill:#1C3A52;" points="1309.8,359.8 1184.7,359.8 1152.6,407.9 1309.8,407.9 			"/>
		</g>
		<g>
			<g style="opacity:0.63;">
				<rect x="1061.6" y="359.9" style="fill:#4D7B79;" width="4.5" height="47.9"/>
				<rect x="1124.3" y="359.9" style="fill:#4D7B79;" width="4.5" height="47.9"/>
				<rect x="1187.1" y="359.9" style="fill:#4D7B79;" width="4.5" height="47.9"/>
				<rect x="1249.8" y="359.9" style="fill:#4D7B79;" width="4.5" height="47.9"/>
			</g>
			<g style="opacity:0.68;">
				<polygon style="fill:#4D7B79;" points="1309.4,359.9 997.2,359.9 997.2,407.8 1009.4,407.8 1009.4,369.7 1309.4,369.7 				"/>
			</g>
		</g>
	</g>
	<g>
		<g>
			<polygon style="fill:#295A7C;" points="997.2,420.4 997.2,468.5 1152.6,468.5 1184.7,420.4 			"/>
			<polygon style="fill:#1C3A52;" points="1309.8,420.4 1184.7,420.4 1152.6,468.5 1309.8,468.5 			"/>
		</g>
		<g>
			<g style="opacity:0.63;">
				<rect x="1061.6" y="420.5" style="fill:#4D7B79;" width="4.5" height="47.9"/>
				<rect x="1124.3" y="420.5" style="fill:#4D7B79;" width="4.5" height="47.9"/>
				<rect x="1187.1" y="420.5" style="fill:#4D7B79;" width="4.5" height="47.9"/>
				<rect x="1249.8" y="420.5" style="fill:#4D7B79;" width="4.5" height="47.9"/>
			</g>
			<g style="opacity:0.68;">
				<polygon style="fill:#4D7B79;" points="1309.4,420.5 997.2,420.5 997.2,468.4 1009.4,468.4 1009.4,430.2 1309.4,430.2 				"/>
			</g>
		</g>
	</g>
	<g style="opacity:0.61;">
		<path style="fill:#4D7B79;" d="M266.4,1016.5v-33.4h40.5v33.4h3.1v-33.4h40.5v33.4h3.1v-33.4h40.5v33.4h3.1v-33.4h40.5v33.4h3.1
			v-33.4h40.5v33.4h3.1v-33.4H525v33.4h3.1v-33.4h40.5v33.4h3.1v-33.4h40.5v33.4h3.1v-33.4h40.5v33.4h3.1v-33.4h7.4v-5.8H659v-75
			h7.4v-5.8H659v-75h7.4v-5.8H659v-75h7.4V735H659v-35h-3.1v35h-40.5v-35h-3.1v35h-40.5v-35h-3.1v35h-40.5v-35H525v35h-40.5v-35
			h-3.1v35h-40.5v-35h-3.1v35h-40.5v-35h-3.1v35h-40.5v-35h-3.1v35h-40.5v-35h-3.1v35h-40.5v-35h-1.6v316.6H266.4z M615.4,740.7
			h40.5v75h-40.5V740.7z M615.4,821.6h40.5v75h-40.5V821.6z M615.4,902.4h40.5v75h-40.5V902.4z M571.8,740.7h40.5v75h-40.5V740.7z
			 M571.8,821.6h40.5v75h-40.5V821.6z M571.8,902.4h40.5v75h-40.5V902.4z M528.2,740.7h40.5v75h-40.5V740.7z M528.2,821.6h40.5v75
			h-40.5V821.6z M528.2,902.4h40.5v75h-40.5V902.4z M484.5,740.7H525v75h-40.5V740.7z M484.5,821.6H525v75h-40.5V821.6z
			 M484.5,902.4H525v75h-40.5V902.4z M440.9,740.7h40.5v75h-40.5V740.7z M440.9,821.6h40.5v75h-40.5V821.6z M440.9,902.4h40.5v75
			h-40.5V902.4z M397.3,740.7h40.5v75h-40.5V740.7z M397.3,821.6h40.5v75h-40.5V821.6z M397.3,902.4h40.5v75h-40.5V902.4z
			 M353.7,740.7h40.5v75h-40.5V740.7z M353.7,821.6h40.5v75h-40.5V821.6z M353.7,902.4h40.5v75h-40.5V902.4z M310.1,740.7h40.5v75
			h-40.5V740.7z M310.1,821.6h40.5v75h-40.5V821.6z M310.1,902.4h40.5v75h-40.5V902.4z M266.4,740.7h40.5v75h-40.5V740.7z
			 M266.4,821.6h40.5v75h-40.5V821.6z M266.4,902.4h40.5v75h-40.5V902.4z"/>
	</g>
	<g>
		<g>
			<polygon style="fill:#295A7C;" points="1213.1,697.7 1200.9,697.7 956.1,953.4 956.1,1014.8 1137.5,1014.8 1213.1,900.6 			"/>
			<polygon style="fill:#1C3A52;" points="1213.1,900.6 1137.5,1014.8 1213.1,1014.8 			"/>
			<polygon style="fill:#1C3A52;" points="956.1,697.7 956.1,953.4 1200.9,697.7 			"/>
		</g>
		<polygon style="opacity:0.63;fill:#4D7B79;" points="1213.1,697.7 955.5,697.7 955.5,1014.8 979.4,1014.8 979.4,712.2 
			1213.1,712.2 		"/>
		<g style="opacity:0.61;">
			<path style="fill:#4D7B79;" d="M1213.1,975.2h-37.9v-75h37.9v-5.8h-37.9v-75h37.9v-5.8h-37.9v-75h37.9v-5.8h-37.9v-35h-3.1v35
				h-40.5v-35h-3.1v35H1088v-35h-3.1v35h-40.5v-35h-3.1v35h-40.5v-35h-3.1v35h-40.5v-35h-1.6v316.6h1.6V981h40.5v33.4h3.1V981h40.5
				v33.4h3.1V981h40.5v33.4h3.1V981h40.5v33.4h3.1V981h40.5v33.4h3.1V981h37.9V975.2z M997.6,975.2h-40.5v-75h40.5V975.2z
				 M997.6,894.4h-40.5v-75h40.5V894.4z M997.6,813.6h-40.5v-75h40.5V813.6z M1041.2,975.2h-40.5v-75h40.5V975.2z M1041.2,894.4
				h-40.5v-75h40.5V894.4z M1041.2,813.6h-40.5v-75h40.5V813.6z M1084.9,975.2h-40.5v-75h40.5V975.2z M1084.9,894.4h-40.5v-75h40.5
				V894.4z M1084.9,813.6h-40.5v-75h40.5V813.6z M1128.5,975.2H1088v-75h40.5V975.2z M1128.5,894.4H1088v-75h40.5V894.4z
				 M1128.5,813.6H1088v-75h40.5V813.6z M1172.1,975.2h-40.5v-75h40.5V975.2z M1172.1,894.4h-40.5v-75h40.5V894.4z M1172.1,813.6
				h-40.5v-75h40.5V813.6z"/>
		</g>
	</g>
	<g>
		<g>
			<polygon style="fill:#295A7C;" points="264.4,614.9 264.4,680.5 692.3,680.5 735.7,614.9 			"/>
			<polygon style="fill:#1C3A52;" points="735.7,614.9 692.3,680.5 1210.3,680.5 1210.3,614.9 			"/>
		</g>
		<g>
			<g style="opacity:0.63;">
				<rect x="352.7" y="614.9" style="fill:#4D7B79;" width="6.2" height="65.6"/>
				<rect x="438.6" y="614.9" style="fill:#4D7B79;" width="6.2" height="65.6"/>
				<rect x="524.5" y="614.9" style="fill:#4D7B79;" width="6.2" height="65.6"/>
				<rect x="610.4" y="614.9" style="fill:#4D7B79;" width="6.2" height="65.6"/>
				<rect x="696.3" y="614.9" style="fill:#4D7B79;" width="6.2" height="65.6"/>
				<rect x="782.2" y="614.9" style="fill:#4D7B79;" width="6.2" height="65.6"/>
				<rect x="868.1" y="614.9" style="fill:#4D7B79;" width="6.2" height="65.6"/>
				<rect x="954" y="614.9" style="fill:#4D7B79;" width="6.2" height="65.6"/>
				<rect x="1039.9" y="614.9" style="fill:#4D7B79;" width="6.2" height="65.6"/>
				<rect x="1125.8" y="614.9" style="fill:#4D7B79;" width="6.2" height="65.6"/>
			</g>
			<g style="opacity:0.68;">
				<polygon style="fill:#4D7B79;" points="281.1,628.2 726.9,628.2 735.7,614.9 264.4,614.9 264.4,680.5 281.1,680.5 				"/>
				<polygon style="fill:#4D7B79;" points="1210.3,628.2 1210.3,614.9 735.7,614.9 726.9,628.2 				"/>
			</g>
		</g>
	</g>
	<rect x="85.3" y="347.1" style="opacity:0.39;fill:#4D7B79;" width="580.3" height="39.2"/>
	<rect x="219.8" y="478.5" style="fill:#FFFFFF;" width="1034.3" height="52.4"/>
	<g>
		<g>
			<rect x="67.6" y="327.2" style="fill:#FBFFC6;" width="619" height="20"/>
		</g>
	</g>
	<g>
		<g>
			<rect x="579.7" y="292" style="fill:#DBDDA2;" width="65.7" height="35.1"/>
		</g>
	</g>
	<rect x="496.5" y="312.8" style="fill:#DBDDA2;" width="67.3" height="14.4"/>
	<rect x="96.8" y="305.1" style="fill:#DBDDA2;" width="40" height="22.1"/>
	<g>
		<polygon style="fill:#295A7C;" points="1331,993.1 1331,854.2 1230.5,959.2 1230.5,993.1 		"/>
		<polygon style="fill:#295A7C;" points="1461.1,993.1 1461.1,718.1 1353.6,830.5 1353.6,993.1 		"/>
		<rect x="1230.5" y="664.3" style="fill:#1C3A52;" width="100.5" height="46.6"/>
		<polygon style="fill:#1C3A52;" points="1230.5,717 1230.5,959.2 1331,854.2 1331,717 		"/>
		<rect x="1353.6" y="664.3" style="fill:#1C3A52;" width="107.5" height="46.6"/>
		<polygon style="fill:#1C3A52;" points="1353.6,717 1353.6,830.5 1461.1,718.1 1461.1,717 		"/>
	</g>
	<g>
		<rect x="1230.5" y="613.1" style="fill:#1C3A52;" width="100.5" height="46.6"/>
		<rect x="1353.6" y="613.1" style="fill:#1C3A52;" width="107.5" height="46.6"/>
	</g>
	<rect x="232.5" y="677.4" style="fill:#FFFFFF;" width="1008" height="19.1"/>
	<rect x="232.5" y="597.7" style="fill:#FFFFFF;" width="1008" height="19.1"/>
	<rect x="1226.8" y="574.6" style="opacity:0.39;fill:#4D7B79;" width="254.1" height="14.5"/>
	<rect x="933.1" y="214.3" style="opacity:0.39;fill:#4D7B79;" width="376.9" height="12.8"/>
	<g>
		<g>
			<rect x="1370.5" y="555.9" style="fill:#FFF5CA;" width="121.8" height="18.7"/>
		</g>
	</g>
	<rect x="1245.5" y="154.2" style="fill:#847B70;" width="21" height="41.7"/>
	<rect x="1177.7" y="164.9" style="fill:#847B70;" width="62.1" height="31"/>
	<g>
		<g>
			<g>
				<g>
					
						<rect x="361" y="1029.6" transform="matrix(-1 -1.224647e-16 1.224647e-16 -1 805.9174 2106.3059)" style="fill:#2A3338;" width="83.9" height="47"/>
				</g>
			</g>
			<g>
				<g>
					
						<rect x="176.6" y="1029.9" transform="matrix(-1 -1.224647e-16 1.224647e-16 -1 437.1526 2106.583)" style="fill:#2A3338;" width="83.9" height="46.8"/>
				</g>
			</g>
			<g>
				<g>
					<circle style="fill:#051E1C;" cx="217.4" cy="1066.2" r="23.8"/>
				</g>
			</g>
			<g>
				<g>
					<path style="fill:#2A3338;" d="M366.6,1068.1h14.5h0.4c0.6,3.1,1.7,6,3.3,8.6H239.3c1.6-2.6,2.7-5.5,3.3-8.6H366.6z"/>
				</g>
				<g>
					<path style="fill:#2A3338;" d="M195.5,1076.7h-30.9c-3.8,0-6.8-3-6.8-6.8v-1.8h34.4C192.8,1071.2,193.9,1074.1,195.5,1076.7z"
						/>
				</g>
				<g>
					<path style="fill:#2A3338;" d="M454.7,1068.1c0,4.8-3.9,8.6-8.6,8.6h-17.4c1.6-2.6,2.7-5.5,3.3-8.6H454.7z"/>
				</g>
				<g>
					<path style="fill:#FFFFFF;" d="M153,952c0-7.8,6.3-14.1,14.1-14.1h197c9.4,0,17,7.6,17,17v4.1h1.8c8.9,0,18.7,2.4,22.5,12.8
						l13.1,32.9l33.5,6.1c5.9,1.1,10.7,5.2,12.9,10.5l-312-1V952z"/>
				</g>
				<g>
					<path style="fill:#D3E6EA;" d="M464.9,1021.3c0.9,2.1,1.4,4.4,1.4,6.8v40h-11.6H432c0.3-1.5,0.4-3,0.4-4.6
						c0-14.2-11.5-25.6-25.6-25.6c-14.2,0-25.6,11.5-25.6,25.6c0,1.6,0.2,3.1,0.4,4.6h-0.4h-14.5h-124c0.3-1.5,0.4-3,0.4-4.6
						c0-14.2-11.5-25.6-25.6-25.6c-14.2,0-25.6,11.5-25.6,25.6c0,1.6,0.2,3.1,0.4,4.6h-34.4H153v-47.8L464.9,1021.3z"/>
				</g>
			</g>
			<g>
				<g>
					
						<ellipse transform="matrix(0.9871 -0.1598 0.1598 0.9871 -167.5872 48.4526)" style="fill:#A49C92;" cx="217.4" cy="1066.2" rx="15.8" ry="15.8"/>
				</g>
			</g>
			<g>
				<g>
					<path style="fill:#293137;" d="M205.3,1066.2c0-6.7,5.4-12.1,12.1-12.1c6.7,0,12.1,5.4,12.1,12.1s-5.4,12.1-12.1,12.1
						C210.8,1078.2,205.3,1072.8,205.3,1066.2z M208.9,1066.2c0,4.7,3.8,8.6,8.6,8.6c4.7,0,8.6-3.8,8.6-8.6c0-4.7-3.8-8.6-8.6-8.6
						C212.7,1057.6,208.9,1061.4,208.9,1066.2z"/>
				</g>
			</g>
			<g style="opacity:0.43;">
				<path style="fill:#4D7B79;" d="M352.4,945h14.3c1.8,0,3.2,1.4,3.2,3.2c0,1.8-1.4,3.2-3.2,3.2h-14.3V945z"/>
			</g>
			<g style="opacity:0.43;">
				<path style="fill:#4D7B79;" d="M165.5,945h52.2v6.4h-52.2c-1.8,0-3.2-1.4-3.2-3.2C162.3,946.4,163.7,945,165.5,945z"/>
			</g>
			<g style="opacity:0.57;">
				<g>
					<path style="fill:#4D7B79;" d="M355.8,965.1c0.6-0.9,1.5-1.7,2.5-2.1c0.7-0.3,1.4-0.5,2.2-0.5h24c0.6,0,1.1,0,1.6,0.1
						c1.1,0.1,2.1,0.3,3.2,0.5c1,0.3,2.1,0.6,3,1c1,0.4,1.9,0.9,2.8,1.5c2.3,1.4,4.3,3.2,5.9,5.4c0.7,0.9,1.3,1.8,1.8,2.8
						c0.5,1,1,2,1.4,3.1l10.3,28.9c0.2,0.5,0.3,1,0.3,1.5l0,31.7c-0.4-0.2-0.9-0.4-1.4-0.5v-29.8h-0.2l0.1-0.8
						c0.1-0.6,0.1-1.1-0.1-1.6l-10.3-28.9c-0.4-1-0.8-2-1.3-2.9c-0.5-0.9-1-1.8-1.7-2.6c-1.5-2-3.4-3.7-5.5-5
						c-0.8-0.5-1.7-1-2.6-1.4c-0.9-0.4-1.9-0.7-2.8-0.9c-1-0.2-2-0.4-3-0.5c-0.5,0-1-0.1-1.5-0.1h-24c-0.6,0-1.1,0.1-1.6,0.3
						c-0.7,0.3-1.4,0.9-1.8,1.6c-0.5,0.7-0.7,1.6-0.7,2.5v92.1h25.6c-0.1,0.5-0.1,1-0.1,1.4h-26.9v-93.6
						C354.8,967.2,355.2,966,355.8,965.1z"/>
				</g>
			</g>
			<g>
				<g>
					<path style="fill:#1C3A52;" d="M370.1,970.7c0-2.4,1.9-4.3,4.3-4.3h10.7c7.5,0,14.1,4.7,16.7,11.7l9,24.4
						c0.8,2.1-0.8,4.2-3,4.2h-12.1l-25.6-27.4V970.7z"/>
				</g>
				<g>
					<path style="fill:#295A7C;" d="M395.8,1006.6h-0.4h-20.7c-2.5,0-4.5-2-4.5-4.5v-22.7v-0.2L395.8,1006.6z"/>
				</g>
				<g style="opacity:0.57;">
					<path style="fill:#4D7B79;" d="M398.6,983.1c-2.6-7-9.3-11.7-16.7-11.7h-10.7c-0.4,0-0.7,0.1-1.1,0.2v-0.9
						c0-2.4,1.9-4.3,4.3-4.3h10.7c7.5,0,14.1,4.7,16.7,11.7l9,24.4c0.8,2.1-0.8,4.2-3,4.2h-0.5L398.6,983.1z"/>
				</g>
			</g>
			<g>
				<path style="fill:#A49C92;" d="M437.3,1068.1H467c2.2,0,4-1.8,4-4v-8.1c0-3-2.4-5.4-5.4-5.4h-28.3V1068.1z"/>
			</g>
			<g>
				
					<rect x="153" y="1006.6" transform="matrix(-1 -1.224647e-16 1.224647e-16 -1 508.5218 2021.4324)" style="fill:#F7665F;" width="202.6" height="8.1"/>
			</g>
			<g>
				<g>
					<circle style="fill:#051E1C;" cx="406.4" cy="1065.1" r="23.8"/>
				</g>
			</g>
			<g>
				<g>
					
						<ellipse transform="matrix(0.9872 -0.1598 0.1598 0.9872 -164.966 78.6201)" style="fill:#A49C92;" cx="406.4" cy="1065.1" rx="15.8" ry="15.8"/>
				</g>
			</g>
			<g>
				<g>
					<path style="fill:#293137;" d="M394.3,1065.1c0-6.7,5.4-12.1,12.1-12.1c6.7,0,12.1,5.4,12.1,12.1c0,6.7-5.4,12.1-12.1,12.1
						C399.7,1077.2,394.3,1071.8,394.3,1065.1z M397.8,1065.1c0,4.7,3.8,8.6,8.6,8.6c4.7,0,8.6-3.8,8.6-8.6c0-4.7-3.8-8.6-8.6-8.6
						C401.7,1056.6,397.8,1060.4,397.8,1065.1z"/>
				</g>
			</g>
			<g style="opacity:0.49;">
				<path style="fill:#4D7B79;" d="M287.5,1052.6v-80.8c0-5.5,4.5-10,10-10h31.1c5.5,0,10,4.5,10,10v80.8c0,5.5-4.5,10-10,10h-31.1
					C292,1062.6,287.5,1058.1,287.5,1052.6z M297.5,963.2c-4.7,0-8.6,3.8-8.6,8.6v80.8c0,4.7,3.8,8.6,8.6,8.6h31.1
					c4.7,0,8.6-3.8,8.6-8.6v-80.8c0-4.7-3.8-8.6-8.6-8.6H297.5z"/>
			</g>
			<g>
				<path style="fill:#1C3A52;" d="M293.1,973c0-3.6,2.9-6.6,6.6-6.6h25.3c4.1,0,7.5,3.4,7.5,7.5v32.7h-10.5l-28.9-28.5V973z"/>
			</g>
			<g>
				<polygon style="fill:#295A7C;" points="293.1,978.1 321.9,1006.6 293.1,1006.6 				"/>
			</g>
			<g style="opacity:0.57;">
				<path style="fill:#4D7B79;" d="M328.9,978.5c0-4.1-3.4-7.5-7.5-7.5h-25.3c-1,0-1.9,0.2-2.7,0.6c0.6-3,3.3-5.2,6.4-5.2h25.3
					c4.1,0,7.5,3.4,7.5,7.5v32.7h-3.7V978.5z"/>
			</g>
			<g>
				<path style="fill:#A49C92;" d="M466.3,1028.7C466.3,1028.7,466.4,1028.7,466.3,1028.7c1.6,0,2.9,1.3,2.9,2.9v13.3
					c0,1.6-1.3,2.9-2.9,2.9c0,0,0,0,0,0V1028.7z"/>
			</g>
			<g>
				<path style="fill:#A49C92;" d="M420.4,1027.6h3.9c1.1,0,1.9-0.9,1.9-1.9l0,0c0-1.1-0.9-1.9-1.9-1.9h-3.9c-1.1,0-1.9,0.9-1.9,1.9
					l0,0C418.5,1026.7,419.4,1027.6,420.4,1027.6z"/>
			</g>
			<g>
				<path style="fill:#A49C92;" d="M164.2,1027.6h3.9c1.1,0,1.9-0.9,1.9-1.9l0,0c0-1.1-0.9-1.9-1.9-1.9h-3.9c-1.1,0-1.9,0.9-1.9,1.9
					l0,0C162.3,1026.7,163.1,1027.6,164.2,1027.6z"/>
			</g>
			<g>
				<path style="fill:#F7665F;" d="M280,930.2L280,930.2c0-4.2,3.4-7.7,7.7-7.7h26.6c4.2,0,7.7,3.4,7.7,7.7v0c0,1.7-0.6,3.3-1.6,4.6
					l-39.1-0.3C280.5,933.2,280,931.8,280,930.2z"/>
			</g>
			<g>
				
					<rect x="270.1" y="934" transform="matrix(-1 -1.224647e-16 1.224647e-16 -1 599.5239 1874.3899)" style="fill:#FFFFFF;" width="59.3" height="6.3"/>
			</g>
		</g>
	</g>
	<g>
		<g>
			<rect x="1433.9" y="1001.8" style="fill:#2A3338;" width="83.9" height="47"/>
		</g>
	</g>
	<g>
		<g>
			<rect x="1618.3" y="1002" style="fill:#2A3338;" width="83.9" height="46.8"/>
		</g>
	</g>
	<g>
		<g>
			<circle style="fill:#051E1C;" cx="1661.4" cy="1038.3" r="23.8"/>
		</g>
	</g>
	<g>
		<g>
			<path style="fill:#2A3338;" d="M1512.2,1040.2h-14.5h-0.4c-0.6,3.1-1.7,6-3.3,8.6h145.5c-1.6-2.6-2.7-5.5-3.3-8.6H1512.2z"/>
		</g>
		<g>
			<path style="fill:#2A3338;" d="M1683.4,1048.8h30.9c3.8,0,6.8-3,6.8-6.8v-1.8h-34.4C1686.1,1043.3,1684.9,1046.2,1683.4,1048.8z"
				/>
		</g>
		<g>
			<path style="fill:#2A3338;" d="M1424.1,1040.2c0,4.8,3.9,8.6,8.6,8.6h17.4c-1.6-2.6-2.7-5.5-3.3-8.6H1424.1z"/>
		</g>
		<g>
			<path style="fill:#FFFFFF;" d="M1725.9,924.1c0-7.8-6.3-14.1-14.1-14.1h-197c-9.4,0-17,7.6-17,17v4.1h-1.8
				c-8.9,0-18.7,2.4-22.5,12.8l-13.1,32.9l-33.5,6.1c-5.9,1.1-10.7,5.2-12.9,10.5l312-1V924.1z"/>
		</g>
		<g>
			<path style="fill:#D3E6EA;" d="M1413.9,993.4c-0.9,2.1-1.4,4.4-1.4,6.8v40h11.6h22.8c-0.3-1.5-0.4-3-0.4-4.6
				c0-14.2,11.5-25.6,25.6-25.6c14.2,0,25.6,11.5,25.6,25.6c0,1.6-0.2,3.1-0.4,4.6h0.4h14.5h124c-0.3-1.5-0.4-3-0.4-4.6
				c0-14.2,11.5-25.6,25.6-25.6c14.2,0,25.6,11.5,25.6,25.6c0,1.6-0.2,3.1-0.4,4.6h34.4h4.8v-47.8L1413.9,993.4z"/>
		</g>
	</g>
	<g>
		<g>
			<circle style="fill:#A49C92;" cx="1661.4" cy="1038.3" r="15.8"/>
		</g>
	</g>
	<g>
		<g>
			<path style="fill:#293137;" d="M1661.4,1050.4c-6.7,0-12.1-5.4-12.1-12.1s5.4-12.1,12.1-12.1c6.7,0,12.1,5.4,12.1,12.1
				S1668.1,1050.4,1661.4,1050.4z M1661.4,1029.7c-4.7,0-8.6,3.8-8.6,8.6c0,4.7,3.8,8.6,8.6,8.6c4.7,0,8.6-3.8,8.6-8.6
				C1670,1033.6,1666.1,1029.7,1661.4,1029.7z"/>
		</g>
	</g>
	<g style="opacity:0.43;">
		<path style="fill:#4D7B79;" d="M1526.4,917.1h-14.3c-1.8,0-3.2,1.4-3.2,3.2c0,1.8,1.4,3.2,3.2,3.2h14.3V917.1z"/>
	</g>
	<g style="opacity:0.43;">
		<path style="fill:#4D7B79;" d="M1713.3,917.1h-52.2v6.4h52.2c1.8,0,3.2-1.4,3.2-3.2C1716.5,918.5,1715.1,917.1,1713.3,917.1z"/>
	</g>
	<g style="opacity:0.57;">
		<g>
			<path style="fill:#4D7B79;" d="M1523,937.2c-0.6-0.9-1.5-1.7-2.5-2.1c-0.7-0.3-1.4-0.5-2.2-0.5h-24c-0.6,0-1.1,0-1.6,0.1
				c-1.1,0.1-2.1,0.3-3.2,0.5c-1,0.3-2.1,0.6-3,1c-1,0.4-1.9,0.9-2.8,1.5c-2.3,1.4-4.3,3.2-5.9,5.4c-0.7,0.9-1.3,1.8-1.8,2.8
				c-0.5,1-1,2-1.4,3.1l-10.3,28.9c-0.2,0.5-0.3,1-0.3,1.5l0,31.7c0.4-0.2,0.9-0.4,1.4-0.5v-29.8h0.2l-0.1-0.8
				c-0.1-0.6-0.1-1.1,0.1-1.6l10.3-28.9c0.4-1,0.8-2,1.3-2.9c0.5-0.9,1-1.8,1.7-2.6c1.5-2,3.4-3.7,5.5-5c0.8-0.5,1.7-1,2.6-1.4
				c0.9-0.4,1.9-0.7,2.8-0.9c1-0.2,2-0.4,3-0.5c0.5,0,1-0.1,1.5-0.1h24c0.6,0,1.1,0.1,1.6,0.3c0.7,0.3,1.4,0.9,1.8,1.6
				c0.5,0.7,0.7,1.6,0.7,2.5v92.1h-25.6c0.1,0.5,0.1,1,0.1,1.4h26.9v-93.6C1524,939.3,1523.7,938.2,1523,937.2z"/>
		</g>
	</g>
	<g>
		<g>
			<path style="fill:#1C3A52;" d="M1508.7,942.8c0-2.4-1.9-4.3-4.3-4.3h-10.7c-7.5,0-14.1,4.7-16.7,11.7l-9,24.4
				c-0.8,2.1,0.8,4.2,3,4.2h12.1l25.6-27.4V942.8z"/>
		</g>
		<g>
			<path style="fill:#295A7C;" d="M1483.1,978.8h0.4h20.7c2.5,0,4.5-2,4.5-4.5v-22.7v-0.2L1483.1,978.8z"/>
		</g>
		<g style="opacity:0.57;">
			<path style="fill:#4D7B79;" d="M1480.3,955.2c2.6-7,9.3-11.7,16.7-11.7h10.7c0.4,0,0.7,0.1,1.1,0.2v-0.9c0-2.4-1.9-4.3-4.3-4.3
				h-10.7c-7.5,0-14.1,4.7-16.7,11.7l-9,24.4c-0.8,2.1,0.8,4.2,3,4.2h0.5L1480.3,955.2z"/>
		</g>
	</g>
	<g>
		<path style="fill:#A49C92;" d="M1441.5,1040.2h-29.7c-2.2,0-4-1.8-4-4v-8.1c0-3,2.4-5.4,5.4-5.4h28.3V1040.2z"/>
	</g>
	<g>
		<rect x="1523.3" y="978.8" style="fill:#F7665F;" width="202.6" height="8.1"/>
	</g>
	<g>
		<g>
			<circle style="fill:#051E1C;" cx="1472.4" cy="1037.2" r="23.8"/>
		</g>
	</g>
	<g>
		<g>
			<circle style="fill:#A49C92;" cx="1472.4" cy="1037.2" r="15.8"/>
		</g>
	</g>
	<g>
		<g>
			<path style="fill:#293137;" d="M1472.4,1049.3c-6.7,0-12.1-5.4-12.1-12.1s5.4-12.1,12.1-12.1c6.7,0,12.1,5.4,12.1,12.1
				S1479.1,1049.3,1472.4,1049.3z M1472.4,1028.7c-4.7,0-8.6,3.8-8.6,8.6c0,4.7,3.8,8.6,8.6,8.6c4.7,0,8.6-3.8,8.6-8.6
				C1481,1032.5,1477.2,1028.7,1472.4,1028.7z"/>
		</g>
	</g>
	<g style="opacity:0.49;">
		<path style="fill:#4D7B79;" d="M1581.3,1034.7h-31.1c-5.5,0-10-4.5-10-10v-80.8c0-5.5,4.5-10,10-10h31.1c5.5,0,10,4.5,10,10v80.8
			C1591.3,1030.2,1586.8,1034.7,1581.3,1034.7z M1550.2,935.4c-4.7,0-8.6,3.8-8.6,8.6v80.8c0,4.7,3.8,8.6,8.6,8.6h31.1
			c4.7,0,8.6-3.8,8.6-8.6v-80.8c0-4.7-3.8-8.6-8.6-8.6H1550.2z"/>
	</g>
	<g>
		<path style="fill:#1C3A52;" d="M1585.8,945.1c0-3.6-2.9-6.6-6.6-6.6h-25.3c-4.1,0-7.5,3.4-7.5,7.5v32.7h10.5l28.9-28.5V945.1z"/>
	</g>
	<g>
		<polygon style="fill:#295A7C;" points="1585.8,950.3 1556.9,978.8 1585.8,978.8 		"/>
	</g>
	<g style="opacity:0.57;">
		<path style="fill:#4D7B79;" d="M1549.9,950.6c0-4.1,3.4-7.5,7.5-7.5h25.3c1,0,1.9,0.2,2.7,0.6c-0.6-3-3.3-5.2-6.4-5.2h-25.3
			c-4.1,0-7.5,3.4-7.5,7.5v32.7h3.7V950.6z"/>
	</g>
	<g>
		<path style="fill:#A49C92;" d="M1412.5,1000.9C1412.5,1000.9,1412.5,1000.9,1412.5,1000.9c-1.6,0-2.9,1.3-2.9,2.9v13.3
			c0,1.6,1.3,2.9,2.9,2.9c0,0,0,0,0,0V1000.9z"/>
	</g>
	<g>
		<path style="fill:#A49C92;" d="M1458.4,999.7h-3.9c-1.1,0-1.9-0.9-1.9-1.9l0,0c0-1.1,0.9-1.9,1.9-1.9h3.9c1.1,0,1.9,0.9,1.9,1.9
			l0,0C1460.4,998.8,1459.5,999.7,1458.4,999.7z"/>
	</g>
	<g>
		<path style="fill:#A49C92;" d="M1714.6,999.7h-3.9c-1.1,0-1.9-0.9-1.9-1.9l0,0c0-1.1,0.9-1.9,1.9-1.9h3.9c1.1,0,1.9,0.9,1.9,1.9
			l0,0C1716.6,998.8,1715.7,999.7,1714.6,999.7z"/>
	</g>
	<g>
		<path style="fill:#F7665F;" d="M1598.9,902.3L1598.9,902.3c0-4.2-3.4-7.7-7.7-7.7h-26.6c-4.2,0-7.7,3.4-7.7,7.7v0
			c0,1.7,0.6,3.3,1.6,4.6l39.1-0.3C1598.4,905.4,1598.9,903.9,1598.9,902.3z"/>
	</g>
	<g>
		<rect x="1549.5" y="906.2" style="fill:#FFFFFF;" width="59.3" height="6.3"/>
	</g>
	<g>
		<path style="fill:#693523;" d="M1165.7,934.1l6.7,2.1l0.3,1.1l0,0c0.6-0.2,1.3,0.3,1.5,1.1c0.1,0.3,0,0.5,0,0.8
			c0.4-0.1,0.8,0.2,0.9,0.6l0.5,2c0.4-0.7,0.8-1.5,1.1-2.6c0.9-2.8,0.9-5.8,0.4-8.6c-0.2-1-0.4-1.9-1-2.7c-0.6-0.8-1.5-1.4-2.5-1.3
			c-1,0.1-1.8,1.1-1.6,2c-3.2-0.4-6.6,1.4-7.8,4.4c-1.1,2.7-0.3,6,1.8,7.9l-0.8-3C1164.8,936.4,1165,935.1,1165.7,934.1z"/>
		<path style="fill:#FFB288;" d="M1154.7,968.2c2.8,2.1,6.5,4.5,11,6.8c0-0.4,0.1-0.9,0.1-1.3c0.1-0.5,0.1-1,0.2-1.5
			c0.1-1,0.2-1.9,0.3-2.9c-3.8-1.9-7.7-4.3-11.3-6.3c0.2-0.6,0-1.4-0.5-1.9c-0.5-0.5-1.1-0.9-1.8-1.2c-0.8-0.4-1.7-0.7-2.5-0.9
			c0,0,0,0,0,0c-0.3,0.1-0.6,0.2-0.9,0.3c-0.1,0-0.1,0-0.1,0.1c-0.1,0-0.2,0.1-0.2,0.1c-0.1,0.1-0.5,0.3-0.5,0.4
			c-0.2,0.2-0.4,0.5-0.1,0c-0.1,0.1-0.2,0.2-0.3,0.4c0,0,0.1,0,0.1,0c0,0-0.1,0.1-0.1,0.1c-0.4,0.6-0.3,1.5,0.1,2.1
			c0.2,0.3,0.5,0.5,0.8,0.7c0.1,0.1,0.2,0.2,0.4,0.3C1151.4,964.5,1153.4,966.1,1154.7,968.2z"/>
		<path style="fill:#7D9E96;" d="M1106.8,988.2c-0.9-0.1-1.5-0.2-2-0.4c-0.3,0.3-0.6,0.6-0.9,0.9c-0.5,0.4-1.1,0.8-1.7,0.9
			c-0.7,0.1-1.4-0.2-1.7-0.8c0-0.1,0-0.1,0-0.2c0,0,0,0-0.1,0.1c-0.1-0.1-0.1-0.2-0.2-0.4c0.3,0.5,0.1,0.2,0-0.1
			c0-0.1-0.1-0.5-0.1-0.6c0-0.1,0-0.2,0-0.2c0,0,0-0.1,0-0.1c0-0.1,0-0.2,0-0.3c-0.9,0.4-1.6,1.3-1.6,2.3c0,1.4,1.1,2.5,2.5,2.5
			h14.7c-0.1-1-0.2-2.1-0.3-3.1C1111.7,988.6,1108.2,988.3,1106.8,988.2z"/>
		<path style="fill:#3D7F7C;" d="M1132.7,1009.7h-11.2v27.4c2.1-0.7,4.3-0.1,6,1.9c2.4,2.9,2.4,7.7,0,10.6c-0.3,0.4-0.6,0.7-1,0.9
			c3.6-1,7-3.2,9.9-6.6c-0.4-0.4-0.7-0.8-1.1-1.2C1127.8,1033.8,1127,1019.8,1132.7,1009.7z"/>
		<path style="fill:#3D7F7C;" d="M1111.1,1041.5l3.2-1c-0.1-0.2-0.2-0.3-0.2-0.5c-1.9-5.9-5.2-12.7-6.2-18.8
			c-0.7-4.3-1.7-9.2-1.7-13.6c-0.1,0-0.2,0-0.4,0c-1.8,2.4-3.2,5.1-4.2,8c0.4,5.8,1.5,14.2,4.9,23.9c0.1,0,0.1,0.1,0.1,0.2l1.1,3.9
			c0.1,0.2-0.2,0.4-0.6,0.4h4.9C1110,1043.8,1109.3,1042.1,1111.1,1041.5z"/>
		<path style="fill:#3D7F7C;" d="M1117.2,1046.6h-8c3.5,2.9,7.5,4.5,11.5,4.6c-0.7-0.4-1.4-0.9-2.1-1.7
			C1118,1048.7,1117.5,1047.7,1117.2,1046.6z"/>
		<path style="fill:#3D7F7C;" d="M1115.1,1009.7v-1.7v-0.4c-0.4,0-0.7,0-1.1,0c0,0.7-0.5,7.2,1.1,16.8V1009.7z"/>
		<path style="fill:#3D7F7C;" d="M1096.3,1046.6c-0.8,0-1.4-0.6-1.4-1.4s0.6-1.4,1.4-1.4h3.2c-2,0-2.6-1.7-0.9-2.3l3.1-1
			c-0.1-0.2-0.2-0.4-0.2-0.6c-0.3-1-0.7-2-1.1-3c-1.9-0.4-3.9,0.3-5.3,2.1c-2.4,2.9-2.4,7.7,0,10.6s6.3,2.9,8.7,0
			c0.7-0.9,1.2-1.9,1.5-3H1096.3z"/>
		<path style="fill:#FFB288;" d="M1100.1,987.4c0,0.1,0,0.2,0,0.2c0,0.1,0.1,0.5,0.1,0.6c0.1,0.3,0.3,0.6,0,0.1
			c0.1,0.1,0.1,0.2,0.2,0.4c0,0,0,0,0.1-0.1c0,0.1,0,0.1,0,0.2c0.3,0.6,1,0.9,1.7,0.8c0.7-0.1,1.2-0.5,1.7-0.9
			c0.3-0.3,0.6-0.6,0.9-0.9c0.5,0.2,1.2,0.4,2,0.4c1.4,0.1,4.9,0.4,8.6,0.5c-0.2-2.2-0.3-4.4-0.3-6.6c-2.2,0.6-4.4,1.1-6.5,1.4
			c-1.3,0.2-2.4,0.5-3.2,0.9c0,0,0,0,0-0.1c-0.4-0.5-1.1-0.6-1.8-0.4c-0.1,0-0.2,0.1-0.4,0.2c-0.1,0-0.2,0.1-0.3,0.1
			c-0.7,0.1-1.3-0.1-2,0c-0.3,0-0.6,0.2-0.6,0.5c0,0.2,0.1,0.5,0.3,0.6c0.2,0.1,0.5,0.2,0.7,0.2c0,0,0,0,0.1,0
			c-0.4,0.4-0.8,0.7-1.2,1.1c0,0,0,0,0,0c0,0.2-0.1,0.3-0.1,0.5c0,0.1,0,0.2,0,0.3C1100.1,987.3,1100.1,987.4,1100.1,987.4z"/>
		<path style="fill:#693523;" d="M1123.5,941.7l6.5,2.7l0.2,1.1c0.6-0.1,1.2,0.4,1.3,1.2c0,0.3,0,0.5-0.1,0.8c0.4,0,0.8,0.2,0.8,0.6
			l0.1,0.4c0.2-1,0.4-2.1,0.4-3.1c0-0.9,0-1.8-0.2-2.6c-0.6-2-2.6-3.4-4.6-4c-1.2-0.3-2.5-0.4-3.7-0.3c-1.9,1.4-2.3,3.6-2.5,5.8
			c0.2,0.4,0.5,0.7,0.8,1c0.1,0.1,0.1,0.1,0.2,0.2C1122.4,944,1122.8,942.7,1123.5,941.7z"/>
		<path style="fill:#7D9E96;" d="M1146.8,974.3c0,0.4,0,0.8,0,1.1c0,3.1,0.4,6.9-0.5,9.9c-0.2,0.6-0.8,1.1-1.6,1.5
			c0,0.1-0.1,0.3-0.1,0.4h-0.9H1128c-0.9,0-1.7,0.6-2.2,1.3c-0.2,0.3-0.3,0.7-0.3,1.1c0,1.4,1.1,2.5,2.5,2.5h15.3
			c-0.6,2.4-1.2,4.8-1.9,7.2c0,0-0.1,0-0.1,0c0.2,0.3,0.4,0.6,0.6,0.9c4.6-2.4,9.7-2.8,14.5-1.1c0-0.3,0.1-0.6,0.1-0.9V983
			c-0.4,0.1-0.7,0.2-1.1,0.3c0,0,0,0,0,0c-0.2-0.1-0.4-0.2-0.7-0.3c0,0-0.1,0-0.1-0.1c-0.1,0-0.1-0.1-0.2-0.1
			c-0.1-0.1-0.3-0.3-0.4-0.4c-0.1-0.2-0.3-0.5-0.1,0c-0.1-0.1-0.1-0.2-0.2-0.3c0,0,0,0,0.1,0c0,0-0.1-0.1-0.1-0.1
			c-0.3-0.5-0.1-1.2,0.3-1.7c0.4-0.5,1-0.7,1.6-0.9c0,0,0.1,0,0.1,0c0.2-0.4,0.5-0.7,0.8-0.9v-4.1c0-2.2-0.7-4.3-1.8-6
			c-1.3-2.1-3.3-3.7-5.6-4.6c-0.8-0.3-1.6-0.5-2.4-0.6c0.1,0.4,0.2,0.9,0.2,1.5C1146.8,967.8,1146.8,971.1,1146.8,974.3z"/>
		<path style="fill:#7D9E96;" d="M1118.5,1007.5c-1.1,0-2.3,0-3.4,0v0.4v1.7v14.6c0.7,4.3,1.9,9.3,3.7,14.6c0.8-0.9,1.7-1.5,2.6-1.8
			v-27.4h11.2c0.4-0.8,0.9-1.5,1.4-2.3C1129.4,1007.5,1122.9,1007.5,1118.5,1007.5z"/>
		<path style="fill:#161616;" d="M1107.7,1043.3l-1.1-3.9c0-0.1-0.1-0.1-0.1-0.2c0,0.1,0,0.1,0.1,0.2c0.9,2.6-3.3,3.6-4.8,1l-3.1,1
			c-1.8,0.6-1.1,2.3,0.9,2.3h7.6C1107.5,1043.8,1107.7,1043.6,1107.7,1043.3z"/>
		<path style="fill:#161616;" d="M1114.2,1040.5l-3.2,1c-1.8,0.6-1.1,2.3,0.9,2.3h4.9c0-0.6,0.1-1.2,0.3-1.8
			C1116.1,1042.1,1114.9,1041.7,1114.2,1040.5z"/>
		<path style="fill:#B9E5B5;" d="M1101.7,1040.5c1.4,2.6,5.7,1.5,4.8-1c0-0.1,0-0.1-0.1-0.2c-3.4-9.6-4.5-18.1-4.9-23.9
			c-0.3-4.8-0.1-7.7-0.1-8c0.3,0,2,0,4.3,0c0.1,0,0.2,0,0.4,0c0-0.5,0-0.9,0-1.4c0.3-5.6,5.6-7.4,10.4-7.7c-4.1-0.1-8.2-0.3-12.3,0
			c-4.8,0.3-10.3,2-10.6,7.7c-0.3,4.8,0.9,10.3,1.7,15c0.8,5.1,3.2,10.7,5.1,15.8c0.4,1,0.7,2,1.1,3
			C1101.6,1040.1,1101.6,1040.3,1101.7,1040.5z"/>
		<path style="fill:#B9E5B5;" d="M1118.5,1007.5c-2.4,0-4.2,0-4.6,0c0,0,0,0.1,0,0.1c0.4,0,0.7,0,1.1,0
			C1116.3,1007.5,1117.4,1007.5,1118.5,1007.5z"/>
		<path style="fill:#ABFFA6;" d="M1144.6,987.3c0-0.1,0.1-0.3,0.1-0.4c-0.3,0.2-0.6,0.3-1,0.4H1144.6z"/>
		<path style="fill:#ABFFA6;" d="M1106.1,1006.1c0,0.4,0,0.9,0,1.4c0,4.4,1,9.3,1.7,13.6c1,6.1,4.3,12.9,6.2,18.8
			c0.1,0.2,0.1,0.4,0.2,0.5c0.6,1.2,1.9,1.6,3,1.5c0.3-1.1,0.8-2.1,1.5-3c0-0.1,0.1-0.1,0.1-0.1c-1.8-5.3-3-10.2-3.7-14.6
			c-1.6-9.6-1.1-16.1-1.1-16.8c0,0,0-0.1,0-0.1c0.4,0,2.1,0,4.6,0c4.3,0,10.8,0.1,15.6-0.1c0.4-0.5,0.7-1,1.1-1.5
			c2-2.4,4.2-4.2,6.6-5.5c-0.2-0.3-0.3-0.6-0.6-0.9c0,0,0.1,0,0.1,0c0.6-2.4,1.2-4.8,1.9-7.2H1128c-1.4,0-2.5-1.1-2.5-2.5
			c0-0.4,0.1-0.8,0.3-1.1c0,0-0.1,0-0.1,0c-0.8,0-1.5-0.2-2-0.4c-0.2,0.4-0.5,0.8-0.8,1.1c-0.5,0.5-1,0.9-1.6,1.1
			c-0.6,0.1-1.3-0.1-1.6-0.8c0-0.1,0-0.1-0.1-0.2c0,0,0,0-0.1,0.1c-0.1-0.1-0.1-0.3-0.2-0.4c0.3,0.5,0.1,0.2,0-0.1
			c0-0.1-0.1-0.5-0.1-0.7c0-0.1,0-0.2,0-0.3c0,0,0-0.1,0-0.2c0-0.3,0-0.6,0.1-0.9c0,0,0,0,0-0.1c0.3-0.4,0.7-0.9,1.1-1.3
			c0,0,0,0-0.1,0c-0.2,0-0.5,0-0.7-0.2c-0.2-0.1-0.4-0.4-0.3-0.6c0-0.3,0.3-0.5,0.5-0.6c0.6-0.1,1.3,0.1,1.9-0.1
			c0.1,0,0.2-0.1,0.3-0.1c0.1-0.1,0.2-0.2,0.3-0.2c0.6-0.2,1.3-0.1,1.7,0.4c0,0,0,0,0,0.1c0.8-0.5,1.8-0.9,3-1.2
			c3.6-0.8,7.5-2.6,11.4-3.6c0-1.5,0-2.8,0-4c2.9,0.5,5.9,0.4,8.2-1.3c0-3.3-0.1-6.5,0-9.8c0-0.5,0-1-0.2-1.5
			c-0.1-0.6-0.4-1.1-0.7-1.5l0,0c0,0-1.2-4.4-6.7-5.7c0,0,0,0,0,0c0,0-0.1,0-0.1,0c-1.3-0.3-2.8-0.4-4.6-0.3
			c0.3,0.3,0.6,0.5,0.9,0.8c-1.6,1.9-3.1,3.7-4.5,5.7c0.3-0.4-2.6-4.4-2.9-5.1c-0.1-0.4-0.1-0.7,0-1c-0.6,0.1-1.2,0.1-1.8,0.2
			c-5.1,1-9.4,3.1-10.1,7.5c-1,5.8-1.3,12.1-1.1,18.3c0.1,2.2,0.1,4.4,0.3,6.6c0.1,1.1,0.2,2.1,0.3,3.1c0.2,1.7,0.3,3.4,0.5,5.1
			c0.1,0.5,0.2,1,0.4,1.5c0,0-0.1,0-0.1,0C1111.7,998.7,1106.4,1000.5,1106.1,1006.1z"/>
		<path style="fill:#FFB288;" d="M1128,987.3h15.7c0.4-0.1,0.7-0.3,1-0.4c0.8-0.4,1.4-0.9,1.6-1.5c0.9-2.9,0.5-6.8,0.5-9.9
			c0-0.4,0-0.8,0-1.1c-2.3,1.7-5.3,1.8-8.2,1.3c0,1.2,0,2.6,0,4c-3.9,1-7.8,2.8-11.4,3.6c-1.2,0.3-2.2,0.7-3,1.2c0,0,0,0,0-0.1
			c-0.4-0.5-1.1-0.6-1.7-0.4c-0.1,0-0.2,0.1-0.3,0.2c-0.1,0-0.2,0.1-0.3,0.1c-0.6,0.2-1.3-0.1-1.9,0.1c-0.3,0.1-0.5,0.3-0.5,0.6
			c0,0.3,0.1,0.5,0.3,0.6c0.2,0.1,0.4,0.2,0.7,0.2c0,0,0,0,0.1,0c-0.4,0.4-0.7,0.8-1.1,1.3c0,0,0,0,0,0.1c0,0.3,0,0.6-0.1,0.9
			c0,0.1,0,0.1,0,0.2c0,0.1,0,0.2,0,0.3c0,0.1,0.1,0.6,0.1,0.7c0.1,0.3,0.3,0.6,0,0.1c0.1,0.1,0.1,0.3,0.2,0.4c0,0,0,0,0.1-0.1
			c0,0.1,0,0.1,0.1,0.2c0.3,0.6,1,0.9,1.6,0.8c0.6-0.1,1.1-0.6,1.6-1.1c0.3-0.3,0.6-0.7,0.8-1.1c0.5,0.2,1.1,0.3,2,0.4
			c0,0,0.1,0,0.1,0C1126.2,987.9,1127,987.3,1128,987.3z"/>
		<path style="fill:#FFFFFF;" d="M1165.8,973.7c-0.1,0.4-0.1,0.9-0.1,1.3c0,0.2,0,0.5-0.1,0.7c2.8-1,4.9-2.3,8.7-4.5
			c0.8-1,1.4-2.2,2-3.5c0.6-1.4,1.1-3,1.6-4.6c2.2,1.7,4.8,2.8,7.5,3.2c1.4-4.2,2-8.7,2.2-12.3c0.1-1.2-0.3-2.1-0.9-2.8
			c-0.6-1.7-1.9-3.2-4.6-3.7l0,0c-1.2-0.7-2.5-1.3-4-1.6c0.1,0.1,0.3,0.1,0.4,0.2c0.2,0.1,0.4,0.2,0.6,0.3c0.3,0.2,0.5,0.6,0.5,1
			c0.2,1.3-0.7,2.5-1.6,3.5c-2.3,2.7-4.5,5.4-6.8,8.1c-0.4-1.7-0.7-3.4-1.1-5.1c-0.3-1.4-0.6-2.8-0.4-4.2c0.1-0.6,0.3-1.2,0.6-1.8
			c-1.6,1.2-3.1,3-4.7,5.5c-0.1,0.3-0.2,0.5-0.3,0.7c0,0.1,0,0.1-0.1,0.1c0,0.1,0,0.2-0.1,0.3c0,0.1,0,0.1,0,0.2c0,0,0,0,0.1,0.1
			c0,0-0.1,0-0.1,0.1c-0.1,1,0,1.9,0.1,2.9c0,0.2,0.1,0.3,0.1,0.5c-0.4,1-0.8,2-1.1,3c-0.7,2.5-0.2,5.6,2,6.8c0,0.5,0,0.9,0,1.4
			c-0.1,1-0.2,1.9-0.3,2.9C1165.9,972.7,1165.9,973.2,1165.8,973.7z"/>
		<path style="fill:#7D9E96;" d="M1191.6,1046.3c-0.8,2-2.8,2.8-4.5,0.7l-3.9,1.3c-1.9,0.6-1.2,2.4,0.9,2.4h8c0.4,0,0.7-0.2,0.6-0.5
			L1191.6,1046.3z"/>
		<path style="fill:#FFFFFF;" d="M1191.6,1046.3c0.3-0.8,0.4-1.8,0.2-2.9c-1.5-7.3-4.2-14.2-6.6-21.2c-0.4-1.1-0.7-2.1-1-3.1
			c-2.9-8.8,3.8-21.9,6.2-29.6c0,0,0-0.1,0-0.1c-1.6,1.6-6.1,5.5-13.4,5.5c-1.8,5.5-2.9,11.3-2.8,17c0,2.4,0.5,4.7,1.4,7.3
			c1.9,5.6,5.7,12.7,10.3,25.6c0.4,1,0.8,1.8,1.3,2.4C1188.8,1049.1,1190.9,1048.3,1191.6,1046.3z"/>
		<path style="fill:#18544B;" d="M1190.7,988.3c0.1-0.2,0.1-0.4,0.1-0.6c0.1-0.3,0.1-0.5,0.2-0.8h-0.1h-1.5
			C1189.9,987.3,1190.3,987.8,1190.7,988.3z"/>
		<path style="fill:#7D9E96;" d="M1174,1047.3l-3.9,1.3c-1.9,0.6-1.2,2.4,0.9,2.4h8c0.4,0,0.7-0.2,0.6-0.5l-1.1-4
			C1177.7,1048.6,1175.6,1049.3,1174,1047.3z"/>
		<path style="fill:#FFFFFF;" d="M1169.5,1036.4c1,2.5,2.1,5.4,3.2,8.5c0.4,1,0.8,1.8,1.3,2.4c1.7,2.1,3.8,1.3,4.5-0.7
			c0.3-0.8,0.4-1.8,0.2-2.9c-1.5-7.3-4.2-14.2-6.6-21.2c-0.1-0.3-0.2-0.6-0.3-0.8C1172.2,1026.6,1171.4,1031.8,1169.5,1036.4z"/>
		<path style="fill:#FFFFFF;" d="M1165.4,990.5c0,0.1,0,0.1-0.1,0.2c-1.4,3.8-2.6,7.7-3.4,11.6c1.3,1,2.5,2.2,3.7,3.6
			c2.1,2.6,3.7,5.5,4.7,8.7c0-6.4,2.9-13.8,5.1-19.8c-2.9-0.2-6.2-1.1-9.9-2.9L1165.4,990.5z"/>
		<path style="fill:#FFFFFF;" d="M1190.4,989.4c0,0,0,0.1,0,0.1c0,0,0.1,0.1,0.1,0.1c0-0.1,0.1-0.3,0.1-0.4c0.3-0.3,0.5-0.5,0.5-0.5
			c-0.1-0.1-0.2-0.2-0.3-0.3c0-0.2,0.1-0.5,0.1-0.7c0,0.2-0.1,0.4-0.1,0.6c-0.4-0.5-0.8-1-1.3-1.4h1.5c0.1-1.3-0.1-2.6-0.4-3.8
			c-1.1-3.7-3.9-6.5-5.4-10c-0.2-0.5-0.4-1-0.5-1.5c-0.2-0.8-0.3-1.6-0.3-2.4c-0.6,1.3-1.2,2.5-2,3.5c-1.3,1.7-2.9,3.1-4.9,3.9
			c-5.4,2.2-8.4,3-12.1,3.7c0,0.7-0.1,1.4-0.2,2.1c0,0.1,0,0.1,0,0.2c0,0,0,0,0,0.1c0,0,0,0,0,0c0,0.1,0,0.2,0,0.2
			c-0.1,0.6-0.1,1.2-0.2,1.8c0,0,0,0,0,0c0,0.3,0,0.5,0.1,0.8c0,0,0,0,0,0c0,0.1,0,0.2,0,0.4c0,0.3,0,0.5,0.1,0.8l0,0
			c0.1,1.3,0.2,2.7,0.3,4c0-0.1,0-0.1,0.1-0.2l0.1,1.4c3.7,1.8,7,2.6,9.9,2.9c0.5,0,1,0.1,1.5,0.1
			C1184.3,994.9,1188.8,991,1190.4,989.4z"/>
		<path style="fill:#59DBD1;" d="M1170.2,953.9c0.4,1.7,0.7,3.4,1.1,5.1c2.3-2.7,4.5-5.4,6.8-8.1c0.9-1,1.8-2.2,1.6-3.5
			c-0.1-0.4-0.2-0.8-0.5-1c-0.2-0.1-0.4-0.2-0.6-0.3c-0.1-0.1-0.3-0.1-0.4-0.2c-0.7-0.3-1.3-0.6-1.9-0.8l0.6,2.4
			c0.1,0.4-0.1,0.8-0.5,0.9l-2.9,0.7c-0.4,0.1-0.8-0.2-0.9-0.6l-0.6-2.6c-0.6,0.5-1.2,1.2-1.5,2c-0.3,0.6-0.5,1.2-0.6,1.8
			C1169.6,951.1,1169.9,952.5,1170.2,953.9z"/>
		<path style="fill:#FFB288;" d="M1172.6,948.5c0.1,0.4,0.5,0.7,0.9,0.6l2.9-0.7c0.4-0.1,0.6-0.5,0.5-0.9l-0.6-2.4l-0.8-3.4l-0.5-2
			c-0.1-0.4-0.5-0.7-0.9-0.6c0.1-0.2,0.1-0.5,0-0.8c-0.2-0.7-0.8-1.2-1.5-1.1l0,0l-0.3-1.1l-6.7-2.1c-0.6,1-0.9,2.4-0.5,3.8l0.8,3
			l0.1,0.5c0.6,2.4,2.7,4,4.7,3.5c0.3-0.1,0.6-0.2,0.8-0.4l0.4,1.6L1172.6,948.5z"/>
		<path style="fill:#2D3A4B;" d="M1161.9,1002.3c-1.7-1.3-3.6-2.4-5.5-3.1c-4.8-1.7-9.9-1.3-14.5,1.1c-2.4,1.3-4.7,3.1-6.6,5.5
			c-0.4,0.5-0.8,1-1.1,1.5c-0.5,0.7-1,1.5-1.4,2.3c-5.7,10.2-4.8,24.1,2.6,33.1c0.3,0.4,0.7,0.8,1.1,1.2c8.4,9,21.2,8.6,29.3-1.2
			c1.6-1.9,2.9-4.1,3.9-6.4c2-4.6,2.7-9.8,2.3-14.9c-0.2-2.4-0.7-4.7-1.4-7c-1-3.2-2.6-6.1-4.7-8.7
			C1164.5,1004.5,1163.2,1003.3,1161.9,1002.3z M1156.9,1039.6c-6.9,4.3-15.4,1-19-7.4c-3.6-8.4-0.9-18.7,6.1-23.1
			c6.9-4.3,15.4-1,19,7.4C1166.5,1024.9,1163.8,1035.2,1156.9,1039.6z"/>
		<path style="fill:#B3B3B3;" d="M1162.9,1016.5c-3.6-8.4-12-11.7-19-7.4c-6.9,4.3-9.6,14.7-6.1,23.1c3.6,8.4,12,11.7,19,7.4
			C1163.8,1035.2,1166.5,1024.9,1162.9,1016.5z"/>
		<path style="fill:#FFB288;" d="M1177.9,963.1c-0.4,1.6-0.9,3.2-1.6,4.6c-0.6,1.3-1.2,2.5-2,3.5c-3.8,2.2-5.9,3.5-8.7,4.5
			c-2.1,0.8-4.6,1.4-8.4,2.3c-0.3,0.1-0.5,0.2-0.7,0.3c-0.4,0.2-0.7,0.6-0.8,0.9c0,0-0.1,0-0.1,0c-0.6,0.2-1.2,0.4-1.6,0.9
			c-0.4,0.5-0.6,1.2-0.3,1.7c0,0,0.1,0.1,0.1,0.1c0,0,0,0-0.1,0c0.1,0.1,0.1,0.2,0.2,0.3c-0.2-0.4-0.1-0.2,0.1,0
			c0.1,0,0.3,0.3,0.4,0.4c0.1,0,0.1,0.1,0.2,0.1c0,0,0.1,0,0.1,0.1c0.2,0.1,0.4,0.2,0.7,0.3c0,0,0,0,0,0c0.4-0.1,0.7-0.2,1.1-0.3
			c0.4-0.1,0.7-0.1,1.1-0.3c0.6-0.2,1.1-0.4,1.6-0.8c0,0,0,0,0,0c0.2-0.1,0.3-0.3,0.4-0.5c2.2-0.4,4.1-0.8,5.7-1.1
			c3.8-0.8,6.7-1.6,12.1-3.7c2-0.8,3.6-2.2,4.9-3.9c0.8-1.1,1.5-2.3,2-3.5c0.4-0.9,0.8-1.9,1.1-2.9
			C1182.7,965.9,1180.1,964.8,1177.9,963.1z"/>
		<path style="fill:#7D9E96;" d="M1116.9,1043.8h-4.9h-4.9h-7.6h-3.2c-0.8,0-1.4,0.6-1.4,1.4s0.6,1.4,1.4,1.4h9h3.9h8
			C1117,1045.7,1116.9,1044.7,1116.9,1043.8z"/>
		<path style="fill:#2D3A4B;" d="M1127.4,1039c-1.6-2-3.9-2.6-6-1.9c-1,0.3-1.9,0.9-2.6,1.8c0,0-0.1,0.1-0.1,0.1
			c-0.7,0.9-1.2,1.9-1.5,3c-0.2,0.6-0.3,1.2-0.3,1.8c-0.1,1,0,1.9,0.3,2.9c0.3,1.1,0.8,2.1,1.5,3c0.6,0.7,1.3,1.3,2.1,1.7
			c1.9,0.9,4,0.7,5.7-0.7c0.3-0.3,0.7-0.6,1-0.9C1129.8,1046.7,1129.8,1041.9,1127.4,1039z M1124.9,1048.7c-2,1.2-4.4,0.3-5.5-2.1
			c-1-2.4-0.2-5.4,1.7-6.6c2-1.2,4.4-0.3,5.5,2.1C1127.7,1044.5,1126.9,1047.4,1124.9,1048.7z"/>
		<path style="fill:#B3B3B3;" d="M1121.2,1039.9c-2,1.2-2.8,4.2-1.7,6.6c1,2.4,3.5,3.4,5.5,2.1c2-1.2,2.8-4.2,1.7-6.6
			C1125.6,1039.6,1123.2,1038.7,1121.2,1039.9z"/>
		<path style="fill:#FFB288;" d="M1128.1,957c0.2,0.6,3.1,4.7,2.9,5.1c1.5-1.9,3-3.8,4.5-5.7c-0.3-0.3-0.6-0.6-0.9-0.8
			c-0.4-0.3-0.8-0.6-1.3-0.8l-1-6.3l-0.1-0.4c-0.1-0.4-0.4-0.7-0.8-0.6c0.1-0.2,0.1-0.5,0.1-0.8c-0.1-0.8-0.7-1.3-1.3-1.2l-0.2-1.1
			l-6.5-2.7c-0.7,0.9-1.1,2.3-0.9,3.7c0,0,0,0,0,0l0.6,3.6c0.4,2.4,2.3,4.2,4.4,3.9c0.3,0,0.6-0.2,0.9-0.3l0.4,2.6
			c-0.3,0.2-0.6,0.5-0.7,0.9C1128,956.4,1128,956.7,1128.1,957z"/>
	</g>
	<g>
		<g>
			<path style="fill:#F4F4F4;" d="M957.2,948.4c0.5-1.4,1-2.9,1.6-4.2c-0.7-0.5-1.3-1-1.9-1.5c-0.3-3.4-0.7-6.8-1.3-10
				c-0.5-2.7-2.2-4.5-4.6-5.8c-0.1,0-0.2-0.1-0.2-0.1c0.6,0.1,1.2,0.4,1.8,0.9c2.6,2.1,5.3,4,8,6c0.2,0.1,0.4,0.3,0.6,0.4
				c2.4,1.8,5.7,3.7,7.4,6.2c2.3,3.4-8.9,18-11.3,21.2c-0.1,0.1-0.2,0.2-0.3,0.3C957.1,957.4,957.3,952.9,957.2,948.4z"/>
			<path style="fill:#F4F4F4;" d="M941.5,971c1.5,0,3-0.1,4.5-0.1v20.8h1.3c0,0,0,0.1,0,0.1h-1.7c0-0.1,0-0.1,0-0.2
				C945.6,984.8,943.9,977.7,941.5,971z"/>
			<path style="fill:#F4F4F4;" d="M936.1,991.8h-4.5v-16.3C933.5,980.6,935.6,986.5,936.1,991.8z"/>
			<path style="fill:#161616;" d="M944.9,1026.2c0.7,3.7,4.1,3.4,5.5,1.4l2.8,0.9c1.9,0.6,1.2,2.4-0.9,2.4h-7.9
				c-0.4,0-0.7-0.2-0.6-0.5L944.9,1026.2C944.8,1026.3,944.8,1026.2,944.9,1026.2z"/>
			<path style="fill:#161616;" d="M932.6,1027.2l3.8,1.3c1.9,0.6,1.2,2.4-0.9,2.4h-7.9c-0.4,0-0.7-0.2-0.6-0.5l1.1-4
				C928.8,1028.5,930.9,1029.3,932.6,1027.2z"/>
			<path style="fill:#45AAAF;" d="M944.9,1026.2c-0.2-1-0.2-2.4,0.2-4.1c1.3-6.5,2-14.7,2.2-23.1h7.5c-0.9,8.7-2.2,18.1-3.8,27.2
				c-0.1,0.5-0.3,1-0.6,1.4C948.9,1029.6,945.5,1029.9,944.9,1026.2z"/>
			<path style="fill:#45AAAF;" d="M928.1,1026.5c-0.3-0.8-0.4-1.8-0.2-3c1.5-7.4,4.2-14.3,6.6-21.4c0.4-1.1,0.7-2.1,1-3.1h8.6
				c-1.9,5.7-5.6,12.8-10.3,25.8c-0.4,1-0.8,1.8-1.3,2.4C930.9,1029.3,928.8,1028.5,928.1,1026.5z"/>
			<path style="fill:#45AAAF;" d="M955.4,991.7c-0.2,2.4-0.4,4.8-0.7,7.3h-7.5c0.1-2.4,0.1-4.8,0.1-7.2c0,0,0-0.1,0-0.1H955.4z"/>
			<path style="fill:#45AAAF;" d="M931.5,975.3l0-4c1.6,0,3.2-0.1,4.8-0.1l0,0c1.7,0,3.4-0.1,5.2-0.1c2.4,6.7,4.1,13.8,4,20.7
				c0,0.1,0,0.1,0,0.2c-0.1,2.4-0.5,4.6-1.4,7.2h-8.6c0.7-2.2,0.8-4.6,0.6-7.2c-0.5-5.4-2.6-11.3-4.5-16.3
				C931.6,975.5,931.5,975.4,931.5,975.3z"/>
			<path style="fill:#FFFFFF;" d="M920.6,928.4c1.2-1.8,3.5-2.5,5.7-2.9c0.9-0.2,1.9-0.3,3.1-0.5c0.6-0.1,1.2-0.1,1.8-0.2l0.1,9.3
				l0,0l0.1,8.4c-0.7-4-1.1-7-1.7-10.1c-1.2-6.1-10.8-5.1-9.5,1c0.7,3.6,1.2,7.2,1.9,10.9c0.5,3.1,0.7,7,2.2,9.7
				c0.7,1.3,3.7,1.7,7.3,1.6l0.1,15.6l0,4l0.1,16.6h-11.9v-60.4C919.7,930.4,920,929.3,920.6,928.4z"/>
			<path style="fill:#6AC3D1;" d="M946,948.2c-0.1,0-0.1,0-0.2,0c-4.3-0.1-9.1-1.1-13.8-1.3c-0.3-1.6-0.5-3-0.8-4.3l-0.1-8.4l0,0
				l-0.1-9.3c1.2-0.1,2.4-0.2,3.7-0.3c0,0-0.1,0-0.1,0.1c1.2,2.2,2.2,4.5,3.3,6.7c-0.2-0.4,3.6-3.9,4-4.5c0.5-0.8,0.1-1.6-0.5-2.3
				c1.2,0.1,2.3,0.2,3.4,0.4c0.4,0.1,0.8,0.2,1.2,0.2L946,948.2z"/>
			<path style="fill:#ABFFA6;" d="M942,926.9c-0.4,0.6-4.2,4.1-4,4.5c-1-2.3-2.1-4.5-3.3-6.7c0,0,0.1,0,0.1-0.1
				c0.4-0.3,0.9-0.6,1.4-0.8l-0.2,0.9c-0.1,0.4,0.2,0.8,0.6,0.9l3.1,0.6c0.4,0.1,0.8-0.2,0.9-0.6l0.2-1.3c0.2,0.1,0.3,0.2,0.4,0.4
				C942.1,925.2,942.5,926.1,942,926.9z"/>
			<path style="fill:#FFD59B;" d="M948.9,911.5c0,0.1-0.1,0.2-0.1,0.4L948.9,911.5C948.9,911.5,948.9,911.5,948.9,911.5z"/>
			<path style="fill:#693523;" d="M946.9,910.1l-6.9,2.7l-0.2,1.2c-0.4-0.1-0.9,0.2-1.2,0.6c-0.2-1.1-0.3-2.3-0.1-3.6l0.5-2.6
				c0,0,0,0,0-0.1c3.2-1.3,6.7-1.1,10.2-0.6c0.1,0.8,0,1.6-0.1,2.5l-0.2,1.4l-0.1,0.3l-0.2,0.9c-0.2,1.3-0.7,2.4-1.3,3.3l0.3-2
				C948,912.5,947.7,911.1,946.9,910.1z"/>
			<path style="fill:#FFB288;" d="M940.8,925.5c-0.1,0.4-0.5,0.7-0.9,0.6l-3.1-0.6c-0.4-0.1-0.7-0.5-0.6-0.9l0.2-0.9l1.3-7.2
				c0.1-0.4,0.4-0.7,0.8-0.6c-0.1-0.2-0.1-0.5,0-0.8c0-0.3,0.1-0.5,0.3-0.7c0.3-0.4,0.7-0.6,1.2-0.6l0.2-1.2l6.9-2.7
				c0.7,1,1.1,2.5,0.8,3.9l-0.3,2l-0.3,1.8c-0.5,2.6-2.6,4.4-4.7,4c-0.3-0.1-0.6-0.2-0.9-0.3l-0.5,2.7L940.8,925.5z"/>
			<path style="fill:#6AC3D1;" d="M946,953.8l0,5.2h0v11.9c-1.5,0-3,0.1-4.5,0.1c-1.8,0-3.5,0.1-5.2,0.1l0,0c-1.6,0-3.2,0.1-4.8,0.1
				l-0.1-15.6C936.2,955.5,942.3,954.5,946,953.8z"/>
			<path style="fill:#FFFFFF;" d="M947.2,991.7h-1.3v-20.8V959h0l0-5.2c1-0.2,1.9-0.4,2.4-0.5c0.9-0.2,1.7-0.5,2.2-0.8
				c1.2,0,2.4-0.7,3.3-1.5c0.6-0.5,1.1-1,1.3-1.7c0.2-0.7,0.1-1.6-0.5-2c-0.1,0-0.1-0.1-0.2-0.1c0,0,0.1,0,0.1-0.1
				c-0.1-0.1-0.2-0.2-0.4-0.3c0.5,0.4,0.1,0.2-0.1,0c-0.1,0-0.5-0.2-0.6-0.2c-0.1,0-0.2,0-0.3-0.1c0,0-0.1,0-0.1,0
				c-0.3,0-0.6,0-0.9,0c0,0,0,0-0.1,0c-0.5,0.3-1,0.7-1.4,1.1c0,0,0,0,0,0c0-0.3,0-0.6-0.1-0.8c-0.1-0.3-0.3-0.5-0.6-0.5
				c-0.3,0-0.6,0.3-0.6,0.6c-0.2,0.6-0.1,1.2-0.3,1.9c-0.9-0.3-2-0.5-3.2-0.5l0.1-23c1.7,0.4,3.3,0.9,4.7,1.6c0.1,0,0.2,0.1,0.2,0.1
				c2.4,1.3,4.1,3.1,4.6,5.8c0.6,3.2,1,6.6,1.3,10c0.1,1.9,0.2,3.8,0.3,5.7c0.1,4.5,0,9-0.3,13.4c0,0.2,0,0.3,0,0.5l0,0
				c0,0.1-0.1,4.4-0.1,4.5c0,6.1-0.4,14.8-1.3,24.7v0.1h0H947.2z"/>
			<path style="fill:#F4F4F4;" d="M932,946.8c4.7,0.2,9.5,1.3,13.8,1.3c0.1,0,0.1,0,0.2,0c1.2,0,2.3,0.2,3.2,0.5
				c0.1,0,0.2,0.1,0.2,0.1c-0.3,0.3-0.5,0.6-0.7,1c-0.3,0.7-0.3,1.5,0.1,2c0.2,0.3,0.6,0.5,0.9,0.6c0.3,0.1,0.6,0.1,0.8,0.1
				c-0.5,0.3-1.3,0.6-2.2,0.8c-0.6,0.1-1.4,0.3-2.4,0.5c-3.7,0.7-9.8,1.7-14.6,1.9c-3.6,0.1-6.5-0.3-7.3-1.6
				c-1.5-2.8-1.7-6.7-2.2-9.7c-0.6-3.6-1.1-7.3-1.9-10.9c-1.3-6.1,8.3-7.1,9.5-1c0.6,3.1,1.1,6.1,1.7,10.1
				C931.5,943.8,931.7,945.3,932,946.8z"/>
			<path style="fill:#FFB288;" d="M948.9,951.8c-0.4-0.6-0.4-1.4-0.1-2c0.2-0.4,0.4-0.7,0.7-1c-0.1,0-0.2-0.1-0.2-0.1
				c0.1-0.6,0.1-1.3,0.3-1.9c0.1-0.3,0.3-0.6,0.6-0.6c0.3,0,0.5,0.2,0.6,0.5c0.1,0.3,0.1,0.5,0.1,0.8c0,0,0,0,0,0
				c0.5-0.4,0.9-0.7,1.4-1.1c0,0,0,0,0.1,0c0.3,0,0.6,0,0.9,0c0.1,0,0.1,0,0.1,0c0.1,0,0.2,0,0.3,0.1c0.1,0,0.5,0.2,0.6,0.2
				c0.3,0.2,0.6,0.4,0.1,0c0.1,0.1,0.2,0.2,0.4,0.3c0,0-0.1,0-0.1,0.1c0.1,0,0.1,0,0.2,0.1c0.6,0.4,0.7,1.3,0.5,2
				c-0.2,0.7-0.8,1.3-1.3,1.7c-0.9,0.8-2.1,1.5-3.3,1.5c-0.3,0-0.6,0-0.8-0.1C949.5,952.3,949.1,952.1,948.9,951.8z"/>
		</g>
		<polygon style="fill:#693523;" points="997,917.5 1001.1,912.7 995.7,907.2 987.9,907.7 987.4,912.6 		"/>
		<path style="fill:#161616;" d="M985.1,1028.7l7.3-2.4c0.4-0.1,0.8,0,0.9,0.3l1.2,4.1c0.1,0.2-0.2,0.5-0.6,0.5H986
			C983.9,1031,983.3,1029.3,985.1,1028.7z"/>
		<path style="fill:#161616;" d="M1001.6,1028.7l7.3-2.4c0.4-0.1,0.8,0,0.9,0.3l1.2,4.1c0.1,0.2-0.2,0.5-0.6,0.5h-7.9
			C1000.4,1031.1,999.8,1029.3,1001.6,1028.7z"/>
		<g>
			<path style="fill:#394E60;" d="M993.1,1022.4c1.8,8.8-5.1,7.9-5.8,4c-1.6-9-2.8-18.3-3.7-26.9h7.4
				C991.1,1007.8,991.8,1016,993.1,1022.4z"/>
			<path style="fill:#394E60;" d="M1003.5,1002.5c2.4,7.1,5.1,13.9,6.5,21.2c0.9,4.6-3.7,7.6-5.9,1.3c-4.6-12.9-8.2-20-10.2-25.6
				h8.5C1002.8,1000.4,1003.1,1001.4,1003.5,1002.5z"/>
			<path style="fill:#394E60;" d="M981.5,967.3h11.1c0,0.1,0,0.2,0,0.3c-1.3,8.2-1.9,20.2-1.6,31.8h-7.4c-1.4-12.8-2-24.2-2-31.8
				C981.5,967.5,981.5,967.4,981.5,967.3z"/>
			<path style="fill:#394E60;" d="M997.1,970.3c0.1,0.1,0.1-1.2,0-3h10.3h1.9c-1.2,6.8-10,22.2-6.8,32.1H994
				c-0.9-2.6-1.4-4.9-1.4-7.2C992.5,984.9,994.5,977.3,997.1,970.3z"/>
		</g>
		<g>
			<g>
				<path style="fill:#FFB288;" d="M971.4,959.8c4.2-2,8.4-5.1,12.8-7.4c-1.3-5.5-2.3-9.2-3.2-12.7c1.2-3,2.2-6.1,3.5-9
					c2.3-0.7,4.9,0.2,5.6,3.3c0.8,3.8,1.9,7.6,2.9,11.5c0.8,3.2,2.3,7.2,2,10.5c-0.4,4.5-19.7,9.1-23.9,10.1
					C964.7,967.4,965.5,962.6,971.4,959.8z"/>
			</g>
			<g>
				<path style="fill:#FFB288;" d="M966.8,960.1c-0.6,0.4-1.1,1-1.5,1.7c-0.5,0.8-1,1.6-1.4,2.5c0,0,0,0,0,0.1c0,0.3,0.1,0.6,0.1,1
					c0,0.1,0,0.1,0,0.2c0,0.1,0.1,0.2,0.1,0.3c0,0.1,0.3,0.5,0.3,0.6c0.2,0.3,0.5,0.6,0,0.1c0.1,0.1,0.2,0.2,0.3,0.4
					c0,0,0-0.1,0-0.1c0,0.1,0.1,0.1,0.1,0.2c0.5,0.6,1.5,0.6,2.2,0.3c0.7-0.3,1.2-1,1.6-1.6c0.9-1.4,1.5-3.1,0.9-4.7
					c-0.2-0.4-0.4-0.7-0.7-0.9C968.3,959.5,967.4,959.7,966.8,960.1z"/>
			</g>
			<g>
				<path style="fill:#FFB288;" d="M963.8,961.3c-0.3,0.1-0.6,0.4-0.5,0.8c0,0.3,0.3,0.5,0.6,0.6c0.3,0.1,0.6,0,0.9,0
					c0.2,0,0.5-0.1,0.7-0.1c0.7-0.1,4.1-1.1,2.3-2.3c-0.7-0.4-1,0.1-1.6,0.4C965.4,960.9,964.6,960.9,963.8,961.3z"/>
			</g>
		</g>
		<path style="fill:#54293A;" d="M981.4,971.9c-1.3-12.1-1.9-25.8-0.1-37.6c0.7-4.9,5-7.1,10.1-8c4.9-0.8,10.6-0.3,14.8,0.4
			c1.1,0.2,2.1,0.4,3,0.6c2,0.5,4.3,1.2,5.4,3.2c1.4,2.3,0.8,5.2,0.4,7.8c-2.1,13.7-4.5,25.3-7.4,37.8c-7.4-0.4-15.7-0.8-23.1-1.1
			c-0.7,0-1.6-0.1-2.1-0.7C981.6,973.7,981.5,972.8,981.4,971.9z"/>
		<g>
			<path style="fill:#FFB288;" d="M997.7,933.4c1.1-2.4,2.2-4.8,3.5-7.2c-1.6-1.1-3.6-1.9-5.3-1.2c-1.4,0.5-3.3,2.1-2.4,3.6
				C993.9,929.2,997.9,932.9,997.7,933.4z"/>
		</g>
		<g>
			<path style="fill:#693523;" d="M987.7,911.8c0.5-0.8,1-1.7,1.4-2.6c2.6-0.2,5.2,0,7.6,1c0,0,0,0,0,0.1l0.4,2.4
				c0.5,3.6-1.2,7-3.8,7.4c-2.6,0.4-5.2-2.3-5.7-5.9l-0.2-1.6C987.5,912.3,987.6,912.1,987.7,911.8z"/>
			<g>
				<path style="fill:#FFB288;" d="M995.8,915.6c0.6-0.1,1.2,0.4,1.3,1.2c0.1,0.8-0.3,1.5-0.9,1.5c-0.6,0.1-1.2-0.4-1.3-1.2
					C994.8,916.4,995.2,915.7,995.8,915.6z"/>
			</g>
			<path style="fill:#693523;" d="M995.7,914.4c-0.4-2.5-2.3-4.2-4.3-3.9c-0.8,0.1-1.6,0.6-2.1,1.3l6.4,2.7L995.7,914.4z"/>
			<g>
				<path style="fill:#FFB288;" d="M989.3,911.8c-0.7,0.9-1.1,2.3-0.9,3.7l0.5,3.6c0.4,2.5,2.3,4.2,4.3,3.9c2-0.3,3.3-2.6,3-5
					l-0.5-3.5L989.3,911.8z"/>
			</g>
			<g>
				<path style="fill:#FFB288;" d="M998.4,926.7l-2.9,0.4c-0.4,0.1-0.8-0.2-0.8-0.6l-1.1-7.7c-0.1-0.4,0.2-0.8,0.6-0.9l2.9-0.4
					c0.4-0.1,0.8,0.2,0.8,0.6l1.1,7.7C999,926.3,998.8,926.6,998.4,926.7z"/>
			</g>
		</g>
		<g>
			<g>
				<path style="fill:#54293A;" d="M998,941.3c3.1-4.1,5.1-7.1,7.5-10.1c4.1-5.2,12.7,0.5,8.5,5.7c-2.4,3.1-4.6,6.3-7,9.4
					c-0.2,0.2-0.3,0.4-0.5,0.7C1003.4,945.8,1000.4,944,998,941.3z"/>
				<path style="fill:#FFB288;" d="M982.6,938c4.1,2.1,9.1,3.5,13.7,5.6c0.6-0.8,1.2-1.6,1.8-2.4c2.4,2.7,5.4,4.6,8.6,5.7
					c-1.8,2.6-3.7,5.8-6.3,7.5c-3.7,2.5-19.3-10.1-22.6-12.8C972.6,937.4,976.7,935.1,982.6,938z"/>
			</g>
			<g>
				<path style="fill:#FFB288;" d="M978.8,936.3c-0.7-0.3-1.5-0.2-2.2-0.2c-0.9,0.1-1.9,0.3-2.8,0.4c0,0,0,0,0,0
					c-0.2,0.2-0.4,0.5-0.6,0.7c0,0.1-0.1,0.1-0.1,0.1c0,0.1-0.1,0.2-0.1,0.2c-0.1,0.1-0.2,0.6-0.3,0.7c-0.1,0.3-0.1,0.7-0.1,0.1
					c0,0.2,0,0.3-0.1,0.5c0,0,0.1,0,0.1,0c0,0.1-0.1,0.1-0.1,0.2c-0.1,0.8,0.4,1.6,1.1,1.9c0.7,0.3,1.5,0.4,2.3,0.3
					c1.6-0.2,3.4-0.8,4.1-2.2c0.2-0.4,0.3-0.8,0.3-1.2C980.2,937.2,979.6,936.6,978.8,936.3z"/>
			</g>
			<g>
				<path style="fill:#FFB288;" d="M976.7,934.7c-0.3-0.2-0.7-0.2-0.9,0.1c-0.2,0.2-0.2,0.6-0.1,0.8c0.1,0.3,0.3,0.5,0.6,0.7
					c0.2,0.2,0.4,0.3,0.5,0.5c0.5,0.5,3.5,2.6,3.1,0.4c-0.1-0.8-0.7-0.8-1.3-1C977.9,935.7,977.4,935,976.7,934.7z"/>
			</g>
		</g>
	</g>
	<g>
		<rect x="707.4" y="848.1" style="opacity:0.39;fill:#4D7B79;" width="370.6" height="78.4"/>
		<rect x="692.5" y="820.6" style="fill:#FFFFFF;" width="385.4" height="38.1"/>
		<rect x="692.5" y="820.6" style="fill:#FFFFFF;" width="14.8" height="209.6"/>
		<rect x="1022.9" y="820.6" style="fill:#FFFFFF;" width="14.8" height="209.6"/>
	</g>
	<g>
		<g>
			<path style="fill:#F7665F;" d="M1685.8,965.2h-16.5c-3.1,0-5.6-2.5-5.6-5.6v-16.5c0-3.1,2.5-5.6,5.6-5.6h16.5
				c3.1,0,5.6,2.5,5.6,5.6v16.5C1691.4,962.7,1688.9,965.2,1685.8,965.2z"/>
		</g>
		<polygon style="fill:#FFFFFF;" points="1691.9,946.4 1682.5,946.4 1682.5,937 1672.6,937 1672.6,946.4 1663.2,946.4 1663.2,956.4 
			1672.6,956.4 1672.6,965.7 1682.5,965.7 1682.5,956.4 1691.9,956.4 		"/>
	</g>
	<g>
		<g>
			<path style="fill:#F7665F;" d="M209.8,992.8h-16.5c-3.1,0-5.6-2.5-5.6-5.6v-16.5c0-3.1,2.5-5.6,5.6-5.6h16.5
				c3.1,0,5.6,2.5,5.6,5.6v16.5C215.4,990.3,212.9,992.8,209.8,992.8z"/>
		</g>
		<polygon style="fill:#FFFFFF;" points="215.9,973.9 206.5,973.9 206.5,964.6 196.5,964.6 196.5,973.9 187.2,973.9 187.2,983.9 
			196.5,983.9 196.5,993.3 206.5,993.3 206.5,983.9 215.9,983.9 		"/>
	</g>
	<g>
		<g>
			<path style="fill:#F7665F;" d="M735.6,811.8h-39.3c-3.1,0-5.6-2.5-5.6-5.6v-39.3c0-3.1,2.5-5.6,5.6-5.6h39.3
				c3.1,0,5.6,2.5,5.6,5.6v39.3C741.2,809.3,738.7,811.8,735.6,811.8z"/>
		</g>
		<polygon style="fill:#D3E6EA;" points="742.1,777.5 725,777.5 725,760.4 706.9,760.4 706.9,777.5 689.8,777.5 689.8,795.7 
			706.9,795.7 706.9,812.7 725,812.7 725,795.7 742.1,795.7 		"/>
	</g>
</g>
</svg>
