<?xml version="1.0" encoding="utf-8"?>
<!-- Generator: Adobe Illustrator 24.3.0, SVG Export Plug-In . SVG Version: 6.00 Build 0)  -->
<svg version="1.1" id="Layer_1" xmlns="http://www.w3.org/2000/svg" xmlns:xlink="http://www.w3.org/1999/xlink" x="0px" y="0px"
	 width="2000px" height="1300px" viewBox="0 0 2000 1300" style="enable-background:new 0 0 2000 1300;" xml:space="preserve">
<rect style="fill:#DCEAF9;" width="2000" height="1155.5"/>
<rect y="1090.2" style="opacity:0.22;fill:#91B4DE;" width="2000" height="12.9"/>
<rect y="39.8" style="opacity:0.42;fill:#91B4DE;" width="2000" height="18.2"/>
<rect y="1152" style="fill:#AE9CBD;" width="2000" height="148"/>
<rect y="1286.3" style="opacity:0.47;fill:#666274;" width="2000" height="13.7"/>
<path style="fill:#1B2530;" d="M180.7,391.4c-0.8,0-1.4-0.6-1.4-1.4v-58c0-0.8,0.6-1.4,1.4-1.4c0.8,0,1.4,0.6,1.4,1.4v58
	C182.1,390.8,181.5,391.4,180.7,391.4z"/>
<path style="fill:#000543;" d="M265.9,409.8H174c-6.7,0-12.2-5.4-12.2-12s5.5-12,12.2-12h91.9c6.7,0,12.2,5.4,12.2,12
	S272.6,409.8,265.9,409.8z"/>
<g>
	<path style="fill:#AFF5F9;" d="M232.8,398.2c0,1.4-1.2,2.6-2.6,2.6c-1.5,0-2.6-1.2-2.6-2.6c0-1.4,1.2-2.6,2.6-2.6
		C231.7,395.6,232.8,396.7,232.8,398.2z"/>
	<path style="fill:#AFF5F9;" d="M241.2,398.2c0,1.4-1.2,2.6-2.6,2.6c-1.5,0-2.6-1.2-2.6-2.6c0-1.4,1.2-2.6,2.6-2.6
		C240.1,395.6,241.2,396.7,241.2,398.2z"/>
	<path style="fill:#AFF5F9;" d="M249.6,398.2c0,1.4-1.2,2.6-2.6,2.6c-1.5,0-2.6-1.2-2.6-2.6c0-1.4,1.2-2.6,2.6-2.6
		C248.5,395.6,249.6,396.7,249.6,398.2z"/>
	<path style="fill:#AFF5F9;" d="M258,398.2c0,1.4-1.2,2.6-2.6,2.6c-1.5,0-2.6-1.2-2.6-2.6c0-1.4,1.2-2.6,2.6-2.6
		C256.9,395.6,258,396.7,258,398.2z"/>
	<path style="fill:#AFF5F9;" d="M266.4,398.2c0,1.4-1.2,2.6-2.6,2.6c-1.5,0-2.6-1.2-2.6-2.6c0-1.4,1.2-2.6,2.6-2.6
		C265.3,395.6,266.4,396.7,266.4,398.2z"/>
</g>
<g>
	<g>
		<path style="fill:#EEF4FF;" d="M175.3,168.2h39.9c-16,0-29,12.8-29,28.5v32.8v32.8c0,15.8,13,28.5,29,28.5h-0.4h-15.6h-13h-11
			c-16,0-29-12.8-29-28.5v-65.5C146.3,181,159.3,168.2,175.3,168.2z"/>
		<polygon style="fill:#DCEAF9;" points="251.2,229.9 254.8,229.9 254.8,290.8 251.2,290.8 239.2,290.8 239.2,229.9 		"/>
		<polygon style="fill:#DCEAF9;" points="542.1,229.9 545.7,229.9 545.7,290.8 542.1,290.8 530.1,290.8 530.1,229.9 		"/>
		<polygon style="fill:#DCEAF9;" points="360.3,229.9 363.9,229.9 363.9,290.8 360.3,290.8 348.3,290.8 348.3,229.9 		"/>
		<polygon style="fill:#DCEAF9;" points="324,229.9 327.5,229.9 327.5,290.8 324,290.8 311.9,290.8 311.9,229.9 		"/>
		<polygon style="fill:#DCEAF9;" points="396.7,229.9 400.2,229.9 400.2,290.8 396.7,290.8 384.6,290.8 384.6,229.9 		"/>
		<polygon style="fill:#DCEAF9;" points="469.4,229.9 473,229.9 473,290.8 469.4,290.8 457.3,290.8 457.3,229.9 		"/>
		<polygon style="fill:#DCEAF9;" points="433,229.9 436.6,229.9 436.6,290.8 433,290.8 421,290.8 421,229.9 		"/>
		<polygon style="fill:#DCEAF9;" points="505.8,229.9 509.3,229.9 509.3,290.8 505.8,290.8 493.7,290.8 493.7,229.9 		"/>
		<polygon style="fill:#DCEAF9;" points="287.6,229.9 291.2,229.9 291.2,290.8 287.6,290.8 275.6,290.8 275.6,229.9 		"/>
		<rect x="566.4" y="229.9" style="fill:#DCEAF9;" width="15.6" height="60.9"/>
		<path style="fill:#FFFFFF;" d="M186.3,262.3v-32.8v-32.8c0-15.8,13-28.5,29-28.5h347.5h39.9c16,0,29,12.8,29,28.5v65.5
			c0,15.8-13,28.5-29,28.5H599H582v-60.9h-15.6v60.9h-3.6h-17.1v-60.9h-3.6h-12.1v60.9h-3.6h-17.2v-60.9h-3.6h-12.1v60.9h-3.6H473
			v-60.9h-3.6h-12.1v60.9h-3.6h-17.2v-60.9H433H421v60.9h-3.6h-17.2v-60.9h-3.6h-12.1v60.9h-3.6h-17.2v-60.9h-3.6h-12.1v60.9h-3.6
			h-17.2v-60.9H324h-12.1v60.9h-3.6h-17.2v-60.9h-3.6h-12.1v60.9H272h-17.2v-60.9h-3.6h-12.1v60.9h-3.6h-20.4
			C199.2,290.8,186.3,278.1,186.3,262.3z"/>
	</g>
	<path style="fill:#DCEAF9;" d="M212.1,185.2h21.3c0.7,0,1.3-0.6,1.3-1.3v-4c0-0.7-0.6-1.3-1.3-1.3h-21.3c-0.7,0-1.3,0.6-1.3,1.3v4
		C210.8,184.7,211.4,185.2,212.1,185.2z"/>
	<path style="fill:#DCEAF9;" d="M241.4,181.9c0,1.8,1.5,3.3,3.4,3.3c1.9,0,3.4-1.5,3.4-3.3c0-1.8-1.5-3.3-3.4-3.3
		C243,178.6,241.4,180.1,241.4,181.9z"/>
	<path style="fill:#DCEAF9;" d="M251.9,181.9c0,1.8,1.5,3.3,3.4,3.3c1.9,0,3.4-1.5,3.4-3.3c0-1.8-1.5-3.3-3.4-3.3
		C253.4,178.6,251.9,180.1,251.9,181.9z"/>
	<path style="fill:#DCEAF9;" d="M262.5,181.9c0,1.8,1.5,3.3,3.4,3.3c1.9,0,3.4-1.5,3.4-3.3c0-1.8-1.5-3.3-3.4-3.3
		C264,178.6,262.5,180.1,262.5,181.9z"/>
</g>
<g>
	<rect x="143.4" y="409" style="fill:#FFFFFF;" width="216.8" height="16.3"/>
</g>
<path style="fill:#FFFFFF;" d="M1113.7,1061.4h-47.2c-1.7,0-3.1-1.4-3.1-3.1v-59.7c0-1.7,1.4-3.1,3.1-3.1h47.2
	c1.7,0,3.1,1.4,3.1,3.1v59.7C1116.8,1060,1115.4,1061.4,1113.7,1061.4z"/>
<path style="fill:#DCEAF9;" d="M1100.9,1013.7c0,5.9-4.9,10.7-10.9,10.7c-6,0-10.9-4.8-10.9-10.7c0-5.9,4.9-10.7,10.9-10.7
	C1096.1,1003,1100.9,1007.8,1100.9,1013.7z"/>
<path style="fill:#DCEAF9;" d="M1101.3,1042.7c0,5.9-4.9,10.7-10.9,10.7c-6,0-10.9-4.8-10.9-10.7c0-5.9,4.9-10.7,10.9-10.7
	C1096.4,1032,1101.3,1036.8,1101.3,1042.7z"/>
<g>
	<g>
		<rect y="601.5" style="fill:#FFFFFF;" width="209.5" height="557.5"/>
	</g>
	<g>
		<rect y="614.2" style="fill:#FFFFFF;" width="204.1" height="497.3"/>
	</g>
	<g>
		<g>
			<polygon style="fill:#D7E1FC;" points="0,765.7 0,768.8 208,768.8 208,781 0,781 0,784.1 211.1,784.1 211.1,765.7 			"/>
		</g>
	</g>
	<g>
		<g>
			<polygon style="fill:#D7E1FC;" points="0,937.4 0,940.5 208,940.5 208,952.7 0,952.7 0,955.8 211.1,955.8 211.1,937.4 			"/>
		</g>
	</g>
	<g>
		<path style="fill:#D7E1FC;" d="M124.8,655.7H84.6c-2.9,0-5.3-5.3-5.3-11.8c0-6.5,2.4-11.8,5.3-11.8h40.3c2.9,0,5.3,5.3,5.3,11.8
			C130.1,650.4,127.7,655.7,124.8,655.7z"/>
	</g>
	<g>
		<path style="fill:#D7E1FC;" d="M121.6,825.4H81.3c-2.9,0-5.3-5.3-5.3-11.8c0-6.5,2.4-11.8,5.3-11.8h40.3c2.9,0,5.3,5.3,5.3,11.8
			C126.8,820.1,124.5,825.4,121.6,825.4z"/>
	</g>
	<g>
		<path style="fill:#D7E1FC;" d="M121.6,995.2H81.3c-2.9,0-5.3-5.3-5.3-11.8c0-6.5,2.4-11.8,5.3-11.8h40.3c2.9,0,5.3,5.3,5.3,11.8
			C126.8,989.9,124.5,995.2,121.6,995.2z"/>
	</g>
</g>
<g>
	<g>
		<rect x="1019.5" y="280.9" style="fill:#FFFFFF;" width="142" height="174.6"/>
	</g>
	<g>
		<path style="fill:#D7E1FC;" d="M1152.4,448.4h-122.2V290.4h122.2V448.4z M1034.5,444.1h113.7V294.6h-113.7V444.1z"/>
	</g>
	<g>
		<rect x="1073.2" y="334.3" style="fill:#D7E1FC;" width="40.2" height="39.7"/>
	</g>
</g>
<g>
	<g>
		<g>
			
				<rect x="1238.7" y="407.8" transform="matrix(-1 -1.224647e-16 1.224647e-16 -1 2833.5596 1560.8171)" style="fill:#FFFFFF;" width="356.1" height="745.1"/>
		</g>
		<g>
			
				<rect x="1253.9" y="427.4" transform="matrix(-1 -1.224647e-16 1.224647e-16 -1 2833.0989 1216.2631)" style="fill:#FFFFFF;" width="325.3" height="361.5"/>
		</g>
		<g>
			<g>
				<path style="fill:#D7E1FC;" d="M1581.5,1128.7h-329.5V802.1h329.5V1128.7z M1256.2,1124.6h321.2V806.2h-321.2V1124.6z"/>
			</g>
		</g>
		<g>
			
				<rect x="1238.7" y="369.7" transform="matrix(-1 -1.224647e-16 1.224647e-16 -1 2833.5596 776.6613)" style="fill:#FFFFFF;" width="356.1" height="37.3"/>
		</g>
		<g>
			
				<rect x="1237.9" y="407" transform="matrix(-1 -1.224647e-16 1.224647e-16 -1 2832.7029 826.9499)" style="fill:#D7E1FC;" width="357" height="12.9"/>
		</g>
	</g>
	<g>
		<g>
			<g>
				<polygon style="fill:#BBE4FC;" points="1427.1,439 1473.8,439 1569.2,499.3 1569.2,709.4 1427.1,586.9 				"/>
			</g>
			<g>
				<polygon style="fill:#BBE4FC;" points="1415.8,439 1415.8,577.2 1264.3,446.6 1264.3,439 				"/>
			</g>
		</g>
		<g>
			<g>
				<polygon style="fill:#9AD0F4;" points="1427.1,586.9 1569.2,709.4 1569.2,775.4 1427.1,775.4 				"/>
			</g>
			<g>
				<polygon style="fill:#9AD0F4;" points="1415.8,577.2 1415.8,775.4 1264.3,775.4 1264.3,446.6 				"/>
			</g>
		</g>
		<g>
			<g>
				<polygon style="fill:#9AD0F4;" points="1569.2,439 1569.2,499.3 1473.8,439 				"/>
			</g>
		</g>
	</g>
</g>
<g>
	<path style="fill:#FFFFFF;" d="M1331.8,307.8h-49.7c-3.6,0-6.5,2.9-6.5,6.4v49.2c0,3.5,2.9,6.4,6.5,6.4h49.7c3.6,0,6.5-2.9,6.5-6.4
		v-49.2C1338.3,310.7,1335.4,307.8,1331.8,307.8z"/>
	<path style="fill:#EEF4FF;" d="M1330.3,307.9v-5.8c0-1.3-1-2.3-2.3-2.3h-41.7c-1.3,0-2.3,1-2.3,2.3v5.8H1330.3z"/>
	<path style="fill:#D7E1FC;" d="M1322.6,319.9h-31c-3.1,0-5.7,2.5-5.7,5.6v28.6c0,3.1,2.5,5.6,5.7,5.6h31c3.1,0,5.7-2.5,5.7-5.6
		v-28.6C1328.2,322.4,1325.7,319.9,1322.6,319.9z"/>
	<path style="fill:#FFFFFF;" d="M1293.3,307.9v-4.6c0-1-1.3-1.8-2.9-1.8c-1.6,0-2.9,0.8-2.9,1.8v4.6H1293.3z"/>
	<path style="fill:#FFFFFF;" d="M1301.5,307.9v-4.6c0-1-1.3-1.8-2.9-1.8c-1.6,0-2.9,0.8-2.9,1.8v4.6H1301.5z"/>
	<path style="fill:#FFFFFF;" d="M1310,307.9v-4.6c0-1-1.3-1.8-2.9-1.8c-1.6,0-2.9,0.8-2.9,1.8v4.6H1310z"/>
	<path style="fill:#FFFFFF;" d="M1318.1,307.9v-4.6c0-1-1.3-1.8-2.9-1.8c-1.6,0-2.9,0.8-2.9,1.8v4.6H1318.1z"/>
	<path style="fill:#FFFFFF;" d="M1326.6,307.9v-4.6c0-1-1.3-1.8-2.9-1.8c-1.6,0-2.9,0.8-2.9,1.8v4.6H1326.6z"/>
	<g>
		<g>
			<rect x="1292" y="327.2" style="fill:#FFFFFF;" width="22.2" height="1.4"/>
		</g>
		<g>
			<rect x="1317.9" y="327.2" style="fill:#FFFFFF;" width="4.2" height="1.4"/>
		</g>
		<g>
			<rect x="1292" y="331.3" style="fill:#FFFFFF;" width="14.8" height="1.4"/>
		</g>
		<g>
			<rect x="1314.7" y="331.3" style="fill:#FFFFFF;" width="7.4" height="1.4"/>
		</g>
		<g>
			<rect x="1292" y="335.4" style="fill:#FFFFFF;" width="4.4" height="1.4"/>
		</g>
		<g>
			<rect x="1300.1" y="335.4" style="fill:#FFFFFF;" width="22.1" height="1.4"/>
		</g>
		<g>
			<rect x="1292" y="339.4" style="fill:#FFFFFF;" width="22.7" height="1.4"/>
		</g>
	</g>
</g>
<g>
	<g>
		<path style="fill:#FFFFFF;" d="M1738.1,337.5c-51,0-92.5-41-92.5-91.4c0-50.4,41.5-91.4,92.5-91.4c51,0,92.5,41,92.5,91.4
			C1830.7,296.5,1789.2,337.5,1738.1,337.5z M1738.1,160.5c-47.8,0-86.6,38.4-86.6,85.6c0,47.2,38.9,85.6,86.6,85.6
			c47.8,0,86.6-38.4,86.6-85.6C1824.8,198.9,1785.9,160.5,1738.1,160.5z"/>
	</g>
	<g>
		<path style="fill:#FFFFFF;" d="M1734.7,250.2v-76.6c0-1.6,1.3-2.9,3-2.9c1.6,0,3,1.3,3,2.9v69.3l46.1-9.9c1.6-0.3,3.2,0.7,3.5,2.2
			c0.3,1.6-0.7,3.1-2.3,3.5L1734.7,250.2z"/>
	</g>
</g>
<g>
	<g>
		<g>
			<path style="fill:#FF9985;" d="M889.7,537.8c1.3,0.3,2.2,1.7,1.8,3.1l-2.9,12.8c-0.3,1.4-1.7,2.3-3,2c-1.3-0.3-2.2-1.7-1.8-3.1
				l2.9-12.8C887,538.4,888.4,537.5,889.7,537.8z"/>
		</g>
		<path style="fill:#FF9985;" d="M905.8,563.3c1.2-1.8,2.3-3.7,2.4-5.4c0.1-1.4-0.5-2.5-1.1-3.6c-1.6-2.7-3.5-5.2-5.9-7.3
			c-2.2-2-5.3-3.7-9-2.3c-3.7,1.3-6.5,4.4-8,7.6c-3,6.1-4,8.4-3.3,13.9c0.9,7,5.2,10.3,13.4,5.4C898.6,569,903.1,567.2,905.8,563.3z
			"/>
		<g>
			<path style="fill:#FF9985;" d="M894.2,548.6l16.3-9.4c1.1-0.6,1.5-2.1,0.9-3.2c-0.6-1.1-2-1.5-3.1-0.8l-16.3,9.4
				c-1.1,0.6-1.5,2.1-0.9,3.2C891.7,548.8,893.1,549.2,894.2,548.6z"/>
		</g>
		<g>
			<path style="fill:#FF9985;" d="M898.9,553.1l16.3-9.4c1.1-0.6,1.5-2.1,0.9-3.2c-0.6-1.1-2-1.5-3.1-0.8l-16.3,9.4
				c-1.1,0.6-1.5,2.1-0.9,3.2C896.4,553.3,897.8,553.7,898.9,553.1z"/>
		</g>
		<g>
			<path style="fill:#FF9985;" d="M900.1,560.5l16.3-9.4c1.1-0.6,1.5-2.1,0.9-3.2c-0.6-1.1-2-1.5-3.1-0.8l-16.3,9.4
				c-1.1,0.6-1.5,2.1-0.9,3.2C897.6,560.7,899,561.1,900.1,560.5z"/>
		</g>
		<g>
			<path style="fill:#FF9985;" d="M898.7,567.5l16.3-9.4c1.1-0.6,1.5-2.1,0.9-3.2c-0.6-1.1-2-1.5-3.1-0.8l-16.3,9.4
				c-1.1,0.6-1.5,2.1-0.9,3.2C896.2,567.8,897.6,568.2,898.7,567.5z"/>
		</g>
	</g>
	<path style="fill:#FF9985;" d="M839.8,682.3c1.8,0.4,2.7,0.4,2.7,0.4l1.3-0.1c17.2-6.2,45.5-97.8,50.6-120.9l-10.7-2.3
		c-0.2,0.2-0.3,0.5-0.5,0.7c-0.5,0.8-1.1,1.6-1.4,2.4c-1.9,4.9-33.7,65.4-40.1,77.3l-11,23.7c-1.7,3.8-1.5,8.3,0.4,12.1
		C833,679,836.1,681.4,839.8,682.3z"/>
	<path style="fill:#FF9985;" d="M847.9,662.6c-12.5-28.2-41.7-93.9-46-104.7L774,585.3c21.8,46.4,43.5,82.4,62.5,95.7
		c0.6,0.4,0.6-2,4.3-3c3-0.7,5.4-2.7,6.8-5.6C849.2,669.3,849.3,665.8,847.9,662.6z"/>
	<path style="fill:#000543;" d="M679.4,398.2c-2.3,4.7-3.7,10.1-7.3,13.9c-3,3.3-7.3,5.2-10.6,8.3c-3.3,3.1-5.4,8.4-2.8,12.1
		c1.2,1.7,3.3,2.7,4.6,4.5c3.5,4.9-1.3,11.2-3.4,16.8c-2.4,6.3-1,13.9,3.5,18.9c3.2,3.6,8.1,6.6,8.3,11.5c0.2,3.8-2.8,7.5-1.6,11.2
		c1.8,5.3,10,4.4,14,8.4c2.8,2.8,2.7,7.3,3.7,11.1c1.8,7.1,8.2,12.9,15.5,14c3.9,0.6,8.1,0,11.6,1.8c4.5,2.3,6.7,8.1,11.6,9.7
		c10,3.3,13.5-8.6,21.1-14.6c9.5-7.5,26.4-5.2,31.4-16.3c1.2-2.6,1.5-5.8,3.8-7.5c2.3-1.7,5.7-1.2,8.2-2.7
		c4.6-2.8,3.5-10.3,5.8-14.9c0.3-0.4,2.1-2.6,2.5-2.8c20.4-24.7,26-55.4,11.2-76.3c-12.2-17.3-35.5-23.7-60.3-19.1
		c-0.2-0.2-0.3-0.4-0.5-0.6c-4.9-4.9-11.3-6.5-18.2-6.6c-12.6-0.2-17.6,10.9-28.1,12.3c-4,0.5-7.8-2.3-11.9-2.3
		C685.8,388.8,681.7,393.5,679.4,398.2z"/>
	<path style="fill:#55AEB7;" d="M776.4,929.2c-2,10.6-7.1,20.2-10.1,30.5c-4,13.8-4.2,28.4-6.8,42.6c-6.5,35.9-28,69-25.8,105.4
		c17.2-49.2,34.4-98.5,51.6-147.7c7-20.1,14.1-41.8,8.5-62.4c-4.1-15.3-14.9-28.1-17.8-43.7c-2.1-11.6,0.2-24-3.9-35
		c-0.6-1.6-1.4-3.1-2.7-4c-2.6-1.7-24.2-41-25.7-38.2c-7.7,14.5,18.9,81,23.3,95.3C772.7,890.3,780.1,909.5,776.4,929.2z"/>
	<path style="fill:#FF9985;" d="M744.7,1124.6c-0.2,0.6-0.4,1.2-0.6,1.8c-18.7,50.7,6.2,45.4,14.1,23.1c2.9-8.3,5.8-16.6,8.7-24.9
		H744.7z"/>
	<path style="fill:#55AEB7;" d="M817,775.2l-2.8-5.2l-59.5-1.5L754,769c-0.3,0-0.5,0.1-0.8,0.1c-7.1,0.8-11.7,8-9.6,14.9l2.2,7.3
		c46.2,125.2,42.5,125.5,18.4,202.2c-19.2,61.2-26.9,81.3-36.3,126.9c-1.4,6.7,3.5,13.9,9.8,14.2l28.2,1.5c6.4,0.4,12-3.6,14.2-10.1
		c36.1-105.3,58.8-137.9,59.5-185.7C840.6,882.6,833.3,824.9,817,775.2z"/>
	<g>
		<path style="fill:#88DCE5;" d="M831.1,595.4c-8.6-20.2-25.3-61.3-25.3-61.3l-31.1,9.7c-14.4,4.5-21.7,20.6-15.8,34.6l18.1,42.9
			c2.5,6,9.6,8.6,15.3,5.7l33.5-17.1C831.2,607.3,833.5,600.9,831.1,595.4z"/>
	</g>
	<path style="fill:#55AEB7;" d="M701.2,928.4c-2,10.6-7.1,20.2-10.1,30.5c-4,13.8-4.2,28.4-6.8,42.6c-6.5,35.9-28,69-25.8,105.4
		c17.2-49.2,34.4-98.5,51.6-147.7c7-20.1,14.1-41.8,8.5-62.4c-4.1-15.3-14.9-28.1-17.8-43.7c-2.1-11.6,0.2-24-3.9-35
		c-0.6-1.6-1.4-3.1-2.7-4c-2.6-1.7-24.2-41-25.7-38.2c-7.7,14.5,18.9,81,23.3,95.3C697.6,889.6,704.9,908.8,701.2,928.4z"/>
	<path style="fill:#FF9985;" d="M669.3,1124.6c-0.1,0.4-0.3,0.7-0.4,1.1c-18.7,50.7,6.2,45.4,14.1,23.1c2.8-8,5.6-16.1,8.4-24.2
		H669.3z"/>
	<path style="fill:#55AEB7;" d="M741.9,774.5l-2.8-5.2l-59.5-1.5l-0.7,0.4c-0.3,0-0.5,0.1-0.8,0.1c-7.1,0.8-11.7,8-9.6,14.9l2.2,7.3
		c46.2,125.2,42.5,125.5,18.4,202.2c-19.2,61.2-26.9,81.3-36.3,126.9c-1.4,6.7,3.5,13.9,9.8,14.2l28.2,1.5c6.4,0.4,12-3.6,14.2-10.1
		c36.1-105.3,58.8-137.9,59.5-185.7C765.5,881.8,758.2,824.2,741.9,774.5z"/>
	<g>
		<path style="fill:#55AEB7;" d="M691.5,1137.7c-0.3,0-0.6,0-0.9,0c-1.1-0.1-1.9-1-1.8-2.2c0.1-1.1,1-2.1,2.1-1.9
			c5.5,0.3,10.3-3.1,12.2-8.7c12.8-37.3,23.9-65.7,32.9-88.5c16.2-41.2,26-66.1,26.5-96.6c0.6-40.1-1.7-74.1-7.2-104
			c-0.2-0.9,0.3-1.8,1-2.2l12.1-6.4c1-0.5,2.1-0.1,2.6,0.9c0.5,1,0.1,2.2-0.9,2.8l-10.7,5.7c5.3,29.7,7.6,63.5,7,103.3
			c-0.5,31.2-10.4,56.4-26.8,98.1c-9,22.7-20.1,51.1-32.8,88.3C704.3,1133.2,698.4,1137.7,691.5,1137.7z"/>
	</g>
	<path style="fill:#88DCE5;" d="M813.5,678.1c-4.3-52.9,4.6-86.7,2.5-114.2c0-1.1-0.1-2.2-0.3-3.2c-0.2-1.5-0.6-3-0.9-4.5
		c0-0.1,0-0.1,0-0.2c-1.1-3.9-2.2-8.5-3.6-13.1c-3.1-10.4-9-19.7-17.1-26.8c-28.8-25.6-56.6-14.7-75.7-2.4l-6.6,4.5
		c-31,21-19.5,69-19.5,69c3.9,23.4,11.2,34.7,11.9,60.7c1.3,49.2-31.4,62.9-33.3,116.9c0,0-0.5,0.6-1.2,1.6
		c-5.3,7.3-4.4,17.8,2.1,23.9c18.6,17.6,38,26.7,60.9,19.5c33.8-10.6,57-2.9,81.1-14.6c5.8-2.8,9.7-8.8,9.9-15.6
		C825.2,726,818.8,743.5,813.5,678.1z"/>
	<path style="fill:#FF9985;" d="M761.6,503.1c-8.6-1-16.1,2-22,6.6c-4.3,3.3-3.7,9.7,1.3,13.9c7.7,6.5,15.4,13.2,22.9,19.9
		c4.4,3.9,11.1,3.4,12.9-0.9c7.1-17.2,5.2-12,8.7-22.9C788.3,510.7,771.3,504.2,761.6,503.1z"/>
	<g>
		<path style="fill:#88DCE5;" d="M711,1161.9l-10.4-3.9c-13.3,8.9-32,5.6-38.1-6.7c0,0-2.4,20.6-2.4,20.6c-0.5,1.3,0.9,2.5,2.9,2.6
			l41.7,0.5C715.6,1175.2,720.3,1165.4,711,1161.9z"/>
		<path style="fill:#FF9985;" d="M700.6,1158l-26.9-10.1c-1.4-0.5-8-0.5-11.2,3.4C668.6,1163.6,687.3,1166.9,700.6,1158z"/>
	</g>
	<g>
		<path style="fill:#88DCE5;" d="M786.2,1161.9l-10.4-3.9c-13.3,8.9-32,5.6-38.1-6.7c0,0-2.4,20.6-2.4,20.6
			c-0.5,1.3,0.9,2.5,2.9,2.6l41.7,0.5C790.7,1175.2,795.5,1165.4,786.2,1161.9z"/>
		<path style="fill:#FF9985;" d="M775.8,1158l-26.9-10.1c-1.4-0.5-8-0.5-11.2,3.4C743.8,1163.6,762.5,1166.9,775.8,1158z"/>
	</g>
	<g>
		<path style="fill:#000543;" d="M756.7,464.2c-5.3-4.7-16.3-9.8-20.4-13.7c-2.7-2.7-5.5-5.5-7.4-8.7c-1-1.6-2.2-4.3-2.4-8.5
			c0,0.1,2.7-4.1,0.6-1.1c5.2-7.2,6.9-14.6,6.1-21.4c1.2-3.7,3.3-7.9,8.2-12.4c11.1-10.2,16.6-8.4,23.5-10.4c6.8-2,6.4-1.4,14.9-1.9
			c7.5-0.5,15,2.5,20.3,7.7c0,0,3,3.4,4,5c1.1,1.8,2,3.6,2.9,5.4c1.8,1.2,8.2,6.2,8.7,11.4c0.9,10.2-2.4,14.2-2.4,14.2
			c-5-1.2-9.2-8.4-13.6-7.8c-2,0.4-2.9,0.7-4.1,1.3c-6.4,3.3-11.7,6-14.3,13.4c-2.1,6-0.5,13.6-5.4,18c-4.3,3.9-11.9,3-16.5,6.6
			C758.3,462,757.5,463.1,756.7,464.2z"/>
		<path style="fill:#000543;" d="M720.9,431.7c0.5,5,16.6,29.7,23.4,35.9c0,0,6.1,11.9,6.2,11.9c9-5.8,3.6-25.2,3.6-25.2
			c-1.6-2-2.2-5.8-1.2-9.8c1.3-5.4,4.9-9.1,8-8.3c0.2,0.1,0.4,0.3,0.6,0.4l-16.1-23.7C740.6,421.7,718.9,411.1,720.9,431.7z"/>
	</g>
	<g>
		<path style="fill:#000543;" d="M749.8,473.1c-2.4-3.2-4.2-7.3-5.4-12.2c-1.1-4.4-1.9-8.5-2.4-12.3l-5.7-18.3
			c1.8-1.9,3.7-3.7,5.5-5.5c0.4-2.5,1-4.8,1.8-6.8l2.3,2.5c1.1-1.3,2.2-2.7,3.1-4.2c4-6.5,5.8-15,12.3-18.9c4-2.4,9-2.4,13.7-1.6
			c5.6,0.8,11,2.6,16.3,4.3c3.9,1.2,7.8,2.5,11.7,3.7c0.4,0.1,0.9,0.3,1.3,0.6c0.4,0.4,0.5,0.9,0.7,1.4c0.3,1.3,1.4,3.9,2,6
			c0.3,1.1,0.4,2.1,0.1,2.8c-0.8,2.2-3.6,2-5.5,1.9c-19.3-0.6-31.7,9.4-36.5,15.5c-4,4.9-6.5,11-10.6,15.9c-2.3,2.7-5.1,5-8.2,6.7
			c1.2,2,3.1,3.4,5.3,3.7l-1.5,14.8C749.8,473.3,749.8,473.2,749.8,473.1z"/>
		<path style="fill:#000543;" d="M778.3,430.9c-1-0.1-1.8-1-1.7-2.1c0.1-1,1-1.8,2.1-1.7l7.1,0.7c1,0.1,1.8,1,1.7,2.1
			c-0.1,1-1,1.8-2.1,1.7L778.3,430.9z"/>
		<path style="fill:#000543;" d="M806.4,429.8l5.5,0.5c0.8,0.1,1.4,1,1.3,2c-0.1,1-0.8,1.8-1.7,1.8l-5.5-0.5c-0.8-0.1-1.4-1-1.3-2
			C804.8,430.5,805.6,429.7,806.4,429.8z"/>
		<path style="fill:#FA694F;" d="M794.1,457.8c-1.9,0.4-3.4-1.6-2.8-3.8l0.1-0.4c0.5,1,1.4,1.7,2.6,1.4l3.3-0.7
			c1.3-0.3,2.3-1.5,2.6-2.9l0.2,0.7c0.6,2.2-0.7,4.5-2.6,5L794.1,457.8z"/>
		<path style="fill:#000543;" d="M781.7,436.4l3.6,0.4l-1.9,1.6c0.1,0.5,0.2,1,0.1,1.5c-0.2,1.8-1.3,3.2-2.5,3.1
			c-1.2-0.1-2-1.7-1.8-3.5C779.4,437.6,780.5,436.2,781.7,436.4z"/>
		<path style="fill:#000543;" d="M807.4,438.8l3.6,0.3l-1.9,1.6c0.1,0.5,0.2,1,0.1,1.5c-0.2,1.8-1.3,3.2-2.5,3.1
			c-1.2-0.1-2-1.7-1.8-3.5C805.1,440.1,806.2,438.7,807.4,438.8z"/>
		<path style="fill:#FF9985;" d="M751.4,458.3l-1.5,14.8l-4.2,41.5c-0.3,3,1.4,5.7,3.7,5.9l17,1.7c2.3,0.2,4.5-2,4.8-5.1l3.6-35.1
			c1.2,0.3,2.5,0.5,3.7,0.7c16.2,1.6,30.7-10.2,32.3-26.3l2.4-23.5c0.8-7.9-1.8-15.4-6.5-21.2c0.3,1.1,0.4,2.1,0.1,2.8
			c-0.8,2.2-3.6,2-5.5,1.9c-19.3-0.6-31.7,9.4-36.5,15.5c-4,4.9-6.5,11-10.6,15.9c-2.3,2.7-5.1,5-8.2,6.7
			C747.3,456.6,749.2,458,751.4,458.3z M804.9,441.9c0.2-1.8,1.3-3.2,2.5-3.1l3.6,0.3l-1.9,1.6c0.1,0.5,0.2,1,0.1,1.5
			c-0.2,1.8-1.3,3.2-2.5,3.1C805.6,445.3,804.7,443.7,804.9,441.9z M804.7,431.6c0.1-1,0.8-1.8,1.7-1.8l5.5,0.5c0.8,0.1,1.4,1,1.3,2
			c-0.1,1-0.8,1.8-1.7,1.8l-5.5-0.5C805.2,433.5,804.6,432.6,804.7,431.6z M797.3,457.1l-3.3,0.7c-1.9,0.4-3.4-1.6-2.8-3.8l0.1-0.4
			c0.5,1,1.4,1.7,2.6,1.4l3.3-0.7c1.3-0.3,2.3-1.5,2.6-2.9l0.2,0.7C800.6,454.3,799.3,456.7,797.3,457.1z M786,462.5l11.4,2
			c0.2,4.8-7,3.1-7,3.1C786.1,466.5,786.1,464.5,786,462.5z M785.4,431.6l-7.1-0.7c-1-0.1-1.8-1-1.7-2.1c0.1-1,1-1.8,2.1-1.7
			l7.1,0.7c1,0.1,1.8,1,1.7,2.1C787.4,430.9,786.5,431.7,785.4,431.6z M779.3,439.4c0.2-1.8,1.3-3.2,2.5-3.1l3.6,0.4l-1.9,1.6
			c0.1,0.5,0.2,1,0.1,1.5c-0.2,1.8-1.3,3.2-2.5,3.1C779.9,442.8,779.1,441.2,779.3,439.4z"/>
		<path style="fill:#FFFFFF;" d="M790.4,467.5c-4.3-1-4.3-3-4.4-5.1l11.4,2C797.6,469.3,790.4,467.5,790.4,467.5z"/>
	</g>
	<g>
		<path style="fill:#FBE9DC;" d="M655.6,881.5l-24.8-70.9c-2.1-6.1,1.1-12.9,7.3-15.1l113.4-40.1c6.2-2.2,12.9,1,15.1,7.2l24.8,70.9
			c2.1,6.1-1.1,12.9-7.3,15.1l-113.4,40.1C664.5,890.8,657.7,887.6,655.6,881.5z"/>
	</g>
	<g>
		<path style="fill:#FF9985;" d="M684,779.1c1.1,1.8,2.5,3.6,4.1,4.3c1.2,0.6,2.5,0.5,3.7,0.4c3.1-0.4,6.2-1.2,9-2.6
			c2.6-1.2,5.4-3.4,5.6-7.4c0.2-3.9-1.5-7.6-3.9-10.3c-4.5-5.1-6.2-6.9-11.6-8.4c-6.8-1.9-11.5,0.8-10.2,10.3
			C681.6,770.2,681.6,775.1,684,779.1z"/>
		<g>
			<path style="fill:#FF9985;" d="M702.2,774.1l2.4,18.6c0.2,1.3,1.3,2.2,2.6,2c1.3-0.1,2.2-1.3,2-2.6l-2.4-18.6
				c-0.2-1.3-1.3-2.2-2.6-2C702.9,771.7,702,772.8,702.2,774.1z"/>
		</g>
		<g>
			<path style="fill:#FF9985;" d="M696.2,776.7l2.4,18.6c0.2,1.3,1.3,2.2,2.6,2c1.3-0.1,2.2-1.3,2-2.6l-2.4-18.6
				c-0.2-1.3-1.3-2.2-2.6-2C696.9,774.3,696,775.4,696.2,776.7z"/>
		</g>
		<g>
			<path style="fill:#FF9985;" d="M688.9,774.9l2.4,18.6c0.2,1.3,1.3,2.2,2.6,2c1.3-0.1,2.2-1.3,2-2.6l-2.4-18.6
				c-0.2-1.3-1.3-2.2-2.6-2C689.6,772.5,688.7,773.7,688.9,774.9z"/>
		</g>
		<g>
			<path style="fill:#FF9985;" d="M682.9,770.9l2.4,18.6c0.2,1.3,1.3,2.2,2.6,2c1.3-0.2,2.2-1.3,2-2.6l-2.4-18.6
				c-0.2-1.3-1.3-2.2-2.6-2C683.7,768.5,682.8,769.6,682.9,770.9z"/>
		</g>
	</g>
	<path style="fill:#FF9985;" d="M663,648.2c-1.7,0.7-2.4,1.3-2.4,1.3l-1,0.8c-10.4,15,19.4,106.1,28.7,127.9l10.1-4.3
		c0-0.3,0-0.6,0-0.9c0-0.9-0.1-1.9-0.3-2.7c-1.3-5.1-10.3-72.8-12-86.2l-4.7-25.7c-0.9-4.1-3.5-7.6-7.3-9.6
		C670.4,646.9,666.5,646.7,663,648.2z"/>
	<path style="fill:#FF9985;" d="M678.5,659.4c13.2-27.9,44-92.9,49.3-103.2l-39-3.2c-20.9,46.8-34.1,86.8-31.7,109.8
		c0.1,0.7,1.9-0.9,5.1,1.3c2.5,1.8,5.6,2.3,8.7,1.5C674.3,664.8,677.1,662.5,678.5,659.4z"/>
	<g>
		<path style="fill:#88DCE5;" d="M707.4,622.3c9.1-17.8,42-73.9,42-73.9l-28.8-30.3c-12.4-7-40.6,33.2-46.9,45.5l-19.4,37.7
			c-2.7,5.3-0.1,11.6,5.7,13.7l33.6,12.4C698.8,629.4,704.9,627.1,707.4,622.3z"/>
	</g>
</g>
<g>
	<path style="fill:#FFEB9A;" d="M1488.5,746.8c-0.7-2.5-1.9-4.9-1.9-7.5c0-2.4,1.1-4.7,1.5-7.1c0.9-5.3-2.1-11-6.9-13.2
		c-1.5-0.7-3.2-1.1-4.7-2c-3.8-2.3-4.9-7.2-7.4-10.9c-3.9-5.5-11.9-7.8-18.1-5.1c-1.4,0.6-2.9,1.5-4.4,1.5c-1.4,0-2.8-0.7-4.1-1.3
		c-3.2-1.4-6.8-2.2-10.3-1.8c-3.5,0.4-6.9,2.2-8.9,5.1c-1.6,2.3-2.2,5.3-4.1,7.4c-2.6,2.9-7.2,3.7-9.1,7.1c-1.6,2.9-0.6,6.8-2.2,9.7
		c-1,1.8-2.8,3.1-3.6,5c-1.2,2.9,0.4,6.2,0.8,9.3c0.2,1.9,0,3.8,0.3,5.6c0.3,1.8,1.1,3.4,1.9,5c1.5,3.2,3,6.3,4.5,9.5
		c0.6,1.3,1.7,2.9,3.2,2.6c0.5-0.1,0.9-0.4,1.3-0.7c2.7-2.3,3.7-6,4.6-9.4c1.2-4.7,2.5-9.4,3.7-14.1c0.5-1.7,0.9-3.5,2.2-4.8
		c2-2.1,5.4-2.2,8.2-1.6c7.9,1.7,14.3,7.3,20.8,12c2.1,1.5,4.4,3,7,3.2c1.9,0.2,3.8-0.3,5.7-0.2c2.9,0.2,5.7,1.9,7.2,4.4
		c1.3,2.2,1.6,5,3.4,6.7c2.6,2.5,7.1,1.3,8.7-1.6C1489.9,756.2,1489.6,750.5,1488.5,746.8z"/>
	<path style="fill:#FFEB9A;" d="M1483.3,767.7c-1.4,1.4-3.2,2.7-3.8,4.7c-0.4,1.3-0.2,2.6-0.4,3.9c-0.4,2.5-2.6,4.6-5.1,5.1
		c-2.8,0.5-6-0.9-8.4,0.7c-2.4,1.6-3,5.8-5.9,6c-1.2,0.1-2.4-0.7-3.5-0.5c-1.7,0.3-2.7,2.5-4.5,2.5c-1.9-0.1-2.5-2.6-2-4.4
		c1.1-4.4,5-7.6,6.4-11.9c1.4-4.4,0.2-9.7,3.2-13.3c3.6-4.3,10.9-3.2,15-7.1c2.4-2.4,3.2-6.2,6.1-8c4.5-2.8,9,1.3,9.1,5.7
		C1489.4,757.2,1487.8,763.3,1483.3,767.7z"/>
	<path style="fill:#FFEB9A;" d="M1463.3,718.3c0,0,7.6,5.2,11,14.9c3.3,9.5,1.8,20.4-3.3,29.1c0,0-9.6,13.8-13.7,20.5
		c-0.6,0.9-6.1,5.7-5.7,4.7c12.9-32.2-10.7-26.2-0.4-46.3L1463.3,718.3z"/>
	<path style="fill:#FC6D3A;" d="M1411.8,834.9c-28.1,15.6-34,29.5-36.8,39.3c-1.1,3.9-3.4,6.9-4.8,10.9c-0.9,2.4-7.5,17.2-7.4,24.6
		c0,2.5,1.1,4.9,1,7.4c0,1.1,0.1,1.7,0.4,3.1c0.2,1.2,0.8,2.5,1.7,3.6c6.3,8.3,19.2,7.4,25-1.2l33.8-49.7c1.3-3.6,4.9-24.4,6.1-27.6
		C1421.2,843.3,1413.1,834.2,1411.8,834.9z"/>
	<g>
		<path style="fill:#91B4DE;" d="M1389.5,1020c0.8,6.2,2.1,12.3,2.4,18.4c0.4,7.6-0.6,15.3,1.3,22.8c1.3,5.2,4.1,10.1,5.5,15.3
			c2.1,7.9,1.1,16.1,1.7,24.2c1,13.1,6.3,25.7,8.9,38.7c2.5,12.2,3,25.6,9.2,36.2c0.9,1.5,3,0.9,2.9-0.8c-3-36.5-1-73,1.4-109.2
			c1.6-24.5,3.3-49.6-4.4-73.5c-1.4-4.2-3.3-8.7-7.1-11.1c-4.2-2.6-10.5-2.8-12.4-7.3c-0.7-1.6-0.5-3.5-1.1-5.1
			c-0.6-1.7-2.5-3.3-4-2.4c-0.6,0.4-1,1.1-1.3,1.7c-3.4,7.3-3,16.7-3.6,24.9C1388.5,1001.8,1388.4,1010.9,1389.5,1020z"/>
		<g>
			<path style="fill:#FF9985;" d="M1439,1168.2c0.4,1.1,0.7,2.2,1.1,3.3c10.3,29.6-5.2,26.5-9.5,13.5c-1.9-5.6-3.7-11.2-5.5-16.8
				H1439z"/>
			<path style="fill:#91B4DE;" d="M1439.1,973.5l-0.4,5.2c-3.5,41.2-3.9,78.2-1.2,110.2c3.9,47.1,8.8,66.2,12.2,80.7
				c1.3,5.7-2.3,10.1-5.6,10.1l-20.7-0.2c-2.2,0-4.2-1.7-4.7-3.9c-5.8-25.8-11-51.5-16.7-86.1c-6.1-36.9-8.1-70-9.8-96.6
				c-0.3-5.3-0.6-10.2-0.9-14.8l-0.3-4.6H1439.1z"/>
		</g>
	</g>
	<g>
		<g>
			<g>
				<g>
					<path style="fill:#6D72A0;" d="M1427.8,1185.5l-18.9,6.6c-4.6,1.6-5.5,5-3.7,7.6l43.7-0.6l-1.6-10.2c-0.3-1.8-1.8-3.2-3.5-3.2
						L1427.8,1185.5z"/>
				</g>
			</g>
			<g>
				<g>
					<path style="fill:#000543;" d="M1448.8,1199l0.5,1.7c0.3,1.1-0.9,2.1-2.6,2.1l-33.9,0c-3.7,0-6.3-1.4-7.6-3.2L1448.8,1199z"/>
				</g>
			</g>
		</g>
		<g>
			<g>
				<path style="fill:#000543;" d="M1444,1197.9l-7.5-0.1c-0.3,0-0.5-0.2-0.5-0.5l0-2.3c0-0.3,0.2-0.5,0.5-0.5l7.5,0.1
					c0.3,0,0.5,0.2,0.5,0.5l0,2.3C1444.5,1197.7,1444.2,1197.9,1444,1197.9z"/>
			</g>
		</g>
	</g>
	<path style="fill:#FC6D3A;" d="M1446,843.9c35.7-14.8,44.2-22.9,54-25.9c3.9-1.2,6.8-3.5,10.8-5.1c9-3.5,14.7-10.5,24.4-7.9
		c5.2,1.4,5.1-4.1,9.7-3.4c9.3,1.4,15.5,22.9,3.8,31.2l-55.5,40.1c-3.6,1.4-17.7,0.3-20.9,1.6C1470.2,864.9,1444.6,844.5,1446,843.9
		z"/>
	<g>
		<g>
			<path style="fill:#91B4DE;" d="M1434,1091.1c-16.1-30.2-2.4-86.7,8.4-115.9c1.6-3.8,8.3-6,12.3-4.9l5.3,1.4
				c18.7,5,38.3-23.7,33.4-5c0,0.1-3.6,24.9-3.6,25c-1.7,7-6.4,37.5-8.2,44.4c-1.7,6.6-5.8,12.6-5.9,19.5c0,2.1-0.1,4.2-0.5,6.3
				l-5.1,23.9c-3.7,17.4-27.4,21.3-35.9,5.6C1434.1,1091.4,1434,1091.3,1434,1091.1z"/>
		</g>
		<g>
			<path style="fill:#FF9985;" d="M1516.7,1170.7c0.3,0.6,0.7,1.3,1,1.9c14.4,27-1.3,27.1-7.5,15.2c-2.3-4.4-4.5-8.8-6.7-13.3
				L1516.7,1170.7z"/>
			<g>
				<g>
					<g>
						<g>
							<path style="fill:#6D72A0;" d="M1508,1184.7l-18.9,6.7c-4.6,1.6-5.5,5.1-3.7,7.6l43.7-1l-1.7-10.2c-0.3-1.8-1.8-3.1-3.5-3.1
								L1508,1184.7z"/>
						</g>
					</g>
					<g>
						<g>
							<path style="fill:#000543;" d="M1529.1,1198.1l0.5,1.7c0.3,1.1-0.9,2.1-2.6,2.1l-33.9,0.3c-3.7,0-6.4-1.3-7.7-3.1
								L1529.1,1198.1z"/>
						</g>
					</g>
				</g>
				<g>
					<g>
						<path style="fill:#000543;" d="M1524.3,1197l-7.5,0c-0.3,0-0.5-0.2-0.5-0.5l0-2.3c0-0.3,0.2-0.5,0.5-0.5l7.5,0
							c0.3,0,0.5,0.2,0.5,0.5l0,2.3C1524.8,1196.8,1524.5,1197,1524.3,1197z"/>
					</g>
				</g>
			</g>
			<g>
				<path style="fill:#91B4DE;" d="M1431.2,1064.4c0-0.1,0.1-0.1,0.1-0.2c4.8-10.1,18.8-11.5,26-2.8c0,0,26.8,33.6,28.4,35.6
					c13,15.9,23.7,34.2,28.3,53.5c1.4,2.4,2.7,4.8,4,7.2c3.5,6.4,1.1,14-5.4,16.9l-10.4,4.6c-4.1,1.8-9.2,0.2-11.8-3.7
					c-11.1-16.7-20.4-29.8-33.4-47.8C1433.2,1094.7,1423.4,1081.1,1431.2,1064.4z"/>
			</g>
		</g>
	</g>
	<g>
		<path style="fill:#6D72A0;" d="M1498.5,1180.1c1.3,0,2.7-0.3,3.9-0.8c0.3-0.1,0.5-0.5,0.3-0.9c-0.1-0.3-0.5-0.5-0.9-0.3
			c-3.9,1.7-8.6,0.2-11-3.4c-11-16.5-20.2-29.5-33.4-47.9c-18.1-25.1-28.1-39-28.2-51.5c-4.5-21.3-0.6-47.4,3.5-65.5
			c0.1-0.2,0-0.5-0.2-0.6l-6.9-5.7c-0.3-0.2-0.7-0.2-0.9,0.1c-0.2,0.3-0.2,0.7,0.1,0.9l6.6,5.4c-4.1,18.2-7.9,44.3-3.4,65.5
			c0.1,12.8,10.2,26.7,28.4,52.1c13.2,18.3,22.4,31.4,33.4,47.8C1491.8,1178.4,1495.1,1180.1,1498.5,1180.1z"/>
	</g>
	<rect x="1417.5" y="964.1" style="fill:#6D72A0;" width="35.4" height="26"/>
	<g>
		<g>
			<g>
				<path style="fill:#FC6D3A;" d="M1394,929.2c2.6-33.1-2.1-28.4,3.2-72.9c2-16.8,15-24.5,35-27.8c6.3-1,29.6,0.8,45.7,3.8
					c12,2.2,20.7,13,19.7,25.2c-0.6,7.3-2.7,15-3.5,23c-0.4,4.2-1,8.3-1.7,12.4c-2.3,13.4-0.6,25.5,1,38.3
					C1460.7,935.6,1427.1,934.4,1394,929.2z"/>
				<path style="fill:#FCC172;" d="M1391.8,951.4c1.1-9,1.8-16.2,2.2-22.2c33.1,5.2,66.7,6.4,99.3,2.1c0.9,7,1.7,14.2,1.8,21.9
					C1460.6,952.4,1426.2,955,1391.8,951.4z"/>
				<path style="fill:#FC6D3A;" d="M1391.8,951.4c34.4,3.6,68.9,1,103.3,1.9c0.1,9.8-0.9,20.4-4.3,32.4c-1.7,6-7.4,10-13.8,9.9
					c-25.5-0.6-50.9-1.2-76.4-1.8c-2.9-0.1-6.1-0.2-8.2-2.2c-0.8-0.7-1.5-2.1-2.1-3.8c-1.6-4.5-2-9.4-1.3-14.1
					C1390.1,965.2,1391,957.8,1391.8,951.4z"/>
			</g>
		</g>
	</g>
	<path style="fill:#FFFFFF;" d="M1421.4,841.7c0,7.8,10.7,14.1,23.8,14.1c13.2,0,23.8-6.3,23.8-14.1c0-7.8-10.7-14.1-23.8-14.1
		C1432.1,827.6,1421.4,833.9,1421.4,841.7z"/>
	<g>
		<g>
			<g>
				<path style="fill:#FF9985;" d="M1515.6,729.8c-0.4,0.1-3.2-0.2-3.7,2.9c-0.7,4.2,1.8,11.5,3.5,18c1.7,6.7,4.4,15.6,7.2,24.9
					c3.2,10.7,6.6,21.8,9,31.3c1.4,5.4,4.7,10.1,9.3,13.1c1.6,1.1,3.3,2.2,5,3.3c4.2,2.7,9.7-0.7,9.1-5.7
					c-3.2-22.8-24-65.6-30.8-78.1C1519.7,731.2,1516.4,729.7,1515.6,729.8z"/>
			</g>
		</g>
	</g>
	<g>
		<g>
			<g>
				<path style="fill:#FF9985;" d="M1499.2,738.1c0.3-1,1.4-1.6,2.3-1.4l8.7,2c1,0.2,1.5,1.2,1.2,2.2c-0.3,1-1.4,1.6-2.3,1.4l-8.7-2
					C1499.4,740.1,1498.9,739.1,1499.2,738.1z"/>
			</g>
		</g>
		<g>
			<path style="fill:#FF9985;" d="M1518.3,725.7c-1.1-0.9-2.4-1.7-3.6-1.8c-0.9,0-1.8,0.4-2.6,0.9c-2,1.2-3.9,2.7-5.6,4.5
				c-1.5,1.6-3,4-2.4,6.9c0.6,2.8,2.5,4.8,4.6,6c4,2.2,5.5,2.9,9.4,2.3c4.9-0.7,7.6-4,4.8-10.2
				C1521.7,731.1,1520.7,727.7,1518.3,725.7z"/>
		</g>
		<g>
			<g>
				<path style="fill:#FF9985;" d="M1507.1,734.6l-5.2-12.2c-0.4-0.8-1.3-1.1-2.1-0.6c-0.8,0.5-1.2,1.6-0.8,2.4l5.2,12.2
					c0.4,0.8,1.3,1.1,2.1,0.6C1507.1,736.5,1507.4,735.4,1507.1,734.6z"/>
			</g>
		</g>
		<g>
			<g>
				<path style="fill:#FF9985;" d="M1510.6,731l-5.2-12.2c-0.4-0.8-1.3-1.1-2.1-0.6c-0.8,0.5-1.2,1.6-0.8,2.4l5.2,12.2
					c0.4,0.8,1.3,1.1,2.1,0.6C1510.6,732.9,1511,731.8,1510.6,731z"/>
			</g>
		</g>
		<g>
			<g>
				<path style="fill:#FF9985;" d="M1515.3,730.2l-5.2-12.2c-0.4-0.8-1.3-1.1-2.1-0.6c-0.8,0.5-1.2,1.6-0.8,2.4l5.2,12.2
					c0.4,0.8,1.3,1.1,2.1,0.6C1515.3,732.1,1515.7,731,1515.3,730.2z"/>
			</g>
		</g>
		<g>
			<g>
				<path style="fill:#FF9985;" d="M1520.6,731l-5.2-12.2c-0.4-0.8-1.3-1.1-2.1-0.6c-0.8,0.5-1.2,1.6-0.8,2.4l5.2,12.2
					c0.4,0.8,1.3,1.1,2.1,0.6C1520.6,732.9,1521,731.8,1520.6,731z"/>
			</g>
		</g>
	</g>
	<g>
		<g>
			<g>
				<g>
					<path style="fill:#FF9985;" d="M1454.7,735.2c1.8,0.2,3.7,0.5,5.4,1.2c10.3,4,9.2,13.7,7.4,26.6l-0.6,4.3l2.3,13
						c-2.7,20.4-18.5,33.6-35.5,31.1c-17-2.5-29.2-19.9-26.5-40.3l3.3-24.4c0.9-6.7,7.7-13.8,14.4-14L1454.7,735.2z"/>
				</g>
			</g>
		</g>
		<g>
			<path style="fill:#FFEB9A;" d="M1409.3,750.3l6.8,0.8c1,0.1,1.7,1,1.6,2c-0.1,1-1,1.7-2,1.6l-6.8-0.8c-1-0.1-1.7-1-1.6-2
				C1407.4,750.9,1408.3,750.2,1409.3,750.3z"/>
			<g>
				<path style="fill:#FFEB9A;" d="M1441.6,755.1l6.8,0.8c1,0.1,1.7,1,1.6,2c-0.1,1-1,1.7-2,1.6l-6.8-0.8c-1-0.1-1.7-1-1.6-2
					C1439.7,755.7,1440.6,755,1441.6,755.1z"/>
				<path style="fill:#000543;" d="M1410.9,762.8c-0.2,1.8,0.6,3.3,1.7,3.4c1.1,0.1,2.2-1.2,2.4-2.9c0.2-1.8-0.6-3.3-1.7-3.4
					C1412.2,759.8,1411.1,761.1,1410.9,762.8z"/>
				<path style="fill:#000543;" d="M1439.3,767.1c-0.2,1.8,0.6,3.3,1.7,3.4c1.1,0.1,2.2-1.2,2.4-2.9c0.2-1.8-0.6-3.3-1.7-3.4
					C1440.6,764.1,1439.6,765.4,1439.3,767.1z"/>
				<path style="fill:#FA694F;" d="M1420.8,774l0.3-0.6c0,1.4,0.8,2.7,2.2,3.3l3.4,1.4c1.2,0.5,2.3,0.1,3.1-0.8l0,0.3
					c0.2,2.1-1.9,3.7-3.9,2.9l-3.4-1.4C1420.5,778.3,1419.7,775.9,1420.8,774z"/>
				<path style="fill:#FFFFFF;" d="M1432.6,789c-0.6,1.9-2.1,4-6.3,3.8c-4.1-1-5-3.4-5-5.4L1432.6,789z"/>
			</g>
		</g>
		<g>
			<g>
				<path style="fill:#FF9985;" d="M1471.6,765.6c-5.3-0.8-10.3,4.1-11.2,10.9c-0.9,6.8,2.6,13,7.9,13.8c5.3,0.8,10.3-4.1,11.2-10.9
					C1480.4,772.6,1476.9,766.4,1471.6,765.6z"/>
			</g>
		</g>
		<g>
			<g>
				<path style="fill:#FF9985;" d="M1444,844.3c-7.1-1-12.3-6.2-11.1-15l5.8-43.4c0.4-3.2,2.7-5.5,5.1-5.1l17.2,2.6
					c2.4,0.4,3.9,3.3,3.5,6.4l-5.7,42.8C1457.5,841.5,1451.1,845.3,1444,844.3L1444,844.3z"/>
			</g>
		</g>
	</g>
	<path style="fill:#FFEB9A;" d="M1467.7,762.1c0,0-2.6-26.9-38-22c0,0-16.6,2.6-15.1-4.7l13.4-10.1l41.6,7.6l9.9,11.3L1467.7,762.1z
		"/>
	<g>
		<g>
			<g>
				<path style="fill:#FF9985;" d="M1378.1,909.9c5.6,1.5,8.8,7.3,7.3,12.8c-6.5,23.5-21.7,58.2-26.8,68c-4.1,8-7.1,9.5-7.9,9.3
					c-0.4-0.1-3,0.2-3.5-2.6c-0.7-4,1.5-10.9,2.9-17c1.5-6.3,3.8-14.7,6.3-23.5c2.1-7.4,5.9-26.1,8.7-39.1
					C1366.4,911.9,1372.3,908.3,1378.1,909.9z"/>
			</g>
		</g>
	</g>
	<g>
		<g>
			<g>
				<path style="fill:#FF9985;" d="M1338.3,999.2c0.6,0.8,1.8,1,2.5,0.5l6.9-4.7c0.8-0.5,0.9-1.6,0.3-2.4c-0.6-0.8-1.8-1-2.5-0.5
					l-6.9,4.7C1337.8,997.4,1337.7,998.5,1338.3,999.2z"/>
			</g>
		</g>
		<g>
			<path style="fill:#FF9985;" d="M1359.3,1003.7c-0.7,1.2-1.5,2.3-2.5,2.8c-0.8,0.3-1.7,0.3-2.5,0.1c-2.2-0.4-4.3-1.1-6.4-2.1
				c-1.9-0.9-4-2.5-4.4-5.2c-0.4-2.6,0.6-5.1,2-6.8c2.8-3.3,3.8-4.4,7.5-5.2c4.6-1,8,0.9,7.7,7.3
				C1360.4,997.8,1360.7,1001.1,1359.3,1003.7z"/>
		</g>
		<g>
			<g>
				<path style="fill:#FF9985;" d="M1346.4,999.6l-0.5,12.4c0,0.8-0.8,1.4-1.7,1.3c-0.9-0.1-1.6-1-1.6-1.8l0.5-12.4
					c0-0.8,0.8-1.4,1.7-1.3C1345.8,998,1346.5,998.8,1346.4,999.6z"/>
			</g>
		</g>
		<g>
			<g>
				<path style="fill:#FF9985;" d="M1350.7,1001.6l-0.5,12.4c0,0.8-0.8,1.4-1.7,1.3s-1.6-1-1.6-1.8l0.5-12.4c0-0.8,0.8-1.4,1.7-1.3
					C1350.1,999.9,1350.8,1000.8,1350.7,1001.6z"/>
			</g>
		</g>
		<g>
			<g>
				<path style="fill:#FF9985;" d="M1355.2,1000.7l-0.5,12.4c0,0.8-0.8,1.4-1.7,1.3c-0.9-0.1-1.6-1-1.6-1.8l0.5-12.4
					c0-0.8,0.8-1.4,1.7-1.3C1354.5,999,1355.2,999.8,1355.2,1000.7z"/>
			</g>
		</g>
		<g>
			<g>
				<path style="fill:#FF9985;" d="M1359.5,998.2l-0.5,12.4c0,0.8-0.8,1.4-1.7,1.3c-0.9-0.1-1.6-1-1.6-1.8l0.5-12.4
					c0-0.8,0.8-1.4,1.7-1.3C1358.9,996.5,1359.6,997.3,1359.5,998.2z"/>
			</g>
		</g>
	</g>
</g>
<g>
	<g>
		<path style="fill:#FFFFFF;" d="M518.9,703.7c-0.6,0-1.1-0.4-1.2-1c-0.2-0.7,0.3-1.4,0.9-1.5l21.7-5.2c0.7-0.2,1.4,0.3,1.5,0.9
			c0.2,0.7-0.3,1.4-0.9,1.5l-21.7,5.2C519.1,703.7,519,703.7,518.9,703.7z"/>
	</g>
	<g>
		<g>
			<path style="fill:#FFFFFF;" d="M541.3,709.7c-0.3,0-0.5-0.2-0.6-0.5l-4.8-19.6c-0.1-0.3,0.1-0.7,0.5-0.8c0.3-0.1,0.7,0.1,0.8,0.5
				l4.8,19.6c0.1,0.3-0.1,0.7-0.5,0.8C541.4,709.7,541.3,709.7,541.3,709.7z"/>
		</g>
		<g>
			<path style="fill:#FFFFFF;" d="M587.2,687.9l-0.9-3.6c-0.3-1.1-1.4-1.8-2.5-1.5l-46.3,11.5l1.9,7.6l46.3-11.5
				C586.8,690.1,587.5,689,587.2,687.9z"/>
			<g>
				<path style="fill:#FFFFFF;" d="M584.5,687.5c-0.3,0-0.5-0.2-0.6-0.5c-0.1-0.3,0.1-0.7,0.5-0.8l13.3-3.3c0.3-0.1,0.7,0.1,0.8,0.5
					c0.1,0.3-0.1,0.7-0.5,0.8l-13.3,3.3C584.6,687.5,584.6,687.5,584.5,687.5z"/>
			</g>
		</g>
	</g>
	<g>
		<g>
			<g>
				<path style="fill:#FF9985;" d="M613.3,769.3c1.5,0.6,2.4,2.3,1.8,3.9l-5,14c-0.6,1.6-2.3,2.4-3.8,1.8c-1.5-0.6-2.4-2.3-1.8-3.9
					l5-14C610,769.5,611.7,768.7,613.3,769.3z"/>
			</g>
		</g>
		<g>
			<path style="fill:#FF9985;" d="M629.3,801.1c1.7-1.8,3.2-3.8,3.5-5.8c0.2-1.5-0.3-2.9-0.9-4.2c-1.5-3.4-3.6-6.5-6.1-9.3
				c-2.3-2.6-5.8-5.1-10.5-4.2c-4.5,0.9-8.2,3.9-10.5,7.3c-4.3,6.5-5.8,8.8-5.6,15.2c0.2,8.1,4.9,12.6,15.3,8.4
				C620,806.4,625.6,805,629.3,801.1z"/>
		</g>
		<g>
			<g>
				<path style="fill:#FF9985;" d="M617.3,782.3l20.5-7.9c1.4-0.5,2-2.1,1.4-3.5c-0.6-1.4-2.3-2-3.6-1.5l-20.5,7.9
					c-1.4,0.5-2,2.1-1.4,3.5C614.2,782.2,615.9,782.9,617.3,782.3z"/>
			</g>
		</g>
		<g>
			<g>
				<path style="fill:#FF9985;" d="M622.3,788.3l20.5-7.9c1.4-0.5,2-2.1,1.4-3.5c-0.6-1.4-2.3-2-3.6-1.5l-20.5,7.9
					c-1.4,0.5-2,2.1-1.4,3.5C619.3,788.1,620.9,788.8,622.3,788.3z"/>
			</g>
		</g>
		<g>
			<g>
				<path style="fill:#FF9985;" d="M622.8,796.9l20.5-7.9c1.4-0.5,2-2.1,1.4-3.5c-0.6-1.4-2.3-2-3.6-1.5l-20.5,7.9
					c-1.4,0.5-2,2.1-1.4,3.5C619.8,796.7,621.4,797.4,622.8,796.9z"/>
			</g>
		</g>
		<g>
			<g>
				<path style="fill:#FF9985;" d="M620.3,804.6l20.5-7.9c1.4-0.5,2-2.1,1.4-3.5c-0.6-1.4-2.3-2-3.6-1.5l-20.5,7.9
					c-1.4,0.5-2,2.1-1.4,3.5C617.3,804.5,618.9,805.2,620.3,804.6z"/>
			</g>
		</g>
	</g>
	<g>
		<path style="fill:#52587F;" d="M189.6,976l-38.8-307.4c-1.7-13.7,8-24.9,21.6-24.9h133.8c13.6,0,26.1,11.2,27.8,24.9L379.7,973
			L189.6,976z"/>
	</g>
	<g>
		<path style="fill:#6D72A0;" d="M224.4,974.4l-38.3-305.6c-1.7-13.7,8-25,21.6-25h133.8c13.6,0,26,11.2,27.7,25L415,974.4H224.4z"
			/>
	</g>
	<g>
		
			<rect x="44.2" y="1102" transform="matrix(0.2849 -0.9586 0.9586 0.2849 -937.6992 957.189)" style="fill:#6D72A0;" width="256.9" height="10.2"/>
	</g>
	<g>
		<rect x="589.4" y="983.9" style="fill:#6D72A0;" width="10.2" height="244.6"/>
	</g>
	<g>
		<rect x="195.3" y="1036.2" style="fill:#6D72A0;" width="397.1" height="10.2"/>
	</g>
	<g>
		<path style="fill:#6D72A0;" d="M616.9,988.8c0-12.9-10.5-23.4-23.4-23.4l-35.8-0.1l-95.9-0.3l-77.4-0.3l14.5,47.7l62.6-0.7
			l95.9,0.3l35.8,0.1C606.4,1012.3,616.9,1001.8,616.9,988.8L616.9,988.8z"/>
	</g>
	<g>
		<path style="fill:#FFFFFF;" d="M393.8,688.1C393.9,688.2,393.8,688.1,393.8,688.1C393.8,688.1,393.8,688.1,393.8,688.1z"/>
	</g>
	<g>
		<path style="fill:#FFB288;" d="M313.3,930.1c0.8,0.3,1.6,0.6,2.4,0.8C314.2,930.4,313.3,930.1,313.3,930.1z"/>
	</g>
	<g>
		<path style="fill:#FFB288;" d="M311.5,930c0.7,0.3,1.6,0.5,2.3,0.8C312.4,930.3,311.5,930,311.5,930z"/>
	</g>
	<g>
		<path style="fill:#52587F;" d="M395,967H190v20.6c0,14.4,6.6,25,35.9,25H395c11.9,0,21.6-10.2,21.6-22.8
			C416.7,977.2,407,967,395,967z"/>
	</g>
	<g>
		<rect x="379.2" y="1012.4" style="fill:#6D72A0;" width="10.2" height="217.8"/>
	</g>
	<g>
		<g>
			<g>
				<path style="fill:#FF9985;" d="M485.1,1178.3c-7.1,52.7,18,51.3,20.7,28.1c1.1-9.3,2.1-18.7,3.2-28.1H485.1z"/>
			</g>
		</g>
		<path style="fill:#55AEB7;" d="M524.9,1064.4c-0.8-6.3-1.5-12.9-2.3-19.5c-3.3-29.6-7.1-63.1-16.8-92.5
			c-14.9-45.2-59.3-57.9-93.9-60.6c-23.4-1.8-51.7-2.6-81.6-3.5c-14.5-0.4-29.5-0.8-44.9-1.4l-2-0.1l-0.5,1.9
			c-0.1,0.5-3.5,12.7-0.1,31c5.4,29.1,28.3,50.4,54.4,50.7c22,0.2,45.2-0.1,65.6-0.4c13.2-0.2,24.7-0.4,33.4-0.4
			c0.6,2,1.6,3.6,2.6,5.1c1.5,2.4,3,4.8,3.7,9.2c0.3,1.8,0.5,3.5,0.7,5.3c0.8,6.9,1.6,14,5.8,20.8c0.9,1.4,1.8,2.7,2.8,4
			c1.3,1.8,2.5,3.4,3.4,5.2c1.8,3.6,2,7.4,2.1,11c0.1,5.8-0.1,11.6-0.3,17.3c-0.5,14.2-1,28.9,3.5,44.2c1.2,4,2.7,8,4.1,11.9
			c2,5.4,4.1,10.9,5.2,16.2c2,9.5,1,18.9,0.1,28c-1.3,13.4-2.7,27.2,4.8,41.4c0.9,1.7,3.2,4.8,6.1,5l0-0.1c2.4,0.3,9.1,0.3,29.8,0.3
			c5.8,0,9.9-3.8,10.4-9.5c0.6-8.1,1.3-16.3,2.1-24.9C525.8,1128.2,528.7,1095.3,524.9,1064.4z"/>
		<g>
			<g>
				<g>
					<path style="fill:#88DCE5;" d="M510.9,1204.4l27.2,9.6c6.6,2.3,7.9,7.2,5.3,10.8l-62.9-1.5l2.5-14.4c0.5-2.6,2.6-4.4,5.1-4.4
						H510.9z"/>
				</g>
				<g>
					<path style="fill:#000543;" d="M480.4,1223.2l-0.7,2.4c-0.4,1.5,1.3,2.9,3.7,3l48.9,0.5c5.3,0.1,9.2-1.9,11.1-4.4L480.4,1223.2
						z"/>
				</g>
			</g>
			<g>
				<path style="fill:#000543;" d="M487.4,1221.7h10.7c0.4,0,0.8-0.3,0.8-0.8v-3.1c0-0.4-0.3-0.8-0.8-0.8h-10.7
					c-0.4,0-0.8,0.3-0.8,0.8v3.1C486.7,1221.4,487,1221.7,487.4,1221.7z"/>
			</g>
		</g>
	</g>
	<g>
		<g>
			<g>
				<path style="fill:#FF9985;" d="M562.3,1178.3c-7.1,52.7,18,51.3,20.7,28.1c1.1-9.3,2.1-18.7,3.2-28.1H562.3z"/>
			</g>
		</g>
		<path style="fill:#55AEB7;" d="M602.1,1064.4c-0.8-6.3-1.5-12.8-2.3-19.5c-3.3-29.6-7.1-63.1-16.8-92.5
			c-14.9-45.2-59.3-57.9-93.9-60.6c-23.7-1.9-56-2.8-90.3-3.8c-15.4-0.4-31.3-0.9-46.4-1.5l-2.6-0.1v52.7l1.6,0.7
			c0.1,0,0.2,0.1,0.3,0.1l0,0.1c10.7,4.3,18.8,8.7,26,17.4c0.8,1,1.7,2.1,2.6,3.4l0.7,1l1.3,0.1c17.8,0.8,39.6,2.3,60.6,3.8
			c28,1.9,54.5,3.7,70.7,4c0.6,2,1.6,3.6,2.6,5.1c1.5,2.4,3,4.8,3.7,9.2c0.3,1.8,0.5,3.5,0.7,5.3c0.8,6.9,1.6,14,5.8,20.8
			c0.9,1.4,1.8,2.7,2.8,4c1.3,1.8,2.5,3.4,3.4,5.2c1.8,3.6,2,7.4,2.1,11c0.1,5.8-0.1,11.6-0.3,17.3c-0.5,14.2-1,28.9,3.5,44.2
			c1.2,4,2.7,8,4.1,11.9c2,5.4,4.1,10.9,5.2,16.2c2,9.5,1,18.9,0.1,28c-1.3,13.4-2.7,27.2,4.8,41.4c0.9,1.7,3.2,4.8,6.1,5l0-0.1
			c2.4,0.3,9,0.3,29.8,0.3c5.8,0,9.9-3.8,10.4-9.5c0.6-8.1,1.3-16.3,2.1-24.9C603,1128.2,605.9,1095.3,602.1,1064.4z"/>
		<g>
			<g>
				<g>
					<path style="fill:#88DCE5;" d="M588.1,1204.4l27.2,9.6c6.6,2.3,7.9,7.2,5.3,10.8l-62.9-1.5l2.5-14.4c0.5-2.6,2.6-4.4,5.1-4.4
						H588.1z"/>
				</g>
				<g>
					<path style="fill:#000543;" d="M557.6,1223.2l-0.7,2.4c-0.4,1.5,1.3,2.9,3.7,3l48.9,0.5c5.3,0.1,9.2-1.9,11.1-4.4L557.6,1223.2
						z"/>
				</g>
			</g>
			<g>
				<path style="fill:#000543;" d="M564.6,1221.7h10.7c0.4,0,0.8-0.3,0.8-0.8v-3.1c0-0.4-0.3-0.8-0.8-0.8h-10.7
					c-0.4,0-0.8,0.3-0.8,0.8v3.1C563.9,1221.4,564.2,1221.7,564.6,1221.7z"/>
			</g>
		</g>
	</g>
	<path style="fill:#FF9985;" d="M622.9,802.9l-7.6-15.6c-1.9,0.4-4.3,0.2-6.5,0.9c-5.4,1.6-80.5,14.7-100.4,18.1l-30.1,6.7
		c-11.2,2.8-17.7,15.1-12.8,25.5c0,0.1,0.1,0.1,0.1,0.2c1,2.1,1.9,3.1,1.9,3.2l1.2,1.5C488.8,857.1,604.7,812.2,622.9,802.9z"/>
	<path style="fill:#FF9985;" d="M475.5,718l-52-0.9c2.6,14.9,14.7,91.4,42.6,125.1c0.8,1,4.4,4,9.9,4.2c9.6,0.2,16.8-8.8,15.3-18.3
		C487,799.6,475.5,722.9,475.5,718z"/>
	<path style="fill:#6AC3D1;" d="M495.4,791.8c-7-28.1-19.4-73.2-24.9-98.6c-3.9,1.9-15.7,11.6-19.6,13.6c-3.7,1.8-7.4,3.7-11,5.8
		c0.2,0.2-5.3,4.5-5.8,5c-9.6,9.1-20.1,6.5-31.8,2.8c3,13.5,14.7,49.4,26.2,80c2.6,7,8.9,11.4,15.4,10.9l41.7-3.3
		C492.8,807.3,497.4,799.7,495.4,791.8z"/>
	<path style="fill:#88DCE5;" d="M455.1,658.4c-41.7-34.7-42.3-20.1-68.9-21.5c-1.5-0.1-3-0.1-4.5-0.2c-27.8-0.6-55.3,26.6-64,52.6
		c-10.7,20-17.1,42.1-16.5,67.7c0.2,6.8,0.8,13.8-1,20.1c-1.8,6.5-6,11.7-8.1,18.1c-4.7,13.7,0.6,30.4-3.3,44.5
		c-1.9,6.7-5.8,12.3-8.3,18.7c-7.3,18.1-0.9,44.4,16.3,53.6c0-0.1,0-0.2,0-0.2h114c8.3,0,16.1-2.4,22.9-6.7c6.1-3.9,4-10.5,5.3-18.3
		c0.6-3.8-0.9-7.8-0.9-12.5c-0.1-24.9,1.6-41.9,8.9-65.5c8.5-27.3,13.6-51.1,22.6-77.7C477.7,707.5,472.1,677.9,455.1,658.4z"/>
	<path style="fill:#FF9985;" d="M384.2,708.3l-52.5,8.2c5.2,14.5,30.8,89.5,64.8,118.5c1,0.9,5.1,3.3,10.7,2.4
		c9.7-1.4,15.3-11.8,12.2-21.1C410.2,788.4,385.2,713.2,384.2,708.3z"/>
	<g>
		<path style="fill:#88DCE5;" d="M405.7,743.5c-5.8-28.1-14.1-60.2-18.5-71.5c-8.1,8.7-15.8,15.9-28.7,14.3
			c-0.7-0.1-7.6-0.4-7.6-0.6c-4.2,0.2-8.3,0.8-12.4,1.4c-4.4,0.6-17.7,9.5-22,10.2c8.4,21.3,19,50.4,27.4,74.4
			c2.4,6.8,10.2,9.9,16.7,6.7l37.5-18.9C403.9,756.3,407.1,749.9,405.7,743.5z"/>
		<g>
			<path style="fill:#6AC3D1;" d="M354.3,781.8c-1.7,0-3.3-0.3-4.9-1c-3.5-1.4-6.3-4.3-7.5-7.9c-7.5-21.3-15.6-43.7-22.3-61.2
				l2.4-0.9c6.7,17.6,14.8,39.9,22.4,61.3c1,2.9,3.2,5.2,6.1,6.3c2.9,1.2,6.1,1,8.8-0.4l37.5-18.9c5.3-2.7,8.2-8.6,7-14.4
				c-3.9-18.7-8.6-34.1-12.4-46.5c-1.9-6.2-3.5-11.6-4.8-16.4l2.5-0.6c1.2,4.7,2.8,10.1,4.7,16.3c3.8,12.4,8.5,27.9,12.4,46.7
				c1.4,6.9-2,14-8.3,17.2l-37.5,18.9C358.4,781.3,356.3,781.8,354.3,781.8z"/>
		</g>
	</g>
	<path style="fill:#FF9985;" d="M521.6,726.8l-14.4-10.3c-1.5,1.3-3.8,2.3-5.4,3.9c-4.1,4.1-65.1,52.4-81.4,65.2l-23.7,20.7
		c-8.7,8-8.5,22.2,1,29.1c0.1,0,0.1,0.1,0.2,0.1c2,1.4,3.2,1.9,3.3,1.9l1.8,0.7C427.6,840.7,509.9,744,521.6,726.8z"/>
	<g>
		<g>
			<path style="fill:#FF9985;" d="M521.5,696.3c1.5,0.8,1.9,2.7,1.1,4.2l-7.7,13.6c-0.9,1.5-2.7,2.1-4.2,1.3
				c-1.5-0.8-1.9-2.7-1.1-4.2l7.7-13.6C518.2,696.1,520.1,695.5,521.5,696.3z"/>
		</g>
		<path style="fill:#FF9985;" d="M531.6,730.9c2.1-1.6,4-3.4,4.7-5.3c0.5-1.5,0.3-3-0.1-4.4c-0.9-3.6-2.4-7.1-4.4-10.4
			c-1.9-3-4.9-6-9.8-5.8c-4.7,0.2-9,2.7-12,5.9c-5.6,5.9-7.5,8.1-8.6,14.7c-1.3,8.2,2.5,13.5,13.9,10.8
			C521.2,734.9,527.2,734.4,531.6,730.9z"/>
		<g>
			<path style="fill:#FF9985;" d="M521.9,710.4l22.2-5.1c1.5-0.3,2.4-1.8,2.1-3.3c-0.4-1.5-1.9-2.4-3.4-2.1l-22.2,5.1
				c-1.5,0.3-2.4,1.8-2.1,3.3C518.9,709.8,520.4,710.7,521.9,710.4z"/>
		</g>
		<g>
			<path style="fill:#FF9985;" d="M524.1,715.2l22.2-5.1c1.5-0.3,2.4-1.8,2.1-3.3c-0.4-1.5-1.9-2.4-3.4-2.1l-22.2,5.1
				c-1.5,0.3-2.4,1.8-2.1,3.3C521.1,714.6,522.6,715.6,524.1,715.2z"/>
		</g>
	</g>
	<g>
		<g>
			<path style="fill:#FF9985;" d="M461.3,544.6c-6.7,4.2-25.6,15-49.6,16.7l1.9,10.9c1.9,11,2.7,13.4,13.1,17.3
				c12.2,4.5,32.3,4.7,33.9,4.7c0.1-0.5,0.2-1.1,0.2-1.6l5-24.8l-7.2-0.6c-1.1-0.1-1.8-1-1.7-2.1c0.1-1.1,1-1.9,2.1-1.8
				c0,0,7.2,0.6,7.3,0.7c0-0.5,0-0.9,0.1-1.4C466.4,556,464.6,549.8,461.3,544.6z M458.6,568.8c1.2,0.1,2.1,1.7,1.9,3.6
				c-0.2,1.9-1.3,3.4-2.5,3.3c-1.2-0.1-2.1-1.7-1.9-3.6C456.2,570.1,457.4,568.7,458.6,568.8z M430.9,573.8
				c-1.2-0.1-2.1-1.7-1.9-3.6c0.2-1.9,1.3-3.4,2.5-3.3c1.2,0.1,2.1,1.7,1.9,3.6C433.2,572.5,432.1,573.9,430.9,573.8z M437.4,565.2
				l-7.2-0.6c-1.1-0.1-1.8-1-1.7-2.1c0.1-1.1,1-1.9,2.1-1.8l7.2,0.6c1.1,0.1,1.8,1,1.7,2.1C439.4,564.5,438.5,565.3,437.4,565.2z
				 M447.6,587.7l-3.8,0.7c-2.2,0.4-4.1-1.7-3.4-3.9l0.1-0.4c0.6,1,1.7,1.7,3.1,1.5l3.8-0.7c1.6-0.3,2.7-1.5,3-3l0.2,0.7
				C451.3,584.9,449.9,587.3,447.6,587.7z"/>
		</g>
		<g>
			<path style="fill:#FF9985;" d="M402.9,609.6c-4.6-6.5-5.4-15.5-4.1-23.4l2.1-17.6c-4.6-0.3-8.7,3.9-9.2,9.4
				c-0.3,3.4,0.7,6.4,2.6,8.5l-1.9,13.9l-5.3,38.3c-1.2,9,3,17.8,10.8,22.4l10.1,6c5.2,3.1,11.8,0.8,14.1-4.7
				c0.3-0.8,0.6-1.7,0.6-2.6l3.3-34.7c-4.9-0.7-9.5-1.9-12.1-4C410.9,618.6,405.2,612.8,402.9,609.6z"/>
		</g>
		<g>
			<path style="fill:#000543;" d="M437.8,561.4l-7.2-0.6c-1.1-0.1-2,0.7-2.1,1.8c-0.1,1.1,0.7,2,1.7,2.1l7.2,0.6
				c1.1,0.1,2-0.7,2.1-1.8C439.6,562.4,438.8,561.5,437.8,561.4z"/>
		</g>
		<g>
			<path style="fill:#000543;" d="M459,563.2c-1.1-0.1-2,0.7-2.1,1.8c-0.1,1.1,0.7,2,1.7,2.1l7.2,0.6c1.1,0.1,2-0.7,2.1-1.8
				c0.1-1-0.6-1.9-1.6-2.1C466.2,563.9,459,563.2,459,563.2z"/>
		</g>
		<g>
			<path style="fill:#000543;" d="M458,575.7c1.2,0.1,2.4-1.3,2.5-3.3c0.2-1.9-0.7-3.5-1.9-3.6c-1.2-0.1-2.4,1.3-2.5,3.3
				C455.9,573.9,456.8,575.6,458,575.7z"/>
		</g>
		<g>
			<path style="fill:#000543;" d="M431.5,566.9c-1.2-0.1-2.4,1.3-2.5,3.3c-0.2,1.9,0.7,3.5,1.9,3.6c1.2,0.1,2.4-1.3,2.5-3.3
				C433.6,568.6,432.7,567,431.5,566.9z"/>
		</g>
		<g>
			<path style="fill:#FA694F;" d="M450.3,582c-0.3,1.5-1.4,2.7-3,3l-3.8,0.7c-1.3,0.3-2.4-0.4-3.1-1.5l-0.1,0.4
				c-0.7,2.2,1.2,4.3,3.4,3.9l3.8-0.7c2.3-0.4,3.7-2.8,3-5.1L450.3,582z"/>
		</g>
		<g>
			<path style="fill:#000543;" d="M426.7,589.4c-10.4-3.8-11.1-6.2-13.1-17.3l-1.9-10.9c23.9-1.7,42.9-12.5,49.6-16.7
				c3.2,5.2,5.1,11.4,5,17.9c0.7,0,1.5-0.3,2.1-0.7c1.7-1.1,1.8-2.6,2.1-4.5c0.6-5.3,0.9-10.6,0.5-15.9c-0.3-4.2-1.2-8.9-4.6-11.4
				c-1.4-1-3.1-1.5-4.4-2.7c-2.1-1.9-2.6-5-3.2-7.8c-0.6-2.8-1.9-5.9-4.6-6.7c-2.6-0.8-5.4,0.9-8,0.4c-3.9-0.8-6.6-6-10.5-5
				c-1.2,0.3-2.2,1.2-3.3,1.7c-2-0.9-4.1-1.4-6.1-1.5c-0.5-0.2-1.1-0.4-1.6-0.4c-0.7,0-1.3,0.2-1.9,0.6c-7.9,1.6-11.9,9.8-18.6,13.9
				c-7.3,4.5-17.2,6.6-19.6,16.7c-0.4,1.6-0.5,3.4-1.2,4.9c-0.8,1.9-2.3,3.3-3.2,5.2c-2.6,5.4,0.9,11.8,2.2,17.8
				c-0.8,1.4-1.7,2.8-2.6,4.1c-1.7,2.6-3.3,5.9-1.9,8.7c1.3,2.7,4.6,3.7,6.2,6.3c2.3,3.8,0.1,9.8,3.7,12.3c1.4,1,3.4,1,4.7,2.1
				l1.9-13.9c-1.9-2.1-2.9-5.1-2.6-8.5c0.5-5.6,4.6-9.8,9.2-9.4l-2.1,17.6c-1.3,7.9-0.5,16.9,4.1,23.4c2.3,3.2,8,9,11.1,11.5
				c2.6,2.1,7.2,3.3,12.1,4c6,0.9,12.5,1.1,16.1,1.4c6.2,0.5,13.2-5.4,15-11.4c0,0,3.5-20.9,3.3-20.9
				C459,594.1,439,593.9,426.7,589.4z M439.7,603.5c-5-1.2-5.9-3.9-6-6l13.1,2.5C445.2,604.4,439.7,603.5,439.7,603.5z"/>
		</g>
		<g>
			<path style="fill:#FFFFFF;" d="M439.7,603.5c0,0,5.5,0.9,7.1-3.5l-13.1-2.5C433.8,599.6,434.7,602.3,439.7,603.5z"/>
		</g>
	</g>
	<path style="fill:#FF9985;" d="M413.4,636.3h-19.8c-9.8,0-17.7,8-17.7,17.7c0,9.7,8,17.7,17.7,17.7h19.8c9.8,0,17.7-8,17.7-17.7
		C431.2,644.3,423.2,636.3,413.4,636.3z"/>
	<g>
		<g>
			<path style="fill:#D7E1FC;" d="M145.7,897.7h-36.7c-2.6,0-4.8,2.2-4.8,4.8v37.1c0,2.7,2.2,4.8,4.8,4.8h36.7
				c2.6,0,4.8-2.2,4.8-4.8v-37.1C150.5,899.8,148.3,897.7,145.7,897.7z"/>
			<path style="fill:#D7E1FC;" d="M144.6,897.7v-4.4c0-0.9-0.8-1.7-1.7-1.7H112c-0.9,0-1.7,0.8-1.7,1.7v4.4H144.6z"/>
			<path style="fill:#FFFFFF;" d="M138.9,906.8H116c-2.3,0-4.2,1.9-4.2,4.2v21.5c0,2.3,1.9,4.2,4.2,4.2h22.9c2.3,0,4.2-1.9,4.2-4.2
				V911C143.1,908.7,141.2,906.8,138.9,906.8z"/>
			<path style="fill:#FFFFFF;" d="M117.2,897.7v-3.4c0-0.7-1-1.3-2.1-1.3c-1.2,0-2.1,0.6-2.1,1.3v3.4H117.2z"/>
			<path style="fill:#FFFFFF;" d="M123.3,897.7v-3.4c0-0.7-1-1.3-2.1-1.3c-1.2,0-2.1,0.6-2.1,1.3v3.4H123.3z"/>
			<path style="fill:#FFFFFF;" d="M129.6,897.7v-3.4c0-0.7-1-1.3-2.1-1.3c-1.2,0-2.1,0.6-2.1,1.3v3.4H129.6z"/>
			<path style="fill:#FFFFFF;" d="M135.6,897.7v-3.4c0-0.7-1-1.3-2.1-1.3c-1.2,0-2.1,0.6-2.1,1.3v3.4H135.6z"/>
			<path style="fill:#FFFFFF;" d="M141.8,897.7v-3.4c0-0.7-1-1.3-2.1-1.3c-1.2,0-2.1,0.6-2.1,1.3v3.4H141.8z"/>
			<g>
				<g>
					<rect x="116.3" y="912.3" style="fill:#D7E1FC;" width="16.4" height="1.1"/>
				</g>
				<g>
					<rect x="135.4" y="912.3" style="fill:#D7E1FC;" width="3.1" height="1.1"/>
				</g>
				<g>
					<rect x="116.3" y="915.3" style="fill:#D7E1FC;" width="10.9" height="1.1"/>
				</g>
				<g>
					<rect x="133.1" y="915.3" style="fill:#D7E1FC;" width="5.5" height="1.1"/>
				</g>
				<g>
					<rect x="116.3" y="918.4" style="fill:#D7E1FC;" width="3.2" height="1.1"/>
				</g>
				<g>
					<rect x="122.2" y="918.4" style="fill:#D7E1FC;" width="16.3" height="1.1"/>
				</g>
				<g>
					<rect x="116.3" y="921.5" style="fill:#D7E1FC;" width="16.8" height="1.1"/>
				</g>
			</g>
		</g>
		<g>
			<path style="fill:#D7E1FC;" d="M58.2,922l17.9-57.9c0.7-2.2,2.6-3.6,4.9-3.6h8.2c2.8,0,5.1,2.3,5.1,5.2V922
				c0.1,0,0.1,18.9,0.1,18.9c0,2.8-2.3,5.2-5.1,5.2H63.4c-2.8,0-5.1-2.3-5.1-5.2L58.2,922L58.2,922z"/>
			<path style="fill:#D7E1FC;" d="M65.7,854.5H90v-8.3H65.7c-0.7,0-1.3,0.6-1.3,1.3v5.8C64.5,853.9,65,854.5,65.7,854.5z"/>
			<path style="fill:#D7E1FC;" d="M70.6,866.2c0.5,0,0.9-0.4,1.1-0.8l3.8-12.9c0.1-0.5-0.1-0.8-0.6-0.8c-0.5,0-0.9,0.4-1.1,0.8
				L70,865.3C69.9,865.8,70.1,866.2,70.6,866.2z"/>
			
				<rect x="80.3" y="852" transform="matrix(-1 -1.224647e-16 1.224647e-16 -1 168.7425 1715.2421)" style="fill:#D7E1FC;" width="8.1" height="11.3"/>
		</g>
		<rect x="27.9" y="943.7" style="fill:#91B4DE;" width="237.3" height="15.5"/>
		<g>
			<rect x="31.2" y="951.4" style="fill:#91B4DE;" width="5.8" height="280.1"/>
		</g>
		<g>
			<rect x="253.2" y="954" style="fill:#91B4DE;" width="5.8" height="280.1"/>
		</g>
	</g>
	<g>
		<path style="fill:#3F8689;" d="M510.5,970.9c-0.7,0-1.2-0.5-1.3-1.2c-0.8-9.6-3.4-21.7-7.5-35.9c-3.6-12.4-14.7-21.1-27.6-21.8
			l-46.4-2.3c-0.7,0-1.2-0.6-1.2-1.3c0-0.7,0.6-1.3,1.3-1.2l46.4,2.3c14,0.7,26.1,10.2,30,23.6c4.2,14.4,6.8,26.7,7.6,36.4
			c0.1,0.7-0.5,1.3-1.2,1.4C510.6,970.9,510.5,970.9,510.5,970.9z"/>
	</g>
</g>
<g>
	<g>
		<g>
			<g>
				<rect x="1525.3" y="1168.3" style="fill:#7B7C7B;" width="0.3" height="28.7"/>
			</g>
			<g>
				<polygon style="fill:#7B7C7B;" points="1525.5,1197 1525.7,1197 1531.4,1169.3 1531.1,1169.2 				"/>
			</g>
			<g>
				<polygon style="fill:#7B7C7B;" points="1525.6,1197 1525.9,1197.2 1536.8,1172.3 1536.6,1172.1 				"/>
			</g>
			<g>
				<polygon style="fill:#7B7C7B;" points="1525.8,1197.1 1526,1197.3 1541.5,1177 1541.3,1176.8 				"/>
			</g>
			<g>
				<polygon style="fill:#7B7C7B;" points="1526,1197.2 1526.1,1197.5 1545.1,1183.2 1545,1182.9 				"/>
			</g>
			<g>
				<polygon style="fill:#7B7C7B;" points="1526.1,1197.4 1526.2,1197.7 1547.3,1190.3 1547.3,1190 				"/>
			</g>
			<g>
				<rect x="1526.2" y="1197.6" style="fill:#7B7C7B;" width="21.9" height="0.4"/>
			</g>
			<g>
				<polygon style="fill:#7B7C7B;" points="1526.2,1197.9 1526.1,1198.2 1547.3,1205.6 1547.4,1205.3 				"/>
			</g>
			<g>
				<polygon style="fill:#7B7C7B;" points="1526.2,1198.1 1526,1198.4 1545,1212.8 1545.2,1212.5 				"/>
			</g>
			<g>
				<polygon style="fill:#7B7C7B;" points="1526.1,1198.3 1525.9,1198.6 1541.4,1218.9 1541.6,1218.7 				"/>
			</g>
			<g>
				<polygon style="fill:#7B7C7B;" points="1526,1198.5 1525.8,1198.7 1536.7,1223.6 1537,1223.4 				"/>
			</g>
			<g>
				<polygon style="fill:#7B7C7B;" points="1525.9,1198.7 1525.6,1198.8 1531.3,1226.5 1531.5,1226.4 				"/>
			</g>
			<g>
				<rect x="1525.4" y="1198.8" style="fill:#7B7C7B;" width="0.3" height="28.7"/>
			</g>
			<g>
				<polygon style="fill:#7B7C7B;" points="1525.5,1198.8 1525.2,1198.8 1519.6,1226.5 1519.8,1226.6 				"/>
			</g>
			<g>
				<polygon style="fill:#7B7C7B;" points="1525.3,1198.8 1525.1,1198.6 1514.1,1223.5 1514.3,1223.7 				"/>
			</g>
			<g>
				<polygon style="fill:#7B7C7B;" points="1525.1,1198.7 1524.9,1198.5 1509.4,1218.8 1509.6,1219 				"/>
			</g>
			<g>
				<polygon style="fill:#7B7C7B;" points="1525,1198.6 1524.8,1198.3 1505.9,1212.6 1506,1212.9 				"/>
			</g>
			<g>
				<polygon style="fill:#7B7C7B;" points="1524.9,1198.4 1524.8,1198.1 1503.6,1205.5 1503.7,1205.8 				"/>
			</g>
			<g>
				<rect x="1502.9" y="1197.8" style="fill:#7B7C7B;" width="21.9" height="0.4"/>
			</g>
			<g>
				<polygon style="fill:#7B7C7B;" points="1524.8,1197.9 1524.8,1197.6 1503.6,1190.2 1503.6,1190.5 				"/>
			</g>
			<g>
				<polygon style="fill:#7B7C7B;" points="1524.8,1197.7 1524.9,1197.4 1505.9,1183 1505.8,1183.3 				"/>
			</g>
			<g>
				<polygon style="fill:#7B7C7B;" points="1524.8,1197.5 1525,1197.2 1509.5,1176.9 1509.3,1177.2 				"/>
			</g>
			<g>
				<polygon style="fill:#7B7C7B;" points="1524.9,1197.3 1525.2,1197.1 1514.2,1172.2 1514,1172.4 				"/>
			</g>
			<g>
				<polygon style="fill:#7B7C7B;" points="1525.1,1197.1 1525.4,1197 1519.7,1169.3 1519.4,1169.4 				"/>
			</g>
		</g>
		<g>
			<g>
				<path style="fill:#0B0949;" d="M1500.2,1198.7c0,18.5,11.5,33.6,25.6,33.6c14.2,0,25.6-15,25.6-33.6c0-18.5-11.5-33.6-25.6-33.6
					C1511.7,1165.1,1500.2,1180.1,1500.2,1198.7z M1504.1,1198.7c0-15.7,9.7-28.4,21.7-28.4c12,0,21.7,12.7,21.7,28.4
					c0,15.7-9.7,28.4-21.7,28.4C1513.9,1227.1,1504.1,1214.4,1504.1,1198.7z"/>
				<path style="fill:#0B0949;" d="M1525.9,1234.6c-15.4,0-28-16.1-28-35.9c0-19.8,12.6-35.9,28-35.9c15.4,0,28,16.1,28,35.9
					C1553.9,1218.5,1541.3,1234.6,1525.9,1234.6z M1513,1224.7c3.7,3.3,8.1,5.2,12.9,5.2c4.8,0,9.2-1.9,12.9-5.2
					c-3.7,3-8.2,4.8-12.9,4.8C1521.1,1229.5,1516.7,1227.7,1513,1224.7z M1525.9,1172.6c-10.7,0-19.3,11.7-19.3,26.1
					c0,14.4,8.7,26.1,19.3,26.1c10.7,0,19.3-11.7,19.3-26.1C1545.2,1184.3,1536.5,1172.6,1525.9,1172.6z M1525.9,1167.9
					c4.7,0,9.2,1.8,12.9,4.8c-3.7-3.3-8.1-5.2-12.9-5.2c-4.8,0-9.2,1.9-12.9,5.2C1516.7,1169.7,1521.1,1167.9,1525.9,1167.9z"/>
			</g>
		</g>
		<path style="fill:#6D72A0;" d="M1520.3,1198.5c0,4.2,2.6,7.7,5.9,7.7c3.2,0,5.9-3.4,5.9-7.7c0-4.2-2.6-7.7-5.9-7.7
			C1522.9,1190.8,1520.3,1194.2,1520.3,1198.5z"/>
	</g>
	<g>
		<g>
			<rect x="1627.4" y="977.1" style="fill:#7B7C7B;" width="1.1" height="112.6"/>
		</g>
		<g>
			<polygon style="fill:#7B7C7B;" points="1628.2,1089.5 1629.2,1089.8 1651.5,981.1 1650.4,980.7 			"/>
		</g>
		<g>
			<polygon style="fill:#7B7C7B;" points="1628.9,1089.6 1629.8,1090.3 1672.8,992.8 1671.9,992.1 			"/>
		</g>
		<g>
			<polygon style="fill:#7B7C7B;" points="1629.6,1089.9 1630.3,1090.9 1691.1,1011.3 1690.4,1010.3 			"/>
		</g>
		<g>
			<polygon style="fill:#7B7C7B;" points="1630.2,1090.5 1630.7,1091.7 1705.2,1035.4 1704.7,1034.2 			"/>
		</g>
		<g>
			<polygon style="fill:#7B7C7B;" points="1630.7,1091.2 1630.9,1092.6 1714,1063.4 1713.7,1062.1 			"/>
		</g>
		<g>
			<rect x="1631" y="1092.1" style="fill:#7B7C7B;" width="86" height="1.4"/>
		</g>
		<g>
			<polygon style="fill:#7B7C7B;" points="1631.1,1093 1630.8,1094.4 1713.9,1123.5 1714.1,1122.2 			"/>
		</g>
		<g>
			<polygon style="fill:#7B7C7B;" points="1631,1094 1630.5,1095.2 1704.9,1151.5 1705.5,1150.3 			"/>
		</g>
		<g>
			<polygon style="fill:#7B7C7B;" points="1630.8,1094.9 1630,1095.9 1690.8,1175.5 1691.6,1174.5 			"/>
		</g>
		<g>
			<polygon style="fill:#7B7C7B;" points="1630.3,1095.7 1629.4,1096.4 1672.4,1193.9 1673.3,1193.2 			"/>
		</g>
		<g>
			<polygon style="fill:#7B7C7B;" points="1629.8,1096.3 1628.7,1096.7 1651,1205.4 1652,1205 			"/>
		</g>
		<g>
			<rect x="1628" y="1096.7" style="fill:#7B7C7B;" width="1.1" height="112.6"/>
		</g>
		<g>
			<polygon style="fill:#7B7C7B;" points="1628.4,1096.9 1627.3,1096.5 1605.1,1205.2 1606.1,1205.6 			"/>
		</g>
		<g>
			<polygon style="fill:#7B7C7B;" points="1627.6,1096.8 1626.7,1096.1 1583.7,1193.6 1584.6,1194.3 			"/>
		</g>
		<g>
			<polygon style="fill:#7B7C7B;" points="1626.9,1096.4 1626.2,1095.5 1565.4,1175 1566.1,1176 			"/>
		</g>
		<g>
			<polygon style="fill:#7B7C7B;" points="1626.3,1095.9 1625.8,1094.7 1551.3,1150.9 1551.9,1152.2 			"/>
		</g>
		<g>
			<polygon style="fill:#7B7C7B;" points="1625.8,1095.1 1625.6,1093.8 1542.5,1122.9 1542.8,1124.3 			"/>
		</g>
		<g>
			<rect x="1539.6" y="1092.8" style="fill:#7B7C7B;" width="86" height="1.4"/>
		</g>
		<g>
			<polygon style="fill:#7B7C7B;" points="1625.4,1093.3 1625.7,1091.9 1542.6,1062.8 1542.4,1064.2 			"/>
		</g>
		<g>
			<polygon style="fill:#7B7C7B;" points="1625.5,1092.3 1626,1091.1 1551.6,1034.8 1551,1036.1 			"/>
		</g>
		<g>
			<polygon style="fill:#7B7C7B;" points="1625.8,1091.4 1626.5,1090.4 1565.7,1010.8 1565,1011.8 			"/>
		</g>
		<g>
			<polygon style="fill:#7B7C7B;" points="1626.2,1090.6 1627.1,1089.9 1584.1,992.5 1583.2,993.2 			"/>
		</g>
		<g>
			<polygon style="fill:#7B7C7B;" points="1626.8,1090 1627.8,1089.7 1605.5,980.9 1604.5,981.3 			"/>
		</g>
	</g>
	<g>
		<path style="fill:#26266D;" d="M1529.2,1096.2c0,72.7,45,131.6,100.5,131.6c55.5,0,100.5-58.9,100.5-131.6
			c0-72.7-45-131.6-100.5-131.6C1574.2,964.6,1529.2,1023.5,1529.2,1096.2z M1544.6,1096.2c0-61.5,38.1-111.4,85.1-111.4
			c47,0,85.1,49.9,85.1,111.4c0,61.5-38.1,111.4-85.1,111.4C1582.7,1207.6,1544.6,1157.8,1544.6,1096.2z"/>
	</g>
	<g>
		<path style="fill:#6D72A0;" d="M1885.9,866.9c-2.6,0-4.7-2.1-4.7-4.7v-44.4c-30.8,0.3-31.1,0.2-32.6-0.8c-2.2-1.4-2.8-4.4-1.3-6.5
			c1.1-1.6,3-2.4,4.8-2c2.6,0.2,19.1,0.1,33.8-0.1c1.3-0.1,2.5,0.5,3.4,1.4c0.9,0.9,1.4,2.1,1.4,3.4v49.2
			C1890.6,864.8,1888.5,866.9,1885.9,866.9z"/>
	</g>
	<path style="fill:#F9C29D;" d="M1666.4,1035.6l46.1-212.4c2.3-11.8,13.1-21.5,24-21.5h107.7c10.9,0,18,9.7,15.7,21.5l-41.3,212.4
		H1666.4z"/>
	<path style="fill:#FBE9DC;" d="M1790.3,1035.6h-152.2l45.9-212.3c2.3-11.9,13.1-21.6,24-21.6h107.7c10.9,0,18,9.7,15.7,21.6
		L1790.3,1035.6z"/>
	<g>
		<path style="fill:#6D72A0;" d="M1688,986.1c-2.6,0-4.7-2.1-4.7-4.7v-35.7c0-1.4-1.1-2.5-2.5-2.5h-66.4c-2.6,0-4.7-2.1-4.7-4.7
			c0-2.6,2.1-4.7,4.7-4.7h66.4c6.6,0,11.9,5.4,11.9,11.9v35.7C1692.8,983.9,1690.6,986.1,1688,986.1z"/>
	</g>
	<g>
		<rect x="1667.9" y="1042.7" style="fill:#6D72A0;" width="9.4" height="137.8"/>
	</g>
	<g>
		<path style="fill:#6D72A0;" d="M1836.9,1101.9l-5-0.3c-7.5-0.4-19.9-1-20.9-1.1h-220.4v-9.4h220.4c0.9,0,10,0.5,16.4,0.8V985h9.4
			V1101.9z"/>
	</g>
	<path style="fill:#F9C29D;" d="M1590.6,935.2h90.1c2.4,0,4.3-2,4.3-4.3v-4.5c0-2.4-2-4.3-4.3-4.3h-90.1c-2.4,0-4.3,2-4.3,4.3v4.5
		C1586.3,933.2,1588.2,935.2,1590.6,935.2z"/>
	<path style="fill:#F9C29D;" d="M1637.6,1032.1H1820l-2.4,12c-2.3,11.3-12.2,19.4-23.7,19.5h-156.2V1032.1z"/>
	<path style="fill:#FBE9DC;" d="M1555.8,1047.5c0-8.9,7.2-16.2,16.1-16.2l5.8,0l66.3-0.2l36.3-0.1v21.7c0,6.1-5,11.1-11.2,11
		l-25-0.3l-66.3,0.2l-5.8,0C1563.1,1063.8,1555.8,1056.5,1555.8,1047.5L1555.8,1047.5z"/>
	<path style="fill:#FFFFFF;" d="M1689.2,830.9C1689.2,831,1689.2,831,1689.2,830.9C1689.2,830.9,1689.2,830.9,1689.2,830.9z"/>
	<path style="fill:#FFB288;" d="M1744.9,1006.6c-0.5,0.2-1.1,0.4-1.6,0.6C1744.3,1006.8,1744.9,1006.6,1744.9,1006.6z"/>
	<path style="fill:#FFB288;" d="M1746.1,1006.5c-0.5,0.2-1.1,0.4-1.6,0.6C1745.5,1006.7,1746.1,1006.5,1746.1,1006.5z"/>
	<g>
		<path style="fill:#6D72A0;" d="M1832.9,986.5c-2.6,0-4.7-2.1-4.7-4.7v-35.7c0-1.4-1.1-2.5-2.5-2.5h-59.2c-2.6,0-4.7-2.1-4.7-4.7
			c0-2.6,2.1-4.7,4.7-4.7h59.2c6.6,0,11.9,5.4,11.9,11.9v35.7C1837.6,984.4,1835.5,986.5,1832.9,986.5z"/>
	</g>
	<g>
		<g>
			<rect x="1831.2" y="979.4" style="fill:#7B7C7B;" width="1.1" height="112.6"/>
		</g>
		<g>
			<polygon style="fill:#7B7C7B;" points="1831.9,1091.8 1832.9,1092.2 1855.2,983.5 1854.2,983.1 			"/>
		</g>
		<g>
			<polygon style="fill:#7B7C7B;" points="1832.6,1091.9 1833.6,1092.6 1876.6,995.1 1875.6,994.4 			"/>
		</g>
		<g>
			<polygon style="fill:#7B7C7B;" points="1833.3,1092.3 1834.1,1093.2 1894.9,1013.7 1894.1,1012.7 			"/>
		</g>
		<g>
			<polygon style="fill:#7B7C7B;" points="1833.9,1092.8 1834.5,1094 1908.9,1037.8 1908.4,1036.5 			"/>
		</g>
		<g>
			<polygon style="fill:#7B7C7B;" points="1834.4,1093.6 1834.7,1094.9 1917.7,1065.8 1917.5,1064.4 			"/>
		</g>
		<g>
			<rect x="1834.7" y="1094.4" style="fill:#7B7C7B;" width="86" height="1.4"/>
		</g>
		<g>
			<polygon style="fill:#7B7C7B;" points="1834.8,1095.4 1834.6,1096.8 1917.6,1125.9 1917.9,1124.5 			"/>
		</g>
		<g>
			<polygon style="fill:#7B7C7B;" points="1834.8,1096.4 1834.2,1097.6 1908.7,1153.9 1909.2,1152.7 			"/>
		</g>
		<g>
			<polygon style="fill:#7B7C7B;" points="1834.5,1097.3 1833.7,1098.3 1894.5,1177.9 1895.3,1176.9 			"/>
		</g>
		<g>
			<polygon style="fill:#7B7C7B;" points="1834.1,1098.1 1833.1,1098.8 1876.1,1196.2 1877.1,1195.5 			"/>
		</g>
		<g>
			<polygon style="fill:#7B7C7B;" points="1833.5,1098.7 1832.5,1099 1854.7,1207.8 1855.8,1207.4 			"/>
		</g>
		<g>
			<rect x="1831.8" y="1099.1" style="fill:#7B7C7B;" width="1.1" height="112.6"/>
		</g>
		<g>
			<polygon style="fill:#7B7C7B;" points="1832.1,1099.2 1831.1,1098.9 1808.8,1207.6 1809.8,1208 			"/>
		</g>
		<g>
			<polygon style="fill:#7B7C7B;" points="1831.4,1099.1 1830.4,1098.4 1787.4,1195.9 1788.4,1196.6 			"/>
		</g>
		<g>
			<polygon style="fill:#7B7C7B;" points="1830.7,1098.8 1829.9,1097.8 1769.1,1177.4 1769.9,1178.4 			"/>
		</g>
		<g>
			<polygon style="fill:#7B7C7B;" points="1830.1,1098.2 1829.5,1097 1755.1,1153.3 1755.6,1154.5 			"/>
		</g>
		<g>
			<polygon style="fill:#7B7C7B;" points="1829.6,1097.5 1829.3,1096.1 1746.3,1125.3 1746.5,1126.6 			"/>
		</g>
		<g>
			<rect x="1743.3" y="1095.2" style="fill:#7B7C7B;" width="86" height="1.4"/>
		</g>
		<g>
			<polygon style="fill:#7B7C7B;" points="1829.2,1095.7 1829.4,1094.3 1746.4,1065.2 1746.1,1066.5 			"/>
		</g>
		<g>
			<polygon style="fill:#7B7C7B;" points="1829.2,1094.7 1829.8,1093.5 1755.3,1037.2 1754.8,1038.4 			"/>
		</g>
		<g>
			<polygon style="fill:#7B7C7B;" points="1829.5,1093.8 1830.3,1092.8 1769.5,1013.2 1768.7,1014.2 			"/>
		</g>
		<g>
			<polygon style="fill:#7B7C7B;" points="1829.9,1093 1830.9,1092.3 1787.9,994.8 1786.9,995.5 			"/>
		</g>
		<g>
			<polygon style="fill:#7B7C7B;" points="1830.5,1092.4 1831.5,1092 1809.3,983.3 1808.2,983.7 			"/>
		</g>
	</g>
	<g>
		<path style="fill:#0B0949;" d="M1733,1098.6c0,72.7,45,131.6,100.5,131.6c55.5,0,100.5-58.9,100.5-131.6
			c0-72.7-45-131.6-100.5-131.6C1778,967,1733,1025.9,1733,1098.6z M1748.4,1098.6c0-61.5,38.1-111.4,85.1-111.4
			c47,0,85.1,49.9,85.1,111.4c0,61.5-38.1,111.4-85.1,111.4C1786.5,1210,1748.4,1160.1,1748.4,1098.6z"/>
	</g>
	<path style="fill:#6D72A0;" d="M1825,1095.9c0,5.8,3,10.6,6.6,10.6c3.7,0,6.6-4.7,6.6-10.6c0-5.8-3-10.6-6.6-10.6
		C1827.9,1085.3,1825,1090.1,1825,1095.9z"/>
	<path style="fill:#F9C29D;" d="M1553.8,1187.2h128.5c4,0,7.3-3.3,7.3-7.3s-3.3-7.3-7.3-7.3h-128.5c-4,0-7.3,3.3-7.3,7.3
		S1549.7,1187.2,1553.8,1187.2z"/>
	<path style="fill:#FBE9DC;" d="M1527.7,1187.2h99.4c4,0,7.3-3.3,7.3-7.3c0-4-3.3-7.3-7.3-7.3h-99.4c-4,0-7.3,3.3-7.3,7.3
		C1520.3,1183.8,1523.7,1187.2,1527.7,1187.2z"/>
	<g>
		<g>
			<g>
				<rect x="1685.4" y="1168.3" style="fill:#7B7C7B;" width="0.3" height="28.7"/>
			</g>
			<g>
				<polygon style="fill:#7B7C7B;" points="1685.5,1197 1685.8,1197 1691.5,1169.3 1691.2,1169.2 				"/>
			</g>
			<g>
				<polygon style="fill:#7B7C7B;" points="1685.7,1197 1686,1197.2 1696.9,1172.3 1696.7,1172.1 				"/>
			</g>
			<g>
				<polygon style="fill:#7B7C7B;" points="1685.9,1197.1 1686.1,1197.3 1701.6,1177 1701.4,1176.8 				"/>
			</g>
			<g>
				<polygon style="fill:#7B7C7B;" points="1686.1,1197.2 1686.2,1197.5 1705.2,1183.2 1705.1,1182.9 				"/>
			</g>
			<g>
				<polygon style="fill:#7B7C7B;" points="1686.2,1197.4 1686.2,1197.7 1707.4,1190.3 1707.4,1190 				"/>
			</g>
			<g>
				<rect x="1686.3" y="1197.6" style="fill:#7B7C7B;" width="21.9" height="0.4"/>
			</g>
			<g>
				<polygon style="fill:#7B7C7B;" points="1686.3,1197.9 1686.2,1198.2 1707.4,1205.6 1707.5,1205.3 				"/>
			</g>
			<g>
				<polygon style="fill:#7B7C7B;" points="1686.3,1198.1 1686.1,1198.4 1705.1,1212.8 1705.3,1212.5 				"/>
			</g>
			<g>
				<polygon style="fill:#7B7C7B;" points="1686.2,1198.3 1686,1198.6 1701.5,1218.9 1701.7,1218.7 				"/>
			</g>
			<g>
				<polygon style="fill:#7B7C7B;" points="1686.1,1198.5 1685.9,1198.7 1696.8,1223.6 1697.1,1223.4 				"/>
			</g>
			<g>
				<polygon style="fill:#7B7C7B;" points="1685.9,1198.7 1685.7,1198.8 1691.4,1226.5 1691.6,1226.4 				"/>
			</g>
			<g>
				<rect x="1685.5" y="1198.8" style="fill:#7B7C7B;" width="0.3" height="28.7"/>
			</g>
			<g>
				<polygon style="fill:#7B7C7B;" points="1685.6,1198.8 1685.3,1198.8 1679.6,1226.5 1679.9,1226.6 				"/>
			</g>
			<g>
				<polygon style="fill:#7B7C7B;" points="1685.4,1198.8 1685.2,1198.6 1674.2,1223.5 1674.4,1223.7 				"/>
			</g>
			<g>
				<polygon style="fill:#7B7C7B;" points="1685.2,1198.7 1685,1198.5 1669.5,1218.8 1669.7,1219 				"/>
			</g>
			<g>
				<polygon style="fill:#7B7C7B;" points="1685.1,1198.6 1684.9,1198.3 1665.9,1212.6 1666.1,1212.9 				"/>
			</g>
			<g>
				<polygon style="fill:#7B7C7B;" points="1684.9,1198.4 1684.9,1198.1 1663.7,1205.5 1663.8,1205.8 				"/>
			</g>
			<g>
				<rect x="1662.9" y="1197.8" style="fill:#7B7C7B;" width="21.9" height="0.4"/>
			</g>
			<g>
				<polygon style="fill:#7B7C7B;" points="1684.8,1197.9 1684.9,1197.6 1663.7,1190.2 1663.7,1190.5 				"/>
			</g>
			<g>
				<polygon style="fill:#7B7C7B;" points="1684.9,1197.7 1685,1197.4 1666,1183 1665.9,1183.3 				"/>
			</g>
			<g>
				<polygon style="fill:#7B7C7B;" points="1684.9,1197.5 1685.1,1197.2 1669.6,1176.9 1669.4,1177.2 				"/>
			</g>
			<g>
				<polygon style="fill:#7B7C7B;" points="1685,1197.3 1685.3,1197.1 1674.3,1172.2 1674.1,1172.4 				"/>
			</g>
			<g>
				<polygon style="fill:#7B7C7B;" points="1685.2,1197.1 1685.4,1197 1679.8,1169.3 1679.5,1169.4 				"/>
			</g>
		</g>
		<g>
			<g>
				<path style="fill:#0B0949;" d="M1660.3,1198.7c0,18.5,11.5,33.6,25.6,33.6c14.2,0,25.6-15,25.6-33.6c0-18.5-11.5-33.6-25.6-33.6
					C1671.8,1165.1,1660.3,1180.1,1660.3,1198.7z M1664.2,1198.7c0-15.7,9.7-28.4,21.7-28.4c12,0,21.7,12.7,21.7,28.4
					c0,15.7-9.7,28.4-21.7,28.4C1674,1227.1,1664.2,1214.4,1664.2,1198.7z"/>
				<path style="fill:#0B0949;" d="M1685.9,1234.6c-15.4,0-28-16.1-28-35.9c0-19.8,12.6-35.9,28-35.9c15.4,0,28,16.1,28,35.9
					C1713.9,1218.5,1701.4,1234.6,1685.9,1234.6z M1673,1224.7c3.7,3.3,8.1,5.2,12.9,5.2c4.8,0,9.2-1.9,12.9-5.2
					c-3.7,3-8.2,4.8-12.9,4.8C1681.2,1229.5,1676.8,1227.7,1673,1224.7z M1685.9,1172.6c-10.7,0-19.3,11.7-19.3,26.1
					c0,14.4,8.7,26.1,19.3,26.1c10.7,0,19.3-11.7,19.3-26.1C1705.3,1184.3,1696.6,1172.6,1685.9,1172.6z M1685.9,1167.9
					c4.7,0,9.2,1.8,12.9,4.8c-3.7-3.3-8.1-5.2-12.9-5.2c-4.8,0-9.2,1.9-12.9,5.2C1676.8,1169.7,1681.2,1167.9,1685.9,1167.9z"/>
			</g>
		</g>
		<path style="fill:#6D72A0;" d="M1680.4,1198.5c0,4.2,2.6,7.7,5.9,7.7c3.2,0,5.9-3.4,5.9-7.7c0-4.2-2.6-7.7-5.9-7.7
			C1683,1190.8,1680.4,1194.2,1680.4,1198.5z"/>
	</g>
	<g>
		<path style="fill:#FFB288;" d="M1744.1,984.5c-0.6,0.2-1.2,0.4-1.8,0.6C1743.4,984.7,1744.1,984.5,1744.1,984.5z"/>
	</g>
	<g>
		<path style="fill:#FFB288;" d="M1745.4,984.3c-0.6,0.2-1.2,0.4-1.8,0.6C1744.8,984.6,1745.4,984.3,1745.4,984.3z"/>
	</g>
	<g>
		<g>
			<g>
				<path style="fill:#000543;" d="M1773.5,794.2c0.6,0.8,1.3,1.7,2.1,2.5c4.9,4.8,13.5,7.1,18.1,12.1c4.5,4.9,4,11.2,1.4,16.6
					c-2.6,5.4-7.1,10.1-10.4,15.2c-1.1,1.7-2.1,3.5-2,5.4c0.2,4.8,3.3,8.3,7,12.4c5.7,6.4,7.4,15,1.8,21.2
					c-5.6,6.2-14.4,10.5-23.2,14.3c-7.3,3.1-15,6.1-23.5,6.7c-14.3,1-28.3-5-38.4-12.6c-16.1-12.2-25.1-29.1-24.1-45.6
					c0.7-12.2,6.6-24.2,3-36.2c-2.3-7.6-8.1-14.4-11.3-21.8c-5.1-12.1-2.6-25.6,6.8-35.9c3.3-3.7,7.2-5.2,11.8-7.7
					c6.8-3.7,6.4-4.2,9.8-9.8c4.4-7.3,11.8-6.7,23.2-4.7c21.6,3.9,47,17.3,49,34.1c1,8.8-4.2,18.3-3.5,26.6L1773.5,794.2z"/>
			</g>
			<g>
				<path style="fill:#943437;" d="M1786.1,820.2c0,0.3,0.1,0.6,0.1,0.8L1786.1,820.2z"/>
			</g>
		</g>
		<g>
			<path style="fill:#FFFFFF;" d="M1667.4,792.5C1667.4,792.6,1667.4,792.5,1667.4,792.5C1667.5,792.5,1667.4,792.5,1667.4,792.5z"
				/>
		</g>
		<g>
			<path style="fill:#FFB288;" d="M1733.3,1005.2c-0.6,0.3-1.3,0.5-1.9,0.7C1732.6,1005.4,1733.3,1005.2,1733.3,1005.2z"/>
		</g>
		<g>
			<path style="fill:#FFB288;" d="M1734.8,1005c-0.6,0.2-1.3,0.5-1.9,0.7C1734.1,1005.3,1734.8,1005,1734.8,1005z"/>
		</g>
		<g>
			<path style="fill:#FFFFFF;" d="M1693.4,793.8C1693.4,793.9,1693.4,793.8,1693.4,793.8C1693.4,793.8,1693.4,793.8,1693.4,793.8z"
				/>
		</g>
		<path style="fill:#91B4DE;" d="M1690.4,904c3.9-6.5,34.3-50.4,40.1-65.2c8-20.3-29.3-15.4-38,3.7c-5,11.1-13,33.2-20.1,47.8
			c-1.6,3.3-8.5,21.7-10.3,25.4l6.4,6c2,1.9,6.6,0.6,11.5-3.5C1685.3,913.7,1687.2,909.3,1690.4,904z"/>
		<path style="fill:#FF9985;" d="M1689.5,902.2c-9.9-7.8-15.1-2.6-56.8,3.2c-55,7.6-53.7,8.7-51.5,13.6c0.3,0.7,3.8,2.9,15.2,3.2
			c17.9,0.5,69.5,4.8,92.5-3.5C1692.5,917.4,1697,908.1,1689.5,902.2z"/>
		<g>
			<g>
				<g>
					<path style="fill:#FF9985;" d="M1584.7,900.2c-0.9,0.8-1.1,2.1-0.4,2.8l6.5,6.7c0.7,0.7,2.1,0.7,3-0.1s1.1-2.1,0.4-2.8
						l-6.5-6.7C1586.9,899.3,1585.6,899.4,1584.7,900.2z"/>
				</g>
			</g>
			<g>
				<path style="fill:#FF9985;" d="M1580.7,923.9c-1.5-0.5-3-1.2-3.7-2.3c-0.5-0.8-0.5-1.8-0.3-2.8c0.3-2.5,1-4.9,2.1-7.4
					c1-2.3,2.8-4.8,6.2-5.7c3.3-0.9,6.4-0.3,8.7,1c4.3,2.5,5.8,3.4,7.1,7.2c1.6,4.8-0.6,9-8.6,9.7
					C1588.2,924.1,1584.1,925.1,1580.7,923.9z"/>
			</g>
			<g>
				<g>
					<path style="fill:#FF9985;" d="M1584.8,909.2l-15.7,1.7c-1.1,0.1-1.8-0.6-1.7-1.6c0.1-1,1.1-1.9,2.1-2l15.7-1.7
						c1.1-0.1,1.8,0.6,1.7,1.6C1586.8,908.1,1585.8,909,1584.8,909.2z"/>
				</g>
			</g>
			<g>
				<g>
					<path style="fill:#FF9985;" d="M1582.6,914.2l-15.7,1.7c-1.1,0.1-1.8-0.6-1.7-1.6c0.1-1,1.1-1.9,2.1-2l15.7-1.7
						c1.1-0.1,1.8,0.6,1.7,1.6C1584.7,913.2,1583.7,914.1,1582.6,914.2z"/>
				</g>
			</g>
			<g>
				<g>
					<path style="fill:#FF9985;" d="M1584.2,919.4l-15.7,1.7c-1.1,0.1-1.8-0.6-1.7-1.6c0.1-1,1.1-1.9,2.1-2l15.7-1.7
						c1.1-0.1,1.8,0.6,1.7,1.6C1586.2,918.4,1585.2,919.3,1584.2,919.4z"/>
				</g>
			</g>
			<g>
				<g>
					<path style="fill:#FF9985;" d="M1587.6,923.2l-15.7,1.7c-1.1,0.1-1.8-0.6-1.7-1.6c0.1-1,1.1-1.9,2.1-2l15.7-1.7
						c1.1-0.1,1.8,0.6,1.7,1.6C1589.6,922.2,1588.7,923.1,1587.6,923.2z"/>
				</g>
			</g>
		</g>
		<path style="fill:#F75B37;" d="M1768.4,980.1c-17.7-3.6-141.2-4.5-165.1,8.9c-11.3,6.3-16.1,15.4-19.1,31.5
			c4.1,5.9,10.8,9.4,18.2,11.6h142.2c10.1-4.7,18.1-13.6,21.5-25l2-7.3C1769.4,995.8,1772.4,981.1,1768.4,980.1z"/>
		<g>
			<path style="fill:#FF9985;" d="M1588.8,1145.6c0,0,17-95.8,19.6-110.3c1.4-8.2,0.1-16-3.8-22.1c-1.4-2.1-2.8-4.4-4.3-6.5
				c-3.6-5.4-12.5-2.5-14.5,4.9c-9,31.9-9.6,108.7-8.8,134H1588.8z"/>
			<path style="fill:#FF9985;" d="M1623.7,1145.6c3.2-30,17.7-96.2,20.2-110.7c1.4-8.2,0.1-16-3.8-22.1c-1.4-2.1-2.8-4.4-4.3-6.5
				c-3.6-5.4-12.5-2.5-14.5,4.9c-9,32.1-9.6,109.7-8.8,134.5H1623.7z"/>
		</g>
		<g>
			<path style="fill:#000543;" d="M1601.3,1165.4l1.9-3.6c15.9-5.3,20-15.2,20.9-21.8l9.1,5.4c0.8,0.5,0.6,1.9-0.5,2.9l-22.5,21.4
				C1604.4,1175.3,1597.7,1172.1,1601.3,1165.4z"/>
			<path style="fill:#FF9985;" d="M1603.3,1161.8l12.6-23.2c0.7-1.3,2.3-2.1,3.2-1.6l5.1,3.1
				C1623.3,1146.6,1619.1,1156.5,1603.3,1161.8z"/>
		</g>
		<g>
			<path style="fill:#000543;" d="M1566.3,1165.2l1.9-3.6c15.9-5.3,20-15.2,20.9-21.8l9.1,5.4c0.8,0.5,0.6,1.9-0.5,2.9l-22.5,21.4
				C1569.4,1175.2,1562.7,1171.9,1566.3,1165.2z"/>
			<path style="fill:#FF9985;" d="M1568.3,1161.6l12.6-23.2c0.7-1.3,2.3-2.1,3.2-1.6l5.1,3.1
				C1588.3,1146.5,1584.1,1156.3,1568.3,1161.6z"/>
		</g>
		<path style="fill:#91B4DE;" d="M1764.3,867.6c-3.1,13.4-7.2,25.5-8.6,39.1c-0.2,1.7-0.3,3.4-0.3,5c-23.6,1.1-48,4-70.2-4.4
			c1.9-9.8,3.4-11.7,2.8-21.4c-0.6-10,1.2-32.5,3.4-37.5c3-6.5,8.1-11.2,13.8-15.5c14.8-11.1,26.4-10.8,36.6-6.8
			c5,2,17.8,8.2,21.7,11.8C1781.5,854.7,1764.3,867.6,1764.3,867.6z"/>
		<path style="fill:#91B4DE;" d="M1680.5,937.3c0.7-6,1.4-11.4,2.1-16.1c24.1,7.3,49.2,7.6,74.3,4.7c1,4,2.3,7.7,3.7,11.4
			C1734,941.6,1706.7,943,1680.5,937.3z"/>
		<path style="fill:#FFFFFF;" d="M1679,952.6c0.5-5.4,1-10.5,1.5-15.2c26.2,5.7,53.5,4.3,80.2,0.1c1.3,3.4,2.8,6.9,4.2,10.4
			C1736.6,956.5,1707.4,957.5,1679,952.6z"/>
		<path style="fill:#91B4DE;" d="M1679,952.6c28.4,4.9,57.6,3.9,85.8-4.8c1.7,4.3,3.3,8.7,4.5,13.6c2.1,8.7,7.2,30.8-4.5,30
			c-11.9-0.8-24.4,4-42.8,1.7c-20.8-2.5-22.9,0.2-35.1-2.6c-4.3-1-9.9-2.6-9.8-6.8C1677.6,972.3,1678.2,961.9,1679,952.6z"/>
		<path style="fill:#FFFFFF;" d="M1682.6,921.2c0.6-3.6,1.2-6.9,1.8-9.8c0.3-1.6,0.5-3,0.8-4.2c22.2,8.4,46.7,5.5,70.2,4.4
			c-0.1,5.2,0.5,9.9,1.6,14.4C1731.8,928.8,1706.7,928.5,1682.6,921.2z"/>
		<g>
			<path style="fill:#FF9985;" d="M1734.2,834.4c-1.5,3.5-4.5,6.2-7.5,8.5c-3.2,2.4-6.7,4.5-10.6,5.4c-2.4,0.6-5,0.6-7.3-0.2
				c-2.3-0.9-4.3-2.7-4.9-5.1c-0.3-1.4-0.2-2.9,0.2-4.3c0.9-3.7,3.2-8.4,6.2-10.8c3-2.3,5.3-2.8,9-3.8c3.1-0.9,9.8-1,12.6,1
				C1735,827.3,1735.5,831.3,1734.2,834.4z"/>
		</g>
		<g>
			<g>
				<g>
					<g>
						<g>
							<path style="fill:#FF9985;" d="M1735.2,765c5.1,7.2,11.6-2,9.6,8.2l-2.7,14.2c-3.4,17.7-17.1,27-31.8,23.9
								c-14.8-3-25.2-17.2-21.8-35l3.2-16.7c1.6-8.4,7.1-14,14.3-14.2c3.4-0.1,6.7,1.3,9.3,3.4L1735.2,765z"/>
						</g>
					</g>
				</g>
				<path style="fill:#000543;" d="M1750.5,736.7c0,0,7.4,6.1,9.9,16.5c2.5,10.1-0.2,21.3-6.2,29.8c0,0-11.3,13.3-16.1,19.8
					c-0.7,0.9-6.8,5.3-6.3,4.3c16.5-32-8.5-28.1,4.1-47.9L1750.5,736.7z"/>
				<g>
					<g>
						<path style="fill:#FF9985;" d="M1738.7,773.5c-4.6-0.9-9.2,3.1-10.3,9c-1.1,5.9,1.7,11.5,6.2,12.4c4.6,0.9,9.2-3.1,10.3-9
							C1746,780,1743.2,774.5,1738.7,773.5z"/>
					</g>
				</g>
				<path style="fill:#FF9985;" d="M1721.9,785.7l13.2,2.7c1.8,0.4,2.8,3,2.3,5.8l-7.4,38.1c-1.5,7.9-6.8,11-12.3,10
					c-5.5-1-9.1-5.8-7.6-13.7l7.5-38.5C1718.2,787.3,1720.1,785.3,1721.9,785.7z"/>
			</g>
			<g>
				<path style="fill:#000543;" d="M1691.5,758l6.5,1.2c0.9,0.2,1.6,1.1,1.4,2c-0.2,0.9-1.1,1.6-2,1.4l-6.5-1.2
					c-0.9-0.2-1.6-1.1-1.4-2C1689.7,758.5,1690.6,757.8,1691.5,758z"/>
			</g>
			<g>
				<path style="fill:#000543;" d="M1718.5,763l6.5,1.2c0.9,0.2,1.6,1.1,1.4,2c-0.2,0.9-1.1,1.6-2,1.4l-6.5-1.2
					c-0.9-0.2-1.6-1.1-1.4-2C1716.7,763.5,1717.6,762.8,1718.5,763z"/>
			</g>
			<g>
				<path style="fill:#FA694F;" d="M1700.5,779.6l0.3-0.4c0,1.1,0.5,2.1,1.5,2.7l2.6,1.2c0.9,0.4,1.8,0.2,2.4-0.4l0,0.3
					c0,1.6-1.7,2.7-3.1,2l-2.6-1.2C1700,783,1699.5,781,1700.5,779.6z"/>
			</g>
			<g>
				<path style="fill:#FFFFFF;" d="M1710.1,792.3c-0.6,1.4-2.1,2.9-6.2,2.4c-3.9-1.1-4.7-3.1-4.7-4.6L1710.1,792.3z"/>
			</g>
			<g>
				<path style="fill:#000544;" d="M1690.9,766l2.7,0.8c0.1,0.1,0.2,0,0.3,0c1,0.2,1.6,1.6,1.3,3.1c-0.3,1.5-1.3,2.6-2.3,2.4
					c-1-0.2-1.6-1.6-1.3-3.1c0.1-0.5,0.3-0.9,0.5-1.2L1690.9,766z"/>
			</g>
			<g>
				<path style="fill:#000544;" d="M1719.1,771.7c-0.2,0-2.9-0.7-2.9-0.7l1.2,1.8c-0.2,0.4-0.5,0.8-0.6,1.4
					c-0.3,1.5,0.3,2.9,1.3,3.1c1,0.2,2-0.9,2.3-2.4C1720.6,773.3,1720,771.9,1719.1,771.7z"/>
			</g>
		</g>
		<path style="fill:#91B4DE;" d="M1801.7,903.8c-1.5-6.2-22.9-44.2-31.2-58.3c-11.4-19.3-43.6-13.4-34.8,4.7
			c5.1,10.5,15.5,26.7,21.5,40.6c1.3,3.1,12.1,20.6,13.6,24.1l17.2,5.7c5.3,1.8,11.1,0.6,14-3.4
			C1805.1,913,1802.9,908.9,1801.7,903.8z"/>
		<path style="fill:#FF9985;" d="M1795.8,902.5c-22.3-4.4-68.6,7.1-84.9,10.2c-10.3,2-13.2,4.5-13.4,5.2c-1.2,4.9-2.2,6.1,49.1,5.3
			c39-0.6,44.5,3.6,52.3-5.2C1804.9,911.3,1799.3,903.2,1795.8,902.5z"/>
		<g>
			<g>
				<g>
					<path style="fill:#FF9985;" d="M1707,901.5c-0.9,0.8-1.1,2.1-0.4,2.8l6.5,6.7c0.7,0.7,2.1,0.7,3-0.1c0.9-0.8,1.1-2.1,0.4-2.8
						l-6.5-6.7C1709.3,900.6,1707.9,900.7,1707,901.5z"/>
				</g>
			</g>
			<g>
				<path style="fill:#FF9985;" d="M1703.1,925.2c-1.5-0.5-3-1.2-3.7-2.3c-0.5-0.8-0.5-1.8-0.3-2.8c0.3-2.5,1-4.9,2.1-7.4
					c1-2.3,2.8-4.8,6.2-5.7c3.3-0.9,6.4-0.3,8.7,1c4.3,2.5,5.8,3.4,7.1,7.2c1.6,4.8-0.6,9-8.6,9.7
					C1710.5,925.4,1706.4,926.3,1703.1,925.2z"/>
			</g>
			<g>
				<g>
					<path style="fill:#FF9985;" d="M1707.1,910.4l-15.7,1.7c-1.1,0.1-1.8-0.6-1.7-1.6c0.1-1,1.1-1.9,2.1-2l15.7-1.7
						c1.1-0.1,1.8,0.6,1.7,1.6C1709.1,909.4,1708.2,910.3,1707.1,910.4z"/>
				</g>
			</g>
			<g>
				<g>
					<path style="fill:#FF9985;" d="M1705,915.5l-15.7,1.7c-1.1,0.1-1.8-0.6-1.7-1.6c0.1-1,1.1-1.9,2.1-2l15.7-1.7
						c1.1-0.1,1.8,0.6,1.7,1.6C1707,914.5,1706,915.4,1705,915.5z"/>
				</g>
			</g>
			<g>
				<g>
					<path style="fill:#FF9985;" d="M1706.5,920.7l-15.7,1.7c-1.1,0.1-1.8-0.6-1.7-1.6c0.1-1,1.1-1.9,2.1-2l15.7-1.7
						c1.1-0.1,1.8,0.6,1.7,1.6C1708.5,919.7,1707.6,920.6,1706.5,920.7z"/>
				</g>
			</g>
			<g>
				<g>
					<path style="fill:#FF9985;" d="M1709.9,924.5l-15.7,1.7c-1.1,0.1-1.8-0.6-1.7-1.6c0.1-1,1.1-1.9,2.1-2l15.7-1.7
						c1.1-0.1,1.8,0.6,1.7,1.6C1712,923.5,1711,924.4,1709.9,924.5z"/>
				</g>
			</g>
		</g>
	</g>
	<path style="fill:#F9C29D;" d="M1712.5,935.2h90.1c2.4,0,4.3-2,4.3-4.3v-4.5c0-2.4-2-4.3-4.3-4.3h-90.1c-2.4,0-4.3,2-4.3,4.3v4.5
		C1708.1,933.2,1710.1,935.2,1712.5,935.2z"/>
</g>
<g>
	<path style="fill:#000543;" d="M1186.8,737.5c-1.1-2.1-2.3-4.3-2.8-6.7c-0.5-2.4-0.3-5,1.1-7c1-1.4,2.5-2.3,3.5-3.7
		c1.1-1.6,1.4-3.7,2-5.5c1.4-4,5-7.1,9-7.8c1.5-0.3,3.1-0.3,4.6-0.6c2.6-0.6,5-2.5,7.7-2.8c4.4-0.5,8.1,3.1,12.4,3.9
		c4.7,0.9,9.8-1.6,14.1,0.6c2.2,1.2,3.7,3.6,6,4.8c3.3,1.8,8,1,10.4,3.9c1.9,2.2,1.6,5.5,2.7,8.3c1.7,4.4,6.8,6.9,7.8,11.5
		c1,4.3-2,8.5-2.1,12.9c-0.1,3.4,1.6,6.9,0.9,10.2c-1.1,4.8-6.8,7.2-8,12c-0.4,1.5-0.3,3-0.7,4.5c-1.2,3.9-5.6,5.4-8.5,8.2
		c-1.5,1.5-2.6,3.4-4.1,4.9c-1.5,1.5-7.1,5.2-9.1,4.8c1.1-8.3,6.4-19.1,8.8-27.1c1.6-5.4,3.6-10.8,3.9-16.5c0.2-3-0.1-6.3-2-8.7
		c-1.1-1.3-2.5-2.2-4-3.1c-2.4-1.4-4.7-2.9-7.1-4.3c-4.8-2.9-9.7-5.9-15.1-7.7c-5.4-1.7-11.3-2.1-16.5,0s-9.4,7.3-9.7,13.1
		c-0.1,2,1.6,6.2-1.2,4.8C1189,743.4,1187.8,739.4,1186.8,737.5z"/>
	<polygon style="fill:#FF9985;" points="1287.3,914.2 1284.8,892.7 1309,894.6 1310.6,913.8 	"/>
	<polygon style="fill:#FF9985;" points="1148.5,898.6 1156.6,867.7 1180.7,880.2 1171.4,907.3 	"/>
	<g>
		<path style="fill:#D7E1FC;" d="M1153.6,859.7c3.8-16.8,8-27.4,13.8-31.5c6-4.3,26.8,0.8,27.1,2.1c2.9,11.6-1.7,22.6-7.2,33.1
			c-2.1,4.1-4.2,17.3-6.1,24.1c-0.5,1.8-2.2,2.8-4,2.5l-23.5-4.8c-3.1,0-5.5-2.8-4.9-5.9C1150.3,872.5,1152.1,864,1153.6,859.7z"/>
	</g>
	<g>
		<path style="fill:#4DB4E8;" d="M1170.7,1047.9c2.1,17.9,6.5,35.7,6,53.7c-0.2,5.1-0.7,10.2,0.3,15.2c1.5,7.2,6.1,13.5,7.2,20.8
			c1.1,6.8-0.9,13.8-0.4,20.7c0.6,7.4,4.1,14.1,8,20.3c0.8,1.3,2.7,0.6,2.7-0.9c-1.1-33.6-1.7-67.2-1.2-100.8v-99.4
			c-3.8-1.2-7.7-2-11.4-3.5c-1-0.4-2-0.9-2.5-1.8c-0.7-1.4,0.2-3.3-0.5-4.8c-3.2-7.3-4.7,7.9-4.8,8.6c-1,8.1-3.1,16.1-3.9,24.3
			C1168.7,1016.1,1168.8,1032.1,1170.7,1047.9z"/>
		<path style="fill:#4DB4E8;" d="M1256.3,1054.6c1.3,7.4,4.7,14.1,6.9,21.2c3.1,10,4.1,20.8,7.7,30.6c2.5,6.9,6.3,13,9.6,19.5
			c7.8,15.4,12.9,32.5,14.9,50.1c-11.8-27.9-26.1-54.4-42.6-79.1c-7.8-11.6-16.5-24-16.9-38.6c-0.2-8.6,2.5-16.9,5.2-25
			c4.8-14.4,9.7-28.9,16.9-42c3.2-5.8,8.9-21.5,11.8-12.8c1.8,5.6-3.7,25.1-5.3,30.4C1259.9,1023.6,1253.4,1038.8,1256.3,1054.6z"/>
		<path style="fill:#FF9985;" d="M1210.7,1169.5c0.7,3.8,1.3,7.5,2.1,11c6.2,31.1-9,26.6-11.5,13c-1.3-6.8-2.5-13.7-3.7-20.6
			c0.9,0.7,1.8,1.4,2.7,1.9C1204.2,1176.2,1208.4,1174,1210.7,1169.5z"/>
		<path style="fill:#4DB4E8;" d="M1173.1,976.2c1.8-2.7,4.6-4.2,7.7-4.2h35l2.3,0.1l1.7,2.2l-0.1,9c-6.5,47.4-7.5,135.8,3.1,193.9
			c0.5,2.6-1.4,5-4,5c-2.5,0-7.4-0.1-19.6-0.5c-5.2-0.2-9.5-4.1-10.3-9.4c-3.8-24.7-7.2-49.8-10.1-78.3c-5.2-50.4-7.2-94.4-7.3-112
			C1171.5,979.9,1172,977.9,1173.1,976.2z"/>
		<path style="fill:#FF9985;" d="M1283.4,1168.5c1.4,3.8,2.7,7.5,4.1,11c11.9,31-3.9,27.7-9,14.1c-2.5-6.8-5-13.7-7.4-20.5
			c1,0.6,2,1.2,3,1.7C1278.3,1175.9,1282,1173.3,1283.4,1168.5z"/>
		<path style="fill:#4DB4E8;" d="M1218.8,971.9l0.9-3.5h38l0.5,0.3c0.8,0.1,2.6,0.3,3.6,0.4c2.5,0.2,3.4,0.3,4.1,0.5l4.5,1.4
			l-3.4,11.1c-22.3,72.8-22.3,72.8-2.4,118.2c15.9,36.2,22,48.1,30.6,75c1.3,4-1.5,8.1-5.4,8.2l-18,0.5c-4.1,0.1-7.9-2.3-9.7-6.1
			c-29.2-62.4-45.7-81.8-48.9-109.9C1209.3,1034,1211.2,1000.8,1218.8,971.9z"/>
		<g>
			<path style="fill:#1E297C;" d="M1271.9,1184.6c-4.3,0-8.3-2.6-10.2-6.6c-10.3-22-19.1-38.8-26.2-52.3
				c-12.9-24.7-20.7-39.5-22.8-57.8c-2.8-24.3-2.6-47.9,0.5-70.4l-10-5c-0.4-0.2-0.6-0.7-0.4-1.1c0.2-0.4,0.7-0.6,1.1-0.4l10.6,5.3
				c0.3,0.2,0.5,0.5,0.5,0.9c-3.2,22.5-3.4,46.2-0.5,70.5c2.1,18,9.8,32.7,22.6,57.2c7.1,13.5,15.9,30.3,26.2,52.4
				c1.7,3.5,5.2,5.8,8.9,5.7c0.4,0,0.8,0.4,0.8,0.8c0,0.5-0.3,0.9-0.8,0.9C1272.1,1184.6,1272,1184.6,1271.9,1184.6z"/>
		</g>
	</g>
	<g>
		<g>
			<path style="fill:#D7E1FC;" d="M1219.1,852.9c18.9-5.4,28.3-20.3,34.5-37.5c-5.1-2.3-9.7-4.2-12.9-5.4
				c-4.4-1.7-25.5-4.3-35.5-2.4c-5,0.9-10,2.1-14.8,3.8C1188.9,831.9,1197.4,859.4,1219.1,852.9z"/>
			<path style="fill:#D7E1FC;" d="M1178.9,816.8c-7.9,4.8-14.7,11.9-19.2,22.7c-2.5,6,4.8,25.3,7,31.4c5.6,15.1,8.5,24.5,9.8,31.1
				C1184.2,874.7,1179.4,845.4,1178.9,816.8z"/>
			<path style="fill:#D7E1FC;" d="M1285.8,835.9c-3.2-5.1-12.5-10.8-22.2-15.8c-6.9,30.4-8.9,61.7,7,88.7
				c1.9-19.6,5.4-35.9,6.6-58.4C1275,849.3,1287.1,838.1,1285.8,835.9z"/>
			<path style="fill:#4DB4E8;" d="M1263.5,820.1c-3.3-1.7-6.7-3.3-9.9-4.7c-6.2,17.2-15.6,32.1-34.5,37.5
				c-21.7,6.5-30.2-21.1-28.7-41.5c-4,1.4-7.8,3.1-11.5,5.4c0.5,28.6,5.2,57.8-2.4,85.3c3.8,19-5.5,14.6-3.4,51.2
				c1.4,11.9-2.9,25.6-1.1,28.1c3.5,4.8,12.6-3.5,15.3-2.9c30,7.8,41.3-4.7,73.3,1.8c6.1,1.2,11.2-5.5,10.5-12
				c-2.7-25.3-2.2-43.5-0.6-59.4C1254.6,881.8,1256.6,850.5,1263.5,820.1z"/>
		</g>
	</g>
	<g>
		<g>
			<g>
				<path style="fill:#FF9985;" d="M1229.4,831c1.7-2.2,3.3-4.5,5-6.7c1.9-2.5,1.8-6.2-0.2-8.2c-4.2-4.1-9.4-6.7-14.9-5.7
					c-5.5,1-14.9,6.4-12.3,13.1c1.2,3.2,1.7,4.5,2.2,5.7C1213,838.1,1223.5,839,1229.4,831z"/>
			</g>
		</g>
	</g>
	<g>
		<path style="fill:#D7E1FC;" d="M1261.5,856.6c-10.2-18.5,14.9-36,26.8-18.3c10.4,15.5,21.7,42.8,25,55.9c0.8,3.1-1.6,6.1-4.8,6.1
			l-18.6,6.9c-2.8,1.1-6-0.2-7.3-3C1274.3,886.1,1267.8,868,1261.5,856.6z"/>
	</g>
	<path style="fill:#FF9985;" d="M1308.7,908.8c-1.4-1.1-7.9-3.5-15-2.5c-3.5,0.5-6.4,3.6-7,7.5c-0.5,3.1-0.8,6.4-0.6,9.4
		c0.3,4.6-0.1,9.3-0.7,13.9c-1.7,12.8-2.5,24.4-5,35.7c-0.4,1.7-0.6,3.1-0.8,4.4l8.1,6.2C1292.6,972.5,1316.8,915,1308.7,908.8z"/>
	<g>
		<g>
			<path style="fill:#FF9985;" d="M1269.7,988.3c0.6,0.7,1.6,0.8,2.3,0.2l6.3-5.2c0.7-0.6,0.8-1.6,0.2-2.3c-0.6-0.7-1.6-0.8-2.3-0.2
				l-6.3,5.2C1269.2,986.6,1269.1,987.6,1269.7,988.3z"/>
		</g>
		<path style="fill:#FF9985;" d="M1289,990.6c-0.7,1.3-1.4,2.5-2.4,3c-0.8,0.4-1.6,0.5-2.4,0.4c-2.1-0.1-4.1-0.5-6.1-1.3
			c-1.8-0.7-3.7-2-4.1-4.6c-0.3-2.5,0.6-5.1,2-7c2.7-3.6,3.7-4.8,7.1-6.1c4.3-1.6,7.6,0,7.2,6.3
			C1290.2,984.6,1290.4,987.8,1289,990.6z"/>
		<g>
			<path style="fill:#FF9985;" d="M1276.9,988.1l-0.6,12.4c0,0.8-0.8,1.5-1.6,1.5c-0.8,0-1.5-0.8-1.5-1.6l0.6-12.4
				c0-0.8,0.8-1.5,1.6-1.5C1276.3,986.6,1276.9,987.3,1276.9,988.1z"/>
		</g>
		<g>
			<path style="fill:#FF9985;" d="M1281,989.6l-0.6,12.4c0,0.8-0.8,1.5-1.6,1.5c-0.8,0-1.5-0.8-1.5-1.6l0.6-12.4
				c0-0.8,0.8-1.5,1.6-1.5C1280.3,988,1281,988.7,1281,989.6z"/>
		</g>
		<g>
			<path style="fill:#FF9985;" d="M1285.6,988.1l-0.6,12.4c0,0.8-0.8,1.5-1.6,1.5c-0.8,0-1.5-0.8-1.5-1.6l0.6-12.4
				c0-0.8,0.8-1.5,1.6-1.5C1285,986.5,1285.7,987.2,1285.6,988.1z"/>
		</g>
		<g>
			<path style="fill:#FF9985;" d="M1289.3,985.1l-0.6,12.4c0,0.8-0.8,1.5-1.6,1.5c-0.8,0-1.5-0.8-1.5-1.6l0.6-12.4
				c0-0.8,0.8-1.5,1.6-1.5C1288.7,983.6,1289.3,984.3,1289.3,985.1z"/>
		</g>
	</g>
	<g>
		<path style="fill:#FF9985;" d="M1128,856.9c-1-1.4-2-2.5-2.8-3.4l-10.5,3c5,11,32.4,68.2,42.8,65.2c1.8-0.5,8.3-4.5,12.4-11.2
			c2.1-3.4,2.1-6.1-0.5-9.1C1166.4,897.8,1146.4,882.8,1128,856.9z"/>
	</g>
	<g>
		<g>
			<path style="fill:#FF9985;" d="M1122.8,838.7c-0.9,0-1.6,0.7-1.6,1.7l0.1,8.1c0,0.9,0.7,1.6,1.7,1.6c0.9,0,1.6-0.7,1.6-1.7
				l-0.1-8.1C1124.5,839.4,1123.7,838.7,1122.8,838.7z"/>
		</g>
		<path style="fill:#FF9985;" d="M1108.8,852.2c-0.6-1.3-1-2.7-0.8-3.8c0.2-0.9,0.7-1.5,1.2-2.1c1.4-1.5,3-2.8,4.8-3.9
			c1.7-1,3.9-1.6,6.2-0.2c2.2,1.4,3.6,3.7,4.1,6c1.1,4.3,1.4,5.9,0.2,9.4c-1.6,4.3-4.8,5.9-9.4,1.6
			C1112.7,856.9,1110.1,855,1108.8,852.2z"/>
		<g>
			<path style="fill:#FF9985;" d="M1118.4,844.4l-9.2-8.3c-0.6-0.6-0.7-1.5-0.1-2.2c0.6-0.6,1.5-0.7,2.2-0.1l9.2,8.3
				c0.6,0.6,0.7,1.5,0.1,2.2C1120,844.9,1119,844.9,1118.4,844.4z"/>
		</g>
		<g>
			<path style="fill:#FF9985;" d="M1114.7,846.6l-9.2-8.3c-0.6-0.6-0.7-1.5-0.1-2.2c0.6-0.6,1.5-0.7,2.2-0.1l9.2,8.3
				c0.6,0.6,0.7,1.5,0.1,2.2C1116.3,847.1,1115.4,847.2,1114.7,846.6z"/>
		</g>
		<g>
			<path style="fill:#FF9985;" d="M1112.9,851.2l-9.2-8.3c-0.6-0.6-0.7-1.5-0.1-2.2c0.6-0.6,1.5-0.7,2.2-0.1l9.2,8.3
				c0.6,0.6,0.7,1.5,0.1,2.2C1114.5,851.7,1113.6,851.7,1112.9,851.2z"/>
		</g>
		<g>
			<path style="fill:#FF9985;" d="M1112.9,855.9l-9.2-8.3c-0.6-0.6-0.7-1.5-0.1-2.2c0.6-0.6,1.5-0.7,2.2-0.1l9.2,8.3
				c0.6,0.6,0.7,1.5,0.1,2.2C1114.4,856.4,1113.5,856.4,1112.9,855.9z"/>
		</g>
	</g>
	<g>
		<path style="fill:#FBE9DC;" d="M1277.3,1192l-16.3,5.5c-4,1.4-4.7,4.1-3.2,6.2l37.7-0.9l-2.5-8.3c-0.4-1.5-1.8-2.5-3.4-2.5H1277.3
			z"/>
		<path style="fill:#000543;" d="M1295.6,1202.9l0.4,1.4c0.3,0.9-0.8,1.7-2.2,1.7l-29.3,0.3c-3.2,0-5.5-1.1-6.6-2.6L1295.6,1202.9z"
			/>
		<path style="fill:#000543;" d="M1276.3,1196.4l1.1-0.3c0.2-0.1,0.3-0.3,0.3-0.5l-1.5-4.8c-0.1-0.2-0.3-0.3-0.5-0.3l-1.1,0.3
			c-0.2,0.1-0.3,0.3-0.3,0.5l1.5,4.8C1275.8,1196.4,1276.1,1196.5,1276.3,1196.4z"/>
		<path style="fill:#000543;" d="M1272,1197.6l1.1-0.3c0.2-0.1,0.3-0.3,0.3-0.5l-1.5-4.8c-0.1-0.2-0.3-0.3-0.5-0.3l-1.1,0.3
			c-0.2,0.1-0.3,0.3-0.3,0.5l1.5,4.8C1271.5,1197.6,1271.8,1197.7,1272,1197.6z"/>
		<path style="fill:#000543;" d="M1267.9,1199l1.1-0.3c0.2-0.1,0.3-0.3,0.3-0.5l-1.5-4.8c-0.1-0.2-0.3-0.3-0.5-0.3l-1.1,0.3
			c-0.2,0.1-0.3,0.3-0.3,0.5l1.5,4.8C1267.4,1198.9,1267.7,1199.1,1267.9,1199z"/>
	</g>
	<g>
		<path style="fill:#FBE9DC;" d="M1200,1191.1l-16.3,5.5c-4,1.4-4.7,4.1-3.2,6.2l37.7-0.9l-2.5-8.3c-0.4-1.5-1.8-2.5-3.4-2.5H1200z"
			/>
		<path style="fill:#000543;" d="M1218.3,1202l0.4,1.4c0.3,0.9-0.8,1.7-2.2,1.7l-29.3,0.3c-3.2,0-5.5-1.1-6.6-2.6L1218.3,1202z"/>
		<path style="fill:#000543;" d="M1199,1195.5l1.1-0.3c0.2-0.1,0.3-0.3,0.3-0.5l-1.5-4.8c-0.1-0.2-0.3-0.3-0.5-0.3l-1.1,0.3
			c-0.2,0.1-0.3,0.3-0.3,0.5l1.5,4.8C1198.5,1195.4,1198.8,1195.6,1199,1195.5z"/>
		<path style="fill:#000543;" d="M1194.7,1196.7l1.1-0.3c0.2-0.1,0.3-0.3,0.3-0.5l-1.5-4.8c-0.1-0.2-0.3-0.3-0.5-0.3l-1.1,0.3
			c-0.2,0.1-0.3,0.3-0.3,0.5l1.5,4.8C1194.2,1196.6,1194.5,1196.8,1194.7,1196.7z"/>
		<path style="fill:#000543;" d="M1190.6,1198.1l1.1-0.3c0.2-0.1,0.3-0.3,0.3-0.5l-1.5-4.8c-0.1-0.2-0.3-0.3-0.5-0.3l-1.1,0.3
			c-0.2,0.1-0.3,0.3-0.3,0.5l1.5,4.8C1190.2,1198,1190.4,1198.1,1190.6,1198.1z"/>
	</g>
	<g>
		<path style="fill:#1E297C;" d="M1225.8,931.1H1210c-8.1,0-14.6-6.6-14.6-14.6v-38.4c0-0.6,0.5-1.1,1.1-1.1h43
			c0.6,0,1.1,0.5,1.1,1.1v38.4C1240.4,924.6,1233.9,931.1,1225.8,931.1z M1197.5,879.2v37.3c0,6.9,5.6,12.5,12.5,12.5h15.9
			c6.9,0,12.5-5.6,12.5-12.5v-37.3H1197.5z"/>
	</g>
	<g>
		<g>
			<g>
				<g>
					<g>
						<path style="fill:#FF9985;" d="M1239.9,721.4c5.3,7,8,16.8,6.3,27.1l-4.1,26c-2.8,17.8-17.2,30.2-32.1,27.6
							c-14.8-2.6-24.6-19.3-21.8-37l6-37.6L1239.9,721.4z"/>
					</g>
				</g>
			</g>
			<path style="fill:#000543;" d="M1248.9,723.6c0,0,7.5,5.9,10.4,16.1c2.8,10,0.5,21.2-5.3,29.9c0,0-10.8,13.6-15.5,20.3
				c-0.7,0.9-6.7,5.5-6.2,4.4c15.5-32.4-9.3-27.8,2.7-47.9L1248.9,723.6z"/>
			<g>
				<path style="fill:#000543;" d="M1191.4,744.7l5.9,0.8c0.9,0.1,1.5,0.9,1.3,1.8c-0.1,0.9-0.9,1.5-1.8,1.3l-5.9-0.8
					c-0.9-0.1-1.5-0.9-1.3-1.8C1189.7,745.2,1190.5,744.6,1191.4,744.7z"/>
				<g>
					<path style="fill:#000543;" d="M1219.8,748.9l5.9,0.8c0.9,0.1,1.5,0.9,1.3,1.8c-0.1,0.9-0.9,1.5-1.8,1.3l-5.9-0.8
						c-0.9-0.1-1.5-0.9-1.3-1.8C1218.1,749.4,1218.9,748.8,1219.8,748.9z"/>
					<path style="fill:#000543;" d="M1191.6,758c-0.2,1.5,0.4,2.9,1.4,3c1,0.1,2-1,2.2-2.5c0.2-1.5-0.4-2.9-1.4-3
						C1192.8,755.4,1191.8,756.5,1191.6,758z"/>
					<path style="fill:#000543;" d="M1215.9,761.8c-0.2,1.5,0.4,2.9,1.4,3c1,0.1,2-1,2.2-2.5c0.2-1.5-0.4-2.9-1.4-3
						C1217.1,759.1,1216.1,760.2,1215.9,761.8z"/>
					<path style="fill:#FA694F;" d="M1200,768l0.3-0.5c0,1.2,0.6,2.4,1.8,2.9l2.9,1.3c1,0.4,2,0.1,2.7-0.6l0,0.3
						c0.1,1.8-1.7,3.2-3.4,2.4l-2.9-1.3C1199.6,771.7,1199,769.6,1200,768z"/>
					<path style="fill:#FFFFFF;" d="M1209.9,781.4c-0.6,1.6-1.9,3.4-5.6,3.2c-3.5-0.9-4.2-3.1-4.3-4.8L1209.9,781.4z"/>
				</g>
			</g>
			<g>
				<g>
					<path style="fill:#FF9985;" d="M1244.4,761.8c-4.6-0.8-9.1,3.4-10,9.3c-0.9,5.9,2,11.4,6.6,12.2c4.6,0.8,9.1-3.4,10-9.3
						C1252,768.1,1249,762.6,1244.4,761.8z"/>
				</g>
			</g>
			<g>
				<g>
					<path style="fill:#FF9985;" d="M1218.3,831.7c-5.6-0.9-10-2.8-8.9-9.7l7.1-43.4c0.4-2.5,2.3-4.3,4.1-4l13.6,2.4
						c1.9,0.3,3.1,2.7,2.7,5.2l-7.2,44.1C1228.5,833.3,1223.9,832.6,1218.3,831.7L1218.3,831.7z"/>
				</g>
			</g>
		</g>
		<g>
			<path style="fill:#000543;" d="M1190.6,750.1c0.2-1.8,1.6-8.3,2.3-10.1c0.8-2,2.1-3.4,3.7-4c2.7-1,5.6,0.5,8.7,2.1
				c1.2,0.6,2.4,1.2,3.6,1.7c0.3,0.1,0.6,0.3,1,0.4c1.8,0.8,4.9,2.1,8,2.7c3.3,0.5,6.6,0.4,8.6,0.3c0.4,0,0.8,0,1.1-0.1
				c1.3,0,2.6-0.2,3.9-0.3c3.4-0.4,6.7-0.7,8.9,1.1c1.3,1.1,2.1,2.9,2.1,5.1c0,1.7-1.5,8.8-1.9,10.7l3.2,1.2
				c2.8-5.1,8.7-16.1,9.5-22.4c0.3-2,0.3-4,0-6.1c-0.1-0.5-0.9-4.8-1.7-6.3c-1.6-3.3-3.6-5.6-5.9-7.2c-2.4-1.6-5.1-2.4-7.7-3.3
				l-14.9-4.7c-2.7-0.9-5.6-1.8-8.5-2.2c-3.2-0.5-6.5-0.5-9.8,0.1c-3.1,0.6-5.8,1.6-8,3c-4.6,3-8,8.5-9.2,15.1
				c-0.6,3.5-0.7,7-0.6,10.5C1187.3,741.8,1188.6,746.1,1190.6,750.1C1190.6,750,1190.6,750.1,1190.6,750.1z"/>
		</g>
	</g>
</g>
<g>
	<path style="fill:#FF9985;" d="M943.6,815.3l24.9,6.1l-7.1,21.2l-24.6-8.8c-4.8-1.7-7.2-6.8-5.1-11.2l1.1-2.4
		C934.6,816.3,939.2,814.2,943.6,815.3z"/>
	<path style="fill:#FFE5D4;" d="M971,816.3c13.7,2,20.9,3.3,53.5,8c1.5,0.2-11.2,22.7-10.5,31.3c-3.5-0.3-25,1.4-29,1.1l-23-6.8
		c-4.7-1.4-7.3-5.8-5.8-9.9l7.5-20C964.6,817.4,967.7,815.9,971,816.3C970.9,816.3,970.9,816.3,971,816.3z"/>
	<g>
		<g>
			<g>
				<path style="fill:#FF9985;" d="M917.2,750.2c0.3-0.1,2.2-1.7,4,0.2c2.5,2.6,4.3,8.8,6.2,14.2c2,5.5,4.4,12.9,6.9,20.7
					c2.9,9,5.9,18.2,8.7,26c1.6,4.4,1.6,9.2-0.2,13.6c-0.6,1.5-1.2,3.1-1.9,4.7c-1.6,3.9-7.1,4.1-9,0.4c-8.7-17.3-16.7-65.5-18-77.4
					C913.2,744.5,916.6,750.5,917.2,750.2z"/>
			</g>
		</g>
	</g>
	<g>
		<g>
			<g>
				<path style="fill:#FF9985;" d="M933.1,740c-0.8-0.6-2-0.6-2.6,0.1l-5.8,6.4c-0.6,0.7-0.5,1.8,0.3,2.4c0.8,0.6,2,0.6,2.6-0.1
					l5.8-6.4C934,741.7,933.9,740.6,933.1,740z"/>
			</g>
		</g>
		<g>
			<path style="fill:#FF9985;" d="M911.1,740.6c0.4-1.3,0.9-2.7,1.9-3.4c0.7-0.5,1.6-0.7,2.5-0.7c2.3-0.2,4.6,0,6.9,0.5
				c2.1,0.5,4.6,1.5,5.6,4.2c1,2.5,0.7,5.2-0.4,7.3c-2,3.9-2.7,5.3-6.2,7c-4.3,2.1-8.2,1-9.4-5.5
				C911.4,746.8,910.3,743.6,911.1,740.6z"/>
		</g>
		<g>
			<g>
				<path style="fill:#FF9985;" d="M924.9,741.6l-2.5-12.5c-0.2-0.9,0.4-1.6,1.4-1.7c0.9-0.1,1.8,0.6,2,1.4l2.5,12.5
					c0.2,0.9-0.4,1.6-1.4,1.7C926,743.1,925.1,742.4,924.9,741.6z"/>
			</g>
		</g>
		<g>
			<g>
				<path style="fill:#FF9985;" d="M920.1,740.6l-2.5-12.5c-0.2-0.8,0.4-1.6,1.4-1.7c0.9-0.1,1.8,0.6,2,1.4l2.5,12.5
					c0.2,0.9-0.4,1.6-1.4,1.7C921.2,742.1,920.3,741.5,920.1,740.6z"/>
			</g>
		</g>
		<g>
			<g>
				<path style="fill:#FF9985;" d="M916,742.6l-2.5-12.5c-0.2-0.9,0.4-1.6,1.4-1.7c0.9-0.1,1.8,0.6,2,1.4l2.5,12.5
					c0.2,0.8-0.4,1.6-1.4,1.7C917,744.1,916.1,743.5,916,742.6z"/>
			</g>
		</g>
		<g>
			<g>
				<path style="fill:#FF9985;" d="M912.2,746.1l-2.5-12.5c-0.2-0.8,0.4-1.6,1.4-1.7c0.9-0.1,1.8,0.6,2,1.4l2.5,12.5
					c0.2,0.8-0.4,1.6-1.4,1.7C913.3,747.6,912.4,747,912.2,746.1z"/>
			</g>
		</g>
	</g>
	<path style="fill:#FF9985;" d="M1003.6,1079c1.7,27.1,2.4,73.2,6.4,95.6c0.8,4.6,3.2,21.9,4.1,27.1h-12.1
		c-0.4-1.9-17-61.4-26-127.1C984.9,1076.7,994.5,1081.1,1003.6,1079z"/>
	<path style="fill:#FF9985;" d="M1067.1,1074.8c5.7,38.9,27.5,118.3,28.9,123.1l-11.1,1.7c-0.6-1.7-40.5-99.4-45.7-119
		C1048.3,1081.8,1058.3,1078.1,1067.1,1074.8z"/>
	<path style="fill:#000543;" d="M1063.5,974.1c0.3,1.7,0.6,3.3,0.9,4.6c1.5,5.7,3.2,11.3,3.7,17.2c0.7,7.5-0.6,15.1-0.1,22.6
		c0.5,7.3,2.5,14.3,3.8,21.5c2.1,11.3,2.6,23.6,2.7,30.6c0.1,3.6-2.1,6.9-5.3,8.2c-41.3,16.6-77.9,5.1-90.8-0.1
		c-3-1.2-5.2-4.2-5.5-7.6l-0.4-3.7c-0.5-4.4-1.5-8.8-2.1-13.3c-1.5-11.6,0-23.3-1.4-34.9c-1-8.3-3.6-16.4-4.3-24.7
		c-0.6-6.9,0.2-13.7,0.9-20.5H1063.5z"/>
	<g>
		<path style="fill:#452A51;" d="M980.3,1199.7l3.9-1.3c15.3,6.9,25.1,2.5,30.2-1.7l3,10.2c0.3,0.9-0.8,1.8-2.3,1.8l-31.1,0.3
			C975.8,1209.1,973,1202.2,980.3,1199.7z"/>
		<path style="fill:#FF9985;" d="M984.1,1198.4l25.1-8.5c1.4-0.5,3.2,0,3.5,1l1.7,5.8C1009.2,1200.9,999.4,1205.3,984.1,1198.4z"/>
	</g>
	<g>
		<path style="fill:#452A51;" d="M1062,1199.4l3.9-1.3c15.3,6.9,25.1,2.5,30.2-1.7l3,10.2c0.3,0.9-0.8,1.8-2.3,1.8l-31.1,0.3
			C1057.5,1208.8,1054.7,1201.9,1062,1199.4z"/>
		<path style="fill:#FF9985;" d="M1065.9,1198.1l25.1-8.5c1.4-0.5,3.2,0,3.5,1l1.7,5.8C1090.9,1200.6,1081.1,1205,1065.9,1198.1z"/>
	</g>
	<path style="fill:#FFE5D4;" d="M977.1,913.3c2.6-14,4.7-14.9,4.2-26.1c-0.5-10.2-2.1-32,0.9-39.9c0.8-1.9,1.7,3.7,2.8,2
		c4.1-6.2,9.3-11.7,15.4-16c20.3-14.6,34.7-9.8,47.3-2.7c21.7,10.5,18.6,42.5,18.6,42.5l-1.5-4.8c-3.5,13.7-11.1,26.4-12.8,40.3
		c-2.9,23.2,10.9,34.6,15.5,54.2c2.1,8.9,4.7,33-7.5,32.2c-12.5-0.9-28.2,9.9-46.8,5c-19.6-5.2-28.4-0.6-41.2-3.5
		c-4.5-1-8.1-5.7-7.8-9.9C966.2,952.5,973.6,928,977.1,913.3z"/>
	<g>
		<path style="fill:#FF9985;" d="M1033.9,834.5c-1.5,3.5-4.5,6.2-7.6,8.5c-3.2,2.4-6.7,4.5-10.6,5.4c-2.4,0.6-5,0.6-7.3-0.2
			c-2.3-0.9-4.3-2.7-4.9-5.1c-0.3-1.4-0.2-2.9,0.2-4.3c0.9-3.7,3.2-8.5,6.2-10.8c3-2.3,5.4-2.8,9-3.8c3.1-0.9,9.8-1,12.6,1
			C1034.7,827.4,1035.2,831.4,1033.9,834.5z"/>
	</g>
	<g>
		<path style="fill:#FF9985;" d="M1067.2,910.6l-15.8-27.8l20-7.1l9.1,24.3c1.8,4.8-0.4,9.6-4.9,10.6l-2.5,0.6
			C1069.1,912.2,1069.2,914.7,1067.2,910.6z"/>
		<g>
			<g>
				<g>
					<path style="fill:#FF9985;" d="M1079.2,981.3c-0.3,0.1-2.5,1.2-3.8-1c-1.9-3.1-2.4-9.5-3.3-15.1c-0.9-5.8-1.8-13.5-2.7-21.7
						c-1.1-9.4-2.1-19-3.4-27.2c-0.7-4.6,0.3-9.3,2.8-13.3c0.9-1.4,1.8-2.8,2.8-4.2c2.4-3.5,7.8-2.7,8.9,1.4
						c5.1,18.7,3.3,67.5,2.2,79.5C1082,987.8,1079.9,981.2,1079.2,981.3z"/>
				</g>
			</g>
		</g>
		<g>
			<g>
				<g>
					<path style="fill:#FF9985;" d="M1061.6,988.2c0.7,0.8,1.8,0.9,2.6,0.4l6.9-5.1c0.8-0.6,0.8-1.7,0.2-2.4
						c-0.7-0.8-1.8-0.9-2.6-0.4l-6.9,5.1C1061,986.3,1060.9,987.4,1061.6,988.2z"/>
				</g>
			</g>
			<g>
				<path style="fill:#FF9985;" d="M1083.3,991.9c-0.6,1.2-1.4,2.4-2.5,2.9c-0.8,0.4-1.7,0.3-2.6,0.2c-2.3-0.3-4.5-0.9-6.7-1.9
					c-2-0.9-4.2-2.4-4.7-5.2c-0.5-2.7,0.4-5.2,1.8-7.1c2.7-3.5,3.7-4.7,7.5-5.7c4.6-1.2,8.3,0.7,8.2,7.2
					C1084.2,985.9,1084.7,989.2,1083.3,991.9z"/>
			</g>
			<g>
				<g>
					<path style="fill:#FF9985;" d="M1069.9,988.3l0,12.8c0,0.9-0.7,1.5-1.7,1.4c-0.9-0.1-1.7-0.9-1.7-1.8l0-12.8
						c0-0.9,0.7-1.5,1.7-1.4C1069.2,986.6,1069.9,987.4,1069.9,988.3z"/>
				</g>
			</g>
			<g>
				<g>
					<path style="fill:#FF9985;" d="M1074.4,990.2l0,12.8c0,0.9-0.7,1.5-1.7,1.4c-0.9-0.1-1.7-0.9-1.7-1.8l0-12.8
						c0-0.9,0.7-1.5,1.7-1.4C1073.7,988.5,1074.4,989.3,1074.4,990.2z"/>
				</g>
			</g>
			<g>
				<g>
					<path style="fill:#FF9985;" d="M1078.9,989l0,12.8c0,0.9-0.7,1.5-1.7,1.4c-0.9-0.1-1.7-0.9-1.7-1.8l0-12.8
						c0-0.9,0.7-1.5,1.7-1.4C1078.2,987.4,1078.9,988.2,1078.9,989z"/>
				</g>
			</g>
			<g>
				<g>
					<path style="fill:#FF9985;" d="M1083.3,986.3l0,12.8c0,0.9-0.7,1.5-1.7,1.4c-0.9-0.1-1.7-0.9-1.7-1.8l0-12.8
						c0-0.9,0.7-1.5,1.7-1.4C1082.6,984.6,1083.3,985.5,1083.3,986.3z"/>
				</g>
			</g>
		</g>
	</g>
	<path style="fill:#FFE5D4;" d="M1062.1,845.3l15.7,35.2c1.4,3.1-0.1,6.7-3.3,7.8l-18.2,6.8c-2.9,1.1-6.1-0.3-7.4-3.1
		c-4.6-10.3-14.1-30.9-14.1-30.9L1062.1,845.3z"/>
	<g>
		<path style="fill:#F9C3A5;" d="M1054.8,896.2c-1.3,0-2.5-0.7-3.1-1.9l-15.4-29.2c-0.2-0.3,0-0.7,0.3-0.8c0.3-0.2,0.7,0,0.8,0.3
			l15.4,29.2c0.6,1,1.8,1.5,2.9,1l5.6-2.4c0.3-0.1,0.7,0,0.8,0.3c0.1,0.3,0,0.7-0.3,0.8l-5.6,2.4
			C1055.8,896.1,1055.3,896.2,1054.8,896.2z"/>
	</g>
	<path style="fill:#943437;" d="M978.2,746.7c-2.6,17.8,13.6,35.8,32.8,35.4c19.1-0.5,34.3-15.4,33.9-33.4
		c-0.4-18,6.9-25.7-11.1-32.1C1002.4,705.4,981.2,726.8,978.2,746.7z"/>
	<g>
		<g>
			<g>
				<g>
					<g>
						<path style="fill:#FF9985;" d="M1028.2,751.6c6.5,6.9,12-3.8,11.4,7.4l-0.8,15.4c-1,19.3-14.2,31.1-30.3,30
							c-16.1-1.1-29.2-14.6-28.2-33.9l1-18.2c0.5-9.2,5.5-15.8,13.1-17.1c3.6-0.6,7.3,0.4,10.4,2.3L1028.2,751.6z"/>
					</g>
				</g>
			</g>
			<path style="fill:#943437;" d="M1040.3,719.3c0,0,8.7,5.4,12.9,16c4.1,10.4,2.9,22.6-2.3,32.5c0,0-10,15.7-14.2,23.4
				c-0.6,1.1-6.5,6.6-6.1,5.4c12.9-36.4-13.1-28.5-2.5-51.4L1040.3,719.3z"/>
			<g>
				<g>
					<path style="fill:#FF9985;" d="M1033.1,760.1c-5-0.3-9.3,4.6-9.6,11.1c-0.3,6.4,3.4,11.9,8.4,12.3c5,0.3,9.3-4.6,9.6-11.1
						C1041.8,766,1038.1,760.5,1033.1,760.1z"/>
				</g>
			</g>
			<path style="fill:#FF9985;" d="M1017.1,775.5l14.4,1c2,0.1,3.5,2.8,3.3,5.8l-2.3,41.5c-0.5,8.6-5.6,12.7-11.6,12.4
				c-5.9-0.3-10.5-4.9-10-13.4l2.4-42C1013.4,777.7,1015.1,775.3,1017.1,775.5z"/>
		</g>
		<g>
			<path style="fill:#943437;" d="M980.9,750.5l7,0.3c1,0,1.8,0.9,1.8,2c0,1-0.9,1.8-2,1.8l-7-0.3c-1,0-1.8-0.9-1.8-2
				C979,751.2,979.8,750.4,980.9,750.5z"/>
		</g>
		<g>
			<path style="fill:#943437;" d="M1010.2,751.9l7,0.3c1,0,1.8,0.9,1.8,2c0,1-0.9,1.8-2,1.8l-7-0.3c-1,0-1.8-0.9-1.8-2
				C1008.3,752.6,1009.2,751.8,1010.2,751.9z"/>
		</g>
		<g>
			<path style="fill:#FA694F;" d="M993.4,772.1l0.2-0.5c0.1,1.1,0.8,2.2,2,2.6l2.9,1c1,0.3,1.9-0.1,2.5-0.8l0,0.3
				c0.3,1.7-1.4,3.1-3,2.6l-2.9-1C993.5,775.7,992.6,773.7,993.4,772.1z"/>
		</g>
		<g>
			<path style="fill:#FFFFFF;" d="M1005.5,784.2c-0.5,1.6-1.9,3.4-6.2,3.4c-4.3-0.6-5.4-2.6-5.7-4.2L1005.5,784.2z"/>
		</g>
		<g>
			<path style="fill:#000544;" d="M981.3,759.1l3,0.5c0.1,0.1,0.2,0,0.4,0c1.1,0,1.9,1.4,1.8,3.1c-0.1,1.7-1,3-2.1,2.9
				c-1.1-0.1-1.9-1.4-1.8-3.1c0-0.5,0.1-1,0.3-1.4L981.3,759.1z"/>
		</g>
		<g>
			<path style="fill:#000544;" d="M1012,761.1c-0.2,0-3.2-0.3-3.2-0.3l1.5,1.7c-0.2,0.4-0.4,0.9-0.4,1.5c-0.1,1.7,0.7,3,1.8,3.1
				c1.1,0.1,2-1.2,2.1-2.9C1013.9,762.5,1013.1,761.1,1012,761.1z"/>
		</g>
	</g>
	<circle style="fill:#943437;" cx="1049.2" cy="722.1" r="16.1"/>
</g>
</svg>
